G04 #@! TF.GenerationSoftware,KiCad,Pcbnew,(5.1.9)-1*
G04 #@! TF.CreationDate,2021-05-12T11:04:24-07:00*
G04 #@! TF.ProjectId,Watchy,57617463-6879-42e6-9b69-6361645f7063,rev?*
G04 #@! TF.SameCoordinates,Original*
G04 #@! TF.FileFunction,Soldermask,Top*
G04 #@! TF.FilePolarity,Negative*
%FSLAX46Y46*%
G04 Gerber Fmt 4.6, Leading zero omitted, Abs format (unit mm)*
G04 Created by KiCad (PCBNEW (5.1.9)-1) date 2021-05-12 11:04:24*
%MOMM*%
%LPD*%
G01*
G04 APERTURE LIST*
%ADD10O,1.350000X1.650000*%
%ADD11O,1.950000X1.400000*%
%ADD12C,1.200000*%
%ADD13O,1.250000X1.250000*%
%ADD14O,1.750000X1.900000*%
G04 APERTURE END LIST*
G36*
G01*
X78168000Y-95444000D02*
X77468000Y-95444000D01*
G75*
G02*
X77143000Y-95119000I0J325000D01*
G01*
X77143000Y-94469000D01*
G75*
G02*
X77468000Y-94144000I325000J0D01*
G01*
X78168000Y-94144000D01*
G75*
G02*
X78493000Y-94469000I0J-325000D01*
G01*
X78493000Y-95119000D01*
G75*
G02*
X78168000Y-95444000I-325000J0D01*
G01*
G37*
G36*
G01*
X78168000Y-96994000D02*
X77468000Y-96994000D01*
G75*
G02*
X77143000Y-96669000I0J325000D01*
G01*
X77143000Y-96019000D01*
G75*
G02*
X77468000Y-95694000I325000J0D01*
G01*
X78168000Y-95694000D01*
G75*
G02*
X78493000Y-96019000I0J-325000D01*
G01*
X78493000Y-96669000D01*
G75*
G02*
X78168000Y-96994000I-325000J0D01*
G01*
G37*
G36*
G01*
X82060000Y-79731000D02*
X82060000Y-79031000D01*
G75*
G02*
X82385000Y-78706000I325000J0D01*
G01*
X83035000Y-78706000D01*
G75*
G02*
X83360000Y-79031000I0J-325000D01*
G01*
X83360000Y-79731000D01*
G75*
G02*
X83035000Y-80056000I-325000J0D01*
G01*
X82385000Y-80056000D01*
G75*
G02*
X82060000Y-79731000I0J325000D01*
G01*
G37*
G36*
G01*
X80510000Y-79731000D02*
X80510000Y-79031000D01*
G75*
G02*
X80835000Y-78706000I325000J0D01*
G01*
X81485000Y-78706000D01*
G75*
G02*
X81810000Y-79031000I0J-325000D01*
G01*
X81810000Y-79731000D01*
G75*
G02*
X81485000Y-80056000I-325000J0D01*
G01*
X80835000Y-80056000D01*
G75*
G02*
X80510000Y-79731000I0J325000D01*
G01*
G37*
G36*
G01*
X92442000Y-100560000D02*
X91292000Y-100560000D01*
G75*
G02*
X90942000Y-100210000I0J350000D01*
G01*
X90942000Y-99510000D01*
G75*
G02*
X91292000Y-99160000I350000J0D01*
G01*
X92442000Y-99160000D01*
G75*
G02*
X92792000Y-99510000I0J-350000D01*
G01*
X92792000Y-100210000D01*
G75*
G02*
X92442000Y-100560000I-350000J0D01*
G01*
G37*
G36*
G01*
X92442000Y-102460000D02*
X91292000Y-102460000D01*
G75*
G02*
X90942000Y-102110000I0J350000D01*
G01*
X90942000Y-101410000D01*
G75*
G02*
X91292000Y-101060000I350000J0D01*
G01*
X92442000Y-101060000D01*
G75*
G02*
X92792000Y-101410000I0J-350000D01*
G01*
X92792000Y-102110000D01*
G75*
G02*
X92442000Y-102460000I-350000J0D01*
G01*
G37*
G36*
G01*
X94009000Y-100904000D02*
X93309000Y-100904000D01*
G75*
G02*
X92984000Y-100579000I0J325000D01*
G01*
X92984000Y-99929000D01*
G75*
G02*
X93309000Y-99604000I325000J0D01*
G01*
X94009000Y-99604000D01*
G75*
G02*
X94334000Y-99929000I0J-325000D01*
G01*
X94334000Y-100579000D01*
G75*
G02*
X94009000Y-100904000I-325000J0D01*
G01*
G37*
G36*
G01*
X94009000Y-102454000D02*
X93309000Y-102454000D01*
G75*
G02*
X92984000Y-102129000I0J325000D01*
G01*
X92984000Y-101479000D01*
G75*
G02*
X93309000Y-101154000I325000J0D01*
G01*
X94009000Y-101154000D01*
G75*
G02*
X94334000Y-101479000I0J-325000D01*
G01*
X94334000Y-102129000D01*
G75*
G02*
X94009000Y-102454000I-325000J0D01*
G01*
G37*
G36*
G01*
X90200000Y-104175000D02*
X91300000Y-104175000D01*
G75*
G02*
X91500000Y-104375000I0J-200000D01*
G01*
X91500000Y-105425000D01*
G75*
G02*
X91300000Y-105625000I-200000J0D01*
G01*
X90200000Y-105625000D01*
G75*
G02*
X90000000Y-105425000I0J200000D01*
G01*
X90000000Y-104375000D01*
G75*
G02*
X90200000Y-104175000I200000J0D01*
G01*
G37*
G36*
G01*
X91175000Y-105625000D02*
X93425000Y-105625000D01*
G75*
G02*
X93625000Y-105825000I0J-200000D01*
G01*
X93625000Y-106925000D01*
G75*
G02*
X93425000Y-107125000I-200000J0D01*
G01*
X91175000Y-107125000D01*
G75*
G02*
X90975000Y-106925000I0J200000D01*
G01*
X90975000Y-105825000D01*
G75*
G02*
X91175000Y-105625000I200000J0D01*
G01*
G37*
G36*
G01*
X91175000Y-102675000D02*
X93425000Y-102675000D01*
G75*
G02*
X93625000Y-102875000I0J-200000D01*
G01*
X93625000Y-103975000D01*
G75*
G02*
X93425000Y-104175000I-200000J0D01*
G01*
X91175000Y-104175000D01*
G75*
G02*
X90975000Y-103975000I0J200000D01*
G01*
X90975000Y-102875000D01*
G75*
G02*
X91175000Y-102675000I200000J0D01*
G01*
G37*
G36*
G01*
X71850000Y-98030000D02*
X71850000Y-97580000D01*
G75*
G02*
X72075000Y-97355000I225000J0D01*
G01*
X72800000Y-97355000D01*
G75*
G02*
X73025000Y-97580000I0J-225000D01*
G01*
X73025000Y-98030000D01*
G75*
G02*
X72800000Y-98255000I-225000J0D01*
G01*
X72075000Y-98255000D01*
G75*
G02*
X71850000Y-98030000I0J225000D01*
G01*
G37*
G36*
G01*
X71850000Y-99300000D02*
X71850000Y-98850000D01*
G75*
G02*
X72075000Y-98625000I225000J0D01*
G01*
X72800000Y-98625000D01*
G75*
G02*
X73025000Y-98850000I0J-225000D01*
G01*
X73025000Y-99300000D01*
G75*
G02*
X72800000Y-99525000I-225000J0D01*
G01*
X72075000Y-99525000D01*
G75*
G02*
X71850000Y-99300000I0J225000D01*
G01*
G37*
G36*
G01*
X71850000Y-100570000D02*
X71850000Y-100120000D01*
G75*
G02*
X72075000Y-99895000I225000J0D01*
G01*
X72800000Y-99895000D01*
G75*
G02*
X73025000Y-100120000I0J-225000D01*
G01*
X73025000Y-100570000D01*
G75*
G02*
X72800000Y-100795000I-225000J0D01*
G01*
X72075000Y-100795000D01*
G75*
G02*
X71850000Y-100570000I0J225000D01*
G01*
G37*
G36*
G01*
X71850000Y-101840000D02*
X71850000Y-101390000D01*
G75*
G02*
X72075000Y-101165000I225000J0D01*
G01*
X72800000Y-101165000D01*
G75*
G02*
X73025000Y-101390000I0J-225000D01*
G01*
X73025000Y-101840000D01*
G75*
G02*
X72800000Y-102065000I-225000J0D01*
G01*
X72075000Y-102065000D01*
G75*
G02*
X71850000Y-101840000I0J225000D01*
G01*
G37*
G36*
G01*
X77175000Y-101840000D02*
X77175000Y-101390000D01*
G75*
G02*
X77400000Y-101165000I225000J0D01*
G01*
X78125000Y-101165000D01*
G75*
G02*
X78350000Y-101390000I0J-225000D01*
G01*
X78350000Y-101840000D01*
G75*
G02*
X78125000Y-102065000I-225000J0D01*
G01*
X77400000Y-102065000D01*
G75*
G02*
X77175000Y-101840000I0J225000D01*
G01*
G37*
G36*
G01*
X77175000Y-100570000D02*
X77175000Y-100120000D01*
G75*
G02*
X77400000Y-99895000I225000J0D01*
G01*
X78125000Y-99895000D01*
G75*
G02*
X78350000Y-100120000I0J-225000D01*
G01*
X78350000Y-100570000D01*
G75*
G02*
X78125000Y-100795000I-225000J0D01*
G01*
X77400000Y-100795000D01*
G75*
G02*
X77175000Y-100570000I0J225000D01*
G01*
G37*
G36*
G01*
X77175000Y-99300000D02*
X77175000Y-98850000D01*
G75*
G02*
X77400000Y-98625000I225000J0D01*
G01*
X78125000Y-98625000D01*
G75*
G02*
X78350000Y-98850000I0J-225000D01*
G01*
X78350000Y-99300000D01*
G75*
G02*
X78125000Y-99525000I-225000J0D01*
G01*
X77400000Y-99525000D01*
G75*
G02*
X77175000Y-99300000I0J225000D01*
G01*
G37*
G36*
G01*
X77175000Y-98030000D02*
X77175000Y-97580000D01*
G75*
G02*
X77400000Y-97355000I225000J0D01*
G01*
X78125000Y-97355000D01*
G75*
G02*
X78350000Y-97580000I0J-225000D01*
G01*
X78350000Y-98030000D01*
G75*
G02*
X78125000Y-98255000I-225000J0D01*
G01*
X77400000Y-98255000D01*
G75*
G02*
X77175000Y-98030000I0J225000D01*
G01*
G37*
G36*
G01*
X73200000Y-101710000D02*
X73200000Y-97710000D01*
G75*
G02*
X73400000Y-97510000I200000J0D01*
G01*
X76800000Y-97510000D01*
G75*
G02*
X77000000Y-97710000I0J-200000D01*
G01*
X77000000Y-101710000D01*
G75*
G02*
X76800000Y-101910000I-200000J0D01*
G01*
X73400000Y-101910000D01*
G75*
G02*
X73200000Y-101710000I0J200000D01*
G01*
G37*
G36*
G01*
X80950000Y-97810000D02*
X79150000Y-97810000D01*
G75*
G02*
X78950000Y-97610000I0J200000D01*
G01*
X78950000Y-96810000D01*
G75*
G02*
X79150000Y-96610000I200000J0D01*
G01*
X80950000Y-96610000D01*
G75*
G02*
X81150000Y-96810000I0J-200000D01*
G01*
X81150000Y-97610000D01*
G75*
G02*
X80950000Y-97810000I-200000J0D01*
G01*
G37*
G36*
G01*
X80950000Y-98910000D02*
X79150000Y-98910000D01*
G75*
G02*
X78950000Y-98710000I0J200000D01*
G01*
X78950000Y-97910000D01*
G75*
G02*
X79150000Y-97710000I200000J0D01*
G01*
X80950000Y-97710000D01*
G75*
G02*
X81150000Y-97910000I0J-200000D01*
G01*
X81150000Y-98710000D01*
G75*
G02*
X80950000Y-98910000I-200000J0D01*
G01*
G37*
G36*
G01*
X80950000Y-100010000D02*
X79150000Y-100010000D01*
G75*
G02*
X78950000Y-99810000I0J200000D01*
G01*
X78950000Y-99010000D01*
G75*
G02*
X79150000Y-98810000I200000J0D01*
G01*
X80950000Y-98810000D01*
G75*
G02*
X81150000Y-99010000I0J-200000D01*
G01*
X81150000Y-99810000D01*
G75*
G02*
X80950000Y-100010000I-200000J0D01*
G01*
G37*
G36*
G01*
X80950000Y-101110000D02*
X79150000Y-101110000D01*
G75*
G02*
X78950000Y-100910000I0J200000D01*
G01*
X78950000Y-100110000D01*
G75*
G02*
X79150000Y-99910000I200000J0D01*
G01*
X80950000Y-99910000D01*
G75*
G02*
X81150000Y-100110000I0J-200000D01*
G01*
X81150000Y-100910000D01*
G75*
G02*
X80950000Y-101110000I-200000J0D01*
G01*
G37*
G36*
G01*
X80950000Y-102210000D02*
X79150000Y-102210000D01*
G75*
G02*
X78950000Y-102010000I0J200000D01*
G01*
X78950000Y-101210000D01*
G75*
G02*
X79150000Y-101010000I200000J0D01*
G01*
X80950000Y-101010000D01*
G75*
G02*
X81150000Y-101210000I0J-200000D01*
G01*
X81150000Y-102010000D01*
G75*
G02*
X80950000Y-102210000I-200000J0D01*
G01*
G37*
G36*
G01*
X80950000Y-103310000D02*
X79150000Y-103310000D01*
G75*
G02*
X78950000Y-103110000I0J200000D01*
G01*
X78950000Y-102310000D01*
G75*
G02*
X79150000Y-102110000I200000J0D01*
G01*
X80950000Y-102110000D01*
G75*
G02*
X81150000Y-102310000I0J-200000D01*
G01*
X81150000Y-103110000D01*
G75*
G02*
X80950000Y-103310000I-200000J0D01*
G01*
G37*
G36*
G01*
X80950000Y-104410000D02*
X79150000Y-104410000D01*
G75*
G02*
X78950000Y-104210000I0J200000D01*
G01*
X78950000Y-103410000D01*
G75*
G02*
X79150000Y-103210000I200000J0D01*
G01*
X80950000Y-103210000D01*
G75*
G02*
X81150000Y-103410000I0J-200000D01*
G01*
X81150000Y-104210000D01*
G75*
G02*
X80950000Y-104410000I-200000J0D01*
G01*
G37*
G36*
G01*
X80950000Y-105510000D02*
X79150000Y-105510000D01*
G75*
G02*
X78950000Y-105310000I0J200000D01*
G01*
X78950000Y-104510000D01*
G75*
G02*
X79150000Y-104310000I200000J0D01*
G01*
X80950000Y-104310000D01*
G75*
G02*
X81150000Y-104510000I0J-200000D01*
G01*
X81150000Y-105310000D01*
G75*
G02*
X80950000Y-105510000I-200000J0D01*
G01*
G37*
G36*
G01*
X80950000Y-106610000D02*
X79150000Y-106610000D01*
G75*
G02*
X78950000Y-106410000I0J200000D01*
G01*
X78950000Y-105610000D01*
G75*
G02*
X79150000Y-105410000I200000J0D01*
G01*
X80950000Y-105410000D01*
G75*
G02*
X81150000Y-105610000I0J-200000D01*
G01*
X81150000Y-106410000D01*
G75*
G02*
X80950000Y-106610000I-200000J0D01*
G01*
G37*
G36*
G01*
X90650000Y-106610000D02*
X88850000Y-106610000D01*
G75*
G02*
X88650000Y-106410000I0J200000D01*
G01*
X88650000Y-105610000D01*
G75*
G02*
X88850000Y-105410000I200000J0D01*
G01*
X90650000Y-105410000D01*
G75*
G02*
X90850000Y-105610000I0J-200000D01*
G01*
X90850000Y-106410000D01*
G75*
G02*
X90650000Y-106610000I-200000J0D01*
G01*
G37*
G36*
G01*
X90650000Y-105510000D02*
X88850000Y-105510000D01*
G75*
G02*
X88650000Y-105310000I0J200000D01*
G01*
X88650000Y-104510000D01*
G75*
G02*
X88850000Y-104310000I200000J0D01*
G01*
X90650000Y-104310000D01*
G75*
G02*
X90850000Y-104510000I0J-200000D01*
G01*
X90850000Y-105310000D01*
G75*
G02*
X90650000Y-105510000I-200000J0D01*
G01*
G37*
G36*
G01*
X90650000Y-104410000D02*
X88850000Y-104410000D01*
G75*
G02*
X88650000Y-104210000I0J200000D01*
G01*
X88650000Y-103410000D01*
G75*
G02*
X88850000Y-103210000I200000J0D01*
G01*
X90650000Y-103210000D01*
G75*
G02*
X90850000Y-103410000I0J-200000D01*
G01*
X90850000Y-104210000D01*
G75*
G02*
X90650000Y-104410000I-200000J0D01*
G01*
G37*
G36*
G01*
X90650000Y-103310000D02*
X88850000Y-103310000D01*
G75*
G02*
X88650000Y-103110000I0J200000D01*
G01*
X88650000Y-102310000D01*
G75*
G02*
X88850000Y-102110000I200000J0D01*
G01*
X90650000Y-102110000D01*
G75*
G02*
X90850000Y-102310000I0J-200000D01*
G01*
X90850000Y-103110000D01*
G75*
G02*
X90650000Y-103310000I-200000J0D01*
G01*
G37*
G36*
G01*
X90650000Y-102210000D02*
X88850000Y-102210000D01*
G75*
G02*
X88650000Y-102010000I0J200000D01*
G01*
X88650000Y-101210000D01*
G75*
G02*
X88850000Y-101010000I200000J0D01*
G01*
X90650000Y-101010000D01*
G75*
G02*
X90850000Y-101210000I0J-200000D01*
G01*
X90850000Y-102010000D01*
G75*
G02*
X90650000Y-102210000I-200000J0D01*
G01*
G37*
G36*
G01*
X90650000Y-101110000D02*
X88850000Y-101110000D01*
G75*
G02*
X88650000Y-100910000I0J200000D01*
G01*
X88650000Y-100110000D01*
G75*
G02*
X88850000Y-99910000I200000J0D01*
G01*
X90650000Y-99910000D01*
G75*
G02*
X90850000Y-100110000I0J-200000D01*
G01*
X90850000Y-100910000D01*
G75*
G02*
X90650000Y-101110000I-200000J0D01*
G01*
G37*
G36*
G01*
X90650000Y-100010000D02*
X88850000Y-100010000D01*
G75*
G02*
X88650000Y-99810000I0J200000D01*
G01*
X88650000Y-99010000D01*
G75*
G02*
X88850000Y-98810000I200000J0D01*
G01*
X90650000Y-98810000D01*
G75*
G02*
X90850000Y-99010000I0J-200000D01*
G01*
X90850000Y-99810000D01*
G75*
G02*
X90650000Y-100010000I-200000J0D01*
G01*
G37*
G36*
G01*
X90650000Y-98910000D02*
X88850000Y-98910000D01*
G75*
G02*
X88650000Y-98710000I0J200000D01*
G01*
X88650000Y-97910000D01*
G75*
G02*
X88850000Y-97710000I200000J0D01*
G01*
X90650000Y-97710000D01*
G75*
G02*
X90850000Y-97910000I0J-200000D01*
G01*
X90850000Y-98710000D01*
G75*
G02*
X90650000Y-98910000I-200000J0D01*
G01*
G37*
G36*
G01*
X90650000Y-97810000D02*
X88850000Y-97810000D01*
G75*
G02*
X88650000Y-97610000I0J200000D01*
G01*
X88650000Y-96810000D01*
G75*
G02*
X88850000Y-96610000I200000J0D01*
G01*
X90650000Y-96610000D01*
G75*
G02*
X90850000Y-96810000I0J-200000D01*
G01*
X90850000Y-97610000D01*
G75*
G02*
X90650000Y-97810000I-200000J0D01*
G01*
G37*
D10*
X98350000Y-91180000D03*
X98350000Y-96180000D03*
D11*
X101050000Y-90180000D03*
X101050000Y-97180000D03*
G36*
G01*
X99225000Y-94780000D02*
X99225000Y-95180000D01*
G75*
G02*
X99025000Y-95380000I-200000J0D01*
G01*
X97675000Y-95380000D01*
G75*
G02*
X97475000Y-95180000I0J200000D01*
G01*
X97475000Y-94780000D01*
G75*
G02*
X97675000Y-94580000I200000J0D01*
G01*
X99025000Y-94580000D01*
G75*
G02*
X99225000Y-94780000I0J-200000D01*
G01*
G37*
G36*
G01*
X99225000Y-94130000D02*
X99225000Y-94530000D01*
G75*
G02*
X99025000Y-94730000I-200000J0D01*
G01*
X97675000Y-94730000D01*
G75*
G02*
X97475000Y-94530000I0J200000D01*
G01*
X97475000Y-94130000D01*
G75*
G02*
X97675000Y-93930000I200000J0D01*
G01*
X99025000Y-93930000D01*
G75*
G02*
X99225000Y-94130000I0J-200000D01*
G01*
G37*
G36*
G01*
X99225000Y-93480000D02*
X99225000Y-93880000D01*
G75*
G02*
X99025000Y-94080000I-200000J0D01*
G01*
X97675000Y-94080000D01*
G75*
G02*
X97475000Y-93880000I0J200000D01*
G01*
X97475000Y-93480000D01*
G75*
G02*
X97675000Y-93280000I200000J0D01*
G01*
X99025000Y-93280000D01*
G75*
G02*
X99225000Y-93480000I0J-200000D01*
G01*
G37*
G36*
G01*
X99225000Y-92830000D02*
X99225000Y-93230000D01*
G75*
G02*
X99025000Y-93430000I-200000J0D01*
G01*
X97675000Y-93430000D01*
G75*
G02*
X97475000Y-93230000I0J200000D01*
G01*
X97475000Y-92830000D01*
G75*
G02*
X97675000Y-92630000I200000J0D01*
G01*
X99025000Y-92630000D01*
G75*
G02*
X99225000Y-92830000I0J-200000D01*
G01*
G37*
G36*
G01*
X99225000Y-92180000D02*
X99225000Y-92580000D01*
G75*
G02*
X99025000Y-92780000I-200000J0D01*
G01*
X97675000Y-92780000D01*
G75*
G02*
X97475000Y-92580000I0J200000D01*
G01*
X97475000Y-92180000D01*
G75*
G02*
X97675000Y-91980000I200000J0D01*
G01*
X99025000Y-91980000D01*
G75*
G02*
X99225000Y-92180000I0J-200000D01*
G01*
G37*
D10*
X98350000Y-96180000D03*
X98350000Y-91180000D03*
D11*
X101050000Y-97180000D03*
X101050000Y-90180000D03*
D12*
X71730000Y-79930000D03*
X74330000Y-79930000D03*
X71730000Y-106330000D03*
X74330000Y-106330000D03*
X71730000Y-93130000D03*
X74330000Y-93130000D03*
X101970000Y-79930000D03*
X99370000Y-79930000D03*
D13*
X80300000Y-111110000D03*
X79300000Y-111110000D03*
X78300000Y-111110000D03*
G36*
G01*
X77725000Y-111735000D02*
X76875000Y-111735000D01*
G75*
G02*
X76675000Y-111535000I0J200000D01*
G01*
X76675000Y-110685000D01*
G75*
G02*
X76875000Y-110485000I200000J0D01*
G01*
X77725000Y-110485000D01*
G75*
G02*
X77925000Y-110685000I0J-200000D01*
G01*
X77925000Y-111535000D01*
G75*
G02*
X77725000Y-111735000I-200000J0D01*
G01*
G37*
G36*
G01*
X76165000Y-83470000D02*
X76735000Y-83470000D01*
G75*
G02*
X76970000Y-83705000I0J-235000D01*
G01*
X76970000Y-84175000D01*
G75*
G02*
X76735000Y-84410000I-235000J0D01*
G01*
X76165000Y-84410000D01*
G75*
G02*
X75930000Y-84175000I0J235000D01*
G01*
X75930000Y-83705000D01*
G75*
G02*
X76165000Y-83470000I235000J0D01*
G01*
G37*
G36*
G01*
X76165000Y-82450000D02*
X76735000Y-82450000D01*
G75*
G02*
X76970000Y-82685000I0J-235000D01*
G01*
X76970000Y-83155000D01*
G75*
G02*
X76735000Y-83390000I-235000J0D01*
G01*
X76165000Y-83390000D01*
G75*
G02*
X75930000Y-83155000I0J235000D01*
G01*
X75930000Y-82685000D01*
G75*
G02*
X76165000Y-82450000I235000J0D01*
G01*
G37*
G36*
G01*
X101655000Y-87870000D02*
X102225000Y-87870000D01*
G75*
G02*
X102460000Y-88105000I0J-235000D01*
G01*
X102460000Y-88575000D01*
G75*
G02*
X102225000Y-88810000I-235000J0D01*
G01*
X101655000Y-88810000D01*
G75*
G02*
X101420000Y-88575000I0J235000D01*
G01*
X101420000Y-88105000D01*
G75*
G02*
X101655000Y-87870000I235000J0D01*
G01*
G37*
G36*
G01*
X101655000Y-86850000D02*
X102225000Y-86850000D01*
G75*
G02*
X102460000Y-87085000I0J-235000D01*
G01*
X102460000Y-87555000D01*
G75*
G02*
X102225000Y-87790000I-235000J0D01*
G01*
X101655000Y-87790000D01*
G75*
G02*
X101420000Y-87555000I0J235000D01*
G01*
X101420000Y-87085000D01*
G75*
G02*
X101655000Y-86850000I235000J0D01*
G01*
G37*
G36*
G01*
X97790000Y-103325000D02*
X97790000Y-102755000D01*
G75*
G02*
X98025000Y-102520000I235000J0D01*
G01*
X98495000Y-102520000D01*
G75*
G02*
X98730000Y-102755000I0J-235000D01*
G01*
X98730000Y-103325000D01*
G75*
G02*
X98495000Y-103560000I-235000J0D01*
G01*
X98025000Y-103560000D01*
G75*
G02*
X97790000Y-103325000I0J235000D01*
G01*
G37*
G36*
G01*
X96770000Y-103325000D02*
X96770000Y-102755000D01*
G75*
G02*
X97005000Y-102520000I235000J0D01*
G01*
X97475000Y-102520000D01*
G75*
G02*
X97710000Y-102755000I0J-235000D01*
G01*
X97710000Y-103325000D01*
G75*
G02*
X97475000Y-103560000I-235000J0D01*
G01*
X97005000Y-103560000D01*
G75*
G02*
X96770000Y-103325000I0J235000D01*
G01*
G37*
G36*
G01*
X97980000Y-98425000D02*
X97980000Y-98995000D01*
G75*
G02*
X97745000Y-99230000I-235000J0D01*
G01*
X97275000Y-99230000D01*
G75*
G02*
X97040000Y-98995000I0J235000D01*
G01*
X97040000Y-98425000D01*
G75*
G02*
X97275000Y-98190000I235000J0D01*
G01*
X97745000Y-98190000D01*
G75*
G02*
X97980000Y-98425000I0J-235000D01*
G01*
G37*
G36*
G01*
X99000000Y-98425000D02*
X99000000Y-98995000D01*
G75*
G02*
X98765000Y-99230000I-235000J0D01*
G01*
X98295000Y-99230000D01*
G75*
G02*
X98060000Y-98995000I0J235000D01*
G01*
X98060000Y-98425000D01*
G75*
G02*
X98295000Y-98190000I235000J0D01*
G01*
X98765000Y-98190000D01*
G75*
G02*
X99000000Y-98425000I0J-235000D01*
G01*
G37*
G36*
G01*
X99785000Y-87790000D02*
X99215000Y-87790000D01*
G75*
G02*
X98980000Y-87555000I0J235000D01*
G01*
X98980000Y-87085000D01*
G75*
G02*
X99215000Y-86850000I235000J0D01*
G01*
X99785000Y-86850000D01*
G75*
G02*
X100020000Y-87085000I0J-235000D01*
G01*
X100020000Y-87555000D01*
G75*
G02*
X99785000Y-87790000I-235000J0D01*
G01*
G37*
G36*
G01*
X99785000Y-88810000D02*
X99215000Y-88810000D01*
G75*
G02*
X98980000Y-88575000I0J235000D01*
G01*
X98980000Y-88105000D01*
G75*
G02*
X99215000Y-87870000I235000J0D01*
G01*
X99785000Y-87870000D01*
G75*
G02*
X100020000Y-88105000I0J-235000D01*
G01*
X100020000Y-88575000D01*
G75*
G02*
X99785000Y-88810000I-235000J0D01*
G01*
G37*
G36*
G01*
X100685000Y-87790000D02*
X100115000Y-87790000D01*
G75*
G02*
X99880000Y-87555000I0J235000D01*
G01*
X99880000Y-87085000D01*
G75*
G02*
X100115000Y-86850000I235000J0D01*
G01*
X100685000Y-86850000D01*
G75*
G02*
X100920000Y-87085000I0J-235000D01*
G01*
X100920000Y-87555000D01*
G75*
G02*
X100685000Y-87790000I-235000J0D01*
G01*
G37*
G36*
G01*
X100685000Y-88810000D02*
X100115000Y-88810000D01*
G75*
G02*
X99880000Y-88575000I0J235000D01*
G01*
X99880000Y-88105000D01*
G75*
G02*
X100115000Y-87870000I235000J0D01*
G01*
X100685000Y-87870000D01*
G75*
G02*
X100920000Y-88105000I0J-235000D01*
G01*
X100920000Y-88575000D01*
G75*
G02*
X100685000Y-88810000I-235000J0D01*
G01*
G37*
G36*
G01*
X72740000Y-109595000D02*
X72740000Y-109025000D01*
G75*
G02*
X72975000Y-108790000I235000J0D01*
G01*
X73445000Y-108790000D01*
G75*
G02*
X73680000Y-109025000I0J-235000D01*
G01*
X73680000Y-109595000D01*
G75*
G02*
X73445000Y-109830000I-235000J0D01*
G01*
X72975000Y-109830000D01*
G75*
G02*
X72740000Y-109595000I0J235000D01*
G01*
G37*
G36*
G01*
X71720000Y-109595000D02*
X71720000Y-109025000D01*
G75*
G02*
X71955000Y-108790000I235000J0D01*
G01*
X72425000Y-108790000D01*
G75*
G02*
X72660000Y-109025000I0J-235000D01*
G01*
X72660000Y-109595000D01*
G75*
G02*
X72425000Y-109830000I-235000J0D01*
G01*
X71955000Y-109830000D01*
G75*
G02*
X71720000Y-109595000I0J235000D01*
G01*
G37*
G36*
G01*
X93895000Y-109340000D02*
X93325000Y-109340000D01*
G75*
G02*
X93090000Y-109105000I0J235000D01*
G01*
X93090000Y-108635000D01*
G75*
G02*
X93325000Y-108400000I235000J0D01*
G01*
X93895000Y-108400000D01*
G75*
G02*
X94130000Y-108635000I0J-235000D01*
G01*
X94130000Y-109105000D01*
G75*
G02*
X93895000Y-109340000I-235000J0D01*
G01*
G37*
G36*
G01*
X93895000Y-110360000D02*
X93325000Y-110360000D01*
G75*
G02*
X93090000Y-110125000I0J235000D01*
G01*
X93090000Y-109655000D01*
G75*
G02*
X93325000Y-109420000I235000J0D01*
G01*
X93895000Y-109420000D01*
G75*
G02*
X94130000Y-109655000I0J-235000D01*
G01*
X94130000Y-110125000D01*
G75*
G02*
X93895000Y-110360000I-235000J0D01*
G01*
G37*
G36*
G01*
X75940000Y-85295000D02*
X75940000Y-84725000D01*
G75*
G02*
X76175000Y-84490000I235000J0D01*
G01*
X76645000Y-84490000D01*
G75*
G02*
X76880000Y-84725000I0J-235000D01*
G01*
X76880000Y-85295000D01*
G75*
G02*
X76645000Y-85530000I-235000J0D01*
G01*
X76175000Y-85530000D01*
G75*
G02*
X75940000Y-85295000I0J235000D01*
G01*
G37*
G36*
G01*
X74920000Y-85295000D02*
X74920000Y-84725000D01*
G75*
G02*
X75155000Y-84490000I235000J0D01*
G01*
X75625000Y-84490000D01*
G75*
G02*
X75860000Y-84725000I0J-235000D01*
G01*
X75860000Y-85295000D01*
G75*
G02*
X75625000Y-85530000I-235000J0D01*
G01*
X75155000Y-85530000D01*
G75*
G02*
X74920000Y-85295000I0J235000D01*
G01*
G37*
G36*
G01*
X75105000Y-83470000D02*
X75675000Y-83470000D01*
G75*
G02*
X75910000Y-83705000I0J-235000D01*
G01*
X75910000Y-84175000D01*
G75*
G02*
X75675000Y-84410000I-235000J0D01*
G01*
X75105000Y-84410000D01*
G75*
G02*
X74870000Y-84175000I0J235000D01*
G01*
X74870000Y-83705000D01*
G75*
G02*
X75105000Y-83470000I235000J0D01*
G01*
G37*
G36*
G01*
X75105000Y-82450000D02*
X75675000Y-82450000D01*
G75*
G02*
X75910000Y-82685000I0J-235000D01*
G01*
X75910000Y-83155000D01*
G75*
G02*
X75675000Y-83390000I-235000J0D01*
G01*
X75105000Y-83390000D01*
G75*
G02*
X74870000Y-83155000I0J235000D01*
G01*
X74870000Y-82685000D01*
G75*
G02*
X75105000Y-82450000I235000J0D01*
G01*
G37*
G36*
G01*
X72725000Y-96650000D02*
X72725000Y-96080000D01*
G75*
G02*
X72960000Y-95845000I235000J0D01*
G01*
X73430000Y-95845000D01*
G75*
G02*
X73665000Y-96080000I0J-235000D01*
G01*
X73665000Y-96650000D01*
G75*
G02*
X73430000Y-96885000I-235000J0D01*
G01*
X72960000Y-96885000D01*
G75*
G02*
X72725000Y-96650000I0J235000D01*
G01*
G37*
G36*
G01*
X71705000Y-96650000D02*
X71705000Y-96080000D01*
G75*
G02*
X71940000Y-95845000I235000J0D01*
G01*
X72410000Y-95845000D01*
G75*
G02*
X72645000Y-96080000I0J-235000D01*
G01*
X72645000Y-96650000D01*
G75*
G02*
X72410000Y-96885000I-235000J0D01*
G01*
X71940000Y-96885000D01*
G75*
G02*
X71705000Y-96650000I0J235000D01*
G01*
G37*
G36*
G01*
X101060000Y-82525000D02*
X101060000Y-83095000D01*
G75*
G02*
X100825000Y-83330000I-235000J0D01*
G01*
X100355000Y-83330000D01*
G75*
G02*
X100120000Y-83095000I0J235000D01*
G01*
X100120000Y-82525000D01*
G75*
G02*
X100355000Y-82290000I235000J0D01*
G01*
X100825000Y-82290000D01*
G75*
G02*
X101060000Y-82525000I0J-235000D01*
G01*
G37*
G36*
G01*
X102080000Y-82525000D02*
X102080000Y-83095000D01*
G75*
G02*
X101845000Y-83330000I-235000J0D01*
G01*
X101375000Y-83330000D01*
G75*
G02*
X101140000Y-83095000I0J235000D01*
G01*
X101140000Y-82525000D01*
G75*
G02*
X101375000Y-82290000I235000J0D01*
G01*
X101845000Y-82290000D01*
G75*
G02*
X102080000Y-82525000I0J-235000D01*
G01*
G37*
G36*
G01*
X89958000Y-81596000D02*
X89958000Y-82166000D01*
G75*
G02*
X89723000Y-82401000I-235000J0D01*
G01*
X89253000Y-82401000D01*
G75*
G02*
X89018000Y-82166000I0J235000D01*
G01*
X89018000Y-81596000D01*
G75*
G02*
X89253000Y-81361000I235000J0D01*
G01*
X89723000Y-81361000D01*
G75*
G02*
X89958000Y-81596000I0J-235000D01*
G01*
G37*
G36*
G01*
X90978000Y-81596000D02*
X90978000Y-82166000D01*
G75*
G02*
X90743000Y-82401000I-235000J0D01*
G01*
X90273000Y-82401000D01*
G75*
G02*
X90038000Y-82166000I0J235000D01*
G01*
X90038000Y-81596000D01*
G75*
G02*
X90273000Y-81361000I235000J0D01*
G01*
X90743000Y-81361000D01*
G75*
G02*
X90978000Y-81596000I0J-235000D01*
G01*
G37*
G36*
G01*
X90735000Y-81040000D02*
X90735000Y-80470000D01*
G75*
G02*
X90970000Y-80235000I235000J0D01*
G01*
X91440000Y-80235000D01*
G75*
G02*
X91675000Y-80470000I0J-235000D01*
G01*
X91675000Y-81040000D01*
G75*
G02*
X91440000Y-81275000I-235000J0D01*
G01*
X90970000Y-81275000D01*
G75*
G02*
X90735000Y-81040000I0J235000D01*
G01*
G37*
G36*
G01*
X89715000Y-81040000D02*
X89715000Y-80470000D01*
G75*
G02*
X89950000Y-80235000I235000J0D01*
G01*
X90420000Y-80235000D01*
G75*
G02*
X90655000Y-80470000I0J-235000D01*
G01*
X90655000Y-81040000D01*
G75*
G02*
X90420000Y-81275000I-235000J0D01*
G01*
X89950000Y-81275000D01*
G75*
G02*
X89715000Y-81040000I0J235000D01*
G01*
G37*
G36*
G01*
X85760000Y-81225000D02*
X85760000Y-81795000D01*
G75*
G02*
X85525000Y-82030000I-235000J0D01*
G01*
X85055000Y-82030000D01*
G75*
G02*
X84820000Y-81795000I0J235000D01*
G01*
X84820000Y-81225000D01*
G75*
G02*
X85055000Y-80990000I235000J0D01*
G01*
X85525000Y-80990000D01*
G75*
G02*
X85760000Y-81225000I0J-235000D01*
G01*
G37*
G36*
G01*
X86780000Y-81225000D02*
X86780000Y-81795000D01*
G75*
G02*
X86545000Y-82030000I-235000J0D01*
G01*
X86075000Y-82030000D01*
G75*
G02*
X85840000Y-81795000I0J235000D01*
G01*
X85840000Y-81225000D01*
G75*
G02*
X86075000Y-80990000I235000J0D01*
G01*
X86545000Y-80990000D01*
G75*
G02*
X86780000Y-81225000I0J-235000D01*
G01*
G37*
G36*
G01*
X95550000Y-85535000D02*
X96250000Y-85535000D01*
G75*
G02*
X96575000Y-85860000I0J-325000D01*
G01*
X96575000Y-86510000D01*
G75*
G02*
X96250000Y-86835000I-325000J0D01*
G01*
X95550000Y-86835000D01*
G75*
G02*
X95225000Y-86510000I0J325000D01*
G01*
X95225000Y-85860000D01*
G75*
G02*
X95550000Y-85535000I325000J0D01*
G01*
G37*
G36*
G01*
X95550000Y-83985000D02*
X96250000Y-83985000D01*
G75*
G02*
X96575000Y-84310000I0J-325000D01*
G01*
X96575000Y-84960000D01*
G75*
G02*
X96250000Y-85285000I-325000J0D01*
G01*
X95550000Y-85285000D01*
G75*
G02*
X95225000Y-84960000I0J325000D01*
G01*
X95225000Y-84310000D01*
G75*
G02*
X95550000Y-83985000I325000J0D01*
G01*
G37*
G36*
G01*
X94225000Y-87560000D02*
X94225000Y-86860000D01*
G75*
G02*
X94550000Y-86535000I325000J0D01*
G01*
X95200000Y-86535000D01*
G75*
G02*
X95525000Y-86860000I0J-325000D01*
G01*
X95525000Y-87560000D01*
G75*
G02*
X95200000Y-87885000I-325000J0D01*
G01*
X94550000Y-87885000D01*
G75*
G02*
X94225000Y-87560000I0J325000D01*
G01*
G37*
G36*
G01*
X92675000Y-87560000D02*
X92675000Y-86860000D01*
G75*
G02*
X93000000Y-86535000I325000J0D01*
G01*
X93650000Y-86535000D01*
G75*
G02*
X93975000Y-86860000I0J-325000D01*
G01*
X93975000Y-87560000D01*
G75*
G02*
X93650000Y-87885000I-325000J0D01*
G01*
X93000000Y-87885000D01*
G75*
G02*
X92675000Y-87560000I0J325000D01*
G01*
G37*
G36*
G01*
X100425000Y-103660000D02*
X100425000Y-102960000D01*
G75*
G02*
X100750000Y-102635000I325000J0D01*
G01*
X101400000Y-102635000D01*
G75*
G02*
X101725000Y-102960000I0J-325000D01*
G01*
X101725000Y-103660000D01*
G75*
G02*
X101400000Y-103985000I-325000J0D01*
G01*
X100750000Y-103985000D01*
G75*
G02*
X100425000Y-103660000I0J325000D01*
G01*
G37*
G36*
G01*
X98875000Y-103660000D02*
X98875000Y-102960000D01*
G75*
G02*
X99200000Y-102635000I325000J0D01*
G01*
X99850000Y-102635000D01*
G75*
G02*
X100175000Y-102960000I0J-325000D01*
G01*
X100175000Y-103660000D01*
G75*
G02*
X99850000Y-103985000I-325000J0D01*
G01*
X99200000Y-103985000D01*
G75*
G02*
X98875000Y-103660000I0J325000D01*
G01*
G37*
G36*
G01*
X80615000Y-107760000D02*
X80615000Y-107060000D01*
G75*
G02*
X80940000Y-106735000I325000J0D01*
G01*
X81590000Y-106735000D01*
G75*
G02*
X81915000Y-107060000I0J-325000D01*
G01*
X81915000Y-107760000D01*
G75*
G02*
X81590000Y-108085000I-325000J0D01*
G01*
X80940000Y-108085000D01*
G75*
G02*
X80615000Y-107760000I0J325000D01*
G01*
G37*
G36*
G01*
X79065000Y-107760000D02*
X79065000Y-107060000D01*
G75*
G02*
X79390000Y-106735000I325000J0D01*
G01*
X80040000Y-106735000D01*
G75*
G02*
X80365000Y-107060000I0J-325000D01*
G01*
X80365000Y-107760000D01*
G75*
G02*
X80040000Y-108085000I-325000J0D01*
G01*
X79390000Y-108085000D01*
G75*
G02*
X79065000Y-107760000I0J325000D01*
G01*
G37*
G36*
G01*
X80615000Y-109330000D02*
X80615000Y-108630000D01*
G75*
G02*
X80940000Y-108305000I325000J0D01*
G01*
X81590000Y-108305000D01*
G75*
G02*
X81915000Y-108630000I0J-325000D01*
G01*
X81915000Y-109330000D01*
G75*
G02*
X81590000Y-109655000I-325000J0D01*
G01*
X80940000Y-109655000D01*
G75*
G02*
X80615000Y-109330000I0J325000D01*
G01*
G37*
G36*
G01*
X79065000Y-109330000D02*
X79065000Y-108630000D01*
G75*
G02*
X79390000Y-108305000I325000J0D01*
G01*
X80040000Y-108305000D01*
G75*
G02*
X80365000Y-108630000I0J-325000D01*
G01*
X80365000Y-109330000D01*
G75*
G02*
X80040000Y-109655000I-325000J0D01*
G01*
X79390000Y-109655000D01*
G75*
G02*
X79065000Y-109330000I0J325000D01*
G01*
G37*
G36*
G01*
X91940000Y-108955000D02*
X92640000Y-108955000D01*
G75*
G02*
X92965000Y-109280000I0J-325000D01*
G01*
X92965000Y-109930000D01*
G75*
G02*
X92640000Y-110255000I-325000J0D01*
G01*
X91940000Y-110255000D01*
G75*
G02*
X91615000Y-109930000I0J325000D01*
G01*
X91615000Y-109280000D01*
G75*
G02*
X91940000Y-108955000I325000J0D01*
G01*
G37*
G36*
G01*
X91940000Y-107405000D02*
X92640000Y-107405000D01*
G75*
G02*
X92965000Y-107730000I0J-325000D01*
G01*
X92965000Y-108380000D01*
G75*
G02*
X92640000Y-108705000I-325000J0D01*
G01*
X91940000Y-108705000D01*
G75*
G02*
X91615000Y-108380000I0J325000D01*
G01*
X91615000Y-107730000D01*
G75*
G02*
X91940000Y-107405000I325000J0D01*
G01*
G37*
G36*
G01*
X101222500Y-109360899D02*
X101222500Y-110961101D01*
G75*
G02*
X101022501Y-111161100I-199999J0D01*
G01*
X100133499Y-111161100D01*
G75*
G02*
X99933500Y-110961101I0J199999D01*
G01*
X99933500Y-109360899D01*
G75*
G02*
X100133499Y-109160900I199999J0D01*
G01*
X101022501Y-109160900D01*
G75*
G02*
X101222500Y-109360899I0J-199999D01*
G01*
G37*
G36*
G01*
X100181100Y-110784001D02*
X100181100Y-111038001D01*
G75*
G02*
X99981100Y-111238001I-200000J0D01*
G01*
X99219100Y-111238001D01*
G75*
G02*
X99019100Y-111038001I0J200000D01*
G01*
X99019100Y-110784001D01*
G75*
G02*
X99219100Y-110584001I200000J0D01*
G01*
X99981100Y-110584001D01*
G75*
G02*
X100181100Y-110784001I0J-200000D01*
G01*
G37*
G36*
G01*
X100181100Y-110284000D02*
X100181100Y-110538000D01*
G75*
G02*
X99981100Y-110738000I-200000J0D01*
G01*
X99219100Y-110738000D01*
G75*
G02*
X99019100Y-110538000I0J200000D01*
G01*
X99019100Y-110284000D01*
G75*
G02*
X99219100Y-110084000I200000J0D01*
G01*
X99981100Y-110084000D01*
G75*
G02*
X100181100Y-110284000I0J-200000D01*
G01*
G37*
G36*
G01*
X100181100Y-109784000D02*
X100181100Y-110038000D01*
G75*
G02*
X99981100Y-110238000I-200000J0D01*
G01*
X99219100Y-110238000D01*
G75*
G02*
X99019100Y-110038000I0J200000D01*
G01*
X99019100Y-109784000D01*
G75*
G02*
X99219100Y-109584000I200000J0D01*
G01*
X99981100Y-109584000D01*
G75*
G02*
X100181100Y-109784000I0J-200000D01*
G01*
G37*
G36*
G01*
X100181100Y-109283999D02*
X100181100Y-109537999D01*
G75*
G02*
X99981100Y-109737999I-200000J0D01*
G01*
X99219100Y-109737999D01*
G75*
G02*
X99019100Y-109537999I0J200000D01*
G01*
X99019100Y-109283999D01*
G75*
G02*
X99219100Y-109083999I200000J0D01*
G01*
X99981100Y-109083999D01*
G75*
G02*
X100181100Y-109283999I0J-200000D01*
G01*
G37*
G36*
G01*
X102136900Y-109283999D02*
X102136900Y-109537999D01*
G75*
G02*
X101936900Y-109737999I-200000J0D01*
G01*
X101174900Y-109737999D01*
G75*
G02*
X100974900Y-109537999I0J200000D01*
G01*
X100974900Y-109283999D01*
G75*
G02*
X101174900Y-109083999I200000J0D01*
G01*
X101936900Y-109083999D01*
G75*
G02*
X102136900Y-109283999I0J-200000D01*
G01*
G37*
G36*
G01*
X102136900Y-109784000D02*
X102136900Y-110038000D01*
G75*
G02*
X101936900Y-110238000I-200000J0D01*
G01*
X101174900Y-110238000D01*
G75*
G02*
X100974900Y-110038000I0J200000D01*
G01*
X100974900Y-109784000D01*
G75*
G02*
X101174900Y-109584000I200000J0D01*
G01*
X101936900Y-109584000D01*
G75*
G02*
X102136900Y-109784000I0J-200000D01*
G01*
G37*
G36*
G01*
X102136900Y-110284000D02*
X102136900Y-110538000D01*
G75*
G02*
X101936900Y-110738000I-200000J0D01*
G01*
X101174900Y-110738000D01*
G75*
G02*
X100974900Y-110538000I0J200000D01*
G01*
X100974900Y-110284000D01*
G75*
G02*
X101174900Y-110084000I200000J0D01*
G01*
X101936900Y-110084000D01*
G75*
G02*
X102136900Y-110284000I0J-200000D01*
G01*
G37*
G36*
G01*
X102136900Y-110784001D02*
X102136900Y-111038001D01*
G75*
G02*
X101936900Y-111238001I-200000J0D01*
G01*
X101174900Y-111238001D01*
G75*
G02*
X100974900Y-111038001I0J200000D01*
G01*
X100974900Y-110784001D01*
G75*
G02*
X101174900Y-110584001I200000J0D01*
G01*
X101936900Y-110584001D01*
G75*
G02*
X102136900Y-110784001I0J-200000D01*
G01*
G37*
G36*
G01*
X84250000Y-108311000D02*
X84250000Y-107661000D01*
G75*
G02*
X84450000Y-107461000I200000J0D01*
G01*
X84750000Y-107461000D01*
G75*
G02*
X84950000Y-107661000I0J-200000D01*
G01*
X84950000Y-108311000D01*
G75*
G02*
X84750000Y-108511000I-200000J0D01*
G01*
X84450000Y-108511000D01*
G75*
G02*
X84250000Y-108311000I0J200000D01*
G01*
G37*
G36*
G01*
X84750000Y-108311000D02*
X84750000Y-107661000D01*
G75*
G02*
X84950000Y-107461000I200000J0D01*
G01*
X85250000Y-107461000D01*
G75*
G02*
X85450000Y-107661000I0J-200000D01*
G01*
X85450000Y-108311000D01*
G75*
G02*
X85250000Y-108511000I-200000J0D01*
G01*
X84950000Y-108511000D01*
G75*
G02*
X84750000Y-108311000I0J200000D01*
G01*
G37*
G36*
G01*
X85250000Y-108311000D02*
X85250000Y-107661000D01*
G75*
G02*
X85450000Y-107461000I200000J0D01*
G01*
X85750000Y-107461000D01*
G75*
G02*
X85950000Y-107661000I0J-200000D01*
G01*
X85950000Y-108311000D01*
G75*
G02*
X85750000Y-108511000I-200000J0D01*
G01*
X85450000Y-108511000D01*
G75*
G02*
X85250000Y-108311000I0J200000D01*
G01*
G37*
G36*
G01*
X85750000Y-108311000D02*
X85750000Y-107661000D01*
G75*
G02*
X85950000Y-107461000I200000J0D01*
G01*
X86250000Y-107461000D01*
G75*
G02*
X86450000Y-107661000I0J-200000D01*
G01*
X86450000Y-108311000D01*
G75*
G02*
X86250000Y-108511000I-200000J0D01*
G01*
X85950000Y-108511000D01*
G75*
G02*
X85750000Y-108311000I0J200000D01*
G01*
G37*
G36*
G01*
X86250000Y-108311000D02*
X86250000Y-107661000D01*
G75*
G02*
X86450000Y-107461000I200000J0D01*
G01*
X86750000Y-107461000D01*
G75*
G02*
X86950000Y-107661000I0J-200000D01*
G01*
X86950000Y-108311000D01*
G75*
G02*
X86750000Y-108511000I-200000J0D01*
G01*
X86450000Y-108511000D01*
G75*
G02*
X86250000Y-108311000I0J200000D01*
G01*
G37*
G36*
G01*
X86750000Y-108311000D02*
X86750000Y-107661000D01*
G75*
G02*
X86950000Y-107461000I200000J0D01*
G01*
X87250000Y-107461000D01*
G75*
G02*
X87450000Y-107661000I0J-200000D01*
G01*
X87450000Y-108311000D01*
G75*
G02*
X87250000Y-108511000I-200000J0D01*
G01*
X86950000Y-108511000D01*
G75*
G02*
X86750000Y-108311000I0J200000D01*
G01*
G37*
G36*
G01*
X87250000Y-108311000D02*
X87250000Y-107661000D01*
G75*
G02*
X87450000Y-107461000I200000J0D01*
G01*
X87750000Y-107461000D01*
G75*
G02*
X87950000Y-107661000I0J-200000D01*
G01*
X87950000Y-108311000D01*
G75*
G02*
X87750000Y-108511000I-200000J0D01*
G01*
X87450000Y-108511000D01*
G75*
G02*
X87250000Y-108311000I0J200000D01*
G01*
G37*
G36*
G01*
X87750000Y-108311000D02*
X87750000Y-107661000D01*
G75*
G02*
X87950000Y-107461000I200000J0D01*
G01*
X88250000Y-107461000D01*
G75*
G02*
X88450000Y-107661000I0J-200000D01*
G01*
X88450000Y-108311000D01*
G75*
G02*
X88250000Y-108511000I-200000J0D01*
G01*
X87950000Y-108511000D01*
G75*
G02*
X87750000Y-108311000I0J200000D01*
G01*
G37*
G36*
G01*
X88250000Y-108311000D02*
X88250000Y-107661000D01*
G75*
G02*
X88450000Y-107461000I200000J0D01*
G01*
X88750000Y-107461000D01*
G75*
G02*
X88950000Y-107661000I0J-200000D01*
G01*
X88950000Y-108311000D01*
G75*
G02*
X88750000Y-108511000I-200000J0D01*
G01*
X88450000Y-108511000D01*
G75*
G02*
X88250000Y-108311000I0J200000D01*
G01*
G37*
G36*
G01*
X88750000Y-108311000D02*
X88750000Y-107661000D01*
G75*
G02*
X88950000Y-107461000I200000J0D01*
G01*
X89250000Y-107461000D01*
G75*
G02*
X89450000Y-107661000I0J-200000D01*
G01*
X89450000Y-108311000D01*
G75*
G02*
X89250000Y-108511000I-200000J0D01*
G01*
X88950000Y-108511000D01*
G75*
G02*
X88750000Y-108311000I0J200000D01*
G01*
G37*
G36*
G01*
X83200000Y-110461000D02*
X83200000Y-109661000D01*
G75*
G02*
X83400000Y-109461000I200000J0D01*
G01*
X83950000Y-109461000D01*
G75*
G02*
X84150000Y-109661000I0J-200000D01*
G01*
X84150000Y-110461000D01*
G75*
G02*
X83950000Y-110661000I-200000J0D01*
G01*
X83400000Y-110661000D01*
G75*
G02*
X83200000Y-110461000I0J200000D01*
G01*
G37*
G36*
G01*
X89550000Y-110461000D02*
X89550000Y-109661000D01*
G75*
G02*
X89750000Y-109461000I200000J0D01*
G01*
X90300000Y-109461000D01*
G75*
G02*
X90500000Y-109661000I0J-200000D01*
G01*
X90500000Y-110461000D01*
G75*
G02*
X90300000Y-110661000I-200000J0D01*
G01*
X89750000Y-110661000D01*
G75*
G02*
X89550000Y-110461000I0J200000D01*
G01*
G37*
G36*
G01*
X97540000Y-108325000D02*
X97540000Y-107325000D01*
G75*
G02*
X97740000Y-107125000I200000J0D01*
G01*
X98040000Y-107125000D01*
G75*
G02*
X98240000Y-107325000I0J-200000D01*
G01*
X98240000Y-108325000D01*
G75*
G02*
X98040000Y-108525000I-200000J0D01*
G01*
X97740000Y-108525000D01*
G75*
G02*
X97540000Y-108325000I0J200000D01*
G01*
G37*
G36*
G01*
X94460000Y-108325000D02*
X94460000Y-107325000D01*
G75*
G02*
X94660000Y-107125000I200000J0D01*
G01*
X94960000Y-107125000D01*
G75*
G02*
X95160000Y-107325000I0J-200000D01*
G01*
X95160000Y-108325000D01*
G75*
G02*
X94960000Y-108525000I-200000J0D01*
G01*
X94660000Y-108525000D01*
G75*
G02*
X94460000Y-108325000I0J200000D01*
G01*
G37*
G36*
G01*
X96750000Y-105525000D02*
X96750000Y-104825000D01*
G75*
G02*
X96950000Y-104625000I200000J0D01*
G01*
X97250000Y-104625000D01*
G75*
G02*
X97450000Y-104825000I0J-200000D01*
G01*
X97450000Y-105525000D01*
G75*
G02*
X97250000Y-105725000I-200000J0D01*
G01*
X96950000Y-105725000D01*
G75*
G02*
X96750000Y-105525000I0J200000D01*
G01*
G37*
G36*
G01*
X96250000Y-105525000D02*
X96250000Y-104825000D01*
G75*
G02*
X96450000Y-104625000I200000J0D01*
G01*
X96750000Y-104625000D01*
G75*
G02*
X96950000Y-104825000I0J-200000D01*
G01*
X96950000Y-105525000D01*
G75*
G02*
X96750000Y-105725000I-200000J0D01*
G01*
X96450000Y-105725000D01*
G75*
G02*
X96250000Y-105525000I0J200000D01*
G01*
G37*
G36*
G01*
X95750000Y-105525000D02*
X95750000Y-104825000D01*
G75*
G02*
X95950000Y-104625000I200000J0D01*
G01*
X96250000Y-104625000D01*
G75*
G02*
X96450000Y-104825000I0J-200000D01*
G01*
X96450000Y-105525000D01*
G75*
G02*
X96250000Y-105725000I-200000J0D01*
G01*
X95950000Y-105725000D01*
G75*
G02*
X95750000Y-105525000I0J200000D01*
G01*
G37*
G36*
G01*
X95250000Y-105525000D02*
X95250000Y-104825000D01*
G75*
G02*
X95450000Y-104625000I200000J0D01*
G01*
X95750000Y-104625000D01*
G75*
G02*
X95950000Y-104825000I0J-200000D01*
G01*
X95950000Y-105525000D01*
G75*
G02*
X95750000Y-105725000I-200000J0D01*
G01*
X95450000Y-105725000D01*
G75*
G02*
X95250000Y-105525000I0J200000D01*
G01*
G37*
G36*
G01*
X80400000Y-82960000D02*
X81200000Y-82960000D01*
G75*
G02*
X81400000Y-83160000I0J-200000D01*
G01*
X81400000Y-83660000D01*
G75*
G02*
X81200000Y-83860000I-200000J0D01*
G01*
X80400000Y-83860000D01*
G75*
G02*
X80200000Y-83660000I0J200000D01*
G01*
X80200000Y-83160000D01*
G75*
G02*
X80400000Y-82960000I200000J0D01*
G01*
G37*
G36*
G01*
X80400000Y-83760000D02*
X81200000Y-83760000D01*
G75*
G02*
X81400000Y-83960000I0J-200000D01*
G01*
X81400000Y-84460000D01*
G75*
G02*
X81200000Y-84660000I-200000J0D01*
G01*
X80400000Y-84660000D01*
G75*
G02*
X80200000Y-84460000I0J200000D01*
G01*
X80200000Y-83960000D01*
G75*
G02*
X80400000Y-83760000I200000J0D01*
G01*
G37*
G36*
G01*
X80400000Y-84560000D02*
X81200000Y-84560000D01*
G75*
G02*
X81400000Y-84760000I0J-200000D01*
G01*
X81400000Y-85260000D01*
G75*
G02*
X81200000Y-85460000I-200000J0D01*
G01*
X80400000Y-85460000D01*
G75*
G02*
X80200000Y-85260000I0J200000D01*
G01*
X80200000Y-84760000D01*
G75*
G02*
X80400000Y-84560000I200000J0D01*
G01*
G37*
G36*
G01*
X80400000Y-85360000D02*
X81200000Y-85360000D01*
G75*
G02*
X81400000Y-85560000I0J-200000D01*
G01*
X81400000Y-86060000D01*
G75*
G02*
X81200000Y-86260000I-200000J0D01*
G01*
X80400000Y-86260000D01*
G75*
G02*
X80200000Y-86060000I0J200000D01*
G01*
X80200000Y-85560000D01*
G75*
G02*
X80400000Y-85360000I200000J0D01*
G01*
G37*
G36*
G01*
X80400000Y-86160000D02*
X81200000Y-86160000D01*
G75*
G02*
X81400000Y-86360000I0J-200000D01*
G01*
X81400000Y-86860000D01*
G75*
G02*
X81200000Y-87060000I-200000J0D01*
G01*
X80400000Y-87060000D01*
G75*
G02*
X80200000Y-86860000I0J200000D01*
G01*
X80200000Y-86360000D01*
G75*
G02*
X80400000Y-86160000I200000J0D01*
G01*
G37*
G36*
G01*
X78200000Y-86160000D02*
X79000000Y-86160000D01*
G75*
G02*
X79200000Y-86360000I0J-200000D01*
G01*
X79200000Y-86860000D01*
G75*
G02*
X79000000Y-87060000I-200000J0D01*
G01*
X78200000Y-87060000D01*
G75*
G02*
X78000000Y-86860000I0J200000D01*
G01*
X78000000Y-86360000D01*
G75*
G02*
X78200000Y-86160000I200000J0D01*
G01*
G37*
G36*
G01*
X78200000Y-85360000D02*
X79000000Y-85360000D01*
G75*
G02*
X79200000Y-85560000I0J-200000D01*
G01*
X79200000Y-86060000D01*
G75*
G02*
X79000000Y-86260000I-200000J0D01*
G01*
X78200000Y-86260000D01*
G75*
G02*
X78000000Y-86060000I0J200000D01*
G01*
X78000000Y-85560000D01*
G75*
G02*
X78200000Y-85360000I200000J0D01*
G01*
G37*
G36*
G01*
X78200000Y-84560000D02*
X79000000Y-84560000D01*
G75*
G02*
X79200000Y-84760000I0J-200000D01*
G01*
X79200000Y-85260000D01*
G75*
G02*
X79000000Y-85460000I-200000J0D01*
G01*
X78200000Y-85460000D01*
G75*
G02*
X78000000Y-85260000I0J200000D01*
G01*
X78000000Y-84760000D01*
G75*
G02*
X78200000Y-84560000I200000J0D01*
G01*
G37*
G36*
G01*
X78200000Y-83760000D02*
X79000000Y-83760000D01*
G75*
G02*
X79200000Y-83960000I0J-200000D01*
G01*
X79200000Y-84460000D01*
G75*
G02*
X79000000Y-84660000I-200000J0D01*
G01*
X78200000Y-84660000D01*
G75*
G02*
X78000000Y-84460000I0J200000D01*
G01*
X78000000Y-83960000D01*
G75*
G02*
X78200000Y-83760000I200000J0D01*
G01*
G37*
G36*
G01*
X78200000Y-82960000D02*
X79000000Y-82960000D01*
G75*
G02*
X79200000Y-83160000I0J-200000D01*
G01*
X79200000Y-83660000D01*
G75*
G02*
X79000000Y-83860000I-200000J0D01*
G01*
X78200000Y-83860000D01*
G75*
G02*
X78000000Y-83660000I0J200000D01*
G01*
X78000000Y-83160000D01*
G75*
G02*
X78200000Y-82960000I200000J0D01*
G01*
G37*
G36*
G01*
X99850000Y-76485000D02*
X100200000Y-76485000D01*
G75*
G02*
X100400000Y-76685000I0J-200000D01*
G01*
X100400000Y-77185000D01*
G75*
G02*
X100200000Y-77385000I-200000J0D01*
G01*
X99850000Y-77385000D01*
G75*
G02*
X99650000Y-77185000I0J200000D01*
G01*
X99650000Y-76685000D01*
G75*
G02*
X99850000Y-76485000I200000J0D01*
G01*
G37*
G36*
G01*
X100500000Y-76485000D02*
X100850000Y-76485000D01*
G75*
G02*
X101050000Y-76685000I0J-200000D01*
G01*
X101050000Y-77185000D01*
G75*
G02*
X100850000Y-77385000I-200000J0D01*
G01*
X100500000Y-77385000D01*
G75*
G02*
X100300000Y-77185000I0J200000D01*
G01*
X100300000Y-76685000D01*
G75*
G02*
X100500000Y-76485000I200000J0D01*
G01*
G37*
G36*
G01*
X101150000Y-76485000D02*
X101500000Y-76485000D01*
G75*
G02*
X101700000Y-76685000I0J-200000D01*
G01*
X101700000Y-77185000D01*
G75*
G02*
X101500000Y-77385000I-200000J0D01*
G01*
X101150000Y-77385000D01*
G75*
G02*
X100950000Y-77185000I0J200000D01*
G01*
X100950000Y-76685000D01*
G75*
G02*
X101150000Y-76485000I200000J0D01*
G01*
G37*
G36*
G01*
X101800000Y-76485000D02*
X102150000Y-76485000D01*
G75*
G02*
X102350000Y-76685000I0J-200000D01*
G01*
X102350000Y-77185000D01*
G75*
G02*
X102150000Y-77385000I-200000J0D01*
G01*
X101800000Y-77385000D01*
G75*
G02*
X101600000Y-77185000I0J200000D01*
G01*
X101600000Y-76685000D01*
G75*
G02*
X101800000Y-76485000I200000J0D01*
G01*
G37*
G36*
G01*
X101800000Y-74435000D02*
X102150000Y-74435000D01*
G75*
G02*
X102350000Y-74635000I0J-200000D01*
G01*
X102350000Y-75135000D01*
G75*
G02*
X102150000Y-75335000I-200000J0D01*
G01*
X101800000Y-75335000D01*
G75*
G02*
X101600000Y-75135000I0J200000D01*
G01*
X101600000Y-74635000D01*
G75*
G02*
X101800000Y-74435000I200000J0D01*
G01*
G37*
G36*
G01*
X101150000Y-74435000D02*
X101500000Y-74435000D01*
G75*
G02*
X101700000Y-74635000I0J-200000D01*
G01*
X101700000Y-75135000D01*
G75*
G02*
X101500000Y-75335000I-200000J0D01*
G01*
X101150000Y-75335000D01*
G75*
G02*
X100950000Y-75135000I0J200000D01*
G01*
X100950000Y-74635000D01*
G75*
G02*
X101150000Y-74435000I200000J0D01*
G01*
G37*
G36*
G01*
X100500000Y-74435000D02*
X100850000Y-74435000D01*
G75*
G02*
X101050000Y-74635000I0J-200000D01*
G01*
X101050000Y-75135000D01*
G75*
G02*
X100850000Y-75335000I-200000J0D01*
G01*
X100500000Y-75335000D01*
G75*
G02*
X100300000Y-75135000I0J200000D01*
G01*
X100300000Y-74635000D01*
G75*
G02*
X100500000Y-74435000I200000J0D01*
G01*
G37*
G36*
G01*
X99850000Y-74435000D02*
X100200000Y-74435000D01*
G75*
G02*
X100400000Y-74635000I0J-200000D01*
G01*
X100400000Y-75135000D01*
G75*
G02*
X100200000Y-75335000I-200000J0D01*
G01*
X99850000Y-75335000D01*
G75*
G02*
X99650000Y-75135000I0J200000D01*
G01*
X99650000Y-74635000D01*
G75*
G02*
X99850000Y-74435000I200000J0D01*
G01*
G37*
G36*
G01*
X92926900Y-84499699D02*
X92622100Y-84499699D01*
G75*
G02*
X92422100Y-84299699I0J200000D01*
G01*
X92422100Y-84020299D01*
G75*
G02*
X92622100Y-83820299I200000J0D01*
G01*
X92926900Y-83820299D01*
G75*
G02*
X93126900Y-84020299I0J-200000D01*
G01*
X93126900Y-84299699D01*
G75*
G02*
X92926900Y-84499699I-200000J0D01*
G01*
G37*
G36*
G01*
X92926900Y-84999700D02*
X92622100Y-84999700D01*
G75*
G02*
X92422100Y-84799700I0J200000D01*
G01*
X92422100Y-84520300D01*
G75*
G02*
X92622100Y-84320300I200000J0D01*
G01*
X92926900Y-84320300D01*
G75*
G02*
X93126900Y-84520300I0J-200000D01*
G01*
X93126900Y-84799700D01*
G75*
G02*
X92926900Y-84999700I-200000J0D01*
G01*
G37*
G36*
G01*
X92926900Y-85499700D02*
X92622100Y-85499700D01*
G75*
G02*
X92422100Y-85299700I0J200000D01*
G01*
X92422100Y-85020300D01*
G75*
G02*
X92622100Y-84820300I200000J0D01*
G01*
X92926900Y-84820300D01*
G75*
G02*
X93126900Y-85020300I0J-200000D01*
G01*
X93126900Y-85299700D01*
G75*
G02*
X92926900Y-85499700I-200000J0D01*
G01*
G37*
G36*
G01*
X92926900Y-85999701D02*
X92622100Y-85999701D01*
G75*
G02*
X92422100Y-85799701I0J200000D01*
G01*
X92422100Y-85520301D01*
G75*
G02*
X92622100Y-85320301I200000J0D01*
G01*
X92926900Y-85320301D01*
G75*
G02*
X93126900Y-85520301I0J-200000D01*
G01*
X93126900Y-85799701D01*
G75*
G02*
X92926900Y-85999701I-200000J0D01*
G01*
G37*
G36*
G01*
X93010300Y-85887900D02*
X93010300Y-85583100D01*
G75*
G02*
X93210300Y-85383100I200000J0D01*
G01*
X93489700Y-85383100D01*
G75*
G02*
X93689700Y-85583100I0J-200000D01*
G01*
X93689700Y-85887900D01*
G75*
G02*
X93489700Y-86087900I-200000J0D01*
G01*
X93210300Y-86087900D01*
G75*
G02*
X93010300Y-85887900I0J200000D01*
G01*
G37*
G36*
G01*
X93510300Y-85887900D02*
X93510300Y-85583100D01*
G75*
G02*
X93710300Y-85383100I200000J0D01*
G01*
X93989700Y-85383100D01*
G75*
G02*
X94189700Y-85583100I0J-200000D01*
G01*
X94189700Y-85887900D01*
G75*
G02*
X93989700Y-86087900I-200000J0D01*
G01*
X93710300Y-86087900D01*
G75*
G02*
X93510300Y-85887900I0J200000D01*
G01*
G37*
G36*
G01*
X94577900Y-85999701D02*
X94273100Y-85999701D01*
G75*
G02*
X94073100Y-85799701I0J200000D01*
G01*
X94073100Y-85520301D01*
G75*
G02*
X94273100Y-85320301I200000J0D01*
G01*
X94577900Y-85320301D01*
G75*
G02*
X94777900Y-85520301I0J-200000D01*
G01*
X94777900Y-85799701D01*
G75*
G02*
X94577900Y-85999701I-200000J0D01*
G01*
G37*
G36*
G01*
X94577900Y-85499700D02*
X94273100Y-85499700D01*
G75*
G02*
X94073100Y-85299700I0J200000D01*
G01*
X94073100Y-85020300D01*
G75*
G02*
X94273100Y-84820300I200000J0D01*
G01*
X94577900Y-84820300D01*
G75*
G02*
X94777900Y-85020300I0J-200000D01*
G01*
X94777900Y-85299700D01*
G75*
G02*
X94577900Y-85499700I-200000J0D01*
G01*
G37*
G36*
G01*
X94577900Y-84999700D02*
X94273100Y-84999700D01*
G75*
G02*
X94073100Y-84799700I0J200000D01*
G01*
X94073100Y-84520300D01*
G75*
G02*
X94273100Y-84320300I200000J0D01*
G01*
X94577900Y-84320300D01*
G75*
G02*
X94777900Y-84520300I0J-200000D01*
G01*
X94777900Y-84799700D01*
G75*
G02*
X94577900Y-84999700I-200000J0D01*
G01*
G37*
G36*
G01*
X94577900Y-84499699D02*
X94273100Y-84499699D01*
G75*
G02*
X94073100Y-84299699I0J200000D01*
G01*
X94073100Y-84020299D01*
G75*
G02*
X94273100Y-83820299I200000J0D01*
G01*
X94577900Y-83820299D01*
G75*
G02*
X94777900Y-84020299I0J-200000D01*
G01*
X94777900Y-84299699D01*
G75*
G02*
X94577900Y-84499699I-200000J0D01*
G01*
G37*
G36*
G01*
X93510300Y-84236900D02*
X93510300Y-83932100D01*
G75*
G02*
X93710300Y-83732100I200000J0D01*
G01*
X93989700Y-83732100D01*
G75*
G02*
X94189700Y-83932100I0J-200000D01*
G01*
X94189700Y-84236900D01*
G75*
G02*
X93989700Y-84436900I-200000J0D01*
G01*
X93710300Y-84436900D01*
G75*
G02*
X93510300Y-84236900I0J200000D01*
G01*
G37*
G36*
G01*
X93010300Y-84236900D02*
X93010300Y-83932100D01*
G75*
G02*
X93210300Y-83732100I200000J0D01*
G01*
X93489700Y-83732100D01*
G75*
G02*
X93689700Y-83932100I0J-200000D01*
G01*
X93689700Y-84236900D01*
G75*
G02*
X93489700Y-84436900I-200000J0D01*
G01*
X93210300Y-84436900D01*
G75*
G02*
X93010300Y-84236900I0J200000D01*
G01*
G37*
G36*
G01*
X73985000Y-78750000D02*
X73985000Y-78050000D01*
G75*
G02*
X74310000Y-77725000I325000J0D01*
G01*
X74960000Y-77725000D01*
G75*
G02*
X75285000Y-78050000I0J-325000D01*
G01*
X75285000Y-78750000D01*
G75*
G02*
X74960000Y-79075000I-325000J0D01*
G01*
X74310000Y-79075000D01*
G75*
G02*
X73985000Y-78750000I0J325000D01*
G01*
G37*
G36*
G01*
X72435000Y-78750000D02*
X72435000Y-78050000D01*
G75*
G02*
X72760000Y-77725000I325000J0D01*
G01*
X73410000Y-77725000D01*
G75*
G02*
X73735000Y-78050000I0J-325000D01*
G01*
X73735000Y-78750000D01*
G75*
G02*
X73410000Y-79075000I-325000J0D01*
G01*
X72760000Y-79075000D01*
G75*
G02*
X72435000Y-78750000I0J325000D01*
G01*
G37*
G36*
G01*
X90535000Y-93040000D02*
X90535000Y-92340000D01*
G75*
G02*
X90860000Y-92015000I325000J0D01*
G01*
X91510000Y-92015000D01*
G75*
G02*
X91835000Y-92340000I0J-325000D01*
G01*
X91835000Y-93040000D01*
G75*
G02*
X91510000Y-93365000I-325000J0D01*
G01*
X90860000Y-93365000D01*
G75*
G02*
X90535000Y-93040000I0J325000D01*
G01*
G37*
G36*
G01*
X88985000Y-93040000D02*
X88985000Y-92340000D01*
G75*
G02*
X89310000Y-92015000I325000J0D01*
G01*
X89960000Y-92015000D01*
G75*
G02*
X90285000Y-92340000I0J-325000D01*
G01*
X90285000Y-93040000D01*
G75*
G02*
X89960000Y-93365000I-325000J0D01*
G01*
X89310000Y-93365000D01*
G75*
G02*
X88985000Y-93040000I0J325000D01*
G01*
G37*
G36*
G01*
X84450000Y-80285000D02*
X83750000Y-80285000D01*
G75*
G02*
X83425000Y-79960000I0J325000D01*
G01*
X83425000Y-79310000D01*
G75*
G02*
X83750000Y-78985000I325000J0D01*
G01*
X84450000Y-78985000D01*
G75*
G02*
X84775000Y-79310000I0J-325000D01*
G01*
X84775000Y-79960000D01*
G75*
G02*
X84450000Y-80285000I-325000J0D01*
G01*
G37*
G36*
G01*
X84450000Y-81835000D02*
X83750000Y-81835000D01*
G75*
G02*
X83425000Y-81510000I0J325000D01*
G01*
X83425000Y-80860000D01*
G75*
G02*
X83750000Y-80535000I325000J0D01*
G01*
X84450000Y-80535000D01*
G75*
G02*
X84775000Y-80860000I0J-325000D01*
G01*
X84775000Y-81510000D01*
G75*
G02*
X84450000Y-81835000I-325000J0D01*
G01*
G37*
G36*
G01*
X79535000Y-81595000D02*
X79885000Y-81595000D01*
G75*
G02*
X80085000Y-81795000I0J-200000D01*
G01*
X80085000Y-82170000D01*
G75*
G02*
X79885000Y-82370000I-200000J0D01*
G01*
X79535000Y-82370000D01*
G75*
G02*
X79335000Y-82170000I0J200000D01*
G01*
X79335000Y-81795000D01*
G75*
G02*
X79535000Y-81595000I200000J0D01*
G01*
G37*
G36*
G01*
X79035000Y-81595000D02*
X79385000Y-81595000D01*
G75*
G02*
X79585000Y-81795000I0J-200000D01*
G01*
X79585000Y-82170000D01*
G75*
G02*
X79385000Y-82370000I-200000J0D01*
G01*
X79035000Y-82370000D01*
G75*
G02*
X78835000Y-82170000I0J200000D01*
G01*
X78835000Y-81795000D01*
G75*
G02*
X79035000Y-81595000I200000J0D01*
G01*
G37*
G36*
G01*
X79035000Y-80070000D02*
X79385000Y-80070000D01*
G75*
G02*
X79585000Y-80270000I0J-200000D01*
G01*
X79585000Y-80645000D01*
G75*
G02*
X79385000Y-80845000I-200000J0D01*
G01*
X79035000Y-80845000D01*
G75*
G02*
X78835000Y-80645000I0J200000D01*
G01*
X78835000Y-80270000D01*
G75*
G02*
X79035000Y-80070000I200000J0D01*
G01*
G37*
G36*
G01*
X79535000Y-80070000D02*
X79885000Y-80070000D01*
G75*
G02*
X80085000Y-80270000I0J-200000D01*
G01*
X80085000Y-80645000D01*
G75*
G02*
X79885000Y-80845000I-200000J0D01*
G01*
X79535000Y-80845000D01*
G75*
G02*
X79335000Y-80645000I0J200000D01*
G01*
X79335000Y-80270000D01*
G75*
G02*
X79535000Y-80070000I200000J0D01*
G01*
G37*
G36*
G01*
X79085000Y-81795000D02*
X79085000Y-82145000D01*
G75*
G02*
X78885000Y-82345000I-200000J0D01*
G01*
X78510000Y-82345000D01*
G75*
G02*
X78310000Y-82145000I0J200000D01*
G01*
X78310000Y-81795000D01*
G75*
G02*
X78510000Y-81595000I200000J0D01*
G01*
X78885000Y-81595000D01*
G75*
G02*
X79085000Y-81795000I0J-200000D01*
G01*
G37*
G36*
G01*
X80610000Y-81795000D02*
X80610000Y-82145000D01*
G75*
G02*
X80410000Y-82345000I-200000J0D01*
G01*
X80035000Y-82345000D01*
G75*
G02*
X79835000Y-82145000I0J200000D01*
G01*
X79835000Y-81795000D01*
G75*
G02*
X80035000Y-81595000I200000J0D01*
G01*
X80410000Y-81595000D01*
G75*
G02*
X80610000Y-81795000I0J-200000D01*
G01*
G37*
G36*
G01*
X79085000Y-80295000D02*
X79085000Y-80645000D01*
G75*
G02*
X78885000Y-80845000I-200000J0D01*
G01*
X78510000Y-80845000D01*
G75*
G02*
X78310000Y-80645000I0J200000D01*
G01*
X78310000Y-80295000D01*
G75*
G02*
X78510000Y-80095000I200000J0D01*
G01*
X78885000Y-80095000D01*
G75*
G02*
X79085000Y-80295000I0J-200000D01*
G01*
G37*
G36*
G01*
X80610000Y-80295000D02*
X80610000Y-80645000D01*
G75*
G02*
X80410000Y-80845000I-200000J0D01*
G01*
X80035000Y-80845000D01*
G75*
G02*
X79835000Y-80645000I0J200000D01*
G01*
X79835000Y-80295000D01*
G75*
G02*
X80035000Y-80095000I200000J0D01*
G01*
X80410000Y-80095000D01*
G75*
G02*
X80610000Y-80295000I0J-200000D01*
G01*
G37*
G36*
G01*
X79085000Y-80795000D02*
X79085000Y-81145000D01*
G75*
G02*
X78885000Y-81345000I-200000J0D01*
G01*
X78510000Y-81345000D01*
G75*
G02*
X78310000Y-81145000I0J200000D01*
G01*
X78310000Y-80795000D01*
G75*
G02*
X78510000Y-80595000I200000J0D01*
G01*
X78885000Y-80595000D01*
G75*
G02*
X79085000Y-80795000I0J-200000D01*
G01*
G37*
G36*
G01*
X79085000Y-81295000D02*
X79085000Y-81645000D01*
G75*
G02*
X78885000Y-81845000I-200000J0D01*
G01*
X78510000Y-81845000D01*
G75*
G02*
X78310000Y-81645000I0J200000D01*
G01*
X78310000Y-81295000D01*
G75*
G02*
X78510000Y-81095000I200000J0D01*
G01*
X78885000Y-81095000D01*
G75*
G02*
X79085000Y-81295000I0J-200000D01*
G01*
G37*
G36*
G01*
X80610000Y-80795000D02*
X80610000Y-81145000D01*
G75*
G02*
X80410000Y-81345000I-200000J0D01*
G01*
X80035000Y-81345000D01*
G75*
G02*
X79835000Y-81145000I0J200000D01*
G01*
X79835000Y-80795000D01*
G75*
G02*
X80035000Y-80595000I200000J0D01*
G01*
X80410000Y-80595000D01*
G75*
G02*
X80610000Y-80795000I0J-200000D01*
G01*
G37*
G36*
G01*
X80610000Y-81295000D02*
X80610000Y-81645000D01*
G75*
G02*
X80410000Y-81845000I-200000J0D01*
G01*
X80035000Y-81845000D01*
G75*
G02*
X79835000Y-81645000I0J200000D01*
G01*
X79835000Y-81295000D01*
G75*
G02*
X80035000Y-81095000I200000J0D01*
G01*
X80410000Y-81095000D01*
G75*
G02*
X80610000Y-81295000I0J-200000D01*
G01*
G37*
G36*
G01*
X95825000Y-83510000D02*
X95825000Y-81910000D01*
G75*
G02*
X96025000Y-81710000I200000J0D01*
G01*
X96525000Y-81710000D01*
G75*
G02*
X96725000Y-81910000I0J-200000D01*
G01*
X96725000Y-83510000D01*
G75*
G02*
X96525000Y-83710000I-200000J0D01*
G01*
X96025000Y-83710000D01*
G75*
G02*
X95825000Y-83510000I0J200000D01*
G01*
G37*
G36*
G01*
X97075000Y-83510000D02*
X97075000Y-81910000D01*
G75*
G02*
X97275000Y-81710000I200000J0D01*
G01*
X97775000Y-81710000D01*
G75*
G02*
X97975000Y-81910000I0J-200000D01*
G01*
X97975000Y-83510000D01*
G75*
G02*
X97775000Y-83710000I-200000J0D01*
G01*
X97275000Y-83710000D01*
G75*
G02*
X97075000Y-83510000I0J200000D01*
G01*
G37*
G36*
G01*
X98825000Y-81310000D02*
X98825000Y-78410000D01*
G75*
G02*
X99025000Y-78210000I200000J0D01*
G01*
X101125000Y-78210000D01*
G75*
G02*
X101325000Y-78410000I0J-200000D01*
G01*
X101325000Y-81310000D01*
G75*
G02*
X101125000Y-81510000I-200000J0D01*
G01*
X99025000Y-81510000D01*
G75*
G02*
X98825000Y-81310000I0J200000D01*
G01*
G37*
G36*
G01*
X92493000Y-81310000D02*
X92493000Y-78410000D01*
G75*
G02*
X92693000Y-78210000I200000J0D01*
G01*
X94793000Y-78210000D01*
G75*
G02*
X94993000Y-78410000I0J-200000D01*
G01*
X94993000Y-81310000D01*
G75*
G02*
X94793000Y-81510000I-200000J0D01*
G01*
X92693000Y-81510000D01*
G75*
G02*
X92493000Y-81310000I0J200000D01*
G01*
G37*
G36*
G01*
X92960000Y-91730000D02*
X92960000Y-90430000D01*
G75*
G02*
X93160000Y-90230000I200000J0D01*
G01*
X94460000Y-90230000D01*
G75*
G02*
X94660000Y-90430000I0J-200000D01*
G01*
X94660000Y-91730000D01*
G75*
G02*
X94460000Y-91930000I-200000J0D01*
G01*
X93160000Y-91930000D01*
G75*
G02*
X92960000Y-91730000I0J200000D01*
G01*
G37*
G36*
G01*
X92960000Y-93030000D02*
X92960000Y-91730000D01*
G75*
G02*
X93160000Y-91530000I200000J0D01*
G01*
X94460000Y-91530000D01*
G75*
G02*
X94660000Y-91730000I0J-200000D01*
G01*
X94660000Y-93030000D01*
G75*
G02*
X94460000Y-93230000I-200000J0D01*
G01*
X93160000Y-93230000D01*
G75*
G02*
X92960000Y-93030000I0J200000D01*
G01*
G37*
G36*
G01*
X94260000Y-91730000D02*
X94260000Y-90430000D01*
G75*
G02*
X94460000Y-90230000I200000J0D01*
G01*
X95760000Y-90230000D01*
G75*
G02*
X95960000Y-90430000I0J-200000D01*
G01*
X95960000Y-91730000D01*
G75*
G02*
X95760000Y-91930000I-200000J0D01*
G01*
X94460000Y-91930000D01*
G75*
G02*
X94260000Y-91730000I0J200000D01*
G01*
G37*
G36*
G01*
X94260000Y-93030000D02*
X94260000Y-91730000D01*
G75*
G02*
X94460000Y-91530000I200000J0D01*
G01*
X95760000Y-91530000D01*
G75*
G02*
X95960000Y-91730000I0J-200000D01*
G01*
X95960000Y-93030000D01*
G75*
G02*
X95760000Y-93230000I-200000J0D01*
G01*
X94460000Y-93230000D01*
G75*
G02*
X94260000Y-93030000I0J200000D01*
G01*
G37*
G36*
G01*
X93360000Y-90405000D02*
X93060000Y-90405000D01*
G75*
G02*
X92860000Y-90205000I0J200000D01*
G01*
X92860000Y-89355000D01*
G75*
G02*
X93060000Y-89155000I200000J0D01*
G01*
X93360000Y-89155000D01*
G75*
G02*
X93560000Y-89355000I0J-200000D01*
G01*
X93560000Y-90205000D01*
G75*
G02*
X93360000Y-90405000I-200000J0D01*
G01*
G37*
G36*
G01*
X93860000Y-90405000D02*
X93560000Y-90405000D01*
G75*
G02*
X93360000Y-90205000I0J200000D01*
G01*
X93360000Y-89355000D01*
G75*
G02*
X93560000Y-89155000I200000J0D01*
G01*
X93860000Y-89155000D01*
G75*
G02*
X94060000Y-89355000I0J-200000D01*
G01*
X94060000Y-90205000D01*
G75*
G02*
X93860000Y-90405000I-200000J0D01*
G01*
G37*
G36*
G01*
X94360000Y-90405000D02*
X94060000Y-90405000D01*
G75*
G02*
X93860000Y-90205000I0J200000D01*
G01*
X93860000Y-89355000D01*
G75*
G02*
X94060000Y-89155000I200000J0D01*
G01*
X94360000Y-89155000D01*
G75*
G02*
X94560000Y-89355000I0J-200000D01*
G01*
X94560000Y-90205000D01*
G75*
G02*
X94360000Y-90405000I-200000J0D01*
G01*
G37*
G36*
G01*
X94860000Y-90405000D02*
X94560000Y-90405000D01*
G75*
G02*
X94360000Y-90205000I0J200000D01*
G01*
X94360000Y-89355000D01*
G75*
G02*
X94560000Y-89155000I200000J0D01*
G01*
X94860000Y-89155000D01*
G75*
G02*
X95060000Y-89355000I0J-200000D01*
G01*
X95060000Y-90205000D01*
G75*
G02*
X94860000Y-90405000I-200000J0D01*
G01*
G37*
G36*
G01*
X95360000Y-90405000D02*
X95060000Y-90405000D01*
G75*
G02*
X94860000Y-90205000I0J200000D01*
G01*
X94860000Y-89355000D01*
G75*
G02*
X95060000Y-89155000I200000J0D01*
G01*
X95360000Y-89155000D01*
G75*
G02*
X95560000Y-89355000I0J-200000D01*
G01*
X95560000Y-90205000D01*
G75*
G02*
X95360000Y-90405000I-200000J0D01*
G01*
G37*
G36*
G01*
X95860000Y-90405000D02*
X95560000Y-90405000D01*
G75*
G02*
X95360000Y-90205000I0J200000D01*
G01*
X95360000Y-89355000D01*
G75*
G02*
X95560000Y-89155000I200000J0D01*
G01*
X95860000Y-89155000D01*
G75*
G02*
X96060000Y-89355000I0J-200000D01*
G01*
X96060000Y-90205000D01*
G75*
G02*
X95860000Y-90405000I-200000J0D01*
G01*
G37*
G36*
G01*
X95785000Y-90630000D02*
X95785000Y-90330000D01*
G75*
G02*
X95985000Y-90130000I200000J0D01*
G01*
X96835000Y-90130000D01*
G75*
G02*
X97035000Y-90330000I0J-200000D01*
G01*
X97035000Y-90630000D01*
G75*
G02*
X96835000Y-90830000I-200000J0D01*
G01*
X95985000Y-90830000D01*
G75*
G02*
X95785000Y-90630000I0J200000D01*
G01*
G37*
G36*
G01*
X95785000Y-91130000D02*
X95785000Y-90830000D01*
G75*
G02*
X95985000Y-90630000I200000J0D01*
G01*
X96835000Y-90630000D01*
G75*
G02*
X97035000Y-90830000I0J-200000D01*
G01*
X97035000Y-91130000D01*
G75*
G02*
X96835000Y-91330000I-200000J0D01*
G01*
X95985000Y-91330000D01*
G75*
G02*
X95785000Y-91130000I0J200000D01*
G01*
G37*
G36*
G01*
X95785000Y-91630000D02*
X95785000Y-91330000D01*
G75*
G02*
X95985000Y-91130000I200000J0D01*
G01*
X96835000Y-91130000D01*
G75*
G02*
X97035000Y-91330000I0J-200000D01*
G01*
X97035000Y-91630000D01*
G75*
G02*
X96835000Y-91830000I-200000J0D01*
G01*
X95985000Y-91830000D01*
G75*
G02*
X95785000Y-91630000I0J200000D01*
G01*
G37*
G36*
G01*
X95785000Y-92130000D02*
X95785000Y-91830000D01*
G75*
G02*
X95985000Y-91630000I200000J0D01*
G01*
X96835000Y-91630000D01*
G75*
G02*
X97035000Y-91830000I0J-200000D01*
G01*
X97035000Y-92130000D01*
G75*
G02*
X96835000Y-92330000I-200000J0D01*
G01*
X95985000Y-92330000D01*
G75*
G02*
X95785000Y-92130000I0J200000D01*
G01*
G37*
G36*
G01*
X95785000Y-92630000D02*
X95785000Y-92330000D01*
G75*
G02*
X95985000Y-92130000I200000J0D01*
G01*
X96835000Y-92130000D01*
G75*
G02*
X97035000Y-92330000I0J-200000D01*
G01*
X97035000Y-92630000D01*
G75*
G02*
X96835000Y-92830000I-200000J0D01*
G01*
X95985000Y-92830000D01*
G75*
G02*
X95785000Y-92630000I0J200000D01*
G01*
G37*
G36*
G01*
X95785000Y-93130000D02*
X95785000Y-92830000D01*
G75*
G02*
X95985000Y-92630000I200000J0D01*
G01*
X96835000Y-92630000D01*
G75*
G02*
X97035000Y-92830000I0J-200000D01*
G01*
X97035000Y-93130000D01*
G75*
G02*
X96835000Y-93330000I-200000J0D01*
G01*
X95985000Y-93330000D01*
G75*
G02*
X95785000Y-93130000I0J200000D01*
G01*
G37*
G36*
G01*
X95860000Y-94305000D02*
X95560000Y-94305000D01*
G75*
G02*
X95360000Y-94105000I0J200000D01*
G01*
X95360000Y-93255000D01*
G75*
G02*
X95560000Y-93055000I200000J0D01*
G01*
X95860000Y-93055000D01*
G75*
G02*
X96060000Y-93255000I0J-200000D01*
G01*
X96060000Y-94105000D01*
G75*
G02*
X95860000Y-94305000I-200000J0D01*
G01*
G37*
G36*
G01*
X95360000Y-94305000D02*
X95060000Y-94305000D01*
G75*
G02*
X94860000Y-94105000I0J200000D01*
G01*
X94860000Y-93255000D01*
G75*
G02*
X95060000Y-93055000I200000J0D01*
G01*
X95360000Y-93055000D01*
G75*
G02*
X95560000Y-93255000I0J-200000D01*
G01*
X95560000Y-94105000D01*
G75*
G02*
X95360000Y-94305000I-200000J0D01*
G01*
G37*
G36*
G01*
X94860000Y-94305000D02*
X94560000Y-94305000D01*
G75*
G02*
X94360000Y-94105000I0J200000D01*
G01*
X94360000Y-93255000D01*
G75*
G02*
X94560000Y-93055000I200000J0D01*
G01*
X94860000Y-93055000D01*
G75*
G02*
X95060000Y-93255000I0J-200000D01*
G01*
X95060000Y-94105000D01*
G75*
G02*
X94860000Y-94305000I-200000J0D01*
G01*
G37*
G36*
G01*
X94360000Y-94305000D02*
X94060000Y-94305000D01*
G75*
G02*
X93860000Y-94105000I0J200000D01*
G01*
X93860000Y-93255000D01*
G75*
G02*
X94060000Y-93055000I200000J0D01*
G01*
X94360000Y-93055000D01*
G75*
G02*
X94560000Y-93255000I0J-200000D01*
G01*
X94560000Y-94105000D01*
G75*
G02*
X94360000Y-94305000I-200000J0D01*
G01*
G37*
G36*
G01*
X93860000Y-94305000D02*
X93560000Y-94305000D01*
G75*
G02*
X93360000Y-94105000I0J200000D01*
G01*
X93360000Y-93255000D01*
G75*
G02*
X93560000Y-93055000I200000J0D01*
G01*
X93860000Y-93055000D01*
G75*
G02*
X94060000Y-93255000I0J-200000D01*
G01*
X94060000Y-94105000D01*
G75*
G02*
X93860000Y-94305000I-200000J0D01*
G01*
G37*
G36*
G01*
X93360000Y-94305000D02*
X93060000Y-94305000D01*
G75*
G02*
X92860000Y-94105000I0J200000D01*
G01*
X92860000Y-93255000D01*
G75*
G02*
X93060000Y-93055000I200000J0D01*
G01*
X93360000Y-93055000D01*
G75*
G02*
X93560000Y-93255000I0J-200000D01*
G01*
X93560000Y-94105000D01*
G75*
G02*
X93360000Y-94305000I-200000J0D01*
G01*
G37*
G36*
G01*
X91885000Y-93130000D02*
X91885000Y-92830000D01*
G75*
G02*
X92085000Y-92630000I200000J0D01*
G01*
X92935000Y-92630000D01*
G75*
G02*
X93135000Y-92830000I0J-200000D01*
G01*
X93135000Y-93130000D01*
G75*
G02*
X92935000Y-93330000I-200000J0D01*
G01*
X92085000Y-93330000D01*
G75*
G02*
X91885000Y-93130000I0J200000D01*
G01*
G37*
G36*
G01*
X91885000Y-92630000D02*
X91885000Y-92330000D01*
G75*
G02*
X92085000Y-92130000I200000J0D01*
G01*
X92935000Y-92130000D01*
G75*
G02*
X93135000Y-92330000I0J-200000D01*
G01*
X93135000Y-92630000D01*
G75*
G02*
X92935000Y-92830000I-200000J0D01*
G01*
X92085000Y-92830000D01*
G75*
G02*
X91885000Y-92630000I0J200000D01*
G01*
G37*
G36*
G01*
X91885000Y-92130000D02*
X91885000Y-91830000D01*
G75*
G02*
X92085000Y-91630000I200000J0D01*
G01*
X92935000Y-91630000D01*
G75*
G02*
X93135000Y-91830000I0J-200000D01*
G01*
X93135000Y-92130000D01*
G75*
G02*
X92935000Y-92330000I-200000J0D01*
G01*
X92085000Y-92330000D01*
G75*
G02*
X91885000Y-92130000I0J200000D01*
G01*
G37*
G36*
G01*
X91885000Y-91630000D02*
X91885000Y-91330000D01*
G75*
G02*
X92085000Y-91130000I200000J0D01*
G01*
X92935000Y-91130000D01*
G75*
G02*
X93135000Y-91330000I0J-200000D01*
G01*
X93135000Y-91630000D01*
G75*
G02*
X92935000Y-91830000I-200000J0D01*
G01*
X92085000Y-91830000D01*
G75*
G02*
X91885000Y-91630000I0J200000D01*
G01*
G37*
G36*
G01*
X91885000Y-91130000D02*
X91885000Y-90830000D01*
G75*
G02*
X92085000Y-90630000I200000J0D01*
G01*
X92935000Y-90630000D01*
G75*
G02*
X93135000Y-90830000I0J-200000D01*
G01*
X93135000Y-91130000D01*
G75*
G02*
X92935000Y-91330000I-200000J0D01*
G01*
X92085000Y-91330000D01*
G75*
G02*
X91885000Y-91130000I0J200000D01*
G01*
G37*
G36*
G01*
X91885000Y-90630000D02*
X91885000Y-90330000D01*
G75*
G02*
X92085000Y-90130000I200000J0D01*
G01*
X92935000Y-90130000D01*
G75*
G02*
X93135000Y-90330000I0J-200000D01*
G01*
X93135000Y-90630000D01*
G75*
G02*
X92935000Y-90830000I-200000J0D01*
G01*
X92085000Y-90830000D01*
G75*
G02*
X91885000Y-90630000I0J200000D01*
G01*
G37*
G36*
G01*
X86293000Y-79417000D02*
X86293000Y-80667000D01*
G75*
G02*
X86093000Y-80867000I-200000J0D01*
G01*
X85093000Y-80867000D01*
G75*
G02*
X84893000Y-80667000I0J200000D01*
G01*
X84893000Y-79417000D01*
G75*
G02*
X85093000Y-79217000I200000J0D01*
G01*
X86093000Y-79217000D01*
G75*
G02*
X86293000Y-79417000I0J-200000D01*
G01*
G37*
G36*
G01*
X88293000Y-79417000D02*
X88293000Y-80667000D01*
G75*
G02*
X88093000Y-80867000I-200000J0D01*
G01*
X87093000Y-80867000D01*
G75*
G02*
X86893000Y-80667000I0J200000D01*
G01*
X86893000Y-79417000D01*
G75*
G02*
X87093000Y-79217000I200000J0D01*
G01*
X88093000Y-79217000D01*
G75*
G02*
X88293000Y-79417000I0J-200000D01*
G01*
G37*
G36*
G01*
X96570000Y-95830000D02*
X95370000Y-95830000D01*
G75*
G02*
X95170000Y-95630000I0J200000D01*
G01*
X95170000Y-94730000D01*
G75*
G02*
X95370000Y-94530000I200000J0D01*
G01*
X96570000Y-94530000D01*
G75*
G02*
X96770000Y-94730000I0J-200000D01*
G01*
X96770000Y-95630000D01*
G75*
G02*
X96570000Y-95830000I-200000J0D01*
G01*
G37*
G36*
G01*
X96570000Y-99130000D02*
X95370000Y-99130000D01*
G75*
G02*
X95170000Y-98930000I0J200000D01*
G01*
X95170000Y-98030000D01*
G75*
G02*
X95370000Y-97830000I200000J0D01*
G01*
X96570000Y-97830000D01*
G75*
G02*
X96770000Y-98030000I0J-200000D01*
G01*
X96770000Y-98930000D01*
G75*
G02*
X96570000Y-99130000I-200000J0D01*
G01*
G37*
G36*
G01*
X101340000Y-84180000D02*
X102140000Y-84180000D01*
G75*
G02*
X102340000Y-84380000I0J-200000D01*
G01*
X102340000Y-85180000D01*
G75*
G02*
X102140000Y-85380000I-200000J0D01*
G01*
X101340000Y-85380000D01*
G75*
G02*
X101140000Y-85180000I0J200000D01*
G01*
X101140000Y-84380000D01*
G75*
G02*
X101340000Y-84180000I200000J0D01*
G01*
G37*
G36*
G01*
X101340000Y-85780000D02*
X102140000Y-85780000D01*
G75*
G02*
X102340000Y-85980000I0J-200000D01*
G01*
X102340000Y-86780000D01*
G75*
G02*
X102140000Y-86980000I-200000J0D01*
G01*
X101340000Y-86980000D01*
G75*
G02*
X101140000Y-86780000I0J200000D01*
G01*
X101140000Y-85980000D01*
G75*
G02*
X101340000Y-85780000I200000J0D01*
G01*
G37*
G36*
G01*
X73060000Y-82055000D02*
X74160000Y-82055000D01*
G75*
G02*
X74360000Y-82255000I0J-200000D01*
G01*
X74360000Y-83355000D01*
G75*
G02*
X74160000Y-83555000I-200000J0D01*
G01*
X73060000Y-83555000D01*
G75*
G02*
X72860000Y-83355000I0J200000D01*
G01*
X72860000Y-82255000D01*
G75*
G02*
X73060000Y-82055000I200000J0D01*
G01*
G37*
G36*
G01*
X73060000Y-79255000D02*
X74160000Y-79255000D01*
G75*
G02*
X74360000Y-79455000I0J-200000D01*
G01*
X74360000Y-80555000D01*
G75*
G02*
X74160000Y-80755000I-200000J0D01*
G01*
X73060000Y-80755000D01*
G75*
G02*
X72860000Y-80555000I0J200000D01*
G01*
X72860000Y-79455000D01*
G75*
G02*
X73060000Y-79255000I200000J0D01*
G01*
G37*
G36*
G01*
X97700000Y-99230000D02*
X98500000Y-99230000D01*
G75*
G02*
X98700000Y-99430000I0J-200000D01*
G01*
X98700000Y-100330000D01*
G75*
G02*
X98500000Y-100530000I-200000J0D01*
G01*
X97700000Y-100530000D01*
G75*
G02*
X97500000Y-100330000I0J200000D01*
G01*
X97500000Y-99430000D01*
G75*
G02*
X97700000Y-99230000I200000J0D01*
G01*
G37*
G36*
G01*
X95800000Y-99230000D02*
X96600000Y-99230000D01*
G75*
G02*
X96800000Y-99430000I0J-200000D01*
G01*
X96800000Y-100330000D01*
G75*
G02*
X96600000Y-100530000I-200000J0D01*
G01*
X95800000Y-100530000D01*
G75*
G02*
X95600000Y-100330000I0J200000D01*
G01*
X95600000Y-99430000D01*
G75*
G02*
X95800000Y-99230000I200000J0D01*
G01*
G37*
G36*
G01*
X96750000Y-101230000D02*
X97550000Y-101230000D01*
G75*
G02*
X97750000Y-101430000I0J-200000D01*
G01*
X97750000Y-102330000D01*
G75*
G02*
X97550000Y-102530000I-200000J0D01*
G01*
X96750000Y-102530000D01*
G75*
G02*
X96550000Y-102330000I0J200000D01*
G01*
X96550000Y-101430000D01*
G75*
G02*
X96750000Y-101230000I200000J0D01*
G01*
G37*
G36*
G01*
X78160000Y-81350000D02*
X78160000Y-82150000D01*
G75*
G02*
X77960000Y-82350000I-200000J0D01*
G01*
X77060000Y-82350000D01*
G75*
G02*
X76860000Y-82150000I0J200000D01*
G01*
X76860000Y-81350000D01*
G75*
G02*
X77060000Y-81150000I200000J0D01*
G01*
X77960000Y-81150000D01*
G75*
G02*
X78160000Y-81350000I0J-200000D01*
G01*
G37*
G36*
G01*
X78160000Y-79450000D02*
X78160000Y-80250000D01*
G75*
G02*
X77960000Y-80450000I-200000J0D01*
G01*
X77060000Y-80450000D01*
G75*
G02*
X76860000Y-80250000I0J200000D01*
G01*
X76860000Y-79450000D01*
G75*
G02*
X77060000Y-79250000I200000J0D01*
G01*
X77960000Y-79250000D01*
G75*
G02*
X78160000Y-79450000I0J-200000D01*
G01*
G37*
G36*
G01*
X76160000Y-80400000D02*
X76160000Y-81200000D01*
G75*
G02*
X75960000Y-81400000I-200000J0D01*
G01*
X75060000Y-81400000D01*
G75*
G02*
X74860000Y-81200000I0J200000D01*
G01*
X74860000Y-80400000D01*
G75*
G02*
X75060000Y-80200000I200000J0D01*
G01*
X75960000Y-80200000D01*
G75*
G02*
X76160000Y-80400000I0J-200000D01*
G01*
G37*
G36*
G01*
X87761250Y-83676250D02*
X89048750Y-83676250D01*
G75*
G02*
X89248750Y-83876250I0J-200000D01*
G01*
X89248750Y-85163750D01*
G75*
G02*
X89048750Y-85363750I-200000J0D01*
G01*
X87761250Y-85363750D01*
G75*
G02*
X87561250Y-85163750I0J200000D01*
G01*
X87561250Y-83876250D01*
G75*
G02*
X87761250Y-83676250I200000J0D01*
G01*
G37*
G36*
G01*
X86473750Y-83676250D02*
X87761250Y-83676250D01*
G75*
G02*
X87961250Y-83876250I0J-200000D01*
G01*
X87961250Y-85163750D01*
G75*
G02*
X87761250Y-85363750I-200000J0D01*
G01*
X86473750Y-85363750D01*
G75*
G02*
X86273750Y-85163750I0J200000D01*
G01*
X86273750Y-83876250D01*
G75*
G02*
X86473750Y-83676250I200000J0D01*
G01*
G37*
G36*
G01*
X85186250Y-83676250D02*
X86473750Y-83676250D01*
G75*
G02*
X86673750Y-83876250I0J-200000D01*
G01*
X86673750Y-85163750D01*
G75*
G02*
X86473750Y-85363750I-200000J0D01*
G01*
X85186250Y-85363750D01*
G75*
G02*
X84986250Y-85163750I0J200000D01*
G01*
X84986250Y-83876250D01*
G75*
G02*
X85186250Y-83676250I200000J0D01*
G01*
G37*
G36*
G01*
X83898750Y-83676250D02*
X85186250Y-83676250D01*
G75*
G02*
X85386250Y-83876250I0J-200000D01*
G01*
X85386250Y-85163750D01*
G75*
G02*
X85186250Y-85363750I-200000J0D01*
G01*
X83898750Y-85363750D01*
G75*
G02*
X83698750Y-85163750I0J200000D01*
G01*
X83698750Y-83876250D01*
G75*
G02*
X83898750Y-83676250I200000J0D01*
G01*
G37*
G36*
G01*
X87761250Y-84963750D02*
X89048750Y-84963750D01*
G75*
G02*
X89248750Y-85163750I0J-200000D01*
G01*
X89248750Y-86451250D01*
G75*
G02*
X89048750Y-86651250I-200000J0D01*
G01*
X87761250Y-86651250D01*
G75*
G02*
X87561250Y-86451250I0J200000D01*
G01*
X87561250Y-85163750D01*
G75*
G02*
X87761250Y-84963750I200000J0D01*
G01*
G37*
G36*
G01*
X86473750Y-84963750D02*
X87761250Y-84963750D01*
G75*
G02*
X87961250Y-85163750I0J-200000D01*
G01*
X87961250Y-86451250D01*
G75*
G02*
X87761250Y-86651250I-200000J0D01*
G01*
X86473750Y-86651250D01*
G75*
G02*
X86273750Y-86451250I0J200000D01*
G01*
X86273750Y-85163750D01*
G75*
G02*
X86473750Y-84963750I200000J0D01*
G01*
G37*
G36*
G01*
X85186250Y-84963750D02*
X86473750Y-84963750D01*
G75*
G02*
X86673750Y-85163750I0J-200000D01*
G01*
X86673750Y-86451250D01*
G75*
G02*
X86473750Y-86651250I-200000J0D01*
G01*
X85186250Y-86651250D01*
G75*
G02*
X84986250Y-86451250I0J200000D01*
G01*
X84986250Y-85163750D01*
G75*
G02*
X85186250Y-84963750I200000J0D01*
G01*
G37*
G36*
G01*
X83898750Y-84963750D02*
X85186250Y-84963750D01*
G75*
G02*
X85386250Y-85163750I0J-200000D01*
G01*
X85386250Y-86451250D01*
G75*
G02*
X85186250Y-86651250I-200000J0D01*
G01*
X83898750Y-86651250D01*
G75*
G02*
X83698750Y-86451250I0J200000D01*
G01*
X83698750Y-85163750D01*
G75*
G02*
X83898750Y-84963750I200000J0D01*
G01*
G37*
G36*
G01*
X87761250Y-86251250D02*
X89048750Y-86251250D01*
G75*
G02*
X89248750Y-86451250I0J-200000D01*
G01*
X89248750Y-87738750D01*
G75*
G02*
X89048750Y-87938750I-200000J0D01*
G01*
X87761250Y-87938750D01*
G75*
G02*
X87561250Y-87738750I0J200000D01*
G01*
X87561250Y-86451250D01*
G75*
G02*
X87761250Y-86251250I200000J0D01*
G01*
G37*
G36*
G01*
X86473750Y-86251250D02*
X87761250Y-86251250D01*
G75*
G02*
X87961250Y-86451250I0J-200000D01*
G01*
X87961250Y-87738750D01*
G75*
G02*
X87761250Y-87938750I-200000J0D01*
G01*
X86473750Y-87938750D01*
G75*
G02*
X86273750Y-87738750I0J200000D01*
G01*
X86273750Y-86451250D01*
G75*
G02*
X86473750Y-86251250I200000J0D01*
G01*
G37*
G36*
G01*
X85186250Y-86251250D02*
X86473750Y-86251250D01*
G75*
G02*
X86673750Y-86451250I0J-200000D01*
G01*
X86673750Y-87738750D01*
G75*
G02*
X86473750Y-87938750I-200000J0D01*
G01*
X85186250Y-87938750D01*
G75*
G02*
X84986250Y-87738750I0J200000D01*
G01*
X84986250Y-86451250D01*
G75*
G02*
X85186250Y-86251250I200000J0D01*
G01*
G37*
G36*
G01*
X83898750Y-86251250D02*
X85186250Y-86251250D01*
G75*
G02*
X85386250Y-86451250I0J-200000D01*
G01*
X85386250Y-87738750D01*
G75*
G02*
X85186250Y-87938750I-200000J0D01*
G01*
X83898750Y-87938750D01*
G75*
G02*
X83698750Y-87738750I0J200000D01*
G01*
X83698750Y-86451250D01*
G75*
G02*
X83898750Y-86251250I200000J0D01*
G01*
G37*
G36*
G01*
X87761250Y-87538750D02*
X89048750Y-87538750D01*
G75*
G02*
X89248750Y-87738750I0J-200000D01*
G01*
X89248750Y-89026250D01*
G75*
G02*
X89048750Y-89226250I-200000J0D01*
G01*
X87761250Y-89226250D01*
G75*
G02*
X87561250Y-89026250I0J200000D01*
G01*
X87561250Y-87738750D01*
G75*
G02*
X87761250Y-87538750I200000J0D01*
G01*
G37*
G36*
G01*
X86473750Y-87538750D02*
X87761250Y-87538750D01*
G75*
G02*
X87961250Y-87738750I0J-200000D01*
G01*
X87961250Y-89026250D01*
G75*
G02*
X87761250Y-89226250I-200000J0D01*
G01*
X86473750Y-89226250D01*
G75*
G02*
X86273750Y-89026250I0J200000D01*
G01*
X86273750Y-87738750D01*
G75*
G02*
X86473750Y-87538750I200000J0D01*
G01*
G37*
G36*
G01*
X85186250Y-87538750D02*
X86473750Y-87538750D01*
G75*
G02*
X86673750Y-87738750I0J-200000D01*
G01*
X86673750Y-89026250D01*
G75*
G02*
X86473750Y-89226250I-200000J0D01*
G01*
X85186250Y-89226250D01*
G75*
G02*
X84986250Y-89026250I0J200000D01*
G01*
X84986250Y-87738750D01*
G75*
G02*
X85186250Y-87538750I200000J0D01*
G01*
G37*
G36*
G01*
X83898750Y-87538750D02*
X85186250Y-87538750D01*
G75*
G02*
X85386250Y-87738750I0J-200000D01*
G01*
X85386250Y-89026250D01*
G75*
G02*
X85186250Y-89226250I-200000J0D01*
G01*
X83898750Y-89226250D01*
G75*
G02*
X83698750Y-89026250I0J200000D01*
G01*
X83698750Y-87738750D01*
G75*
G02*
X83898750Y-87538750I200000J0D01*
G01*
G37*
G36*
G01*
X89323750Y-83826250D02*
X89323750Y-83576250D01*
G75*
G02*
X89523750Y-83376250I200000J0D01*
G01*
X90223750Y-83376250D01*
G75*
G02*
X90423750Y-83576250I0J-200000D01*
G01*
X90423750Y-83826250D01*
G75*
G02*
X90223750Y-84026250I-200000J0D01*
G01*
X89523750Y-84026250D01*
G75*
G02*
X89323750Y-83826250I0J200000D01*
G01*
G37*
G36*
G01*
X89323750Y-84326250D02*
X89323750Y-84076250D01*
G75*
G02*
X89523750Y-83876250I200000J0D01*
G01*
X90223750Y-83876250D01*
G75*
G02*
X90423750Y-84076250I0J-200000D01*
G01*
X90423750Y-84326250D01*
G75*
G02*
X90223750Y-84526250I-200000J0D01*
G01*
X89523750Y-84526250D01*
G75*
G02*
X89323750Y-84326250I0J200000D01*
G01*
G37*
G36*
G01*
X89323750Y-84826250D02*
X89323750Y-84576250D01*
G75*
G02*
X89523750Y-84376250I200000J0D01*
G01*
X90223750Y-84376250D01*
G75*
G02*
X90423750Y-84576250I0J-200000D01*
G01*
X90423750Y-84826250D01*
G75*
G02*
X90223750Y-85026250I-200000J0D01*
G01*
X89523750Y-85026250D01*
G75*
G02*
X89323750Y-84826250I0J200000D01*
G01*
G37*
G36*
G01*
X89323750Y-85326250D02*
X89323750Y-85076250D01*
G75*
G02*
X89523750Y-84876250I200000J0D01*
G01*
X90223750Y-84876250D01*
G75*
G02*
X90423750Y-85076250I0J-200000D01*
G01*
X90423750Y-85326250D01*
G75*
G02*
X90223750Y-85526250I-200000J0D01*
G01*
X89523750Y-85526250D01*
G75*
G02*
X89323750Y-85326250I0J200000D01*
G01*
G37*
G36*
G01*
X89323750Y-85826250D02*
X89323750Y-85576250D01*
G75*
G02*
X89523750Y-85376250I200000J0D01*
G01*
X90223750Y-85376250D01*
G75*
G02*
X90423750Y-85576250I0J-200000D01*
G01*
X90423750Y-85826250D01*
G75*
G02*
X90223750Y-86026250I-200000J0D01*
G01*
X89523750Y-86026250D01*
G75*
G02*
X89323750Y-85826250I0J200000D01*
G01*
G37*
G36*
G01*
X89323750Y-86326250D02*
X89323750Y-86076250D01*
G75*
G02*
X89523750Y-85876250I200000J0D01*
G01*
X90223750Y-85876250D01*
G75*
G02*
X90423750Y-86076250I0J-200000D01*
G01*
X90423750Y-86326250D01*
G75*
G02*
X90223750Y-86526250I-200000J0D01*
G01*
X89523750Y-86526250D01*
G75*
G02*
X89323750Y-86326250I0J200000D01*
G01*
G37*
G36*
G01*
X89323750Y-86826250D02*
X89323750Y-86576250D01*
G75*
G02*
X89523750Y-86376250I200000J0D01*
G01*
X90223750Y-86376250D01*
G75*
G02*
X90423750Y-86576250I0J-200000D01*
G01*
X90423750Y-86826250D01*
G75*
G02*
X90223750Y-87026250I-200000J0D01*
G01*
X89523750Y-87026250D01*
G75*
G02*
X89323750Y-86826250I0J200000D01*
G01*
G37*
G36*
G01*
X89323750Y-87326250D02*
X89323750Y-87076250D01*
G75*
G02*
X89523750Y-86876250I200000J0D01*
G01*
X90223750Y-86876250D01*
G75*
G02*
X90423750Y-87076250I0J-200000D01*
G01*
X90423750Y-87326250D01*
G75*
G02*
X90223750Y-87526250I-200000J0D01*
G01*
X89523750Y-87526250D01*
G75*
G02*
X89323750Y-87326250I0J200000D01*
G01*
G37*
G36*
G01*
X89323750Y-87826250D02*
X89323750Y-87576250D01*
G75*
G02*
X89523750Y-87376250I200000J0D01*
G01*
X90223750Y-87376250D01*
G75*
G02*
X90423750Y-87576250I0J-200000D01*
G01*
X90423750Y-87826250D01*
G75*
G02*
X90223750Y-88026250I-200000J0D01*
G01*
X89523750Y-88026250D01*
G75*
G02*
X89323750Y-87826250I0J200000D01*
G01*
G37*
G36*
G01*
X89323750Y-88326250D02*
X89323750Y-88076250D01*
G75*
G02*
X89523750Y-87876250I200000J0D01*
G01*
X90223750Y-87876250D01*
G75*
G02*
X90423750Y-88076250I0J-200000D01*
G01*
X90423750Y-88326250D01*
G75*
G02*
X90223750Y-88526250I-200000J0D01*
G01*
X89523750Y-88526250D01*
G75*
G02*
X89323750Y-88326250I0J200000D01*
G01*
G37*
G36*
G01*
X89323750Y-88826250D02*
X89323750Y-88576250D01*
G75*
G02*
X89523750Y-88376250I200000J0D01*
G01*
X90223750Y-88376250D01*
G75*
G02*
X90423750Y-88576250I0J-200000D01*
G01*
X90423750Y-88826250D01*
G75*
G02*
X90223750Y-89026250I-200000J0D01*
G01*
X89523750Y-89026250D01*
G75*
G02*
X89323750Y-88826250I0J200000D01*
G01*
G37*
G36*
G01*
X89323750Y-89326250D02*
X89323750Y-89076250D01*
G75*
G02*
X89523750Y-88876250I200000J0D01*
G01*
X90223750Y-88876250D01*
G75*
G02*
X90423750Y-89076250I0J-200000D01*
G01*
X90423750Y-89326250D01*
G75*
G02*
X90223750Y-89526250I-200000J0D01*
G01*
X89523750Y-89526250D01*
G75*
G02*
X89323750Y-89326250I0J200000D01*
G01*
G37*
G36*
G01*
X89098750Y-89301250D02*
X89348750Y-89301250D01*
G75*
G02*
X89548750Y-89501250I0J-200000D01*
G01*
X89548750Y-90201250D01*
G75*
G02*
X89348750Y-90401250I-200000J0D01*
G01*
X89098750Y-90401250D01*
G75*
G02*
X88898750Y-90201250I0J200000D01*
G01*
X88898750Y-89501250D01*
G75*
G02*
X89098750Y-89301250I200000J0D01*
G01*
G37*
G36*
G01*
X88598750Y-89301250D02*
X88848750Y-89301250D01*
G75*
G02*
X89048750Y-89501250I0J-200000D01*
G01*
X89048750Y-90201250D01*
G75*
G02*
X88848750Y-90401250I-200000J0D01*
G01*
X88598750Y-90401250D01*
G75*
G02*
X88398750Y-90201250I0J200000D01*
G01*
X88398750Y-89501250D01*
G75*
G02*
X88598750Y-89301250I200000J0D01*
G01*
G37*
G36*
G01*
X88098750Y-89301250D02*
X88348750Y-89301250D01*
G75*
G02*
X88548750Y-89501250I0J-200000D01*
G01*
X88548750Y-90201250D01*
G75*
G02*
X88348750Y-90401250I-200000J0D01*
G01*
X88098750Y-90401250D01*
G75*
G02*
X87898750Y-90201250I0J200000D01*
G01*
X87898750Y-89501250D01*
G75*
G02*
X88098750Y-89301250I200000J0D01*
G01*
G37*
G36*
G01*
X87598750Y-89301250D02*
X87848750Y-89301250D01*
G75*
G02*
X88048750Y-89501250I0J-200000D01*
G01*
X88048750Y-90201250D01*
G75*
G02*
X87848750Y-90401250I-200000J0D01*
G01*
X87598750Y-90401250D01*
G75*
G02*
X87398750Y-90201250I0J200000D01*
G01*
X87398750Y-89501250D01*
G75*
G02*
X87598750Y-89301250I200000J0D01*
G01*
G37*
G36*
G01*
X87098750Y-89301250D02*
X87348750Y-89301250D01*
G75*
G02*
X87548750Y-89501250I0J-200000D01*
G01*
X87548750Y-90201250D01*
G75*
G02*
X87348750Y-90401250I-200000J0D01*
G01*
X87098750Y-90401250D01*
G75*
G02*
X86898750Y-90201250I0J200000D01*
G01*
X86898750Y-89501250D01*
G75*
G02*
X87098750Y-89301250I200000J0D01*
G01*
G37*
G36*
G01*
X86598750Y-89301250D02*
X86848750Y-89301250D01*
G75*
G02*
X87048750Y-89501250I0J-200000D01*
G01*
X87048750Y-90201250D01*
G75*
G02*
X86848750Y-90401250I-200000J0D01*
G01*
X86598750Y-90401250D01*
G75*
G02*
X86398750Y-90201250I0J200000D01*
G01*
X86398750Y-89501250D01*
G75*
G02*
X86598750Y-89301250I200000J0D01*
G01*
G37*
G36*
G01*
X86098750Y-89301250D02*
X86348750Y-89301250D01*
G75*
G02*
X86548750Y-89501250I0J-200000D01*
G01*
X86548750Y-90201250D01*
G75*
G02*
X86348750Y-90401250I-200000J0D01*
G01*
X86098750Y-90401250D01*
G75*
G02*
X85898750Y-90201250I0J200000D01*
G01*
X85898750Y-89501250D01*
G75*
G02*
X86098750Y-89301250I200000J0D01*
G01*
G37*
G36*
G01*
X85598750Y-89301250D02*
X85848750Y-89301250D01*
G75*
G02*
X86048750Y-89501250I0J-200000D01*
G01*
X86048750Y-90201250D01*
G75*
G02*
X85848750Y-90401250I-200000J0D01*
G01*
X85598750Y-90401250D01*
G75*
G02*
X85398750Y-90201250I0J200000D01*
G01*
X85398750Y-89501250D01*
G75*
G02*
X85598750Y-89301250I200000J0D01*
G01*
G37*
G36*
G01*
X85098750Y-89301250D02*
X85348750Y-89301250D01*
G75*
G02*
X85548750Y-89501250I0J-200000D01*
G01*
X85548750Y-90201250D01*
G75*
G02*
X85348750Y-90401250I-200000J0D01*
G01*
X85098750Y-90401250D01*
G75*
G02*
X84898750Y-90201250I0J200000D01*
G01*
X84898750Y-89501250D01*
G75*
G02*
X85098750Y-89301250I200000J0D01*
G01*
G37*
G36*
G01*
X84598750Y-89301250D02*
X84848750Y-89301250D01*
G75*
G02*
X85048750Y-89501250I0J-200000D01*
G01*
X85048750Y-90201250D01*
G75*
G02*
X84848750Y-90401250I-200000J0D01*
G01*
X84598750Y-90401250D01*
G75*
G02*
X84398750Y-90201250I0J200000D01*
G01*
X84398750Y-89501250D01*
G75*
G02*
X84598750Y-89301250I200000J0D01*
G01*
G37*
G36*
G01*
X84098750Y-89301250D02*
X84348750Y-89301250D01*
G75*
G02*
X84548750Y-89501250I0J-200000D01*
G01*
X84548750Y-90201250D01*
G75*
G02*
X84348750Y-90401250I-200000J0D01*
G01*
X84098750Y-90401250D01*
G75*
G02*
X83898750Y-90201250I0J200000D01*
G01*
X83898750Y-89501250D01*
G75*
G02*
X84098750Y-89301250I200000J0D01*
G01*
G37*
G36*
G01*
X83598750Y-89301250D02*
X83848750Y-89301250D01*
G75*
G02*
X84048750Y-89501250I0J-200000D01*
G01*
X84048750Y-90201250D01*
G75*
G02*
X83848750Y-90401250I-200000J0D01*
G01*
X83598750Y-90401250D01*
G75*
G02*
X83398750Y-90201250I0J200000D01*
G01*
X83398750Y-89501250D01*
G75*
G02*
X83598750Y-89301250I200000J0D01*
G01*
G37*
G36*
G01*
X82523750Y-89326250D02*
X82523750Y-89076250D01*
G75*
G02*
X82723750Y-88876250I200000J0D01*
G01*
X83423750Y-88876250D01*
G75*
G02*
X83623750Y-89076250I0J-200000D01*
G01*
X83623750Y-89326250D01*
G75*
G02*
X83423750Y-89526250I-200000J0D01*
G01*
X82723750Y-89526250D01*
G75*
G02*
X82523750Y-89326250I0J200000D01*
G01*
G37*
G36*
G01*
X82523750Y-88826250D02*
X82523750Y-88576250D01*
G75*
G02*
X82723750Y-88376250I200000J0D01*
G01*
X83423750Y-88376250D01*
G75*
G02*
X83623750Y-88576250I0J-200000D01*
G01*
X83623750Y-88826250D01*
G75*
G02*
X83423750Y-89026250I-200000J0D01*
G01*
X82723750Y-89026250D01*
G75*
G02*
X82523750Y-88826250I0J200000D01*
G01*
G37*
G36*
G01*
X82523750Y-88326250D02*
X82523750Y-88076250D01*
G75*
G02*
X82723750Y-87876250I200000J0D01*
G01*
X83423750Y-87876250D01*
G75*
G02*
X83623750Y-88076250I0J-200000D01*
G01*
X83623750Y-88326250D01*
G75*
G02*
X83423750Y-88526250I-200000J0D01*
G01*
X82723750Y-88526250D01*
G75*
G02*
X82523750Y-88326250I0J200000D01*
G01*
G37*
G36*
G01*
X82523750Y-87826250D02*
X82523750Y-87576250D01*
G75*
G02*
X82723750Y-87376250I200000J0D01*
G01*
X83423750Y-87376250D01*
G75*
G02*
X83623750Y-87576250I0J-200000D01*
G01*
X83623750Y-87826250D01*
G75*
G02*
X83423750Y-88026250I-200000J0D01*
G01*
X82723750Y-88026250D01*
G75*
G02*
X82523750Y-87826250I0J200000D01*
G01*
G37*
G36*
G01*
X82523750Y-87326250D02*
X82523750Y-87076250D01*
G75*
G02*
X82723750Y-86876250I200000J0D01*
G01*
X83423750Y-86876250D01*
G75*
G02*
X83623750Y-87076250I0J-200000D01*
G01*
X83623750Y-87326250D01*
G75*
G02*
X83423750Y-87526250I-200000J0D01*
G01*
X82723750Y-87526250D01*
G75*
G02*
X82523750Y-87326250I0J200000D01*
G01*
G37*
G36*
G01*
X82523750Y-86826250D02*
X82523750Y-86576250D01*
G75*
G02*
X82723750Y-86376250I200000J0D01*
G01*
X83423750Y-86376250D01*
G75*
G02*
X83623750Y-86576250I0J-200000D01*
G01*
X83623750Y-86826250D01*
G75*
G02*
X83423750Y-87026250I-200000J0D01*
G01*
X82723750Y-87026250D01*
G75*
G02*
X82523750Y-86826250I0J200000D01*
G01*
G37*
G36*
G01*
X82523750Y-86326250D02*
X82523750Y-86076250D01*
G75*
G02*
X82723750Y-85876250I200000J0D01*
G01*
X83423750Y-85876250D01*
G75*
G02*
X83623750Y-86076250I0J-200000D01*
G01*
X83623750Y-86326250D01*
G75*
G02*
X83423750Y-86526250I-200000J0D01*
G01*
X82723750Y-86526250D01*
G75*
G02*
X82523750Y-86326250I0J200000D01*
G01*
G37*
G36*
G01*
X82523750Y-85826250D02*
X82523750Y-85576250D01*
G75*
G02*
X82723750Y-85376250I200000J0D01*
G01*
X83423750Y-85376250D01*
G75*
G02*
X83623750Y-85576250I0J-200000D01*
G01*
X83623750Y-85826250D01*
G75*
G02*
X83423750Y-86026250I-200000J0D01*
G01*
X82723750Y-86026250D01*
G75*
G02*
X82523750Y-85826250I0J200000D01*
G01*
G37*
G36*
G01*
X82523750Y-85326250D02*
X82523750Y-85076250D01*
G75*
G02*
X82723750Y-84876250I200000J0D01*
G01*
X83423750Y-84876250D01*
G75*
G02*
X83623750Y-85076250I0J-200000D01*
G01*
X83623750Y-85326250D01*
G75*
G02*
X83423750Y-85526250I-200000J0D01*
G01*
X82723750Y-85526250D01*
G75*
G02*
X82523750Y-85326250I0J200000D01*
G01*
G37*
G36*
G01*
X82523750Y-84826250D02*
X82523750Y-84576250D01*
G75*
G02*
X82723750Y-84376250I200000J0D01*
G01*
X83423750Y-84376250D01*
G75*
G02*
X83623750Y-84576250I0J-200000D01*
G01*
X83623750Y-84826250D01*
G75*
G02*
X83423750Y-85026250I-200000J0D01*
G01*
X82723750Y-85026250D01*
G75*
G02*
X82523750Y-84826250I0J200000D01*
G01*
G37*
G36*
G01*
X82523750Y-84326250D02*
X82523750Y-84076250D01*
G75*
G02*
X82723750Y-83876250I200000J0D01*
G01*
X83423750Y-83876250D01*
G75*
G02*
X83623750Y-84076250I0J-200000D01*
G01*
X83623750Y-84326250D01*
G75*
G02*
X83423750Y-84526250I-200000J0D01*
G01*
X82723750Y-84526250D01*
G75*
G02*
X82523750Y-84326250I0J200000D01*
G01*
G37*
G36*
G01*
X82523750Y-83826250D02*
X82523750Y-83576250D01*
G75*
G02*
X82723750Y-83376250I200000J0D01*
G01*
X83423750Y-83376250D01*
G75*
G02*
X83623750Y-83576250I0J-200000D01*
G01*
X83623750Y-83826250D01*
G75*
G02*
X83423750Y-84026250I-200000J0D01*
G01*
X82723750Y-84026250D01*
G75*
G02*
X82523750Y-83826250I0J200000D01*
G01*
G37*
G36*
G01*
X83598750Y-82501250D02*
X83848750Y-82501250D01*
G75*
G02*
X84048750Y-82701250I0J-200000D01*
G01*
X84048750Y-83401250D01*
G75*
G02*
X83848750Y-83601250I-200000J0D01*
G01*
X83598750Y-83601250D01*
G75*
G02*
X83398750Y-83401250I0J200000D01*
G01*
X83398750Y-82701250D01*
G75*
G02*
X83598750Y-82501250I200000J0D01*
G01*
G37*
G36*
G01*
X84098750Y-82501250D02*
X84348750Y-82501250D01*
G75*
G02*
X84548750Y-82701250I0J-200000D01*
G01*
X84548750Y-83401250D01*
G75*
G02*
X84348750Y-83601250I-200000J0D01*
G01*
X84098750Y-83601250D01*
G75*
G02*
X83898750Y-83401250I0J200000D01*
G01*
X83898750Y-82701250D01*
G75*
G02*
X84098750Y-82501250I200000J0D01*
G01*
G37*
G36*
G01*
X84598750Y-82501250D02*
X84848750Y-82501250D01*
G75*
G02*
X85048750Y-82701250I0J-200000D01*
G01*
X85048750Y-83401250D01*
G75*
G02*
X84848750Y-83601250I-200000J0D01*
G01*
X84598750Y-83601250D01*
G75*
G02*
X84398750Y-83401250I0J200000D01*
G01*
X84398750Y-82701250D01*
G75*
G02*
X84598750Y-82501250I200000J0D01*
G01*
G37*
G36*
G01*
X85098750Y-82501250D02*
X85348750Y-82501250D01*
G75*
G02*
X85548750Y-82701250I0J-200000D01*
G01*
X85548750Y-83401250D01*
G75*
G02*
X85348750Y-83601250I-200000J0D01*
G01*
X85098750Y-83601250D01*
G75*
G02*
X84898750Y-83401250I0J200000D01*
G01*
X84898750Y-82701250D01*
G75*
G02*
X85098750Y-82501250I200000J0D01*
G01*
G37*
G36*
G01*
X85598750Y-82501250D02*
X85848750Y-82501250D01*
G75*
G02*
X86048750Y-82701250I0J-200000D01*
G01*
X86048750Y-83401250D01*
G75*
G02*
X85848750Y-83601250I-200000J0D01*
G01*
X85598750Y-83601250D01*
G75*
G02*
X85398750Y-83401250I0J200000D01*
G01*
X85398750Y-82701250D01*
G75*
G02*
X85598750Y-82501250I200000J0D01*
G01*
G37*
G36*
G01*
X86098750Y-82501250D02*
X86348750Y-82501250D01*
G75*
G02*
X86548750Y-82701250I0J-200000D01*
G01*
X86548750Y-83401250D01*
G75*
G02*
X86348750Y-83601250I-200000J0D01*
G01*
X86098750Y-83601250D01*
G75*
G02*
X85898750Y-83401250I0J200000D01*
G01*
X85898750Y-82701250D01*
G75*
G02*
X86098750Y-82501250I200000J0D01*
G01*
G37*
G36*
G01*
X86598750Y-82501250D02*
X86848750Y-82501250D01*
G75*
G02*
X87048750Y-82701250I0J-200000D01*
G01*
X87048750Y-83401250D01*
G75*
G02*
X86848750Y-83601250I-200000J0D01*
G01*
X86598750Y-83601250D01*
G75*
G02*
X86398750Y-83401250I0J200000D01*
G01*
X86398750Y-82701250D01*
G75*
G02*
X86598750Y-82501250I200000J0D01*
G01*
G37*
G36*
G01*
X87098750Y-82501250D02*
X87348750Y-82501250D01*
G75*
G02*
X87548750Y-82701250I0J-200000D01*
G01*
X87548750Y-83401250D01*
G75*
G02*
X87348750Y-83601250I-200000J0D01*
G01*
X87098750Y-83601250D01*
G75*
G02*
X86898750Y-83401250I0J200000D01*
G01*
X86898750Y-82701250D01*
G75*
G02*
X87098750Y-82501250I200000J0D01*
G01*
G37*
G36*
G01*
X87598750Y-82501250D02*
X87848750Y-82501250D01*
G75*
G02*
X88048750Y-82701250I0J-200000D01*
G01*
X88048750Y-83401250D01*
G75*
G02*
X87848750Y-83601250I-200000J0D01*
G01*
X87598750Y-83601250D01*
G75*
G02*
X87398750Y-83401250I0J200000D01*
G01*
X87398750Y-82701250D01*
G75*
G02*
X87598750Y-82501250I200000J0D01*
G01*
G37*
G36*
G01*
X88098750Y-82501250D02*
X88348750Y-82501250D01*
G75*
G02*
X88548750Y-82701250I0J-200000D01*
G01*
X88548750Y-83401250D01*
G75*
G02*
X88348750Y-83601250I-200000J0D01*
G01*
X88098750Y-83601250D01*
G75*
G02*
X87898750Y-83401250I0J200000D01*
G01*
X87898750Y-82701250D01*
G75*
G02*
X88098750Y-82501250I200000J0D01*
G01*
G37*
G36*
G01*
X88598750Y-82501250D02*
X88848750Y-82501250D01*
G75*
G02*
X89048750Y-82701250I0J-200000D01*
G01*
X89048750Y-83401250D01*
G75*
G02*
X88848750Y-83601250I-200000J0D01*
G01*
X88598750Y-83601250D01*
G75*
G02*
X88398750Y-83401250I0J200000D01*
G01*
X88398750Y-82701250D01*
G75*
G02*
X88598750Y-82501250I200000J0D01*
G01*
G37*
G36*
G01*
X89098750Y-82501250D02*
X89348750Y-82501250D01*
G75*
G02*
X89548750Y-82701250I0J-200000D01*
G01*
X89548750Y-83401250D01*
G75*
G02*
X89348750Y-83601250I-200000J0D01*
G01*
X89098750Y-83601250D01*
G75*
G02*
X88898750Y-83401250I0J200000D01*
G01*
X88898750Y-82701250D01*
G75*
G02*
X89098750Y-82501250I200000J0D01*
G01*
G37*
G36*
G01*
X93985000Y-94400000D02*
X94635000Y-94400000D01*
G75*
G02*
X94835000Y-94600000I0J-200000D01*
G01*
X94835000Y-95660000D01*
G75*
G02*
X94635000Y-95860000I-200000J0D01*
G01*
X93985000Y-95860000D01*
G75*
G02*
X93785000Y-95660000I0J200000D01*
G01*
X93785000Y-94600000D01*
G75*
G02*
X93985000Y-94400000I200000J0D01*
G01*
G37*
G36*
G01*
X93035000Y-94400000D02*
X93685000Y-94400000D01*
G75*
G02*
X93885000Y-94600000I0J-200000D01*
G01*
X93885000Y-95660000D01*
G75*
G02*
X93685000Y-95860000I-200000J0D01*
G01*
X93035000Y-95860000D01*
G75*
G02*
X92835000Y-95660000I0J200000D01*
G01*
X92835000Y-94600000D01*
G75*
G02*
X93035000Y-94400000I200000J0D01*
G01*
G37*
G36*
G01*
X92085000Y-94400000D02*
X92735000Y-94400000D01*
G75*
G02*
X92935000Y-94600000I0J-200000D01*
G01*
X92935000Y-95660000D01*
G75*
G02*
X92735000Y-95860000I-200000J0D01*
G01*
X92085000Y-95860000D01*
G75*
G02*
X91885000Y-95660000I0J200000D01*
G01*
X91885000Y-94600000D01*
G75*
G02*
X92085000Y-94400000I200000J0D01*
G01*
G37*
G36*
G01*
X92085000Y-96600000D02*
X92735000Y-96600000D01*
G75*
G02*
X92935000Y-96800000I0J-200000D01*
G01*
X92935000Y-97860000D01*
G75*
G02*
X92735000Y-98060000I-200000J0D01*
G01*
X92085000Y-98060000D01*
G75*
G02*
X91885000Y-97860000I0J200000D01*
G01*
X91885000Y-96800000D01*
G75*
G02*
X92085000Y-96600000I200000J0D01*
G01*
G37*
G36*
G01*
X93985000Y-96600000D02*
X94635000Y-96600000D01*
G75*
G02*
X94835000Y-96800000I0J-200000D01*
G01*
X94835000Y-97860000D01*
G75*
G02*
X94635000Y-98060000I-200000J0D01*
G01*
X93985000Y-98060000D01*
G75*
G02*
X93785000Y-97860000I0J200000D01*
G01*
X93785000Y-96800000D01*
G75*
G02*
X93985000Y-96600000I200000J0D01*
G01*
G37*
G36*
G01*
X101325000Y-100550000D02*
X101975000Y-100550000D01*
G75*
G02*
X102175000Y-100750000I0J-200000D01*
G01*
X102175000Y-101810000D01*
G75*
G02*
X101975000Y-102010000I-200000J0D01*
G01*
X101325000Y-102010000D01*
G75*
G02*
X101125000Y-101810000I0J200000D01*
G01*
X101125000Y-100750000D01*
G75*
G02*
X101325000Y-100550000I200000J0D01*
G01*
G37*
G36*
G01*
X99425000Y-100550000D02*
X100075000Y-100550000D01*
G75*
G02*
X100275000Y-100750000I0J-200000D01*
G01*
X100275000Y-101810000D01*
G75*
G02*
X100075000Y-102010000I-200000J0D01*
G01*
X99425000Y-102010000D01*
G75*
G02*
X99225000Y-101810000I0J200000D01*
G01*
X99225000Y-100750000D01*
G75*
G02*
X99425000Y-100550000I200000J0D01*
G01*
G37*
G36*
G01*
X99425000Y-98350000D02*
X100075000Y-98350000D01*
G75*
G02*
X100275000Y-98550000I0J-200000D01*
G01*
X100275000Y-99610000D01*
G75*
G02*
X100075000Y-99810000I-200000J0D01*
G01*
X99425000Y-99810000D01*
G75*
G02*
X99225000Y-99610000I0J200000D01*
G01*
X99225000Y-98550000D01*
G75*
G02*
X99425000Y-98350000I200000J0D01*
G01*
G37*
G36*
G01*
X100375000Y-98350000D02*
X101025000Y-98350000D01*
G75*
G02*
X101225000Y-98550000I0J-200000D01*
G01*
X101225000Y-99610000D01*
G75*
G02*
X101025000Y-99810000I-200000J0D01*
G01*
X100375000Y-99810000D01*
G75*
G02*
X100175000Y-99610000I0J200000D01*
G01*
X100175000Y-98550000D01*
G75*
G02*
X100375000Y-98350000I200000J0D01*
G01*
G37*
G36*
G01*
X101325000Y-98350000D02*
X101975000Y-98350000D01*
G75*
G02*
X102175000Y-98550000I0J-200000D01*
G01*
X102175000Y-99610000D01*
G75*
G02*
X101975000Y-99810000I-200000J0D01*
G01*
X101325000Y-99810000D01*
G75*
G02*
X101125000Y-99610000I0J200000D01*
G01*
X101125000Y-98550000D01*
G75*
G02*
X101325000Y-98350000I200000J0D01*
G01*
G37*
G36*
G01*
X89585000Y-95090000D02*
X89585000Y-95490000D01*
G75*
G02*
X89385000Y-95690000I-200000J0D01*
G01*
X88735000Y-95690000D01*
G75*
G02*
X88535000Y-95490000I0J200000D01*
G01*
X88535000Y-95090000D01*
G75*
G02*
X88735000Y-94890000I200000J0D01*
G01*
X89385000Y-94890000D01*
G75*
G02*
X89585000Y-95090000I0J-200000D01*
G01*
G37*
G36*
G01*
X89585000Y-93790000D02*
X89585000Y-94190000D01*
G75*
G02*
X89385000Y-94390000I-200000J0D01*
G01*
X88735000Y-94390000D01*
G75*
G02*
X88535000Y-94190000I0J200000D01*
G01*
X88535000Y-93790000D01*
G75*
G02*
X88735000Y-93590000I200000J0D01*
G01*
X89385000Y-93590000D01*
G75*
G02*
X89585000Y-93790000I0J-200000D01*
G01*
G37*
G36*
G01*
X91485000Y-94440000D02*
X91485000Y-94840000D01*
G75*
G02*
X91285000Y-95040000I-200000J0D01*
G01*
X90635000Y-95040000D01*
G75*
G02*
X90435000Y-94840000I0J200000D01*
G01*
X90435000Y-94440000D01*
G75*
G02*
X90635000Y-94240000I200000J0D01*
G01*
X91285000Y-94240000D01*
G75*
G02*
X91485000Y-94440000I0J-200000D01*
G01*
G37*
G36*
G01*
X89585000Y-94440000D02*
X89585000Y-94840000D01*
G75*
G02*
X89385000Y-95040000I-200000J0D01*
G01*
X88735000Y-95040000D01*
G75*
G02*
X88535000Y-94840000I0J200000D01*
G01*
X88535000Y-94440000D01*
G75*
G02*
X88735000Y-94240000I200000J0D01*
G01*
X89385000Y-94240000D01*
G75*
G02*
X89585000Y-94440000I0J-200000D01*
G01*
G37*
G36*
G01*
X91485000Y-93790000D02*
X91485000Y-94190000D01*
G75*
G02*
X91285000Y-94390000I-200000J0D01*
G01*
X90635000Y-94390000D01*
G75*
G02*
X90435000Y-94190000I0J200000D01*
G01*
X90435000Y-93790000D01*
G75*
G02*
X90635000Y-93590000I200000J0D01*
G01*
X91285000Y-93590000D01*
G75*
G02*
X91485000Y-93790000I0J-200000D01*
G01*
G37*
G36*
G01*
X91485000Y-95090000D02*
X91485000Y-95490000D01*
G75*
G02*
X91285000Y-95690000I-200000J0D01*
G01*
X90635000Y-95690000D01*
G75*
G02*
X90435000Y-95490000I0J200000D01*
G01*
X90435000Y-95090000D01*
G75*
G02*
X90635000Y-94890000I200000J0D01*
G01*
X91285000Y-94890000D01*
G75*
G02*
X91485000Y-95090000I0J-200000D01*
G01*
G37*
D14*
X74274000Y-85266000D03*
G36*
G01*
X72949000Y-86216000D02*
X71599000Y-86216000D01*
G75*
G02*
X71399000Y-86016000I0J200000D01*
G01*
X71399000Y-84516000D01*
G75*
G02*
X71599000Y-84316000I200000J0D01*
G01*
X72949000Y-84316000D01*
G75*
G02*
X73149000Y-84516000I0J-200000D01*
G01*
X73149000Y-86016000D01*
G75*
G02*
X72949000Y-86216000I-200000J0D01*
G01*
G37*
G36*
G01*
X88275000Y-79680000D02*
X88275000Y-79180000D01*
G75*
G02*
X88475000Y-78980000I200000J0D01*
G01*
X88975000Y-78980000D01*
G75*
G02*
X89175000Y-79180000I0J-200000D01*
G01*
X89175000Y-79680000D01*
G75*
G02*
X88975000Y-79880000I-200000J0D01*
G01*
X88475000Y-79880000D01*
G75*
G02*
X88275000Y-79680000I0J200000D01*
G01*
G37*
G36*
G01*
X90175000Y-79680000D02*
X90175000Y-79180000D01*
G75*
G02*
X90375000Y-78980000I200000J0D01*
G01*
X91275000Y-78980000D01*
G75*
G02*
X91475000Y-79180000I0J-200000D01*
G01*
X91475000Y-79680000D01*
G75*
G02*
X91275000Y-79880000I-200000J0D01*
G01*
X90375000Y-79880000D01*
G75*
G02*
X90175000Y-79680000I0J200000D01*
G01*
G37*
M02*
