G04 #@! TF.GenerationSoftware,KiCad,Pcbnew,(5.1.9)-1*
G04 #@! TF.CreationDate,2021-05-12T11:04:24-07:00*
G04 #@! TF.ProjectId,Watchy,57617463-6879-42e6-9b69-6361645f7063,rev?*
G04 #@! TF.SameCoordinates,Original*
G04 #@! TF.FileFunction,Legend,Bot*
G04 #@! TF.FilePolarity,Positive*
%FSLAX46Y46*%
G04 Gerber Fmt 4.6, Leading zero omitted, Abs format (unit mm)*
G04 Created by KiCad (PCBNEW (5.1.9)-1) date 2021-05-12 11:04:24*
%MOMM*%
%LPD*%
G01*
G04 APERTURE LIST*
%ADD10C,0.125000*%
%ADD11C,0.300000*%
%ADD12C,0.120000*%
%ADD13C,0.150000*%
%ADD14O,1.350000X1.650000*%
%ADD15O,1.950000X1.400000*%
%ADD16C,1.200000*%
%ADD17O,1.250000X1.250000*%
G04 APERTURE END LIST*
D10*
X85356857Y-97217333D02*
X85118761Y-97217333D01*
X85404476Y-97360190D02*
X85237809Y-96860190D01*
X85071142Y-97360190D01*
X84975904Y-96860190D02*
X84690190Y-96860190D01*
X84833047Y-97360190D02*
X84833047Y-96860190D01*
X84261619Y-96884000D02*
X84309238Y-96860190D01*
X84380666Y-96860190D01*
X84452095Y-96884000D01*
X84499714Y-96931619D01*
X84523523Y-96979238D01*
X84547333Y-97074476D01*
X84547333Y-97145904D01*
X84523523Y-97241142D01*
X84499714Y-97288761D01*
X84452095Y-97336380D01*
X84380666Y-97360190D01*
X84333047Y-97360190D01*
X84261619Y-97336380D01*
X84237809Y-97312571D01*
X84237809Y-97145904D01*
X84333047Y-97145904D01*
X84023523Y-97360190D02*
X84023523Y-96860190D01*
X83856857Y-97217333D01*
X83690190Y-96860190D01*
X83690190Y-97360190D01*
X83071142Y-97360190D02*
X83071142Y-97026857D01*
X83071142Y-97074476D02*
X83047333Y-97050666D01*
X82999714Y-97026857D01*
X82928285Y-97026857D01*
X82880666Y-97050666D01*
X82856857Y-97098285D01*
X82856857Y-97360190D01*
X82856857Y-97098285D02*
X82833047Y-97050666D01*
X82785428Y-97026857D01*
X82714000Y-97026857D01*
X82666380Y-97050666D01*
X82642571Y-97098285D01*
X82642571Y-97360190D01*
X82333047Y-97360190D02*
X82380666Y-97336380D01*
X82404476Y-97312571D01*
X82428285Y-97264952D01*
X82428285Y-97122095D01*
X82404476Y-97074476D01*
X82380666Y-97050666D01*
X82333047Y-97026857D01*
X82261619Y-97026857D01*
X82214000Y-97050666D01*
X82190190Y-97074476D01*
X82166380Y-97122095D01*
X82166380Y-97264952D01*
X82190190Y-97312571D01*
X82214000Y-97336380D01*
X82261619Y-97360190D01*
X82333047Y-97360190D01*
X81737809Y-97360190D02*
X81737809Y-96860190D01*
X81737809Y-97336380D02*
X81785428Y-97360190D01*
X81880666Y-97360190D01*
X81928285Y-97336380D01*
X81952095Y-97312571D01*
X81975904Y-97264952D01*
X81975904Y-97122095D01*
X81952095Y-97074476D01*
X81928285Y-97050666D01*
X81880666Y-97026857D01*
X81785428Y-97026857D01*
X81737809Y-97050666D01*
X81285428Y-97026857D02*
X81285428Y-97360190D01*
X81499714Y-97026857D02*
X81499714Y-97288761D01*
X81475904Y-97336380D01*
X81428285Y-97360190D01*
X81356857Y-97360190D01*
X81309238Y-97336380D01*
X81285428Y-97312571D01*
X80975904Y-97360190D02*
X81023523Y-97336380D01*
X81047333Y-97288761D01*
X81047333Y-96860190D01*
X80594952Y-97336380D02*
X80642571Y-97360190D01*
X80737809Y-97360190D01*
X80785428Y-97336380D01*
X80809238Y-97288761D01*
X80809238Y-97098285D01*
X80785428Y-97050666D01*
X80737809Y-97026857D01*
X80642571Y-97026857D01*
X80594952Y-97050666D01*
X80571142Y-97098285D01*
X80571142Y-97145904D01*
X80809238Y-97193523D01*
X85501000Y-95578809D02*
X85548619Y-95555000D01*
X85596238Y-95507380D01*
X85667666Y-95435952D01*
X85715285Y-95412142D01*
X85762904Y-95412142D01*
X85739095Y-95531190D02*
X85786714Y-95507380D01*
X85834333Y-95459761D01*
X85858142Y-95364523D01*
X85858142Y-95197857D01*
X85834333Y-95102619D01*
X85786714Y-95055000D01*
X85739095Y-95031190D01*
X85643857Y-95031190D01*
X85596238Y-95055000D01*
X85548619Y-95102619D01*
X85524809Y-95197857D01*
X85524809Y-95364523D01*
X85548619Y-95459761D01*
X85596238Y-95507380D01*
X85643857Y-95531190D01*
X85739095Y-95531190D01*
X85096238Y-95197857D02*
X85096238Y-95531190D01*
X85310523Y-95197857D02*
X85310523Y-95459761D01*
X85286714Y-95507380D01*
X85239095Y-95531190D01*
X85167666Y-95531190D01*
X85120047Y-95507380D01*
X85096238Y-95483571D01*
X84667666Y-95507380D02*
X84715285Y-95531190D01*
X84810523Y-95531190D01*
X84858142Y-95507380D01*
X84881952Y-95459761D01*
X84881952Y-95269285D01*
X84858142Y-95221666D01*
X84810523Y-95197857D01*
X84715285Y-95197857D01*
X84667666Y-95221666D01*
X84643857Y-95269285D01*
X84643857Y-95316904D01*
X84881952Y-95364523D01*
X84215285Y-95507380D02*
X84262904Y-95531190D01*
X84358142Y-95531190D01*
X84405761Y-95507380D01*
X84429571Y-95483571D01*
X84453380Y-95435952D01*
X84453380Y-95293095D01*
X84429571Y-95245476D01*
X84405761Y-95221666D01*
X84358142Y-95197857D01*
X84262904Y-95197857D01*
X84215285Y-95221666D01*
X84072428Y-95197857D02*
X83881952Y-95197857D01*
X84001000Y-95031190D02*
X84001000Y-95459761D01*
X83977190Y-95507380D01*
X83929571Y-95531190D01*
X83881952Y-95531190D01*
X83524809Y-95507380D02*
X83572428Y-95531190D01*
X83667666Y-95531190D01*
X83715285Y-95507380D01*
X83739095Y-95459761D01*
X83739095Y-95269285D01*
X83715285Y-95221666D01*
X83667666Y-95197857D01*
X83572428Y-95197857D01*
X83524809Y-95221666D01*
X83501000Y-95269285D01*
X83501000Y-95316904D01*
X83739095Y-95364523D01*
X83215285Y-95531190D02*
X83262904Y-95507380D01*
X83286714Y-95459761D01*
X83286714Y-95031190D01*
X82643857Y-95531190D02*
X82643857Y-95197857D01*
X82643857Y-95245476D02*
X82620047Y-95221666D01*
X82572428Y-95197857D01*
X82501000Y-95197857D01*
X82453380Y-95221666D01*
X82429571Y-95269285D01*
X82429571Y-95531190D01*
X82429571Y-95269285D02*
X82405761Y-95221666D01*
X82358142Y-95197857D01*
X82286714Y-95197857D01*
X82239095Y-95221666D01*
X82215285Y-95269285D01*
X82215285Y-95531190D01*
X81905761Y-95531190D02*
X81953380Y-95507380D01*
X81977190Y-95483571D01*
X82001000Y-95435952D01*
X82001000Y-95293095D01*
X81977190Y-95245476D01*
X81953380Y-95221666D01*
X81905761Y-95197857D01*
X81834333Y-95197857D01*
X81786714Y-95221666D01*
X81762904Y-95245476D01*
X81739095Y-95293095D01*
X81739095Y-95435952D01*
X81762904Y-95483571D01*
X81786714Y-95507380D01*
X81834333Y-95531190D01*
X81905761Y-95531190D01*
X81310523Y-95531190D02*
X81310523Y-95031190D01*
X81310523Y-95507380D02*
X81358142Y-95531190D01*
X81453380Y-95531190D01*
X81501000Y-95507380D01*
X81524809Y-95483571D01*
X81548619Y-95435952D01*
X81548619Y-95293095D01*
X81524809Y-95245476D01*
X81501000Y-95221666D01*
X81453380Y-95197857D01*
X81358142Y-95197857D01*
X81310523Y-95221666D01*
X80858142Y-95197857D02*
X80858142Y-95531190D01*
X81072428Y-95197857D02*
X81072428Y-95459761D01*
X81048619Y-95507380D01*
X81001000Y-95531190D01*
X80929571Y-95531190D01*
X80881952Y-95507380D01*
X80858142Y-95483571D01*
X80548619Y-95531190D02*
X80596238Y-95507380D01*
X80620047Y-95459761D01*
X80620047Y-95031190D01*
X80167666Y-95507380D02*
X80215285Y-95531190D01*
X80310523Y-95531190D01*
X80358142Y-95507380D01*
X80381952Y-95459761D01*
X80381952Y-95269285D01*
X80358142Y-95221666D01*
X80310523Y-95197857D01*
X80215285Y-95197857D01*
X80167666Y-95221666D01*
X80143857Y-95269285D01*
X80143857Y-95316904D01*
X80381952Y-95364523D01*
D11*
X97019714Y-75684571D02*
X96734000Y-76684571D01*
X96448285Y-75970285D01*
X96162571Y-76684571D01*
X95876857Y-75684571D01*
X94662571Y-76684571D02*
X94662571Y-75898857D01*
X94734000Y-75756000D01*
X94876857Y-75684571D01*
X95162571Y-75684571D01*
X95305428Y-75756000D01*
X94662571Y-76613142D02*
X94805428Y-76684571D01*
X95162571Y-76684571D01*
X95305428Y-76613142D01*
X95376857Y-76470285D01*
X95376857Y-76327428D01*
X95305428Y-76184571D01*
X95162571Y-76113142D01*
X94805428Y-76113142D01*
X94662571Y-76041714D01*
X94162571Y-75684571D02*
X93591142Y-75684571D01*
X93948285Y-75184571D02*
X93948285Y-76470285D01*
X93876857Y-76613142D01*
X93734000Y-76684571D01*
X93591142Y-76684571D01*
X92448285Y-76613142D02*
X92591142Y-76684571D01*
X92876857Y-76684571D01*
X93019714Y-76613142D01*
X93091142Y-76541714D01*
X93162571Y-76398857D01*
X93162571Y-75970285D01*
X93091142Y-75827428D01*
X93019714Y-75756000D01*
X92876857Y-75684571D01*
X92591142Y-75684571D01*
X92448285Y-75756000D01*
X91805428Y-76684571D02*
X91805428Y-75184571D01*
X91162571Y-76684571D02*
X91162571Y-75898857D01*
X91234000Y-75756000D01*
X91376857Y-75684571D01*
X91591142Y-75684571D01*
X91734000Y-75756000D01*
X91805428Y-75827428D01*
X90591142Y-75684571D02*
X90234000Y-76684571D01*
X89876857Y-75684571D02*
X90234000Y-76684571D01*
X90376857Y-77041714D01*
X90448285Y-77113142D01*
X90591142Y-77184571D01*
X89305428Y-76113142D02*
X88162571Y-76113142D01*
X87519714Y-76613142D02*
X87376857Y-76684571D01*
X87091142Y-76684571D01*
X86948285Y-76613142D01*
X86876857Y-76470285D01*
X86876857Y-76398857D01*
X86948285Y-76256000D01*
X87091142Y-76184571D01*
X87305428Y-76184571D01*
X87448285Y-76113142D01*
X87519714Y-75970285D01*
X87519714Y-75898857D01*
X87448285Y-75756000D01*
X87305428Y-75684571D01*
X87091142Y-75684571D01*
X86948285Y-75756000D01*
X86234000Y-75684571D02*
X86234000Y-77184571D01*
X86234000Y-75756000D02*
X86091142Y-75684571D01*
X85805428Y-75684571D01*
X85662571Y-75756000D01*
X85591142Y-75827428D01*
X85519714Y-75970285D01*
X85519714Y-76398857D01*
X85591142Y-76541714D01*
X85662571Y-76613142D01*
X85805428Y-76684571D01*
X86091142Y-76684571D01*
X86234000Y-76613142D01*
X84662571Y-76684571D02*
X84805428Y-76613142D01*
X84876857Y-76541714D01*
X84948285Y-76398857D01*
X84948285Y-75970285D01*
X84876857Y-75827428D01*
X84805428Y-75756000D01*
X84662571Y-75684571D01*
X84448285Y-75684571D01*
X84305428Y-75756000D01*
X84234000Y-75827428D01*
X84162571Y-75970285D01*
X84162571Y-76398857D01*
X84234000Y-76541714D01*
X84305428Y-76613142D01*
X84448285Y-76684571D01*
X84662571Y-76684571D01*
X83519714Y-76684571D02*
X83519714Y-75684571D01*
X83519714Y-75970285D02*
X83448285Y-75827428D01*
X83376857Y-75756000D01*
X83234000Y-75684571D01*
X83091142Y-75684571D01*
X82805428Y-75684571D02*
X82234000Y-75684571D01*
X82591142Y-75184571D02*
X82591142Y-76470285D01*
X82519714Y-76613142D01*
X82376857Y-76684571D01*
X82234000Y-76684571D01*
X81805428Y-76613142D02*
X81662571Y-76684571D01*
X81376857Y-76684571D01*
X81234000Y-76613142D01*
X81162571Y-76470285D01*
X81162571Y-76398857D01*
X81234000Y-76256000D01*
X81376857Y-76184571D01*
X81591142Y-76184571D01*
X81734000Y-76113142D01*
X81805428Y-75970285D01*
X81805428Y-75898857D01*
X81734000Y-75756000D01*
X81591142Y-75684571D01*
X81376857Y-75684571D01*
X81234000Y-75756000D01*
X96876857Y-79234571D02*
X96876857Y-77734571D01*
X96376857Y-78806000D01*
X95876857Y-77734571D01*
X95876857Y-79234571D01*
X94948285Y-79234571D02*
X95091142Y-79163142D01*
X95162571Y-79091714D01*
X95234000Y-78948857D01*
X95234000Y-78520285D01*
X95162571Y-78377428D01*
X95091142Y-78306000D01*
X94948285Y-78234571D01*
X94734000Y-78234571D01*
X94591142Y-78306000D01*
X94519714Y-78377428D01*
X94448285Y-78520285D01*
X94448285Y-78948857D01*
X94519714Y-79091714D01*
X94591142Y-79163142D01*
X94734000Y-79234571D01*
X94948285Y-79234571D01*
X93162571Y-79234571D02*
X93162571Y-77734571D01*
X93162571Y-79163142D02*
X93305428Y-79234571D01*
X93591142Y-79234571D01*
X93734000Y-79163142D01*
X93805428Y-79091714D01*
X93876857Y-78948857D01*
X93876857Y-78520285D01*
X93805428Y-78377428D01*
X93734000Y-78306000D01*
X93591142Y-78234571D01*
X93305428Y-78234571D01*
X93162571Y-78306000D01*
X92448285Y-79234571D02*
X92448285Y-78234571D01*
X92448285Y-77734571D02*
X92519714Y-77806000D01*
X92448285Y-77877428D01*
X92376857Y-77806000D01*
X92448285Y-77734571D01*
X92448285Y-77877428D01*
X91948285Y-78234571D02*
X91376857Y-78234571D01*
X91734000Y-79234571D02*
X91734000Y-77948857D01*
X91662571Y-77806000D01*
X91519714Y-77734571D01*
X91376857Y-77734571D01*
X90876857Y-79234571D02*
X90876857Y-78234571D01*
X90876857Y-77734571D02*
X90948285Y-77806000D01*
X90876857Y-77877428D01*
X90805428Y-77806000D01*
X90876857Y-77734571D01*
X90876857Y-77877428D01*
X89591142Y-79163142D02*
X89734000Y-79234571D01*
X90019714Y-79234571D01*
X90162571Y-79163142D01*
X90234000Y-79020285D01*
X90234000Y-78448857D01*
X90162571Y-78306000D01*
X90019714Y-78234571D01*
X89734000Y-78234571D01*
X89591142Y-78306000D01*
X89519714Y-78448857D01*
X89519714Y-78591714D01*
X90234000Y-78734571D01*
X88234000Y-79234571D02*
X88234000Y-77734571D01*
X88234000Y-79163142D02*
X88376857Y-79234571D01*
X88662571Y-79234571D01*
X88805428Y-79163142D01*
X88876857Y-79091714D01*
X88948285Y-78948857D01*
X88948285Y-78520285D01*
X88876857Y-78377428D01*
X88805428Y-78306000D01*
X88662571Y-78234571D01*
X88376857Y-78234571D01*
X88234000Y-78306000D01*
X86591142Y-78234571D02*
X86019714Y-78234571D01*
X86376857Y-79234571D02*
X86376857Y-77948857D01*
X86305428Y-77806000D01*
X86162571Y-77734571D01*
X86019714Y-77734571D01*
X85519714Y-79234571D02*
X85519714Y-78234571D01*
X85519714Y-78520285D02*
X85448285Y-78377428D01*
X85376857Y-78306000D01*
X85234000Y-78234571D01*
X85091142Y-78234571D01*
X84376857Y-79234571D02*
X84519714Y-79163142D01*
X84591142Y-79091714D01*
X84662571Y-78948857D01*
X84662571Y-78520285D01*
X84591142Y-78377428D01*
X84519714Y-78306000D01*
X84376857Y-78234571D01*
X84162571Y-78234571D01*
X84019714Y-78306000D01*
X83948285Y-78377428D01*
X83876857Y-78520285D01*
X83876857Y-78948857D01*
X83948285Y-79091714D01*
X84019714Y-79163142D01*
X84162571Y-79234571D01*
X84376857Y-79234571D01*
X83234000Y-79234571D02*
X83234000Y-78234571D01*
X83234000Y-78377428D02*
X83162571Y-78306000D01*
X83019714Y-78234571D01*
X82805428Y-78234571D01*
X82662571Y-78306000D01*
X82591142Y-78448857D01*
X82591142Y-79234571D01*
X82591142Y-78448857D02*
X82519714Y-78306000D01*
X82376857Y-78234571D01*
X82162571Y-78234571D01*
X82019714Y-78306000D01*
X81948285Y-78448857D01*
X81948285Y-79234571D01*
X97019714Y-80284571D02*
X96662571Y-81784571D01*
X96376857Y-80713142D01*
X96091142Y-81784571D01*
X95734000Y-80284571D01*
X94519714Y-81784571D02*
X94519714Y-80998857D01*
X94591142Y-80856000D01*
X94734000Y-80784571D01*
X95019714Y-80784571D01*
X95162571Y-80856000D01*
X94519714Y-81713142D02*
X94662571Y-81784571D01*
X95019714Y-81784571D01*
X95162571Y-81713142D01*
X95234000Y-81570285D01*
X95234000Y-81427428D01*
X95162571Y-81284571D01*
X95019714Y-81213142D01*
X94662571Y-81213142D01*
X94519714Y-81141714D01*
X94019714Y-80784571D02*
X93448285Y-80784571D01*
X93805428Y-80284571D02*
X93805428Y-81570285D01*
X93734000Y-81713142D01*
X93591142Y-81784571D01*
X93448285Y-81784571D01*
X92305428Y-81713142D02*
X92448285Y-81784571D01*
X92734000Y-81784571D01*
X92876857Y-81713142D01*
X92948285Y-81641714D01*
X93019714Y-81498857D01*
X93019714Y-81070285D01*
X92948285Y-80927428D01*
X92876857Y-80856000D01*
X92734000Y-80784571D01*
X92448285Y-80784571D01*
X92305428Y-80856000D01*
X91662571Y-81784571D02*
X91662571Y-80284571D01*
X91019714Y-81784571D02*
X91019714Y-80998857D01*
X91091142Y-80856000D01*
X91234000Y-80784571D01*
X91448285Y-80784571D01*
X91591142Y-80856000D01*
X91662571Y-80927428D01*
X90448285Y-80784571D02*
X90091142Y-81784571D01*
X89734000Y-80784571D02*
X90091142Y-81784571D01*
X90234000Y-82141714D01*
X90305428Y-82213142D01*
X90448285Y-82284571D01*
X87591142Y-82356000D02*
X87662571Y-82284571D01*
X87805428Y-82070285D01*
X87876857Y-81927428D01*
X87948285Y-81713142D01*
X88019714Y-81356000D01*
X88019714Y-81070285D01*
X87948285Y-80713142D01*
X87876857Y-80498857D01*
X87805428Y-80356000D01*
X87662571Y-80141714D01*
X87591142Y-80070285D01*
X87019714Y-80284571D02*
X87019714Y-81498857D01*
X86948285Y-81641714D01*
X86876857Y-81713142D01*
X86734000Y-81784571D01*
X86448285Y-81784571D01*
X86305428Y-81713142D01*
X86234000Y-81641714D01*
X86162571Y-81498857D01*
X86162571Y-80284571D01*
X85519714Y-81713142D02*
X85305428Y-81784571D01*
X84948285Y-81784571D01*
X84805428Y-81713142D01*
X84734000Y-81641714D01*
X84662571Y-81498857D01*
X84662571Y-81356000D01*
X84734000Y-81213142D01*
X84805428Y-81141714D01*
X84948285Y-81070285D01*
X85234000Y-80998857D01*
X85376857Y-80927428D01*
X85448285Y-80856000D01*
X85519714Y-80713142D01*
X85519714Y-80570285D01*
X85448285Y-80427428D01*
X85376857Y-80356000D01*
X85234000Y-80284571D01*
X84876857Y-80284571D01*
X84662571Y-80356000D01*
X83734000Y-80284571D02*
X83591142Y-80284571D01*
X83448285Y-80356000D01*
X83376857Y-80427428D01*
X83305428Y-80570285D01*
X83234000Y-80856000D01*
X83234000Y-81213142D01*
X83305428Y-81498857D01*
X83376857Y-81641714D01*
X83448285Y-81713142D01*
X83591142Y-81784571D01*
X83734000Y-81784571D01*
X83876857Y-81713142D01*
X83948285Y-81641714D01*
X84019714Y-81498857D01*
X84091142Y-81213142D01*
X84091142Y-80856000D01*
X84019714Y-80570285D01*
X83948285Y-80427428D01*
X83876857Y-80356000D01*
X83734000Y-80284571D01*
X82305428Y-80284571D02*
X82162571Y-80284571D01*
X82019714Y-80356000D01*
X81948285Y-80427428D01*
X81876857Y-80570285D01*
X81805428Y-80856000D01*
X81805428Y-81213142D01*
X81876857Y-81498857D01*
X81948285Y-81641714D01*
X82019714Y-81713142D01*
X82162571Y-81784571D01*
X82305428Y-81784571D01*
X82448285Y-81713142D01*
X82519714Y-81641714D01*
X82591142Y-81498857D01*
X82662571Y-81213142D01*
X82662571Y-80856000D01*
X82591142Y-80570285D01*
X82519714Y-80427428D01*
X82448285Y-80356000D01*
X82305428Y-80284571D01*
X80876857Y-80284571D02*
X80734000Y-80284571D01*
X80591142Y-80356000D01*
X80519714Y-80427428D01*
X80448285Y-80570285D01*
X80376857Y-80856000D01*
X80376857Y-81213142D01*
X80448285Y-81498857D01*
X80519714Y-81641714D01*
X80591142Y-81713142D01*
X80734000Y-81784571D01*
X80876857Y-81784571D01*
X81019714Y-81713142D01*
X81091142Y-81641714D01*
X81162571Y-81498857D01*
X81234000Y-81213142D01*
X81234000Y-80856000D01*
X81162571Y-80570285D01*
X81091142Y-80427428D01*
X81019714Y-80356000D01*
X80876857Y-80284571D01*
X79662571Y-81784571D02*
X79376857Y-81784571D01*
X79234000Y-81713142D01*
X79162571Y-81641714D01*
X79019714Y-81427428D01*
X78948285Y-81141714D01*
X78948285Y-80570285D01*
X79019714Y-80427428D01*
X79091142Y-80356000D01*
X79234000Y-80284571D01*
X79519714Y-80284571D01*
X79662571Y-80356000D01*
X79734000Y-80427428D01*
X79805428Y-80570285D01*
X79805428Y-80927428D01*
X79734000Y-81070285D01*
X79662571Y-81141714D01*
X79519714Y-81213142D01*
X79234000Y-81213142D01*
X79091142Y-81141714D01*
X79019714Y-81070285D01*
X78948285Y-80927428D01*
X78448285Y-80284571D02*
X77519714Y-80284571D01*
X78019714Y-80856000D01*
X77805428Y-80856000D01*
X77662571Y-80927428D01*
X77591142Y-80998857D01*
X77519714Y-81141714D01*
X77519714Y-81498857D01*
X77591142Y-81641714D01*
X77662571Y-81713142D01*
X77805428Y-81784571D01*
X78234000Y-81784571D01*
X78376857Y-81713142D01*
X78448285Y-81641714D01*
X76234000Y-80284571D02*
X76519714Y-80284571D01*
X76662571Y-80356000D01*
X76734000Y-80427428D01*
X76876857Y-80641714D01*
X76948285Y-80927428D01*
X76948285Y-81498857D01*
X76876857Y-81641714D01*
X76805428Y-81713142D01*
X76662571Y-81784571D01*
X76376857Y-81784571D01*
X76234000Y-81713142D01*
X76162571Y-81641714D01*
X76091142Y-81498857D01*
X76091142Y-81141714D01*
X76162571Y-80998857D01*
X76234000Y-80927428D01*
X76376857Y-80856000D01*
X76662571Y-80856000D01*
X76805428Y-80927428D01*
X76876857Y-80998857D01*
X76948285Y-81141714D01*
X75591142Y-82356000D02*
X75519714Y-82284571D01*
X75376857Y-82070285D01*
X75305428Y-81927428D01*
X75234000Y-81713142D01*
X75162571Y-81356000D01*
X75162571Y-81070285D01*
X75234000Y-80713142D01*
X75305428Y-80498857D01*
X75376857Y-80356000D01*
X75519714Y-80141714D01*
X75591142Y-80070285D01*
X96448285Y-84906000D02*
X96519714Y-84834571D01*
X96662571Y-84620285D01*
X96734000Y-84477428D01*
X96805428Y-84263142D01*
X96876857Y-83906000D01*
X96876857Y-83620285D01*
X96805428Y-83263142D01*
X96734000Y-83048857D01*
X96662571Y-82906000D01*
X96519714Y-82691714D01*
X96448285Y-82620285D01*
X95948285Y-82977428D02*
X95876857Y-82906000D01*
X95734000Y-82834571D01*
X95376857Y-82834571D01*
X95234000Y-82906000D01*
X95162571Y-82977428D01*
X95091142Y-83120285D01*
X95091142Y-83263142D01*
X95162571Y-83477428D01*
X96019714Y-84334571D01*
X95091142Y-84334571D01*
X94162571Y-82834571D02*
X94019714Y-82834571D01*
X93876857Y-82906000D01*
X93805428Y-82977428D01*
X93734000Y-83120285D01*
X93662571Y-83406000D01*
X93662571Y-83763142D01*
X93734000Y-84048857D01*
X93805428Y-84191714D01*
X93876857Y-84263142D01*
X94019714Y-84334571D01*
X94162571Y-84334571D01*
X94305428Y-84263142D01*
X94376857Y-84191714D01*
X94448285Y-84048857D01*
X94519714Y-83763142D01*
X94519714Y-83406000D01*
X94448285Y-83120285D01*
X94376857Y-82977428D01*
X94305428Y-82906000D01*
X94162571Y-82834571D01*
X93091142Y-82977428D02*
X93019714Y-82906000D01*
X92876857Y-82834571D01*
X92519714Y-82834571D01*
X92376857Y-82906000D01*
X92305428Y-82977428D01*
X92234000Y-83120285D01*
X92234000Y-83263142D01*
X92305428Y-83477428D01*
X93162571Y-84334571D01*
X92234000Y-84334571D01*
X90805428Y-84334571D02*
X91662571Y-84334571D01*
X91234000Y-84334571D02*
X91234000Y-82834571D01*
X91376857Y-83048857D01*
X91519714Y-83191714D01*
X91662571Y-83263142D01*
X90305428Y-84906000D02*
X90234000Y-84834571D01*
X90091142Y-84620285D01*
X90019714Y-84477428D01*
X89948285Y-84263142D01*
X89876857Y-83906000D01*
X89876857Y-83620285D01*
X89948285Y-83263142D01*
X90019714Y-83048857D01*
X90091142Y-82906000D01*
X90234000Y-82691714D01*
X90305428Y-82620285D01*
D12*
X88003000Y-98317000D02*
X88003000Y-94217000D01*
X88003000Y-94217000D02*
X86003000Y-94217000D01*
X86003000Y-94217000D02*
X86003000Y-98317000D01*
X86003000Y-98317000D02*
X88003000Y-98317000D01*
X85803000Y-97567000D02*
X85503000Y-97867000D01*
X85503000Y-97867000D02*
X85503000Y-97267000D01*
X85803000Y-97567000D02*
X85503000Y-97267000D01*
X94312000Y-77758359D02*
X94312000Y-78065641D01*
X95072000Y-77758359D02*
X95072000Y-78065641D01*
X91803000Y-78353000D02*
X91803000Y-76383000D01*
X94003000Y-78573000D02*
X94003000Y-76373000D01*
X74780000Y-77540000D02*
X70180000Y-77540000D01*
X70180000Y-77540000D02*
X70180000Y-82340000D01*
X70180000Y-82340000D02*
X74780000Y-82340000D01*
X74780000Y-82340000D02*
X74780000Y-77540000D01*
X74780000Y-103940000D02*
X70180000Y-103940000D01*
X70180000Y-103940000D02*
X70180000Y-108740000D01*
X70180000Y-108740000D02*
X74780000Y-108740000D01*
X74780000Y-108740000D02*
X74780000Y-103940000D01*
X74780000Y-90740000D02*
X70180000Y-90740000D01*
X70180000Y-90740000D02*
X70180000Y-95540000D01*
X70180000Y-95540000D02*
X74780000Y-95540000D01*
X74780000Y-95540000D02*
X74780000Y-90740000D01*
X98920000Y-82320000D02*
X103520000Y-82320000D01*
X103520000Y-82320000D02*
X103520000Y-77520000D01*
X103520000Y-77520000D02*
X98920000Y-77520000D01*
X98920000Y-77520000D02*
X98920000Y-82320000D01*
D13*
X88255380Y-95433666D02*
X88969666Y-95433666D01*
X89112523Y-95386047D01*
X89207761Y-95290809D01*
X89255380Y-95147952D01*
X89255380Y-95052714D01*
X89255380Y-95909857D02*
X88255380Y-95909857D01*
X88255380Y-96290809D01*
X88303000Y-96386047D01*
X88350619Y-96433666D01*
X88445857Y-96481285D01*
X88588714Y-96481285D01*
X88683952Y-96433666D01*
X88731571Y-96386047D01*
X88779190Y-96290809D01*
X88779190Y-95909857D01*
X89255380Y-97433666D02*
X89255380Y-96862238D01*
X89255380Y-97147952D02*
X88255380Y-97147952D01*
X88398238Y-97052714D01*
X88493476Y-96957476D01*
X88541095Y-96862238D01*
X93974380Y-77745333D02*
X93498190Y-77412000D01*
X93974380Y-77173904D02*
X92974380Y-77173904D01*
X92974380Y-77554857D01*
X93022000Y-77650095D01*
X93069619Y-77697714D01*
X93164857Y-77745333D01*
X93307714Y-77745333D01*
X93402952Y-77697714D01*
X93450571Y-77650095D01*
X93498190Y-77554857D01*
X93498190Y-77173904D01*
X93974380Y-78221523D02*
X93974380Y-78412000D01*
X93926761Y-78507238D01*
X93879142Y-78554857D01*
X93736285Y-78650095D01*
X93545809Y-78697714D01*
X93164857Y-78697714D01*
X93069619Y-78650095D01*
X93022000Y-78602476D01*
X92974380Y-78507238D01*
X92974380Y-78316761D01*
X93022000Y-78221523D01*
X93069619Y-78173904D01*
X93164857Y-78126285D01*
X93402952Y-78126285D01*
X93498190Y-78173904D01*
X93545809Y-78221523D01*
X93593428Y-78316761D01*
X93593428Y-78507238D01*
X93545809Y-78602476D01*
X93498190Y-78650095D01*
X93402952Y-78697714D01*
X94380380Y-76611095D02*
X95189904Y-76611095D01*
X95285142Y-76658714D01*
X95332761Y-76706333D01*
X95380380Y-76801571D01*
X95380380Y-76992047D01*
X95332761Y-77087285D01*
X95285142Y-77134904D01*
X95189904Y-77182523D01*
X94380380Y-77182523D01*
X94808952Y-77801571D02*
X94761333Y-77706333D01*
X94713714Y-77658714D01*
X94618476Y-77611095D01*
X94570857Y-77611095D01*
X94475619Y-77658714D01*
X94428000Y-77706333D01*
X94380380Y-77801571D01*
X94380380Y-77992047D01*
X94428000Y-78087285D01*
X94475619Y-78134904D01*
X94570857Y-78182523D01*
X94618476Y-78182523D01*
X94713714Y-78134904D01*
X94761333Y-78087285D01*
X94808952Y-77992047D01*
X94808952Y-77801571D01*
X94856571Y-77706333D01*
X94904190Y-77658714D01*
X94999428Y-77611095D01*
X95189904Y-77611095D01*
X95285142Y-77658714D01*
X95332761Y-77706333D01*
X95380380Y-77801571D01*
X95380380Y-77992047D01*
X95332761Y-78087285D01*
X95285142Y-78134904D01*
X95189904Y-78182523D01*
X94999428Y-78182523D01*
X94904190Y-78134904D01*
X94856571Y-78087285D01*
X94808952Y-77992047D01*
X73134761Y-78666666D02*
X73182380Y-78809523D01*
X73182380Y-79047619D01*
X73134761Y-79142857D01*
X73087142Y-79190476D01*
X72991904Y-79238095D01*
X72896666Y-79238095D01*
X72801428Y-79190476D01*
X72753809Y-79142857D01*
X72706190Y-79047619D01*
X72658571Y-78857142D01*
X72610952Y-78761904D01*
X72563333Y-78714285D01*
X72468095Y-78666666D01*
X72372857Y-78666666D01*
X72277619Y-78714285D01*
X72230000Y-78761904D01*
X72182380Y-78857142D01*
X72182380Y-79095238D01*
X72230000Y-79238095D01*
X72182380Y-79571428D02*
X73182380Y-79809523D01*
X72468095Y-80000000D01*
X73182380Y-80190476D01*
X72182380Y-80428571D01*
X72182380Y-80714285D02*
X72182380Y-81333333D01*
X72563333Y-81000000D01*
X72563333Y-81142857D01*
X72610952Y-81238095D01*
X72658571Y-81285714D01*
X72753809Y-81333333D01*
X72991904Y-81333333D01*
X73087142Y-81285714D01*
X73134761Y-81238095D01*
X73182380Y-81142857D01*
X73182380Y-80857142D01*
X73134761Y-80761904D01*
X73087142Y-80714285D01*
X73344761Y-104996666D02*
X73392380Y-105139523D01*
X73392380Y-105377619D01*
X73344761Y-105472857D01*
X73297142Y-105520476D01*
X73201904Y-105568095D01*
X73106666Y-105568095D01*
X73011428Y-105520476D01*
X72963809Y-105472857D01*
X72916190Y-105377619D01*
X72868571Y-105187142D01*
X72820952Y-105091904D01*
X72773333Y-105044285D01*
X72678095Y-104996666D01*
X72582857Y-104996666D01*
X72487619Y-105044285D01*
X72440000Y-105091904D01*
X72392380Y-105187142D01*
X72392380Y-105425238D01*
X72440000Y-105568095D01*
X72392380Y-105901428D02*
X73392380Y-106139523D01*
X72678095Y-106330000D01*
X73392380Y-106520476D01*
X72392380Y-106758571D01*
X72725714Y-107568095D02*
X73392380Y-107568095D01*
X72344761Y-107330000D02*
X73059047Y-107091904D01*
X73059047Y-107710952D01*
X73314761Y-91866666D02*
X73362380Y-92009523D01*
X73362380Y-92247619D01*
X73314761Y-92342857D01*
X73267142Y-92390476D01*
X73171904Y-92438095D01*
X73076666Y-92438095D01*
X72981428Y-92390476D01*
X72933809Y-92342857D01*
X72886190Y-92247619D01*
X72838571Y-92057142D01*
X72790952Y-91961904D01*
X72743333Y-91914285D01*
X72648095Y-91866666D01*
X72552857Y-91866666D01*
X72457619Y-91914285D01*
X72410000Y-91961904D01*
X72362380Y-92057142D01*
X72362380Y-92295238D01*
X72410000Y-92438095D01*
X72362380Y-92771428D02*
X73362380Y-93009523D01*
X72648095Y-93200000D01*
X73362380Y-93390476D01*
X72362380Y-93628571D01*
X72457619Y-93961904D02*
X72410000Y-94009523D01*
X72362380Y-94104761D01*
X72362380Y-94342857D01*
X72410000Y-94438095D01*
X72457619Y-94485714D01*
X72552857Y-94533333D01*
X72648095Y-94533333D01*
X72790952Y-94485714D01*
X73362380Y-93914285D01*
X73362380Y-94533333D01*
X101054761Y-78666666D02*
X101102380Y-78809523D01*
X101102380Y-79047619D01*
X101054761Y-79142857D01*
X101007142Y-79190476D01*
X100911904Y-79238095D01*
X100816666Y-79238095D01*
X100721428Y-79190476D01*
X100673809Y-79142857D01*
X100626190Y-79047619D01*
X100578571Y-78857142D01*
X100530952Y-78761904D01*
X100483333Y-78714285D01*
X100388095Y-78666666D01*
X100292857Y-78666666D01*
X100197619Y-78714285D01*
X100150000Y-78761904D01*
X100102380Y-78857142D01*
X100102380Y-79095238D01*
X100150000Y-79238095D01*
X100102380Y-79571428D02*
X101102380Y-79809523D01*
X100388095Y-80000000D01*
X101102380Y-80190476D01*
X100102380Y-80428571D01*
X101102380Y-81333333D02*
X101102380Y-80761904D01*
X101102380Y-81047619D02*
X100102380Y-81047619D01*
X100245238Y-80952380D01*
X100340476Y-80857142D01*
X100388095Y-80761904D01*
%LPC*%
X76092857Y-103055714D02*
X75921428Y-103722380D01*
X75750000Y-103246190D01*
X75578571Y-103722380D01*
X75407142Y-103055714D01*
X74678571Y-103722380D02*
X74678571Y-103198571D01*
X74721428Y-103103333D01*
X74807142Y-103055714D01*
X74978571Y-103055714D01*
X75064285Y-103103333D01*
X74678571Y-103674761D02*
X74764285Y-103722380D01*
X74978571Y-103722380D01*
X75064285Y-103674761D01*
X75107142Y-103579523D01*
X75107142Y-103484285D01*
X75064285Y-103389047D01*
X74978571Y-103341428D01*
X74764285Y-103341428D01*
X74678571Y-103293809D01*
X74378571Y-103055714D02*
X74035714Y-103055714D01*
X74250000Y-102722380D02*
X74250000Y-103579523D01*
X74207142Y-103674761D01*
X74121428Y-103722380D01*
X74035714Y-103722380D01*
X73350000Y-103674761D02*
X73435714Y-103722380D01*
X73607142Y-103722380D01*
X73692857Y-103674761D01*
X73735714Y-103627142D01*
X73778571Y-103531904D01*
X73778571Y-103246190D01*
X73735714Y-103150952D01*
X73692857Y-103103333D01*
X73607142Y-103055714D01*
X73435714Y-103055714D01*
X73350000Y-103103333D01*
X72964285Y-103722380D02*
X72964285Y-102722380D01*
X72578571Y-103722380D02*
X72578571Y-103198571D01*
X72621428Y-103103333D01*
X72707142Y-103055714D01*
X72835714Y-103055714D01*
X72921428Y-103103333D01*
X72964285Y-103150952D01*
X72235714Y-103055714D02*
X72021428Y-103722380D01*
X71807142Y-103055714D02*
X72021428Y-103722380D01*
X72107142Y-103960476D01*
X72150000Y-104008095D01*
X72235714Y-104055714D01*
G36*
G01*
X87753000Y-98267000D02*
X86253000Y-98267000D01*
G75*
G02*
X86053000Y-98067000I0J200000D01*
G01*
X86053000Y-97067000D01*
G75*
G02*
X86253000Y-96867000I200000J0D01*
G01*
X87753000Y-96867000D01*
G75*
G02*
X87953000Y-97067000I0J-200000D01*
G01*
X87953000Y-98067000D01*
G75*
G02*
X87753000Y-98267000I-200000J0D01*
G01*
G37*
G36*
G01*
X87753000Y-96967000D02*
X86253000Y-96967000D01*
G75*
G02*
X86053000Y-96767000I0J200000D01*
G01*
X86053000Y-95767000D01*
G75*
G02*
X86253000Y-95567000I200000J0D01*
G01*
X87753000Y-95567000D01*
G75*
G02*
X87953000Y-95767000I0J-200000D01*
G01*
X87953000Y-96767000D01*
G75*
G02*
X87753000Y-96967000I-200000J0D01*
G01*
G37*
G36*
G01*
X87753000Y-95667000D02*
X86253000Y-95667000D01*
G75*
G02*
X86053000Y-95467000I0J200000D01*
G01*
X86053000Y-94467000D01*
G75*
G02*
X86253000Y-94267000I200000J0D01*
G01*
X87753000Y-94267000D01*
G75*
G02*
X87953000Y-94467000I0J-200000D01*
G01*
X87953000Y-95467000D01*
G75*
G02*
X87753000Y-95667000I-200000J0D01*
G01*
G37*
G36*
G01*
X94407000Y-77952000D02*
X94977000Y-77952000D01*
G75*
G02*
X95212000Y-78187000I0J-235000D01*
G01*
X95212000Y-78657000D01*
G75*
G02*
X94977000Y-78892000I-235000J0D01*
G01*
X94407000Y-78892000D01*
G75*
G02*
X94172000Y-78657000I0J235000D01*
G01*
X94172000Y-78187000D01*
G75*
G02*
X94407000Y-77952000I235000J0D01*
G01*
G37*
G36*
G01*
X94407000Y-76932000D02*
X94977000Y-76932000D01*
G75*
G02*
X95212000Y-77167000I0J-235000D01*
G01*
X95212000Y-77637000D01*
G75*
G02*
X94977000Y-77872000I-235000J0D01*
G01*
X94407000Y-77872000D01*
G75*
G02*
X94172000Y-77637000I0J235000D01*
G01*
X94172000Y-77167000D01*
G75*
G02*
X94407000Y-76932000I235000J0D01*
G01*
G37*
G36*
G01*
X93728000Y-78798000D02*
X93378000Y-78798000D01*
G75*
G02*
X93203000Y-78623000I0J175000D01*
G01*
X93203000Y-77923000D01*
G75*
G02*
X93378000Y-77748000I175000J0D01*
G01*
X93728000Y-77748000D01*
G75*
G02*
X93903000Y-77923000I0J-175000D01*
G01*
X93903000Y-78623000D01*
G75*
G02*
X93728000Y-78798000I-175000J0D01*
G01*
G37*
G36*
G01*
X93078000Y-78798000D02*
X92728000Y-78798000D01*
G75*
G02*
X92553000Y-78623000I0J175000D01*
G01*
X92553000Y-77923000D01*
G75*
G02*
X92728000Y-77748000I175000J0D01*
G01*
X93078000Y-77748000D01*
G75*
G02*
X93253000Y-77923000I0J-175000D01*
G01*
X93253000Y-78623000D01*
G75*
G02*
X93078000Y-78798000I-175000J0D01*
G01*
G37*
G36*
G01*
X92428000Y-78798000D02*
X92078000Y-78798000D01*
G75*
G02*
X91903000Y-78623000I0J175000D01*
G01*
X91903000Y-77923000D01*
G75*
G02*
X92078000Y-77748000I175000J0D01*
G01*
X92428000Y-77748000D01*
G75*
G02*
X92603000Y-77923000I0J-175000D01*
G01*
X92603000Y-78623000D01*
G75*
G02*
X92428000Y-78798000I-175000J0D01*
G01*
G37*
G36*
G01*
X92428000Y-76998000D02*
X92078000Y-76998000D01*
G75*
G02*
X91903000Y-76823000I0J175000D01*
G01*
X91903000Y-76123000D01*
G75*
G02*
X92078000Y-75948000I175000J0D01*
G01*
X92428000Y-75948000D01*
G75*
G02*
X92603000Y-76123000I0J-175000D01*
G01*
X92603000Y-76823000D01*
G75*
G02*
X92428000Y-76998000I-175000J0D01*
G01*
G37*
G36*
G01*
X93078000Y-76998000D02*
X92728000Y-76998000D01*
G75*
G02*
X92553000Y-76823000I0J175000D01*
G01*
X92553000Y-76123000D01*
G75*
G02*
X92728000Y-75948000I175000J0D01*
G01*
X93078000Y-75948000D01*
G75*
G02*
X93253000Y-76123000I0J-175000D01*
G01*
X93253000Y-76823000D01*
G75*
G02*
X93078000Y-76998000I-175000J0D01*
G01*
G37*
G36*
G01*
X93728000Y-76998000D02*
X93378000Y-76998000D01*
G75*
G02*
X93203000Y-76823000I0J175000D01*
G01*
X93203000Y-76123000D01*
G75*
G02*
X93378000Y-75948000I175000J0D01*
G01*
X93728000Y-75948000D01*
G75*
G02*
X93903000Y-76123000I0J-175000D01*
G01*
X93903000Y-76823000D01*
G75*
G02*
X93728000Y-76998000I-175000J0D01*
G01*
G37*
D14*
X98350000Y-96180000D03*
X98350000Y-91180000D03*
D15*
X101050000Y-97180000D03*
X101050000Y-90180000D03*
G36*
G01*
X71730000Y-76230000D02*
X72730000Y-76230000D01*
G75*
G02*
X72930000Y-76430000I0J-200000D01*
G01*
X72930000Y-77830000D01*
G75*
G02*
X72730000Y-78030000I-200000J0D01*
G01*
X71730000Y-78030000D01*
G75*
G02*
X71530000Y-77830000I0J200000D01*
G01*
X71530000Y-76430000D01*
G75*
G02*
X71730000Y-76230000I200000J0D01*
G01*
G37*
G36*
G01*
X71730000Y-81830000D02*
X72730000Y-81830000D01*
G75*
G02*
X72930000Y-82030000I0J-200000D01*
G01*
X72930000Y-83430000D01*
G75*
G02*
X72730000Y-83630000I-200000J0D01*
G01*
X71730000Y-83630000D01*
G75*
G02*
X71530000Y-83430000I0J200000D01*
G01*
X71530000Y-82030000D01*
G75*
G02*
X71730000Y-81830000I200000J0D01*
G01*
G37*
G36*
G01*
X73430000Y-76230000D02*
X74430000Y-76230000D01*
G75*
G02*
X74630000Y-76430000I0J-200000D01*
G01*
X74630000Y-77830000D01*
G75*
G02*
X74430000Y-78030000I-200000J0D01*
G01*
X73430000Y-78030000D01*
G75*
G02*
X73230000Y-77830000I0J200000D01*
G01*
X73230000Y-76430000D01*
G75*
G02*
X73430000Y-76230000I200000J0D01*
G01*
G37*
G36*
G01*
X73430000Y-81830000D02*
X74430000Y-81830000D01*
G75*
G02*
X74630000Y-82030000I0J-200000D01*
G01*
X74630000Y-83430000D01*
G75*
G02*
X74430000Y-83630000I-200000J0D01*
G01*
X73430000Y-83630000D01*
G75*
G02*
X73230000Y-83430000I0J200000D01*
G01*
X73230000Y-82030000D01*
G75*
G02*
X73430000Y-81830000I200000J0D01*
G01*
G37*
D16*
X71730000Y-79930000D03*
X74330000Y-79930000D03*
G36*
G01*
X71730000Y-102630000D02*
X72730000Y-102630000D01*
G75*
G02*
X72930000Y-102830000I0J-200000D01*
G01*
X72930000Y-104230000D01*
G75*
G02*
X72730000Y-104430000I-200000J0D01*
G01*
X71730000Y-104430000D01*
G75*
G02*
X71530000Y-104230000I0J200000D01*
G01*
X71530000Y-102830000D01*
G75*
G02*
X71730000Y-102630000I200000J0D01*
G01*
G37*
G36*
G01*
X71730000Y-108230000D02*
X72730000Y-108230000D01*
G75*
G02*
X72930000Y-108430000I0J-200000D01*
G01*
X72930000Y-109830000D01*
G75*
G02*
X72730000Y-110030000I-200000J0D01*
G01*
X71730000Y-110030000D01*
G75*
G02*
X71530000Y-109830000I0J200000D01*
G01*
X71530000Y-108430000D01*
G75*
G02*
X71730000Y-108230000I200000J0D01*
G01*
G37*
G36*
G01*
X73430000Y-102630000D02*
X74430000Y-102630000D01*
G75*
G02*
X74630000Y-102830000I0J-200000D01*
G01*
X74630000Y-104230000D01*
G75*
G02*
X74430000Y-104430000I-200000J0D01*
G01*
X73430000Y-104430000D01*
G75*
G02*
X73230000Y-104230000I0J200000D01*
G01*
X73230000Y-102830000D01*
G75*
G02*
X73430000Y-102630000I200000J0D01*
G01*
G37*
G36*
G01*
X73430000Y-108230000D02*
X74430000Y-108230000D01*
G75*
G02*
X74630000Y-108430000I0J-200000D01*
G01*
X74630000Y-109830000D01*
G75*
G02*
X74430000Y-110030000I-200000J0D01*
G01*
X73430000Y-110030000D01*
G75*
G02*
X73230000Y-109830000I0J200000D01*
G01*
X73230000Y-108430000D01*
G75*
G02*
X73430000Y-108230000I200000J0D01*
G01*
G37*
X71730000Y-106330000D03*
X74330000Y-106330000D03*
G36*
G01*
X71730000Y-89430000D02*
X72730000Y-89430000D01*
G75*
G02*
X72930000Y-89630000I0J-200000D01*
G01*
X72930000Y-91030000D01*
G75*
G02*
X72730000Y-91230000I-200000J0D01*
G01*
X71730000Y-91230000D01*
G75*
G02*
X71530000Y-91030000I0J200000D01*
G01*
X71530000Y-89630000D01*
G75*
G02*
X71730000Y-89430000I200000J0D01*
G01*
G37*
G36*
G01*
X71730000Y-95030000D02*
X72730000Y-95030000D01*
G75*
G02*
X72930000Y-95230000I0J-200000D01*
G01*
X72930000Y-96630000D01*
G75*
G02*
X72730000Y-96830000I-200000J0D01*
G01*
X71730000Y-96830000D01*
G75*
G02*
X71530000Y-96630000I0J200000D01*
G01*
X71530000Y-95230000D01*
G75*
G02*
X71730000Y-95030000I200000J0D01*
G01*
G37*
G36*
G01*
X73430000Y-89430000D02*
X74430000Y-89430000D01*
G75*
G02*
X74630000Y-89630000I0J-200000D01*
G01*
X74630000Y-91030000D01*
G75*
G02*
X74430000Y-91230000I-200000J0D01*
G01*
X73430000Y-91230000D01*
G75*
G02*
X73230000Y-91030000I0J200000D01*
G01*
X73230000Y-89630000D01*
G75*
G02*
X73430000Y-89430000I200000J0D01*
G01*
G37*
G36*
G01*
X73430000Y-95030000D02*
X74430000Y-95030000D01*
G75*
G02*
X74630000Y-95230000I0J-200000D01*
G01*
X74630000Y-96630000D01*
G75*
G02*
X74430000Y-96830000I-200000J0D01*
G01*
X73430000Y-96830000D01*
G75*
G02*
X73230000Y-96630000I0J200000D01*
G01*
X73230000Y-95230000D01*
G75*
G02*
X73430000Y-95030000I200000J0D01*
G01*
G37*
X71730000Y-93130000D03*
X74330000Y-93130000D03*
G36*
G01*
X101970000Y-83630000D02*
X100970000Y-83630000D01*
G75*
G02*
X100770000Y-83430000I0J200000D01*
G01*
X100770000Y-82030000D01*
G75*
G02*
X100970000Y-81830000I200000J0D01*
G01*
X101970000Y-81830000D01*
G75*
G02*
X102170000Y-82030000I0J-200000D01*
G01*
X102170000Y-83430000D01*
G75*
G02*
X101970000Y-83630000I-200000J0D01*
G01*
G37*
G36*
G01*
X101970000Y-78030000D02*
X100970000Y-78030000D01*
G75*
G02*
X100770000Y-77830000I0J200000D01*
G01*
X100770000Y-76430000D01*
G75*
G02*
X100970000Y-76230000I200000J0D01*
G01*
X101970000Y-76230000D01*
G75*
G02*
X102170000Y-76430000I0J-200000D01*
G01*
X102170000Y-77830000D01*
G75*
G02*
X101970000Y-78030000I-200000J0D01*
G01*
G37*
G36*
G01*
X100270000Y-83630000D02*
X99270000Y-83630000D01*
G75*
G02*
X99070000Y-83430000I0J200000D01*
G01*
X99070000Y-82030000D01*
G75*
G02*
X99270000Y-81830000I200000J0D01*
G01*
X100270000Y-81830000D01*
G75*
G02*
X100470000Y-82030000I0J-200000D01*
G01*
X100470000Y-83430000D01*
G75*
G02*
X100270000Y-83630000I-200000J0D01*
G01*
G37*
G36*
G01*
X100270000Y-78030000D02*
X99270000Y-78030000D01*
G75*
G02*
X99070000Y-77830000I0J200000D01*
G01*
X99070000Y-76430000D01*
G75*
G02*
X99270000Y-76230000I200000J0D01*
G01*
X100270000Y-76230000D01*
G75*
G02*
X100470000Y-76430000I0J-200000D01*
G01*
X100470000Y-77830000D01*
G75*
G02*
X100270000Y-78030000I-200000J0D01*
G01*
G37*
X101970000Y-79930000D03*
X99370000Y-79930000D03*
D17*
X80300000Y-111110000D03*
X79300000Y-111110000D03*
X78300000Y-111110000D03*
G36*
G01*
X77725000Y-111735000D02*
X76875000Y-111735000D01*
G75*
G02*
X76675000Y-111535000I0J200000D01*
G01*
X76675000Y-110685000D01*
G75*
G02*
X76875000Y-110485000I200000J0D01*
G01*
X77725000Y-110485000D01*
G75*
G02*
X77925000Y-110685000I0J-200000D01*
G01*
X77925000Y-111535000D01*
G75*
G02*
X77725000Y-111735000I-200000J0D01*
G01*
G37*
M02*
