G04 #@! TF.GenerationSoftware,KiCad,Pcbnew,(5.1.9)-1*
G04 #@! TF.CreationDate,2021-05-12T11:04:24-07:00*
G04 #@! TF.ProjectId,Watchy,57617463-6879-42e6-9b69-6361645f7063,rev?*
G04 #@! TF.SameCoordinates,Original*
G04 #@! TF.FileFunction,Profile,NP*
%FSLAX46Y46*%
G04 Gerber Fmt 4.6, Leading zero omitted, Abs format (unit mm)*
G04 Created by KiCad (PCBNEW (5.1.9)-1) date 2021-05-12 11:04:24*
%MOMM*%
%LPD*%
G01*
G04 APERTURE LIST*
G04 #@! TA.AperFunction,Profile*
%ADD10C,0.150000*%
G04 #@! TD*
G04 APERTURE END LIST*
D10*
X98600000Y-72100000D02*
G75*
G02*
X98600000Y-73950000I0J-925000D01*
G01*
X97780341Y-74510000D02*
X96070000Y-74510000D01*
X97777409Y-74509992D02*
G75*
G03*
X98340341Y-73950000I2932J559992D01*
G01*
X98600000Y-73950000D02*
X98340341Y-73950000D01*
X95510000Y-73950000D02*
G75*
G03*
X96070000Y-74510000I560000J0D01*
G01*
X82560000Y-111620000D02*
X98128434Y-111600000D01*
X98128434Y-111600000D02*
G75*
G03*
X98600000Y-112110000I511566J0D01*
G01*
X82060000Y-112120000D02*
G75*
G03*
X82560000Y-111620000I0J500000D01*
G01*
X71200000Y-112000000D02*
X71200000Y-74150000D01*
X98500000Y-70150000D02*
X75200000Y-70150000D01*
X102500000Y-112000000D02*
X102500000Y-74150000D01*
X75200000Y-116000000D02*
X98500000Y-116000000D01*
X102500000Y-74150000D02*
G75*
G03*
X98500000Y-70150000I-4000000J0D01*
G01*
X71200000Y-112000000D02*
G75*
G03*
X75200000Y-116000000I4000000J0D01*
G01*
X102500000Y-112000000D02*
G75*
G02*
X98500000Y-116000000I-4000000J0D01*
G01*
X75200000Y-70150000D02*
G75*
G03*
X71200000Y-74150000I0J-4000000D01*
G01*
X75000000Y-72100000D02*
X98600000Y-72100000D01*
X95510000Y-73950000D02*
X75000000Y-73950000D01*
X99600000Y-113110000D02*
G75*
G03*
X98600000Y-112110000I-1000000J0D01*
G01*
X75100000Y-112110000D02*
G75*
G03*
X74100000Y-113110000I0J-1000000D01*
G01*
X75000000Y-72100000D02*
G75*
G03*
X75000000Y-73950000I0J-925000D01*
G01*
X74100000Y-113110000D02*
G75*
G03*
X75100000Y-114110000I1000000J0D01*
G01*
X98600000Y-114110000D02*
G75*
G03*
X99600000Y-113110000I0J1000000D01*
G01*
X98600000Y-114110000D02*
X75100000Y-114110000D01*
X75100000Y-112110000D02*
X82060000Y-112120000D01*
M02*
