G04 #@! TF.GenerationSoftware,KiCad,Pcbnew,(5.1.9)-1*
G04 #@! TF.CreationDate,2021-05-12T11:04:24-07:00*
G04 #@! TF.ProjectId,Watchy,57617463-6879-42e6-9b69-6361645f7063,rev?*
G04 #@! TF.SameCoordinates,Original*
G04 #@! TF.FileFunction,Paste,Bot*
G04 #@! TF.FilePolarity,Positive*
%FSLAX46Y46*%
G04 Gerber Fmt 4.6, Leading zero omitted, Abs format (unit mm)*
G04 Created by KiCad (PCBNEW (5.1.9)-1) date 2021-05-12 11:04:24*
%MOMM*%
%LPD*%
G01*
G04 APERTURE LIST*
%ADD10R,1.000000X1.400000*%
G04 APERTURE END LIST*
G36*
G01*
X94507000Y-78152000D02*
X94877000Y-78152000D01*
G75*
G02*
X95012000Y-78287000I0J-135000D01*
G01*
X95012000Y-78557000D01*
G75*
G02*
X94877000Y-78692000I-135000J0D01*
G01*
X94507000Y-78692000D01*
G75*
G02*
X94372000Y-78557000I0J135000D01*
G01*
X94372000Y-78287000D01*
G75*
G02*
X94507000Y-78152000I135000J0D01*
G01*
G37*
G36*
G01*
X94507000Y-77132000D02*
X94877000Y-77132000D01*
G75*
G02*
X95012000Y-77267000I0J-135000D01*
G01*
X95012000Y-77537000D01*
G75*
G02*
X94877000Y-77672000I-135000J0D01*
G01*
X94507000Y-77672000D01*
G75*
G02*
X94372000Y-77537000I0J135000D01*
G01*
X94372000Y-77267000D01*
G75*
G02*
X94507000Y-77132000I135000J0D01*
G01*
G37*
G36*
G01*
X93628000Y-78598000D02*
X93478000Y-78598000D01*
G75*
G02*
X93403000Y-78523000I0J75000D01*
G01*
X93403000Y-78023000D01*
G75*
G02*
X93478000Y-77948000I75000J0D01*
G01*
X93628000Y-77948000D01*
G75*
G02*
X93703000Y-78023000I0J-75000D01*
G01*
X93703000Y-78523000D01*
G75*
G02*
X93628000Y-78598000I-75000J0D01*
G01*
G37*
G36*
G01*
X92978000Y-78598000D02*
X92828000Y-78598000D01*
G75*
G02*
X92753000Y-78523000I0J75000D01*
G01*
X92753000Y-78023000D01*
G75*
G02*
X92828000Y-77948000I75000J0D01*
G01*
X92978000Y-77948000D01*
G75*
G02*
X93053000Y-78023000I0J-75000D01*
G01*
X93053000Y-78523000D01*
G75*
G02*
X92978000Y-78598000I-75000J0D01*
G01*
G37*
G36*
G01*
X92328000Y-78598000D02*
X92178000Y-78598000D01*
G75*
G02*
X92103000Y-78523000I0J75000D01*
G01*
X92103000Y-78023000D01*
G75*
G02*
X92178000Y-77948000I75000J0D01*
G01*
X92328000Y-77948000D01*
G75*
G02*
X92403000Y-78023000I0J-75000D01*
G01*
X92403000Y-78523000D01*
G75*
G02*
X92328000Y-78598000I-75000J0D01*
G01*
G37*
G36*
G01*
X92328000Y-76798000D02*
X92178000Y-76798000D01*
G75*
G02*
X92103000Y-76723000I0J75000D01*
G01*
X92103000Y-76223000D01*
G75*
G02*
X92178000Y-76148000I75000J0D01*
G01*
X92328000Y-76148000D01*
G75*
G02*
X92403000Y-76223000I0J-75000D01*
G01*
X92403000Y-76723000D01*
G75*
G02*
X92328000Y-76798000I-75000J0D01*
G01*
G37*
G36*
G01*
X92978000Y-76798000D02*
X92828000Y-76798000D01*
G75*
G02*
X92753000Y-76723000I0J75000D01*
G01*
X92753000Y-76223000D01*
G75*
G02*
X92828000Y-76148000I75000J0D01*
G01*
X92978000Y-76148000D01*
G75*
G02*
X93053000Y-76223000I0J-75000D01*
G01*
X93053000Y-76723000D01*
G75*
G02*
X92978000Y-76798000I-75000J0D01*
G01*
G37*
G36*
G01*
X93628000Y-76798000D02*
X93478000Y-76798000D01*
G75*
G02*
X93403000Y-76723000I0J75000D01*
G01*
X93403000Y-76223000D01*
G75*
G02*
X93478000Y-76148000I75000J0D01*
G01*
X93628000Y-76148000D01*
G75*
G02*
X93703000Y-76223000I0J-75000D01*
G01*
X93703000Y-76723000D01*
G75*
G02*
X93628000Y-76798000I-75000J0D01*
G01*
G37*
D10*
X72230000Y-77130000D03*
X72230000Y-82730000D03*
X73930000Y-77130000D03*
X73930000Y-82730000D03*
X72230000Y-103530000D03*
X72230000Y-109130000D03*
X73930000Y-103530000D03*
X73930000Y-109130000D03*
X72230000Y-90330000D03*
X72230000Y-95930000D03*
X73930000Y-90330000D03*
X73930000Y-95930000D03*
X101470000Y-82730000D03*
X101470000Y-77130000D03*
X99770000Y-82730000D03*
X99770000Y-77130000D03*
M02*
