M48
INCH,TZ
T1C0.0157
T2C0.0197
T3C0.0217
%
G90
G05
T1
X28228Y-41382
X28228Y-42465
X28228Y-43547
X28228Y-44039
X28437Y-30366
X28437Y-32571
X28519Y-39506
X28668Y-34107
X28720Y-38485
X28720Y-39002
X28720Y-44039
X28898Y-34846
X29016Y-38724
X29016Y-39906
X29106Y-35563
X29106Y-37768
X29106Y-42965
X29213Y-44039
X29255Y-31935
X29483Y-36229
X29508Y-35476
X29508Y-39906
X29508Y-40398
X29508Y-41087
X29508Y-41579
X29508Y-42563
X29508Y-43055
X29541Y-37144
X29558Y-34846
X29567Y-39256
X29681Y-32646
X29691Y-33467
X29750Y-33140
X29803Y-38921
X29843Y-38290
X29886Y-35295
X29898Y-34591
X30000Y-32130
X30000Y-39906
X30000Y-41087
X30000Y-41579
X30000Y-42071
X30000Y-42563
X30124Y-38197
X30167Y-33045
X30197Y-40528
X30394Y-31343
X30458Y-33428
X30492Y-36165
X30492Y-41087
X30492Y-41579
X30492Y-42071
X30511Y-35319
X30546Y-37798
X30551Y-32878
X30602Y-34176
X30689Y-40594
X30938Y-31631
X30979Y-31994
X31005Y-37784
X31024Y-37169
X31091Y-33139
X31172Y-34888
X31220Y-35594
X31342Y-31945
X31376Y-32480
X31441Y-33674
X31457Y-34335
X31516Y-40437
X31575Y-35575
X31575Y-36264
X31575Y-36854
X31575Y-37839
X31629Y-32327
X31654Y-33469
X31783Y-32074
X31850Y-38256
X31850Y-35087
X31917Y-41331
X31968Y-31308
X31977Y-43326
X32067Y-35575
X32067Y-36264
X32067Y-36854
X32067Y-37839
X32067Y-38528
X32073Y-39859
X32165Y-32878
X32165Y-33350
X32165Y-33665
X32205Y-33980
X32214Y-35088
X32514Y-32334
X32559Y-36697
X32559Y-37839
X32559Y-38528
X32559Y-39118
X32559Y-39709
X32559Y-40890
X32559Y-41480
X32589Y-42287
X32668Y-35331
X32742Y-32089
X32795Y-36028
X32953Y-42858
X32953Y-43744
X32992Y-32366
X33107Y-36495
X33110Y-31963
X33228Y-35752
X33284Y-33276
X33284Y-34796
X33307Y-32327
X33425Y-37287
X33445Y-42858
X33445Y-43744
X33819Y-36264
X33937Y-35752
X33937Y-43744
X34029Y-36516
X34041Y-40463
X34047Y-40961
X34052Y-41531
X34069Y-39700
X34134Y-35988
X34349Y-36474
X34445Y-40338
X34485Y-31308
X34488Y-42514
X34496Y-39780
X34511Y-37860
X34528Y-43744
X34646Y-32681
X34679Y-31084
X34775Y-37672
X34803Y-36747
X34855Y-36434
X35020Y-43744
X35168Y-32697
X35243Y-31445
X35302Y-32410
X35335Y-39138
X35394Y-35240
X35512Y-42366
X35512Y-43744
X35537Y-36479
X35621Y-33347
X35709Y-36146
X35773Y-34104
X35785Y-31307
X35903Y-31625
X35906Y-32524
X35943Y-38420
X35983Y-35940
X35984Y-34728
X36004Y-42366
X36004Y-42858
X36004Y-43744
X36046Y-38841
X36063Y-37936
X36063Y-37283
X36068Y-37610
X36142Y-33035
X36174Y-35389
X36252Y-31615
X36335Y-42541
X36398Y-34000
X36496Y-43744
X36525Y-32967
X36559Y-38862
X36754Y-38457
X36772Y-37366
X36811Y-36933
X36890Y-35043
X36890Y-40988
X36890Y-41480
X36988Y-43744
X37376Y-34470
X37382Y-40398
X37382Y-40988
X37382Y-41480
X37480Y-43744
X37507Y-39802
X37543Y-32428
X37638Y-32760
X37646Y-31589
X37721Y-35346
X37756Y-33321
X37776Y-34394
X37776Y-34886
X37874Y-40988
X37953Y-37130
X37972Y-43744
X38075Y-30335
X38248Y-40110
X38268Y-33823
X38268Y-34394
X38268Y-34886
X38268Y-35378
X38268Y-37118
X38284Y-36754
X38305Y-29880
X38307Y-31911
X38366Y-40988
X38390Y-38862
X38465Y-33114
X38530Y-30096
X38542Y-43491
X38600Y-41400
X38760Y-34886
X38760Y-35378
X38760Y-39807
X38773Y-33332
X38780Y-32681
X38808Y-31618
X38858Y-41087
X38881Y-41769
X38957Y-42858
X39049Y-34264
X39049Y-36318
X39183Y-40673
X39280Y-32571
X39350Y-41480
X39350Y-42169
X39449Y-33902
X39490Y-33326
X39504Y-36240
X39565Y-40150
X39646Y-39374
X39782Y-36616
X39803Y-37327
X39803Y-40673
X39843Y-41087
X39843Y-41677
X39843Y-42169
X39843Y-42661
X39901Y-29492
X39901Y-30366
X39934Y-33025
X39941Y-35969
X39986Y-43809
X40055Y-33378
X40147Y-30820
X40147Y-31854
T2
X30433Y-43744
X30827Y-43744
X31220Y-43744
X31614Y-43744
T2
G00X39911Y-35504
M15
G01X39656Y-35504
M16
G05
G00X39911Y-38260
M15
G01X39656Y-38260
M16
G05
T3
G00X38720Y-35957
M15
G01X38720Y-35839
M16
G05
G00X38720Y-37925
M15
G01X38720Y-37807
M16
G05
T0
M30
