G04 #@! TF.GenerationSoftware,KiCad,Pcbnew,(5.1.9)-1*
G04 #@! TF.CreationDate,2021-05-12T11:04:24-07:00*
G04 #@! TF.ProjectId,Watchy,57617463-6879-42e6-9b69-6361645f7063,rev?*
G04 #@! TF.SameCoordinates,Original*
G04 #@! TF.FileFunction,Soldermask,Bot*
G04 #@! TF.FilePolarity,Negative*
%FSLAX46Y46*%
G04 Gerber Fmt 4.6, Leading zero omitted, Abs format (unit mm)*
G04 Created by KiCad (PCBNEW (5.1.9)-1) date 2021-05-12 11:04:24*
%MOMM*%
%LPD*%
G01*
G04 APERTURE LIST*
%ADD10C,0.150000*%
%ADD11O,1.350000X1.650000*%
%ADD12O,1.950000X1.400000*%
%ADD13C,1.200000*%
%ADD14O,1.250000X1.250000*%
G04 APERTURE END LIST*
D10*
X76092857Y-103055714D02*
X75921428Y-103722380D01*
X75750000Y-103246190D01*
X75578571Y-103722380D01*
X75407142Y-103055714D01*
X74678571Y-103722380D02*
X74678571Y-103198571D01*
X74721428Y-103103333D01*
X74807142Y-103055714D01*
X74978571Y-103055714D01*
X75064285Y-103103333D01*
X74678571Y-103674761D02*
X74764285Y-103722380D01*
X74978571Y-103722380D01*
X75064285Y-103674761D01*
X75107142Y-103579523D01*
X75107142Y-103484285D01*
X75064285Y-103389047D01*
X74978571Y-103341428D01*
X74764285Y-103341428D01*
X74678571Y-103293809D01*
X74378571Y-103055714D02*
X74035714Y-103055714D01*
X74250000Y-102722380D02*
X74250000Y-103579523D01*
X74207142Y-103674761D01*
X74121428Y-103722380D01*
X74035714Y-103722380D01*
X73350000Y-103674761D02*
X73435714Y-103722380D01*
X73607142Y-103722380D01*
X73692857Y-103674761D01*
X73735714Y-103627142D01*
X73778571Y-103531904D01*
X73778571Y-103246190D01*
X73735714Y-103150952D01*
X73692857Y-103103333D01*
X73607142Y-103055714D01*
X73435714Y-103055714D01*
X73350000Y-103103333D01*
X72964285Y-103722380D02*
X72964285Y-102722380D01*
X72578571Y-103722380D02*
X72578571Y-103198571D01*
X72621428Y-103103333D01*
X72707142Y-103055714D01*
X72835714Y-103055714D01*
X72921428Y-103103333D01*
X72964285Y-103150952D01*
X72235714Y-103055714D02*
X72021428Y-103722380D01*
X71807142Y-103055714D02*
X72021428Y-103722380D01*
X72107142Y-103960476D01*
X72150000Y-104008095D01*
X72235714Y-104055714D01*
G36*
G01*
X87753000Y-98267000D02*
X86253000Y-98267000D01*
G75*
G02*
X86053000Y-98067000I0J200000D01*
G01*
X86053000Y-97067000D01*
G75*
G02*
X86253000Y-96867000I200000J0D01*
G01*
X87753000Y-96867000D01*
G75*
G02*
X87953000Y-97067000I0J-200000D01*
G01*
X87953000Y-98067000D01*
G75*
G02*
X87753000Y-98267000I-200000J0D01*
G01*
G37*
G36*
G01*
X87753000Y-96967000D02*
X86253000Y-96967000D01*
G75*
G02*
X86053000Y-96767000I0J200000D01*
G01*
X86053000Y-95767000D01*
G75*
G02*
X86253000Y-95567000I200000J0D01*
G01*
X87753000Y-95567000D01*
G75*
G02*
X87953000Y-95767000I0J-200000D01*
G01*
X87953000Y-96767000D01*
G75*
G02*
X87753000Y-96967000I-200000J0D01*
G01*
G37*
G36*
G01*
X87753000Y-95667000D02*
X86253000Y-95667000D01*
G75*
G02*
X86053000Y-95467000I0J200000D01*
G01*
X86053000Y-94467000D01*
G75*
G02*
X86253000Y-94267000I200000J0D01*
G01*
X87753000Y-94267000D01*
G75*
G02*
X87953000Y-94467000I0J-200000D01*
G01*
X87953000Y-95467000D01*
G75*
G02*
X87753000Y-95667000I-200000J0D01*
G01*
G37*
G36*
G01*
X94407000Y-77952000D02*
X94977000Y-77952000D01*
G75*
G02*
X95212000Y-78187000I0J-235000D01*
G01*
X95212000Y-78657000D01*
G75*
G02*
X94977000Y-78892000I-235000J0D01*
G01*
X94407000Y-78892000D01*
G75*
G02*
X94172000Y-78657000I0J235000D01*
G01*
X94172000Y-78187000D01*
G75*
G02*
X94407000Y-77952000I235000J0D01*
G01*
G37*
G36*
G01*
X94407000Y-76932000D02*
X94977000Y-76932000D01*
G75*
G02*
X95212000Y-77167000I0J-235000D01*
G01*
X95212000Y-77637000D01*
G75*
G02*
X94977000Y-77872000I-235000J0D01*
G01*
X94407000Y-77872000D01*
G75*
G02*
X94172000Y-77637000I0J235000D01*
G01*
X94172000Y-77167000D01*
G75*
G02*
X94407000Y-76932000I235000J0D01*
G01*
G37*
G36*
G01*
X93728000Y-78798000D02*
X93378000Y-78798000D01*
G75*
G02*
X93203000Y-78623000I0J175000D01*
G01*
X93203000Y-77923000D01*
G75*
G02*
X93378000Y-77748000I175000J0D01*
G01*
X93728000Y-77748000D01*
G75*
G02*
X93903000Y-77923000I0J-175000D01*
G01*
X93903000Y-78623000D01*
G75*
G02*
X93728000Y-78798000I-175000J0D01*
G01*
G37*
G36*
G01*
X93078000Y-78798000D02*
X92728000Y-78798000D01*
G75*
G02*
X92553000Y-78623000I0J175000D01*
G01*
X92553000Y-77923000D01*
G75*
G02*
X92728000Y-77748000I175000J0D01*
G01*
X93078000Y-77748000D01*
G75*
G02*
X93253000Y-77923000I0J-175000D01*
G01*
X93253000Y-78623000D01*
G75*
G02*
X93078000Y-78798000I-175000J0D01*
G01*
G37*
G36*
G01*
X92428000Y-78798000D02*
X92078000Y-78798000D01*
G75*
G02*
X91903000Y-78623000I0J175000D01*
G01*
X91903000Y-77923000D01*
G75*
G02*
X92078000Y-77748000I175000J0D01*
G01*
X92428000Y-77748000D01*
G75*
G02*
X92603000Y-77923000I0J-175000D01*
G01*
X92603000Y-78623000D01*
G75*
G02*
X92428000Y-78798000I-175000J0D01*
G01*
G37*
G36*
G01*
X92428000Y-76998000D02*
X92078000Y-76998000D01*
G75*
G02*
X91903000Y-76823000I0J175000D01*
G01*
X91903000Y-76123000D01*
G75*
G02*
X92078000Y-75948000I175000J0D01*
G01*
X92428000Y-75948000D01*
G75*
G02*
X92603000Y-76123000I0J-175000D01*
G01*
X92603000Y-76823000D01*
G75*
G02*
X92428000Y-76998000I-175000J0D01*
G01*
G37*
G36*
G01*
X93078000Y-76998000D02*
X92728000Y-76998000D01*
G75*
G02*
X92553000Y-76823000I0J175000D01*
G01*
X92553000Y-76123000D01*
G75*
G02*
X92728000Y-75948000I175000J0D01*
G01*
X93078000Y-75948000D01*
G75*
G02*
X93253000Y-76123000I0J-175000D01*
G01*
X93253000Y-76823000D01*
G75*
G02*
X93078000Y-76998000I-175000J0D01*
G01*
G37*
G36*
G01*
X93728000Y-76998000D02*
X93378000Y-76998000D01*
G75*
G02*
X93203000Y-76823000I0J175000D01*
G01*
X93203000Y-76123000D01*
G75*
G02*
X93378000Y-75948000I175000J0D01*
G01*
X93728000Y-75948000D01*
G75*
G02*
X93903000Y-76123000I0J-175000D01*
G01*
X93903000Y-76823000D01*
G75*
G02*
X93728000Y-76998000I-175000J0D01*
G01*
G37*
D11*
X98350000Y-96180000D03*
X98350000Y-91180000D03*
D12*
X101050000Y-97180000D03*
X101050000Y-90180000D03*
G36*
G01*
X71730000Y-76230000D02*
X72730000Y-76230000D01*
G75*
G02*
X72930000Y-76430000I0J-200000D01*
G01*
X72930000Y-77830000D01*
G75*
G02*
X72730000Y-78030000I-200000J0D01*
G01*
X71730000Y-78030000D01*
G75*
G02*
X71530000Y-77830000I0J200000D01*
G01*
X71530000Y-76430000D01*
G75*
G02*
X71730000Y-76230000I200000J0D01*
G01*
G37*
G36*
G01*
X71730000Y-81830000D02*
X72730000Y-81830000D01*
G75*
G02*
X72930000Y-82030000I0J-200000D01*
G01*
X72930000Y-83430000D01*
G75*
G02*
X72730000Y-83630000I-200000J0D01*
G01*
X71730000Y-83630000D01*
G75*
G02*
X71530000Y-83430000I0J200000D01*
G01*
X71530000Y-82030000D01*
G75*
G02*
X71730000Y-81830000I200000J0D01*
G01*
G37*
G36*
G01*
X73430000Y-76230000D02*
X74430000Y-76230000D01*
G75*
G02*
X74630000Y-76430000I0J-200000D01*
G01*
X74630000Y-77830000D01*
G75*
G02*
X74430000Y-78030000I-200000J0D01*
G01*
X73430000Y-78030000D01*
G75*
G02*
X73230000Y-77830000I0J200000D01*
G01*
X73230000Y-76430000D01*
G75*
G02*
X73430000Y-76230000I200000J0D01*
G01*
G37*
G36*
G01*
X73430000Y-81830000D02*
X74430000Y-81830000D01*
G75*
G02*
X74630000Y-82030000I0J-200000D01*
G01*
X74630000Y-83430000D01*
G75*
G02*
X74430000Y-83630000I-200000J0D01*
G01*
X73430000Y-83630000D01*
G75*
G02*
X73230000Y-83430000I0J200000D01*
G01*
X73230000Y-82030000D01*
G75*
G02*
X73430000Y-81830000I200000J0D01*
G01*
G37*
D13*
X71730000Y-79930000D03*
X74330000Y-79930000D03*
G36*
G01*
X71730000Y-102630000D02*
X72730000Y-102630000D01*
G75*
G02*
X72930000Y-102830000I0J-200000D01*
G01*
X72930000Y-104230000D01*
G75*
G02*
X72730000Y-104430000I-200000J0D01*
G01*
X71730000Y-104430000D01*
G75*
G02*
X71530000Y-104230000I0J200000D01*
G01*
X71530000Y-102830000D01*
G75*
G02*
X71730000Y-102630000I200000J0D01*
G01*
G37*
G36*
G01*
X71730000Y-108230000D02*
X72730000Y-108230000D01*
G75*
G02*
X72930000Y-108430000I0J-200000D01*
G01*
X72930000Y-109830000D01*
G75*
G02*
X72730000Y-110030000I-200000J0D01*
G01*
X71730000Y-110030000D01*
G75*
G02*
X71530000Y-109830000I0J200000D01*
G01*
X71530000Y-108430000D01*
G75*
G02*
X71730000Y-108230000I200000J0D01*
G01*
G37*
G36*
G01*
X73430000Y-102630000D02*
X74430000Y-102630000D01*
G75*
G02*
X74630000Y-102830000I0J-200000D01*
G01*
X74630000Y-104230000D01*
G75*
G02*
X74430000Y-104430000I-200000J0D01*
G01*
X73430000Y-104430000D01*
G75*
G02*
X73230000Y-104230000I0J200000D01*
G01*
X73230000Y-102830000D01*
G75*
G02*
X73430000Y-102630000I200000J0D01*
G01*
G37*
G36*
G01*
X73430000Y-108230000D02*
X74430000Y-108230000D01*
G75*
G02*
X74630000Y-108430000I0J-200000D01*
G01*
X74630000Y-109830000D01*
G75*
G02*
X74430000Y-110030000I-200000J0D01*
G01*
X73430000Y-110030000D01*
G75*
G02*
X73230000Y-109830000I0J200000D01*
G01*
X73230000Y-108430000D01*
G75*
G02*
X73430000Y-108230000I200000J0D01*
G01*
G37*
X71730000Y-106330000D03*
X74330000Y-106330000D03*
G36*
G01*
X71730000Y-89430000D02*
X72730000Y-89430000D01*
G75*
G02*
X72930000Y-89630000I0J-200000D01*
G01*
X72930000Y-91030000D01*
G75*
G02*
X72730000Y-91230000I-200000J0D01*
G01*
X71730000Y-91230000D01*
G75*
G02*
X71530000Y-91030000I0J200000D01*
G01*
X71530000Y-89630000D01*
G75*
G02*
X71730000Y-89430000I200000J0D01*
G01*
G37*
G36*
G01*
X71730000Y-95030000D02*
X72730000Y-95030000D01*
G75*
G02*
X72930000Y-95230000I0J-200000D01*
G01*
X72930000Y-96630000D01*
G75*
G02*
X72730000Y-96830000I-200000J0D01*
G01*
X71730000Y-96830000D01*
G75*
G02*
X71530000Y-96630000I0J200000D01*
G01*
X71530000Y-95230000D01*
G75*
G02*
X71730000Y-95030000I200000J0D01*
G01*
G37*
G36*
G01*
X73430000Y-89430000D02*
X74430000Y-89430000D01*
G75*
G02*
X74630000Y-89630000I0J-200000D01*
G01*
X74630000Y-91030000D01*
G75*
G02*
X74430000Y-91230000I-200000J0D01*
G01*
X73430000Y-91230000D01*
G75*
G02*
X73230000Y-91030000I0J200000D01*
G01*
X73230000Y-89630000D01*
G75*
G02*
X73430000Y-89430000I200000J0D01*
G01*
G37*
G36*
G01*
X73430000Y-95030000D02*
X74430000Y-95030000D01*
G75*
G02*
X74630000Y-95230000I0J-200000D01*
G01*
X74630000Y-96630000D01*
G75*
G02*
X74430000Y-96830000I-200000J0D01*
G01*
X73430000Y-96830000D01*
G75*
G02*
X73230000Y-96630000I0J200000D01*
G01*
X73230000Y-95230000D01*
G75*
G02*
X73430000Y-95030000I200000J0D01*
G01*
G37*
X71730000Y-93130000D03*
X74330000Y-93130000D03*
G36*
G01*
X101970000Y-83630000D02*
X100970000Y-83630000D01*
G75*
G02*
X100770000Y-83430000I0J200000D01*
G01*
X100770000Y-82030000D01*
G75*
G02*
X100970000Y-81830000I200000J0D01*
G01*
X101970000Y-81830000D01*
G75*
G02*
X102170000Y-82030000I0J-200000D01*
G01*
X102170000Y-83430000D01*
G75*
G02*
X101970000Y-83630000I-200000J0D01*
G01*
G37*
G36*
G01*
X101970000Y-78030000D02*
X100970000Y-78030000D01*
G75*
G02*
X100770000Y-77830000I0J200000D01*
G01*
X100770000Y-76430000D01*
G75*
G02*
X100970000Y-76230000I200000J0D01*
G01*
X101970000Y-76230000D01*
G75*
G02*
X102170000Y-76430000I0J-200000D01*
G01*
X102170000Y-77830000D01*
G75*
G02*
X101970000Y-78030000I-200000J0D01*
G01*
G37*
G36*
G01*
X100270000Y-83630000D02*
X99270000Y-83630000D01*
G75*
G02*
X99070000Y-83430000I0J200000D01*
G01*
X99070000Y-82030000D01*
G75*
G02*
X99270000Y-81830000I200000J0D01*
G01*
X100270000Y-81830000D01*
G75*
G02*
X100470000Y-82030000I0J-200000D01*
G01*
X100470000Y-83430000D01*
G75*
G02*
X100270000Y-83630000I-200000J0D01*
G01*
G37*
G36*
G01*
X100270000Y-78030000D02*
X99270000Y-78030000D01*
G75*
G02*
X99070000Y-77830000I0J200000D01*
G01*
X99070000Y-76430000D01*
G75*
G02*
X99270000Y-76230000I200000J0D01*
G01*
X100270000Y-76230000D01*
G75*
G02*
X100470000Y-76430000I0J-200000D01*
G01*
X100470000Y-77830000D01*
G75*
G02*
X100270000Y-78030000I-200000J0D01*
G01*
G37*
X101970000Y-79930000D03*
X99370000Y-79930000D03*
D14*
X80300000Y-111110000D03*
X79300000Y-111110000D03*
X78300000Y-111110000D03*
G36*
G01*
X77725000Y-111735000D02*
X76875000Y-111735000D01*
G75*
G02*
X76675000Y-111535000I0J200000D01*
G01*
X76675000Y-110685000D01*
G75*
G02*
X76875000Y-110485000I200000J0D01*
G01*
X77725000Y-110485000D01*
G75*
G02*
X77925000Y-110685000I0J-200000D01*
G01*
X77925000Y-111535000D01*
G75*
G02*
X77725000Y-111735000I-200000J0D01*
G01*
G37*
M02*
