G04 #@! TF.GenerationSoftware,KiCad,Pcbnew,(5.1.9)-1*
G04 #@! TF.CreationDate,2021-05-12T11:04:24-07:00*
G04 #@! TF.ProjectId,Watchy,57617463-6879-42e6-9b69-6361645f7063,rev?*
G04 #@! TF.SameCoordinates,Original*
G04 #@! TF.FileFunction,Copper,L2,Bot*
G04 #@! TF.FilePolarity,Positive*
%FSLAX46Y46*%
G04 Gerber Fmt 4.6, Leading zero omitted, Abs format (unit mm)*
G04 Created by KiCad (PCBNEW (5.1.9)-1) date 2021-05-12 11:04:24*
%MOMM*%
%LPD*%
G01*
G04 APERTURE LIST*
G04 #@! TA.AperFunction,SMDPad,CuDef*
%ADD10R,1.500000X1.000000*%
G04 #@! TD*
G04 #@! TA.AperFunction,ComponentPad*
%ADD11O,0.950000X1.250000*%
G04 #@! TD*
G04 #@! TA.AperFunction,ComponentPad*
%ADD12O,1.550000X1.000000*%
G04 #@! TD*
G04 #@! TA.AperFunction,SMDPad,CuDef*
%ADD13R,1.000000X1.400000*%
G04 #@! TD*
G04 #@! TA.AperFunction,ComponentPad*
%ADD14O,0.850000X0.850000*%
G04 #@! TD*
G04 #@! TA.AperFunction,ComponentPad*
%ADD15R,0.850000X0.850000*%
G04 #@! TD*
G04 #@! TA.AperFunction,ViaPad*
%ADD16C,0.600000*%
G04 #@! TD*
G04 #@! TA.AperFunction,Conductor*
%ADD17C,0.250000*%
G04 #@! TD*
G04 #@! TA.AperFunction,Conductor*
%ADD18C,0.500000*%
G04 #@! TD*
G04 #@! TA.AperFunction,Conductor*
%ADD19C,0.152400*%
G04 #@! TD*
G04 #@! TA.AperFunction,Conductor*
%ADD20C,0.254000*%
G04 #@! TD*
G04 #@! TA.AperFunction,Conductor*
%ADD21C,0.100000*%
G04 #@! TD*
G04 APERTURE END LIST*
D10*
X87003000Y-97567000D03*
X87003000Y-96267000D03*
X87003000Y-94967000D03*
G04 #@! TA.AperFunction,SMDPad,CuDef*
G36*
G01*
X94507000Y-78152000D02*
X94877000Y-78152000D01*
G75*
G02*
X95012000Y-78287000I0J-135000D01*
G01*
X95012000Y-78557000D01*
G75*
G02*
X94877000Y-78692000I-135000J0D01*
G01*
X94507000Y-78692000D01*
G75*
G02*
X94372000Y-78557000I0J135000D01*
G01*
X94372000Y-78287000D01*
G75*
G02*
X94507000Y-78152000I135000J0D01*
G01*
G37*
G04 #@! TD.AperFunction*
G04 #@! TA.AperFunction,SMDPad,CuDef*
G36*
G01*
X94507000Y-77132000D02*
X94877000Y-77132000D01*
G75*
G02*
X95012000Y-77267000I0J-135000D01*
G01*
X95012000Y-77537000D01*
G75*
G02*
X94877000Y-77672000I-135000J0D01*
G01*
X94507000Y-77672000D01*
G75*
G02*
X94372000Y-77537000I0J135000D01*
G01*
X94372000Y-77267000D01*
G75*
G02*
X94507000Y-77132000I135000J0D01*
G01*
G37*
G04 #@! TD.AperFunction*
G04 #@! TA.AperFunction,SMDPad,CuDef*
G36*
G01*
X93628000Y-78598000D02*
X93478000Y-78598000D01*
G75*
G02*
X93403000Y-78523000I0J75000D01*
G01*
X93403000Y-78023000D01*
G75*
G02*
X93478000Y-77948000I75000J0D01*
G01*
X93628000Y-77948000D01*
G75*
G02*
X93703000Y-78023000I0J-75000D01*
G01*
X93703000Y-78523000D01*
G75*
G02*
X93628000Y-78598000I-75000J0D01*
G01*
G37*
G04 #@! TD.AperFunction*
G04 #@! TA.AperFunction,SMDPad,CuDef*
G36*
G01*
X92978000Y-78598000D02*
X92828000Y-78598000D01*
G75*
G02*
X92753000Y-78523000I0J75000D01*
G01*
X92753000Y-78023000D01*
G75*
G02*
X92828000Y-77948000I75000J0D01*
G01*
X92978000Y-77948000D01*
G75*
G02*
X93053000Y-78023000I0J-75000D01*
G01*
X93053000Y-78523000D01*
G75*
G02*
X92978000Y-78598000I-75000J0D01*
G01*
G37*
G04 #@! TD.AperFunction*
G04 #@! TA.AperFunction,SMDPad,CuDef*
G36*
G01*
X92328000Y-78598000D02*
X92178000Y-78598000D01*
G75*
G02*
X92103000Y-78523000I0J75000D01*
G01*
X92103000Y-78023000D01*
G75*
G02*
X92178000Y-77948000I75000J0D01*
G01*
X92328000Y-77948000D01*
G75*
G02*
X92403000Y-78023000I0J-75000D01*
G01*
X92403000Y-78523000D01*
G75*
G02*
X92328000Y-78598000I-75000J0D01*
G01*
G37*
G04 #@! TD.AperFunction*
G04 #@! TA.AperFunction,SMDPad,CuDef*
G36*
G01*
X92328000Y-76798000D02*
X92178000Y-76798000D01*
G75*
G02*
X92103000Y-76723000I0J75000D01*
G01*
X92103000Y-76223000D01*
G75*
G02*
X92178000Y-76148000I75000J0D01*
G01*
X92328000Y-76148000D01*
G75*
G02*
X92403000Y-76223000I0J-75000D01*
G01*
X92403000Y-76723000D01*
G75*
G02*
X92328000Y-76798000I-75000J0D01*
G01*
G37*
G04 #@! TD.AperFunction*
G04 #@! TA.AperFunction,SMDPad,CuDef*
G36*
G01*
X92978000Y-76798000D02*
X92828000Y-76798000D01*
G75*
G02*
X92753000Y-76723000I0J75000D01*
G01*
X92753000Y-76223000D01*
G75*
G02*
X92828000Y-76148000I75000J0D01*
G01*
X92978000Y-76148000D01*
G75*
G02*
X93053000Y-76223000I0J-75000D01*
G01*
X93053000Y-76723000D01*
G75*
G02*
X92978000Y-76798000I-75000J0D01*
G01*
G37*
G04 #@! TD.AperFunction*
G04 #@! TA.AperFunction,SMDPad,CuDef*
G36*
G01*
X93628000Y-76798000D02*
X93478000Y-76798000D01*
G75*
G02*
X93403000Y-76723000I0J75000D01*
G01*
X93403000Y-76223000D01*
G75*
G02*
X93478000Y-76148000I75000J0D01*
G01*
X93628000Y-76148000D01*
G75*
G02*
X93703000Y-76223000I0J-75000D01*
G01*
X93703000Y-76723000D01*
G75*
G02*
X93628000Y-76798000I-75000J0D01*
G01*
G37*
G04 #@! TD.AperFunction*
D11*
X98350000Y-96180000D03*
X98350000Y-91180000D03*
D12*
X101050000Y-97180000D03*
X101050000Y-90180000D03*
D13*
X72230000Y-77130000D03*
X72230000Y-82730000D03*
X73930000Y-77130000D03*
X73930000Y-82730000D03*
X72230000Y-103530000D03*
X72230000Y-109130000D03*
X73930000Y-103530000D03*
X73930000Y-109130000D03*
X72230000Y-90330000D03*
X72230000Y-95930000D03*
X73930000Y-90330000D03*
X73930000Y-95930000D03*
X101470000Y-82730000D03*
X101470000Y-77130000D03*
X99770000Y-82730000D03*
X99770000Y-77130000D03*
D14*
X80300000Y-111110000D03*
X79300000Y-111110000D03*
X78300000Y-111110000D03*
D15*
X77300000Y-111110000D03*
D16*
X73700000Y-101360000D03*
X101972600Y-78282394D03*
X101972600Y-80910000D03*
X100700000Y-100010000D03*
X99525000Y-103310000D03*
X98572598Y-80310000D03*
X98500000Y-83010000D03*
X80337402Y-82110000D03*
X93400000Y-94910001D03*
X97510000Y-98710000D03*
X90264000Y-92656000D03*
X94936000Y-87555000D03*
X91883000Y-89888000D03*
X101433000Y-83882402D03*
X78687716Y-81264284D03*
X79859049Y-85532954D03*
X75390000Y-82920000D03*
X82586600Y-82129000D03*
X84542500Y-84520000D03*
X84542500Y-88382500D03*
X99185000Y-87030000D03*
X99185000Y-92247000D03*
X100339801Y-92050189D03*
X97700000Y-84110000D03*
X77200000Y-79610000D03*
X76200000Y-81610000D03*
X73400000Y-88510000D03*
X75100000Y-99710000D03*
X75078000Y-88510000D03*
X81221000Y-110048000D03*
X80900000Y-97170000D03*
X76700000Y-102940000D03*
X79177400Y-88614809D03*
X92290000Y-108055000D03*
X74950000Y-101360000D03*
X76200000Y-101360000D03*
X73700000Y-98360000D03*
X75700000Y-98860000D03*
X74950000Y-102610000D03*
X74950000Y-104360000D03*
X74950000Y-105610000D03*
X74950000Y-108110000D03*
X71700000Y-107860000D03*
X71700000Y-105110000D03*
X71700000Y-110610000D03*
X71700000Y-111860000D03*
X72950000Y-111860000D03*
X74200000Y-111860000D03*
X74950000Y-109360000D03*
X76200000Y-108110000D03*
X76200000Y-106860000D03*
X76200000Y-105610000D03*
X76200000Y-104360000D03*
X77450000Y-104360000D03*
X77450000Y-105610000D03*
X77450000Y-106860000D03*
X77950000Y-103110000D03*
X82700000Y-105360000D03*
X82700000Y-103860000D03*
X82700000Y-100860000D03*
X82700000Y-99360000D03*
X82700000Y-97860000D03*
X81450000Y-97860000D03*
X81450000Y-96110000D03*
X82700000Y-96110000D03*
X80200000Y-96110000D03*
X80200000Y-93610000D03*
X81450000Y-93610000D03*
X81450000Y-92110000D03*
X80200000Y-92110000D03*
X80200000Y-90360000D03*
X81450000Y-90360000D03*
X77450000Y-91860000D03*
X75033000Y-94346000D03*
X74887000Y-92022000D03*
X74950000Y-90110000D03*
X86493000Y-105488000D03*
X86479000Y-104041000D03*
X86465000Y-102777000D03*
X86535000Y-100839000D03*
X94950000Y-102610000D03*
X93700000Y-104110000D03*
X94950000Y-104110000D03*
X96200000Y-104110000D03*
X97450000Y-104110000D03*
X94950000Y-105360000D03*
X93700000Y-105360000D03*
X83700000Y-108860000D03*
X84950000Y-108860000D03*
X91450000Y-108860000D03*
X91450000Y-107610000D03*
X90200000Y-107610000D03*
X83700000Y-111110000D03*
X84950000Y-111110000D03*
X86200000Y-111110000D03*
X87700000Y-111110000D03*
X88950000Y-111110000D03*
X90200000Y-111110000D03*
X91450000Y-111110000D03*
X92700000Y-111110000D03*
X93950000Y-111110000D03*
X95200000Y-111110000D03*
X96450000Y-111110000D03*
X98758000Y-106093000D03*
X98950000Y-108860000D03*
X99950000Y-107110000D03*
X99950000Y-105360000D03*
X98700000Y-104360000D03*
X101200000Y-104360000D03*
X101200000Y-105860000D03*
X101200000Y-107110000D03*
X101200000Y-108360000D03*
X98450000Y-101110000D03*
X101046000Y-93004000D03*
X101450000Y-91360000D03*
X98450000Y-89860000D03*
X97200000Y-89860000D03*
X97200000Y-88610000D03*
X98450000Y-88610000D03*
X97200000Y-87360000D03*
X95950000Y-88610000D03*
X95950000Y-87360000D03*
X100200000Y-86110000D03*
X92450000Y-86360000D03*
X95268000Y-101097000D03*
X92860446Y-98710000D03*
X91556000Y-98657000D03*
X91295000Y-97588000D03*
X93356000Y-97681000D03*
X78752216Y-95972216D03*
X101347598Y-74910000D03*
X92080000Y-80302000D03*
X95621000Y-80237000D03*
X90893000Y-79521000D03*
X84100000Y-81185000D03*
X91599999Y-96357598D03*
X101347598Y-77130000D03*
X88000000Y-83010000D03*
X91800000Y-83910000D03*
X90476815Y-84701250D03*
X89900000Y-89510000D03*
X78582598Y-80342598D03*
X79609571Y-81141122D03*
X77600000Y-83510000D03*
X79900000Y-87210000D03*
X95900000Y-84635000D03*
X98482459Y-84663581D03*
X100304000Y-84648000D03*
X89326150Y-83051250D03*
X72230000Y-77130000D03*
X72230000Y-82730000D03*
X72437500Y-100345000D03*
X74308000Y-81115000D03*
X82775000Y-107410000D03*
X75416361Y-85005506D03*
X81070000Y-104980000D03*
X87600000Y-107986000D03*
X81199038Y-79522962D03*
X77587510Y-96006000D03*
X87593000Y-79522962D03*
X96710398Y-77050400D03*
X93500000Y-93810000D03*
X101740000Y-84780000D03*
X96400000Y-94310000D03*
X101100000Y-94810000D03*
X90700000Y-91810000D03*
X97200000Y-94279680D03*
X97240606Y-93356369D03*
X91396118Y-91287400D03*
X91613770Y-95528828D03*
X95812402Y-89780000D03*
X82700000Y-93210000D03*
X88400000Y-93337598D03*
X91600102Y-94698593D03*
X93700000Y-89010000D03*
X90862405Y-86623850D03*
X80727908Y-81466873D03*
X89518157Y-79869168D03*
X89666000Y-82321000D03*
X89750000Y-99410000D03*
X95358284Y-82368284D03*
X91200000Y-82610000D03*
X97865199Y-76445000D03*
X92774500Y-83735500D03*
X88531583Y-92541583D03*
X91400000Y-88210000D03*
X79694147Y-82500296D03*
X91194000Y-80327782D03*
X97294850Y-75895600D03*
X87245199Y-92643210D03*
X99770000Y-82730000D03*
X84600000Y-82110000D03*
X97300000Y-81055199D03*
X81700000Y-84710000D03*
X72816907Y-86632600D03*
X73930000Y-90330000D03*
X73930000Y-95930000D03*
X75565882Y-84175882D03*
X83164000Y-81506000D03*
X100494168Y-101980190D03*
X101100000Y-103310000D03*
X95600000Y-83210000D03*
X80400000Y-85010000D03*
X98043000Y-105157000D03*
X97150000Y-101880000D03*
X80050000Y-102710000D03*
X97897216Y-110467400D03*
X73930000Y-109130000D03*
X82977401Y-89740000D03*
X97200000Y-85910000D03*
X83800000Y-82210000D03*
X78800000Y-94410000D03*
X84900000Y-94710000D03*
X86200000Y-90810000D03*
X84400000Y-90810000D03*
X86433560Y-92751167D03*
X84091000Y-92697000D03*
X86700000Y-91410000D03*
X83300000Y-91510000D03*
X81700000Y-83510000D03*
X78970262Y-84172492D03*
X80900045Y-89120712D03*
X75910000Y-89650000D03*
X72947598Y-97753000D03*
X75802400Y-97257598D03*
X81800000Y-86310000D03*
X75940000Y-87860000D03*
X72947598Y-99064000D03*
X76516170Y-97019603D03*
X79300000Y-90410000D03*
X81700000Y-85510000D03*
X77730000Y-86807599D03*
X76624166Y-83934166D03*
X81822601Y-89123651D03*
X77364000Y-84906000D03*
X77499000Y-89710000D03*
X85900000Y-92110000D03*
X101564000Y-111274000D03*
X87620000Y-101040000D03*
X87490328Y-102457400D03*
X87659000Y-96164000D03*
X88083838Y-78952712D03*
X81464162Y-101241359D03*
X88327400Y-95688000D03*
D17*
X98572598Y-80310000D02*
X98572598Y-76628080D01*
D18*
X92860446Y-98710000D02*
X97510000Y-98710000D01*
X90897599Y-96747153D02*
X92860446Y-98710000D01*
X90897599Y-94361542D02*
X90897599Y-96747153D01*
X91262949Y-93996192D02*
X90897599Y-94361542D01*
X92486191Y-93996192D02*
X91262949Y-93996192D01*
X93400000Y-94910001D02*
X92486191Y-93996192D01*
X91262949Y-93654949D02*
X91262949Y-93996192D01*
X90264000Y-92656000D02*
X91262949Y-93654949D01*
D17*
X101292599Y-78962395D02*
X101972600Y-78282394D01*
X101292599Y-80229999D02*
X101292599Y-78962395D01*
X101972600Y-80910000D02*
X101292599Y-80229999D01*
X101433000Y-83882402D02*
X101012000Y-84303402D01*
X98500000Y-83159322D02*
X98500000Y-83010000D01*
X99504820Y-84164142D02*
X98500000Y-83159322D01*
X99645401Y-85225401D02*
X99504820Y-85084820D01*
X99504820Y-85084820D02*
X99504820Y-84164142D01*
X100581153Y-85225401D02*
X99645401Y-85225401D01*
X101012000Y-84794554D02*
X100581153Y-85225401D01*
X101012000Y-84303402D02*
X101012000Y-84794554D01*
X79233433Y-81810001D02*
X78687716Y-81264284D01*
X80037403Y-81810001D02*
X79233433Y-81810001D01*
X80337402Y-82110000D02*
X80037403Y-81810001D01*
X79859049Y-85532954D02*
X79559050Y-85232955D01*
X79114601Y-85232955D02*
X78359000Y-84477354D01*
X79559050Y-85232955D02*
X79114601Y-85232955D01*
X77864554Y-82920000D02*
X75390000Y-82920000D01*
X78359000Y-83414446D02*
X77864554Y-82920000D01*
X82608000Y-82137000D02*
X84178590Y-83707590D01*
X84178590Y-84156090D02*
X84542500Y-84520000D01*
X84178590Y-83707590D02*
X84178590Y-84156090D01*
X84524801Y-88364801D02*
X84542500Y-88382500D01*
D18*
X98350000Y-91412000D02*
X99185000Y-92247000D01*
X98350000Y-91180000D02*
X98350000Y-91412000D01*
X99185000Y-95345000D02*
X99185000Y-92247000D01*
X98350000Y-96180000D02*
X99185000Y-95345000D01*
X101050000Y-90180000D02*
X101050000Y-90940000D01*
X100289811Y-96419811D02*
X101050000Y-97180000D01*
X100289811Y-91700189D02*
X100289811Y-96419811D01*
X101050000Y-90940000D02*
X100289811Y-91700189D01*
X100289811Y-92000199D02*
X100339801Y-92050189D01*
X100289811Y-91700189D02*
X100289811Y-92000199D01*
D17*
X75100000Y-99612946D02*
X75100000Y-99710000D01*
D18*
X81221000Y-110048000D02*
X91487000Y-110048000D01*
X80900000Y-97170000D02*
X78692320Y-99377680D01*
X78692320Y-100947680D02*
X76700000Y-102940000D01*
X78692320Y-99377680D02*
X78692320Y-100947680D01*
X79986931Y-88614809D02*
X79177400Y-88614809D01*
X80219240Y-88382500D02*
X79986931Y-88614809D01*
X84542500Y-88382500D02*
X80219240Y-88382500D01*
X75161303Y-88593303D02*
X75078000Y-88510000D01*
X79155894Y-88593303D02*
X75161303Y-88593303D01*
X79177400Y-88614809D02*
X79155894Y-88593303D01*
X75078000Y-88510000D02*
X73400000Y-88510000D01*
X101972600Y-78282394D02*
X101972600Y-78739846D01*
X101972600Y-78739846D02*
X101584847Y-79127599D01*
X101584847Y-79127599D02*
X101411223Y-79301223D01*
X101536300Y-80683854D02*
X101383009Y-80530563D01*
X101536300Y-80897964D02*
X101536300Y-80683854D01*
X101548336Y-80910000D02*
X101536300Y-80897964D01*
X101972600Y-80910000D02*
X101548336Y-80910000D01*
X97783598Y-79521000D02*
X98572598Y-80310000D01*
X98572598Y-82937402D02*
X98500000Y-83010000D01*
X98572598Y-80310000D02*
X98572598Y-82937402D01*
X98500000Y-83118684D02*
X98867599Y-83486283D01*
X98500000Y-83010000D02*
X98500000Y-83118684D01*
X101433000Y-83911000D02*
X101137000Y-84207000D01*
X101433000Y-83882402D02*
X101433000Y-83911000D01*
X91883000Y-89787446D02*
X91883000Y-89888000D01*
X94115446Y-87555000D02*
X91883000Y-89787446D01*
X94936000Y-87555000D02*
X94115446Y-87555000D01*
X99185000Y-87030000D02*
X99185000Y-92247000D01*
X79859049Y-85532954D02*
X79291170Y-85532954D01*
X79291170Y-85532954D02*
X78468811Y-84710595D01*
X75390000Y-82920000D02*
X77150446Y-82920000D01*
X78267861Y-83835339D02*
X78267861Y-84209437D01*
X78359000Y-83744200D02*
X78267861Y-83835339D01*
X78359000Y-83599000D02*
X78359000Y-83744200D01*
D17*
X78359000Y-84477354D02*
X78359000Y-83599000D01*
X78359000Y-83599000D02*
X78359000Y-83414446D01*
D18*
X79266955Y-81843523D02*
X79311366Y-81843523D01*
X78687716Y-81264284D02*
X79266955Y-81843523D01*
X82586600Y-82564100D02*
X84542500Y-84520000D01*
X82586600Y-82129000D02*
X82586600Y-82564100D01*
X77300000Y-110185000D02*
X77300000Y-111110000D01*
X77437000Y-110048000D02*
X77300000Y-110185000D01*
X81221000Y-110048000D02*
X77437000Y-110048000D01*
X91487000Y-108858000D02*
X92290000Y-108055000D01*
X91487000Y-110048000D02*
X91487000Y-108858000D01*
X79702216Y-95972216D02*
X80900000Y-97170000D01*
X78752216Y-95972216D02*
X79702216Y-95972216D01*
X98567599Y-76408079D02*
X98567599Y-80310000D01*
D17*
X98572598Y-76628080D02*
X100290678Y-74910000D01*
D18*
X100065678Y-74910000D02*
X98567599Y-76408079D01*
X101347598Y-74910000D02*
X100065678Y-74910000D01*
D17*
X100290678Y-74910000D02*
X101347598Y-74910000D01*
D18*
X99525000Y-101185000D02*
X99525000Y-103310000D01*
X100700000Y-100010000D02*
X99525000Y-101185000D01*
D17*
X92253000Y-79456000D02*
X92318000Y-79521000D01*
X92253000Y-78273000D02*
X92253000Y-79456000D01*
D18*
X92318000Y-79521000D02*
X97783598Y-79521000D01*
X90893000Y-79521000D02*
X92318000Y-79521000D01*
D17*
X99102410Y-86092856D02*
X99762401Y-86752847D01*
X99762401Y-86752847D02*
X99762401Y-95981667D01*
X97877401Y-83241955D02*
X99102410Y-84466964D01*
X97877401Y-80778046D02*
X97877401Y-83241955D01*
X99102410Y-84466964D02*
X99102410Y-86092856D01*
X97577153Y-80477798D02*
X97877401Y-80778046D01*
X96958294Y-80477798D02*
X97577153Y-80477798D01*
X99762401Y-95981667D02*
X98661658Y-97082410D01*
X96530910Y-80905182D02*
X96958294Y-80477798D01*
X84100000Y-81185000D02*
X84379818Y-80905182D01*
X92324811Y-97082410D02*
X92477590Y-97082410D01*
X92477590Y-97082410D02*
X92272410Y-97082410D01*
X91599999Y-96357598D02*
X92324811Y-97082410D01*
X98661658Y-97082410D02*
X92477590Y-97082410D01*
X84379818Y-80905182D02*
X96530910Y-80905182D01*
X101292599Y-82552599D02*
X101470000Y-82730000D01*
X101470000Y-77130000D02*
X101292599Y-77307401D01*
X101469000Y-82964000D02*
X101470000Y-82730000D01*
X72260000Y-87210000D02*
X72230000Y-87240000D01*
X72230000Y-87240000D02*
X72230000Y-90330000D01*
X72230000Y-82730000D02*
X72230000Y-87240000D01*
X72230000Y-95930000D02*
X72230000Y-103530000D01*
X72438000Y-100345500D02*
X72437500Y-100345000D01*
D18*
X83351000Y-107986000D02*
X82775000Y-107410000D01*
D17*
X77190835Y-85587401D02*
X76608940Y-85005506D01*
X76608940Y-85005506D02*
X75416361Y-85005506D01*
X77537153Y-85587401D02*
X77190835Y-85587401D01*
X77941401Y-85183153D02*
X77537153Y-85587401D01*
X77941401Y-84628847D02*
X77941401Y-85183153D01*
X77600000Y-84287446D02*
X77941401Y-84628847D01*
X77600000Y-83510000D02*
X77600000Y-84287446D01*
X72437500Y-100345000D02*
X75319554Y-100345000D01*
D18*
X72230000Y-109354322D02*
X72230000Y-109130000D01*
X73108079Y-110232401D02*
X72230000Y-109354322D01*
X75817599Y-110232401D02*
X73108079Y-110232401D01*
X81070000Y-104980000D02*
X75817599Y-110232401D01*
X72532401Y-103832401D02*
X72230000Y-103530000D01*
X72532401Y-108827599D02*
X72532401Y-103832401D01*
X72230000Y-109130000D02*
X72532401Y-108827599D01*
X72230000Y-100552500D02*
X72437500Y-100345000D01*
X72230000Y-103530000D02*
X72230000Y-100552500D01*
X72687500Y-100595000D02*
X75254554Y-100595000D01*
X75254554Y-100595000D02*
X77587510Y-98262044D01*
X72437500Y-100345000D02*
X72687500Y-100595000D01*
X72230000Y-100137500D02*
X72230000Y-95930000D01*
X72437500Y-100345000D02*
X72230000Y-100137500D01*
X72532401Y-90632401D02*
X72230000Y-90330000D01*
X72532401Y-95627599D02*
X72532401Y-90632401D01*
X72230000Y-95930000D02*
X72532401Y-95627599D01*
X72114506Y-82845494D02*
X72230000Y-82730000D01*
X72114506Y-86969753D02*
X72114506Y-82845494D01*
X72230000Y-87085247D02*
X72114506Y-86969753D01*
X72230000Y-90330000D02*
X72230000Y-87085247D01*
X72532401Y-77432401D02*
X72230000Y-77130000D01*
X72532401Y-82427599D02*
X72532401Y-77432401D01*
X72230000Y-82730000D02*
X72532401Y-82427599D01*
X82775000Y-106685000D02*
X81070000Y-104980000D01*
X82775000Y-107410000D02*
X82775000Y-106685000D01*
X72479754Y-87335001D02*
X72114506Y-86969753D01*
X74087271Y-87157599D02*
X73909869Y-87335001D01*
X76277153Y-87157599D02*
X74087271Y-87157599D01*
X76629553Y-87509999D02*
X76277153Y-87157599D01*
X79600001Y-87509999D02*
X76629553Y-87509999D01*
X73909869Y-87335001D02*
X72479754Y-87335001D01*
X79900000Y-87210000D02*
X79600001Y-87509999D01*
X76019256Y-85608401D02*
X77391445Y-85608401D01*
X75416361Y-85005506D02*
X76019256Y-85608401D01*
X77600000Y-83510000D02*
X77600000Y-84102446D01*
X75080402Y-80342598D02*
X78582598Y-80342598D01*
X74308000Y-81115000D02*
X75080402Y-80342598D01*
X78811047Y-80342598D02*
X79609571Y-81141122D01*
X78582598Y-80342598D02*
X78811047Y-80342598D01*
X78582598Y-80342598D02*
X79402234Y-79522962D01*
X89284900Y-83010000D02*
X89326150Y-83051250D01*
X88000000Y-83010000D02*
X89284900Y-83010000D01*
X91008750Y-84701250D02*
X90476815Y-84701250D01*
X91800000Y-83910000D02*
X91008750Y-84701250D01*
X89900000Y-85278065D02*
X89900000Y-89510000D01*
X90476815Y-84701250D02*
X89900000Y-85278065D01*
X97537153Y-86612401D02*
X98482459Y-85667095D01*
X98482459Y-85667095D02*
X98482459Y-84663581D01*
X96862847Y-86612401D02*
X97537153Y-86612401D01*
X95900000Y-85649554D02*
X96862847Y-86612401D01*
X95900000Y-84635000D02*
X95900000Y-85649554D01*
X101470000Y-82846991D02*
X101470000Y-82730000D01*
X100484590Y-83832401D02*
X101470000Y-82846991D01*
X100484590Y-84485410D02*
X100484590Y-83832401D01*
X100322000Y-84648000D02*
X100484590Y-84485410D01*
X100304000Y-84648000D02*
X100322000Y-84648000D01*
X100730599Y-77869401D02*
X101470000Y-77130000D01*
X100730599Y-81990599D02*
X100730599Y-77869401D01*
X101470000Y-82730000D02*
X100730599Y-81990599D01*
X83351000Y-107986000D02*
X87600000Y-107986000D01*
X81199038Y-79522962D02*
X86611000Y-79522962D01*
X79402234Y-79522962D02*
X81199038Y-79522962D01*
X77637500Y-96524500D02*
X77637500Y-96344000D01*
X77587510Y-96574490D02*
X77637500Y-96524500D01*
X77587510Y-98262044D02*
X77587510Y-96574490D01*
X77587510Y-96006000D02*
X77587510Y-96574490D01*
D17*
X93553000Y-78273000D02*
X93553000Y-77948000D01*
D18*
X86611000Y-79522962D02*
X87593000Y-79522962D01*
D17*
X95487798Y-78273000D02*
X96710398Y-77050400D01*
X94692000Y-78293000D02*
X94712000Y-78273000D01*
X94692000Y-78422000D02*
X94692000Y-78293000D01*
X94712000Y-78273000D02*
X95487798Y-78273000D01*
X93553000Y-78273000D02*
X94712000Y-78273000D01*
X95900000Y-93810000D02*
X93500000Y-93810000D01*
X96400000Y-94310000D02*
X95900000Y-93810000D01*
X102147590Y-85187590D02*
X101740000Y-84780000D01*
X102100000Y-93810000D02*
X102147590Y-85187590D01*
X101100000Y-94810000D02*
X102100000Y-93810000D01*
X97393369Y-94210000D02*
X97200000Y-94279680D01*
X90700000Y-91810000D02*
X90982042Y-91927958D01*
X97200000Y-94210000D02*
X97393369Y-94210000D01*
X94800000Y-91916900D02*
X97200000Y-94210000D01*
X90982042Y-91927958D02*
X94800000Y-91916900D01*
X95171637Y-91287400D02*
X91396118Y-91287400D01*
X97240606Y-93356369D02*
X95171637Y-91287400D01*
X97289838Y-95891148D02*
X98400000Y-94780986D01*
X91976090Y-95891148D02*
X97289838Y-95891148D01*
X91613770Y-95528828D02*
X91976090Y-95891148D01*
X95812402Y-89856470D02*
X95812402Y-89780000D01*
X98400000Y-94780986D02*
X98400000Y-92444068D01*
X98400000Y-92444068D02*
X95812402Y-89856470D01*
X82827598Y-93337598D02*
X82700000Y-93210000D01*
X88400000Y-93337598D02*
X82827598Y-93337598D01*
X92388910Y-95487401D02*
X91600102Y-94698593D01*
X97109882Y-95487401D02*
X92388910Y-95487401D01*
X97900000Y-94710000D02*
X97109882Y-95487401D01*
X95248791Y-90510000D02*
X97900000Y-93010000D01*
X93700000Y-89010000D02*
X95248791Y-90510000D01*
X97900000Y-93010000D02*
X97900000Y-94710000D01*
X80727908Y-81466873D02*
X82094419Y-80100362D01*
X89286963Y-80100362D02*
X89518157Y-79869168D01*
X82094419Y-80100362D02*
X89286963Y-80100362D01*
X91245446Y-90076782D02*
X89686599Y-91635629D01*
X91245446Y-88910000D02*
X91245446Y-90076782D01*
X89686599Y-99346599D02*
X89750000Y-99410000D01*
X90562406Y-88226960D02*
X91245446Y-88910000D01*
X89686599Y-91635629D02*
X89686599Y-99346599D01*
X90562406Y-86923849D02*
X90562406Y-88226960D01*
X90862405Y-86623850D02*
X90562406Y-86923849D01*
X95116568Y-82610000D02*
X95358284Y-82368284D01*
X91200000Y-82610000D02*
X95116568Y-82610000D01*
X89666000Y-82321000D02*
X90911000Y-82321000D01*
X90911000Y-82321000D02*
X91200000Y-82610000D01*
X97837199Y-76473000D02*
X97865199Y-76445000D01*
X93553000Y-76473000D02*
X97837199Y-76473000D01*
X92774500Y-83735500D02*
X92700000Y-83810000D01*
X81317000Y-81446873D02*
X82261101Y-80502772D01*
X91019010Y-80502772D02*
X91194000Y-80327782D01*
X81317000Y-81984956D02*
X81317000Y-81446873D01*
X80614555Y-82687401D02*
X81317000Y-81984956D01*
X79791848Y-82419000D02*
X80060249Y-82687401D01*
X79775443Y-82419000D02*
X79791848Y-82419000D01*
X82261101Y-80502772D02*
X91019010Y-80502772D01*
X80060249Y-82687401D02*
X80614555Y-82687401D01*
X79694147Y-82500296D02*
X79775443Y-82419000D01*
X92774500Y-83735500D02*
X92400000Y-84110000D01*
X91704554Y-84860000D02*
X91700000Y-84860000D01*
X92400000Y-84164554D02*
X91704554Y-84860000D01*
X92400000Y-84110000D02*
X92400000Y-84164554D01*
X91699999Y-84864555D02*
X91704554Y-84860000D01*
X91699999Y-87910001D02*
X91699999Y-84864555D01*
X91400000Y-88210000D02*
X91699999Y-87910001D01*
X97269840Y-75870590D02*
X97294850Y-75895600D01*
X92530410Y-75870590D02*
X97269840Y-75870590D01*
X92253000Y-76148000D02*
X92530410Y-75870590D01*
X92253000Y-76473000D02*
X92253000Y-76148000D01*
X88429956Y-92643210D02*
X88531583Y-92541583D01*
X87245199Y-92643210D02*
X88429956Y-92643210D01*
X100047401Y-77407401D02*
X99770000Y-77130000D01*
X100047401Y-82452599D02*
X100047401Y-77407401D01*
X99770000Y-82730000D02*
X100047401Y-82452599D01*
X96949985Y-81055199D02*
X96697592Y-81307592D01*
X97300000Y-81055199D02*
X96949985Y-81055199D01*
X85402408Y-81307592D02*
X84600000Y-82110000D01*
X96697592Y-81307592D02*
X85402408Y-81307592D01*
X81700000Y-84710000D02*
X81554554Y-84710000D01*
X81554554Y-84710000D02*
X80154199Y-86110355D01*
X80154199Y-86110355D02*
X78597746Y-86110355D01*
X78597746Y-86110355D02*
X78477202Y-85989811D01*
X73652599Y-90607401D02*
X73652599Y-95652599D01*
X73652599Y-95652599D02*
X73930000Y-95930000D01*
X73930000Y-90330000D02*
X73652599Y-90607401D01*
X72828307Y-86644000D02*
X72816907Y-86632600D01*
X73855000Y-86644000D02*
X72828307Y-86644000D01*
X77515518Y-86230198D02*
X77452847Y-86230198D01*
X77755905Y-85989811D02*
X77515518Y-86230198D01*
X78477202Y-85989811D02*
X77755905Y-85989811D01*
X77452847Y-86230198D02*
X77052856Y-86630189D01*
X73868811Y-86630189D02*
X73855000Y-86644000D01*
X77052856Y-86630189D02*
X73868811Y-86630189D01*
X80763458Y-83107590D02*
X78621237Y-83107590D01*
X82365048Y-81506000D02*
X80763458Y-83107590D01*
X83164000Y-81506000D02*
X82365048Y-81506000D01*
X74812599Y-83422599D02*
X75565882Y-84175882D01*
X74812599Y-82642847D02*
X74812599Y-83422599D01*
X75112847Y-82342599D02*
X74812599Y-82642847D01*
X77856246Y-82342599D02*
X75112847Y-82342599D01*
X78621237Y-83107590D02*
X77856246Y-82342599D01*
X73652599Y-77407401D02*
X73930000Y-77130000D01*
X73652599Y-82452599D02*
X73652599Y-77407401D01*
X73930000Y-82730000D02*
X73652599Y-82452599D01*
X73930000Y-82730000D02*
X73930000Y-82638000D01*
X74225401Y-82342599D02*
X75112847Y-82342599D01*
X73930000Y-82638000D02*
X74225401Y-82342599D01*
X101100000Y-102586022D02*
X100494168Y-101980190D01*
X101100000Y-103310000D02*
X101100000Y-102586022D01*
X98043000Y-102773000D02*
X97150000Y-101880000D01*
X98043000Y-105157000D02*
X98043000Y-102773000D01*
X80880000Y-101880000D02*
X80050000Y-102710000D01*
X97150000Y-101880000D02*
X80880000Y-101880000D01*
X98043000Y-110169364D02*
X98043000Y-105157000D01*
X97919954Y-110292410D02*
X98043000Y-110169364D01*
X95175736Y-83210000D02*
X95600000Y-83210000D01*
X90199662Y-84123849D02*
X90485124Y-84123849D01*
X80400000Y-85010000D02*
X81300000Y-84110000D01*
X89226110Y-85097401D02*
X90199662Y-84123849D01*
X84265347Y-85097401D02*
X89226110Y-85097401D01*
X81300000Y-84110000D02*
X83277946Y-84110000D01*
X83277946Y-84110000D02*
X84265347Y-85097401D01*
X94978146Y-83012410D02*
X95175736Y-83210000D01*
X90485124Y-84123849D02*
X91421572Y-83187401D01*
X91421572Y-83187401D02*
X91477153Y-83187401D01*
X91477153Y-83187401D02*
X91652144Y-83012410D01*
X91652144Y-83012410D02*
X94978146Y-83012410D01*
X73652599Y-108852599D02*
X73930000Y-109130000D01*
X73652599Y-103807401D02*
X73652599Y-108852599D01*
X75147093Y-103530000D02*
X73930000Y-103530000D01*
X81730000Y-90987401D02*
X78562599Y-90987401D01*
X82977401Y-89740000D02*
X81730000Y-90987401D01*
X78164910Y-100512183D02*
X75147093Y-103530000D01*
X78164910Y-91385090D02*
X78164910Y-100512183D01*
X78562599Y-90987401D02*
X78164910Y-91385090D01*
X83800000Y-82210000D02*
X83895481Y-82402956D01*
X84369197Y-82876672D02*
X84923503Y-82876672D01*
X83895481Y-82402956D02*
X84369197Y-82876672D01*
X96900001Y-83055447D02*
X96900001Y-85610001D01*
X95554554Y-81710000D02*
X96900001Y-83055447D01*
X96900001Y-85610001D02*
X97200000Y-85910000D01*
X84923503Y-82876672D02*
X86090175Y-81710000D01*
X86090175Y-81710000D02*
X95554554Y-81710000D01*
X78800000Y-94410000D02*
X84600000Y-94410000D01*
X84600000Y-94410000D02*
X84900000Y-94710000D01*
X86200000Y-90810000D02*
X84400000Y-90810000D01*
X86200000Y-90810000D02*
X84700000Y-90810000D01*
X84145167Y-92751167D02*
X84091000Y-92697000D01*
X86433560Y-92751167D02*
X84145167Y-92751167D01*
X86700000Y-91410000D02*
X86601478Y-91510000D01*
X86601478Y-91510000D02*
X83300000Y-91510000D01*
X79632754Y-83510000D02*
X81700000Y-83510000D01*
X78970262Y-84172492D02*
X79632754Y-83510000D01*
X72947598Y-97753000D02*
X74514000Y-97753000D01*
X80155400Y-89192210D02*
X77782210Y-89192210D01*
X80226898Y-89120712D02*
X80155400Y-89192210D01*
X77782210Y-89192210D02*
X77710713Y-89120713D01*
X80900045Y-89120712D02*
X80226898Y-89120712D01*
X76439287Y-89120713D02*
X75910000Y-89650000D01*
X77710713Y-89120713D02*
X76439287Y-89120713D01*
X75306998Y-97753000D02*
X74514000Y-97753000D01*
X75802400Y-97257598D02*
X75306998Y-97753000D01*
X80322599Y-87787401D02*
X81800000Y-86310000D01*
X79818461Y-88037409D02*
X76117409Y-88037409D01*
X76117409Y-88037409D02*
X75940000Y-87860000D01*
X80068469Y-87787401D02*
X79818461Y-88037409D01*
X80322599Y-87787401D02*
X80068469Y-87787401D01*
X76516170Y-97605830D02*
X76516170Y-97019603D01*
X75422847Y-98282599D02*
X75839401Y-98282599D01*
X74641446Y-99064000D02*
X75422847Y-98282599D01*
X75839401Y-98282599D02*
X76516170Y-97605830D01*
X72947598Y-99064000D02*
X74641446Y-99064000D01*
X78310519Y-86392221D02*
X77922588Y-86392221D01*
X81700000Y-85510000D02*
X81100000Y-86110000D01*
X80320882Y-86512765D02*
X78431063Y-86512765D01*
X81100000Y-86110000D02*
X80723646Y-86110000D01*
X80723646Y-86110000D02*
X80320882Y-86512765D01*
X78431063Y-86512765D02*
X78310519Y-86392221D01*
X77922588Y-86615011D02*
X77730000Y-86807599D01*
X77922588Y-86392221D02*
X77922588Y-86615011D01*
X76624166Y-84166166D02*
X77364000Y-84906000D01*
X76624166Y-83934166D02*
X76624166Y-84166166D01*
X81236252Y-89710000D02*
X81822601Y-89123651D01*
X77499000Y-89710000D02*
X81236252Y-89710000D01*
X86963864Y-91964182D02*
X88808736Y-91964182D01*
X86818046Y-92110000D02*
X86963864Y-91964182D01*
X85900000Y-92110000D02*
X86818046Y-92110000D01*
X89108984Y-92264430D02*
X89108984Y-97918984D01*
X88808736Y-91964182D02*
X89108984Y-92264430D01*
X88522599Y-98505369D02*
X88522599Y-98507401D01*
X89108984Y-97918984D02*
X88522599Y-98505369D01*
X87620000Y-99410000D02*
X87620000Y-101040000D01*
X88522599Y-98507401D02*
X87620000Y-99410000D01*
X101272199Y-111565801D02*
X101564000Y-111274000D01*
X87490328Y-102457400D02*
X88797729Y-103764801D01*
X89959355Y-103764801D02*
X88797729Y-103764801D01*
X97239355Y-111044801D02*
X89959355Y-103764801D01*
X98856801Y-111044801D02*
X97239355Y-111044801D01*
X99377801Y-111565801D02*
X98856801Y-111044801D01*
X101272199Y-111565801D02*
X99377801Y-111565801D01*
D19*
X92903000Y-76577370D02*
X92903000Y-76473000D01*
X90527658Y-78952712D02*
X92903000Y-76577370D01*
X88083838Y-78952712D02*
X90527658Y-78952712D01*
D17*
X92903000Y-76798000D02*
X92903000Y-76473000D01*
X93507000Y-77402000D02*
X92903000Y-76798000D01*
X94692000Y-77402000D02*
X93507000Y-77402000D01*
X83132599Y-101437401D02*
X87003000Y-97567000D01*
X81660204Y-101437401D02*
X83132599Y-101437401D01*
X81464162Y-101241359D02*
X81660204Y-101437401D01*
X87576000Y-94967000D02*
X87003000Y-94967000D01*
X88205000Y-95596000D02*
X87576000Y-94967000D01*
D20*
X83927663Y-85403467D02*
X83941915Y-85420833D01*
X83959280Y-85435084D01*
X84011228Y-85477717D01*
X84090307Y-85519985D01*
X84176112Y-85546014D01*
X84265347Y-85554803D01*
X84287704Y-85552601D01*
X89203761Y-85552601D01*
X89226110Y-85554802D01*
X89248459Y-85552601D01*
X89248467Y-85552601D01*
X89315345Y-85546014D01*
X89319800Y-85544663D01*
X89319801Y-89263932D01*
X89294018Y-89326178D01*
X89269800Y-89447931D01*
X89269800Y-89572069D01*
X89294018Y-89693822D01*
X89341524Y-89808512D01*
X89410492Y-89911729D01*
X89498271Y-89999508D01*
X89601488Y-90068476D01*
X89716178Y-90115982D01*
X89837931Y-90140200D01*
X89962069Y-90140200D01*
X90083822Y-90115982D01*
X90198512Y-90068476D01*
X90301729Y-89999508D01*
X90389508Y-89911729D01*
X90458476Y-89808512D01*
X90505982Y-89693822D01*
X90530200Y-89572069D01*
X90530200Y-89447931D01*
X90505982Y-89326178D01*
X90480200Y-89263935D01*
X90480200Y-88788503D01*
X90790246Y-89098550D01*
X90790247Y-89888231D01*
X89380538Y-91297941D01*
X89363167Y-91312197D01*
X89306283Y-91381511D01*
X89264015Y-91460590D01*
X89237986Y-91546395D01*
X89231399Y-91613273D01*
X89231399Y-91613280D01*
X89229198Y-91635629D01*
X89231399Y-91657978D01*
X89231399Y-91743096D01*
X89146424Y-91658121D01*
X89132168Y-91640750D01*
X89062855Y-91583866D01*
X88983776Y-91541598D01*
X88897971Y-91515569D01*
X88831093Y-91508982D01*
X88831085Y-91508982D01*
X88808736Y-91506781D01*
X88786387Y-91508982D01*
X87322858Y-91508982D01*
X87330200Y-91472069D01*
X87330200Y-91347931D01*
X87305982Y-91226178D01*
X87258476Y-91111488D01*
X87189508Y-91008271D01*
X87101729Y-90920492D01*
X86998512Y-90851524D01*
X86883822Y-90804018D01*
X86830200Y-90793352D01*
X86830200Y-90747931D01*
X86805982Y-90626178D01*
X86758476Y-90511488D01*
X86689508Y-90408271D01*
X86601729Y-90320492D01*
X86498512Y-90251524D01*
X86383822Y-90204018D01*
X86262069Y-90179800D01*
X86137931Y-90179800D01*
X86016178Y-90204018D01*
X85901488Y-90251524D01*
X85798271Y-90320492D01*
X85763963Y-90354800D01*
X84836037Y-90354800D01*
X84801729Y-90320492D01*
X84698512Y-90251524D01*
X84583822Y-90204018D01*
X84462069Y-90179800D01*
X84337931Y-90179800D01*
X84216178Y-90204018D01*
X84101488Y-90251524D01*
X83998271Y-90320492D01*
X83910492Y-90408271D01*
X83841524Y-90511488D01*
X83794018Y-90626178D01*
X83769800Y-90747931D01*
X83769800Y-90872069D01*
X83794018Y-90993822D01*
X83819276Y-91054800D01*
X83736037Y-91054800D01*
X83701729Y-91020492D01*
X83598512Y-90951524D01*
X83483822Y-90904018D01*
X83362069Y-90879800D01*
X83237931Y-90879800D01*
X83116178Y-90904018D01*
X83001488Y-90951524D01*
X82898271Y-91020492D01*
X82810492Y-91108271D01*
X82741524Y-91211488D01*
X82694018Y-91326178D01*
X82669800Y-91447931D01*
X82669800Y-91572069D01*
X82694018Y-91693822D01*
X82741524Y-91808512D01*
X82810492Y-91911729D01*
X82898271Y-91999508D01*
X83001488Y-92068476D01*
X83116178Y-92115982D01*
X83237931Y-92140200D01*
X83362069Y-92140200D01*
X83483822Y-92115982D01*
X83598512Y-92068476D01*
X83701729Y-91999508D01*
X83736037Y-91965200D01*
X85286256Y-91965200D01*
X85269800Y-92047931D01*
X85269800Y-92172069D01*
X85294018Y-92293822D01*
X85294906Y-92295967D01*
X84580973Y-92295967D01*
X84580508Y-92295271D01*
X84492729Y-92207492D01*
X84389512Y-92138524D01*
X84274822Y-92091018D01*
X84153069Y-92066800D01*
X84028931Y-92066800D01*
X83907178Y-92091018D01*
X83792488Y-92138524D01*
X83689271Y-92207492D01*
X83601492Y-92295271D01*
X83532524Y-92398488D01*
X83485018Y-92513178D01*
X83460800Y-92634931D01*
X83460800Y-92759069D01*
X83485018Y-92880822D01*
X83485671Y-92882398D01*
X83239039Y-92882398D01*
X83189508Y-92808271D01*
X83101729Y-92720492D01*
X82998512Y-92651524D01*
X82883822Y-92604018D01*
X82762069Y-92579800D01*
X82637931Y-92579800D01*
X82516178Y-92604018D01*
X82401488Y-92651524D01*
X82298271Y-92720492D01*
X82210492Y-92808271D01*
X82141524Y-92911488D01*
X82094018Y-93026178D01*
X82069800Y-93147931D01*
X82069800Y-93272069D01*
X82094018Y-93393822D01*
X82141524Y-93508512D01*
X82210492Y-93611729D01*
X82298271Y-93699508D01*
X82401488Y-93768476D01*
X82516178Y-93815982D01*
X82637931Y-93840200D01*
X82762069Y-93840200D01*
X82883822Y-93815982D01*
X82939793Y-93792798D01*
X87963963Y-93792798D01*
X87998271Y-93827106D01*
X88101488Y-93896074D01*
X88216178Y-93943580D01*
X88337931Y-93967798D01*
X88462069Y-93967798D01*
X88583822Y-93943580D01*
X88653784Y-93914601D01*
X88653785Y-95148148D01*
X88625912Y-95129524D01*
X88511222Y-95082018D01*
X88389469Y-95057800D01*
X88310550Y-95057800D01*
X88084797Y-94832048D01*
X88084797Y-94467000D01*
X88078422Y-94402270D01*
X88059540Y-94340027D01*
X88028879Y-94282663D01*
X87987616Y-94232384D01*
X87937337Y-94191121D01*
X87879973Y-94160460D01*
X87817730Y-94141578D01*
X87753000Y-94135203D01*
X86253000Y-94135203D01*
X86188270Y-94141578D01*
X86126027Y-94160460D01*
X86068663Y-94191121D01*
X86018384Y-94232384D01*
X85977121Y-94282663D01*
X85946460Y-94340027D01*
X85927578Y-94402270D01*
X85921203Y-94467000D01*
X85921203Y-95467000D01*
X85927578Y-95531730D01*
X85946460Y-95593973D01*
X85958768Y-95617000D01*
X85946460Y-95640027D01*
X85927578Y-95702270D01*
X85921203Y-95767000D01*
X85921203Y-96767000D01*
X85927578Y-96831730D01*
X85946460Y-96893973D01*
X85958768Y-96917000D01*
X85946460Y-96940027D01*
X85927578Y-97002270D01*
X85921203Y-97067000D01*
X85921203Y-98005047D01*
X82944050Y-100982201D01*
X82038939Y-100982201D01*
X82022638Y-100942847D01*
X81953670Y-100839630D01*
X81865891Y-100751851D01*
X81762674Y-100682883D01*
X81647984Y-100635377D01*
X81526231Y-100611159D01*
X81402093Y-100611159D01*
X81280340Y-100635377D01*
X81165650Y-100682883D01*
X81062433Y-100751851D01*
X80974654Y-100839630D01*
X80905686Y-100942847D01*
X80858180Y-101057537D01*
X80833962Y-101179290D01*
X80833962Y-101303428D01*
X80858095Y-101424756D01*
X80857650Y-101424800D01*
X80857643Y-101424800D01*
X80790765Y-101431387D01*
X80704960Y-101457416D01*
X80625881Y-101499684D01*
X80556568Y-101556568D01*
X80542316Y-101573934D01*
X80036451Y-102079800D01*
X79987931Y-102079800D01*
X79866178Y-102104018D01*
X79751488Y-102151524D01*
X79648271Y-102220492D01*
X79560492Y-102308271D01*
X79491524Y-102411488D01*
X79444018Y-102526178D01*
X79419800Y-102647931D01*
X79419800Y-102772069D01*
X79444018Y-102893822D01*
X79491524Y-103008512D01*
X79560492Y-103111729D01*
X79648271Y-103199508D01*
X79751488Y-103268476D01*
X79866178Y-103315982D01*
X79987931Y-103340200D01*
X80112069Y-103340200D01*
X80233822Y-103315982D01*
X80348512Y-103268476D01*
X80451729Y-103199508D01*
X80539508Y-103111729D01*
X80608476Y-103008512D01*
X80655982Y-102893822D01*
X80680200Y-102772069D01*
X80680200Y-102723549D01*
X81068550Y-102335200D01*
X86872089Y-102335200D01*
X86860128Y-102395331D01*
X86860128Y-102519469D01*
X86884346Y-102641222D01*
X86931852Y-102755912D01*
X87000820Y-102859129D01*
X87088599Y-102946908D01*
X87191816Y-103015876D01*
X87306506Y-103063382D01*
X87428259Y-103087600D01*
X87476779Y-103087600D01*
X88460045Y-104070867D01*
X88474297Y-104088233D01*
X88543610Y-104145117D01*
X88622689Y-104187385D01*
X88708494Y-104213414D01*
X88775372Y-104220001D01*
X88775379Y-104220001D01*
X88797728Y-104222202D01*
X88820077Y-104220001D01*
X89770806Y-104220001D01*
X96747378Y-111196574D01*
X82539579Y-111214826D01*
X82480055Y-111220766D01*
X82403704Y-111244034D01*
X82333360Y-111281750D01*
X82271725Y-111332465D01*
X82221169Y-111394230D01*
X82183634Y-111464671D01*
X82160562Y-111541081D01*
X82156743Y-111580379D01*
X82156734Y-111580461D01*
X82151089Y-111638037D01*
X82145851Y-111655385D01*
X82137345Y-111671383D01*
X82125888Y-111685431D01*
X82111924Y-111696983D01*
X82095983Y-111705602D01*
X82078669Y-111710961D01*
X82042381Y-111714775D01*
X80756978Y-111712928D01*
X80781412Y-111696602D01*
X80886602Y-111591412D01*
X80969249Y-111467721D01*
X81026178Y-111330284D01*
X81055200Y-111184381D01*
X81055200Y-111035619D01*
X81026178Y-110889716D01*
X80969249Y-110752279D01*
X80886602Y-110628588D01*
X80781412Y-110523398D01*
X80657721Y-110440751D01*
X80520284Y-110383822D01*
X80374381Y-110354800D01*
X80225619Y-110354800D01*
X80079716Y-110383822D01*
X79942279Y-110440751D01*
X79818588Y-110523398D01*
X79800000Y-110541986D01*
X79781412Y-110523398D01*
X79657721Y-110440751D01*
X79520284Y-110383822D01*
X79374381Y-110354800D01*
X79225619Y-110354800D01*
X79079716Y-110383822D01*
X78942279Y-110440751D01*
X78818588Y-110523398D01*
X78800000Y-110541986D01*
X78781412Y-110523398D01*
X78657721Y-110440751D01*
X78520284Y-110383822D01*
X78374381Y-110354800D01*
X78268523Y-110354800D01*
X78255537Y-110330506D01*
X78176185Y-110233815D01*
X78079494Y-110154463D01*
X77969180Y-110095498D01*
X77849482Y-110059188D01*
X77725000Y-110046928D01*
X77585750Y-110050000D01*
X77427000Y-110208750D01*
X77427000Y-110983000D01*
X77447000Y-110983000D01*
X77447000Y-111237000D01*
X77427000Y-111237000D01*
X77427000Y-111257000D01*
X77173000Y-111257000D01*
X77173000Y-111237000D01*
X76398750Y-111237000D01*
X76240000Y-111395750D01*
X76236928Y-111535000D01*
X76249188Y-111659482D01*
X76263442Y-111706472D01*
X75080682Y-111704772D01*
X75062519Y-111706535D01*
X75056293Y-111706491D01*
X75050663Y-111707044D01*
X74856566Y-111727445D01*
X74820599Y-111734828D01*
X74784517Y-111741711D01*
X74779101Y-111743346D01*
X74592663Y-111801058D01*
X74558794Y-111815295D01*
X74524756Y-111829047D01*
X74519766Y-111831701D01*
X74519761Y-111831703D01*
X74519757Y-111831706D01*
X74348085Y-111924528D01*
X74317637Y-111945066D01*
X74286906Y-111965175D01*
X74282522Y-111968751D01*
X74205026Y-112032861D01*
X71608528Y-112037429D01*
X71605224Y-112005994D01*
X71605200Y-111999169D01*
X71605200Y-110137199D01*
X71665270Y-110155422D01*
X71730000Y-110161797D01*
X72216949Y-110161797D01*
X72677666Y-110622515D01*
X72695831Y-110644649D01*
X72717965Y-110662814D01*
X72717968Y-110662817D01*
X72766969Y-110703031D01*
X72784178Y-110717154D01*
X72884972Y-110771029D01*
X72994340Y-110804206D01*
X73079578Y-110812601D01*
X73079587Y-110812601D01*
X73108078Y-110815407D01*
X73136569Y-110812601D01*
X75789108Y-110812601D01*
X75817599Y-110815407D01*
X75846090Y-110812601D01*
X75846100Y-110812601D01*
X75931338Y-110804206D01*
X76040706Y-110771029D01*
X76141500Y-110717154D01*
X76229847Y-110644649D01*
X76242410Y-110629341D01*
X76236928Y-110685000D01*
X76240000Y-110824250D01*
X76398750Y-110983000D01*
X77173000Y-110983000D01*
X77173000Y-110208750D01*
X77014250Y-110050000D01*
X76875000Y-110046928D01*
X76817982Y-110052544D01*
X81070000Y-105800526D01*
X82194800Y-106925327D01*
X82194800Y-107163935D01*
X82169018Y-107226178D01*
X82144800Y-107347931D01*
X82144800Y-107472069D01*
X82169018Y-107593822D01*
X82216524Y-107708512D01*
X82285492Y-107811729D01*
X82373271Y-107899508D01*
X82476488Y-107968476D01*
X82538732Y-107994258D01*
X82920587Y-108376113D01*
X82938752Y-108398248D01*
X82960886Y-108416413D01*
X82960889Y-108416416D01*
X82977461Y-108430016D01*
X83027099Y-108470753D01*
X83127893Y-108524628D01*
X83237261Y-108557805D01*
X83322499Y-108566200D01*
X83322508Y-108566200D01*
X83350999Y-108569006D01*
X83379490Y-108566200D01*
X87353935Y-108566200D01*
X87416178Y-108591982D01*
X87537931Y-108616200D01*
X87662069Y-108616200D01*
X87783822Y-108591982D01*
X87898512Y-108544476D01*
X88001729Y-108475508D01*
X88089508Y-108387729D01*
X88158476Y-108284512D01*
X88205982Y-108169822D01*
X88230200Y-108048069D01*
X88230200Y-107923931D01*
X88205982Y-107802178D01*
X88158476Y-107687488D01*
X88089508Y-107584271D01*
X88001729Y-107496492D01*
X87898512Y-107427524D01*
X87783822Y-107380018D01*
X87662069Y-107355800D01*
X87537931Y-107355800D01*
X87416178Y-107380018D01*
X87353935Y-107405800D01*
X83591327Y-107405800D01*
X83359258Y-107173732D01*
X83355200Y-107163935D01*
X83355200Y-106713490D01*
X83358006Y-106684999D01*
X83355200Y-106656508D01*
X83355200Y-106656499D01*
X83346805Y-106571261D01*
X83313628Y-106461893D01*
X83259753Y-106361099D01*
X83245630Y-106343890D01*
X83205416Y-106294889D01*
X83205413Y-106294886D01*
X83187248Y-106272752D01*
X83165114Y-106254587D01*
X81654258Y-104743732D01*
X81628476Y-104681488D01*
X81559508Y-104578271D01*
X81471729Y-104490492D01*
X81368512Y-104421524D01*
X81253822Y-104374018D01*
X81132069Y-104349800D01*
X81007931Y-104349800D01*
X80886178Y-104374018D01*
X80771488Y-104421524D01*
X80668271Y-104490492D01*
X80580492Y-104578271D01*
X80511524Y-104681488D01*
X80485742Y-104743732D01*
X75577273Y-109652201D01*
X74761797Y-109652201D01*
X74761797Y-108430000D01*
X74755422Y-108365270D01*
X74736540Y-108303027D01*
X74705879Y-108245663D01*
X74664616Y-108195384D01*
X74614337Y-108154121D01*
X74556973Y-108123460D01*
X74494730Y-108104578D01*
X74430000Y-108098203D01*
X74107799Y-108098203D01*
X74107799Y-107028324D01*
X74117009Y-107032139D01*
X74258082Y-107060200D01*
X74401918Y-107060200D01*
X74542991Y-107032139D01*
X74675879Y-106977095D01*
X74795475Y-106897183D01*
X74897183Y-106795475D01*
X74977095Y-106675879D01*
X75032139Y-106542991D01*
X75060200Y-106401918D01*
X75060200Y-106258082D01*
X75032139Y-106117009D01*
X74977095Y-105984121D01*
X74897183Y-105864525D01*
X74795475Y-105762817D01*
X74675879Y-105682905D01*
X74542991Y-105627861D01*
X74401918Y-105599800D01*
X74258082Y-105599800D01*
X74117009Y-105627861D01*
X74107799Y-105631676D01*
X74107799Y-104561797D01*
X74430000Y-104561797D01*
X74494730Y-104555422D01*
X74556973Y-104536540D01*
X74614337Y-104505879D01*
X74664616Y-104464616D01*
X74705879Y-104414337D01*
X74736540Y-104356973D01*
X74755422Y-104294730D01*
X74761797Y-104230000D01*
X74761797Y-103985200D01*
X75124744Y-103985200D01*
X75147093Y-103987401D01*
X75169442Y-103985200D01*
X75169450Y-103985200D01*
X75236328Y-103978613D01*
X75322133Y-103952584D01*
X75401212Y-103910316D01*
X75470525Y-103853432D01*
X75484781Y-103836061D01*
X78470976Y-100849867D01*
X78488342Y-100835615D01*
X78545226Y-100766302D01*
X78587494Y-100687223D01*
X78613523Y-100601418D01*
X78620110Y-100534540D01*
X78622312Y-100512183D01*
X78620110Y-100489826D01*
X78620110Y-95016764D01*
X78737931Y-95040200D01*
X78862069Y-95040200D01*
X78983822Y-95015982D01*
X79098512Y-94968476D01*
X79201729Y-94899508D01*
X79236037Y-94865200D01*
X84288325Y-94865200D01*
X84294018Y-94893822D01*
X84341524Y-95008512D01*
X84410492Y-95111729D01*
X84498271Y-95199508D01*
X84601488Y-95268476D01*
X84716178Y-95315982D01*
X84837931Y-95340200D01*
X84962069Y-95340200D01*
X85083822Y-95315982D01*
X85198512Y-95268476D01*
X85301729Y-95199508D01*
X85389508Y-95111729D01*
X85458476Y-95008512D01*
X85505982Y-94893822D01*
X85530200Y-94772069D01*
X85530200Y-94647931D01*
X85505982Y-94526178D01*
X85458476Y-94411488D01*
X85389508Y-94308271D01*
X85301729Y-94220492D01*
X85198512Y-94151524D01*
X85083822Y-94104018D01*
X84962069Y-94079800D01*
X84915185Y-94079800D01*
X84854119Y-94029684D01*
X84775040Y-93987416D01*
X84689235Y-93961387D01*
X84622357Y-93954800D01*
X84622349Y-93954800D01*
X84600000Y-93952599D01*
X84577651Y-93954800D01*
X79236037Y-93954800D01*
X79201729Y-93920492D01*
X79098512Y-93851524D01*
X78983822Y-93804018D01*
X78862069Y-93779800D01*
X78737931Y-93779800D01*
X78620110Y-93803236D01*
X78620110Y-91573639D01*
X78751149Y-91442601D01*
X81707651Y-91442601D01*
X81730000Y-91444802D01*
X81752349Y-91442601D01*
X81752357Y-91442601D01*
X81819235Y-91436014D01*
X81905040Y-91409985D01*
X81984119Y-91367717D01*
X82053432Y-91310833D01*
X82067688Y-91293462D01*
X82990951Y-90370200D01*
X83039470Y-90370200D01*
X83161223Y-90345982D01*
X83275913Y-90298476D01*
X83379130Y-90229508D01*
X83466909Y-90141729D01*
X83535877Y-90038512D01*
X83583383Y-89923822D01*
X83607601Y-89802069D01*
X83607601Y-89677931D01*
X83583383Y-89556178D01*
X83535877Y-89441488D01*
X83466909Y-89338271D01*
X83379130Y-89250492D01*
X83275913Y-89181524D01*
X83161223Y-89134018D01*
X83039470Y-89109800D01*
X82915332Y-89109800D01*
X82793579Y-89134018D01*
X82678889Y-89181524D01*
X82575672Y-89250492D01*
X82487893Y-89338271D01*
X82418925Y-89441488D01*
X82371419Y-89556178D01*
X82347201Y-89677931D01*
X82347201Y-89726450D01*
X81541451Y-90532201D01*
X79918239Y-90532201D01*
X79930200Y-90472069D01*
X79930200Y-90347931D01*
X79905982Y-90226178D01*
X79880724Y-90165200D01*
X81213903Y-90165200D01*
X81236252Y-90167401D01*
X81258601Y-90165200D01*
X81258609Y-90165200D01*
X81325487Y-90158613D01*
X81411292Y-90132584D01*
X81490371Y-90090316D01*
X81559684Y-90033432D01*
X81573940Y-90016061D01*
X81836150Y-89753851D01*
X81884670Y-89753851D01*
X82006423Y-89729633D01*
X82121113Y-89682127D01*
X82224330Y-89613159D01*
X82312109Y-89525380D01*
X82381077Y-89422163D01*
X82428583Y-89307473D01*
X82452801Y-89185720D01*
X82452801Y-89061582D01*
X82428583Y-88939829D01*
X82381077Y-88825139D01*
X82312109Y-88721922D01*
X82224330Y-88634143D01*
X82121113Y-88565175D01*
X82006423Y-88517669D01*
X81884670Y-88493451D01*
X81760532Y-88493451D01*
X81638779Y-88517669D01*
X81524089Y-88565175D01*
X81420872Y-88634143D01*
X81362793Y-88692223D01*
X81301774Y-88631204D01*
X81198557Y-88562236D01*
X81083867Y-88514730D01*
X80962114Y-88490512D01*
X80837976Y-88490512D01*
X80716223Y-88514730D01*
X80601533Y-88562236D01*
X80498316Y-88631204D01*
X80464008Y-88665512D01*
X80249244Y-88665512D01*
X80226897Y-88663311D01*
X80204550Y-88665512D01*
X80204541Y-88665512D01*
X80137663Y-88672099D01*
X80051858Y-88698128D01*
X79979114Y-88737010D01*
X77958495Y-88737010D01*
X77885753Y-88698129D01*
X77799948Y-88672100D01*
X77733070Y-88665513D01*
X77733062Y-88665513D01*
X77710713Y-88663312D01*
X77688364Y-88665513D01*
X76461644Y-88665513D01*
X76439287Y-88663311D01*
X76416930Y-88665513D01*
X76350052Y-88672100D01*
X76264247Y-88698129D01*
X76185168Y-88740397D01*
X76115855Y-88797281D01*
X76101603Y-88814647D01*
X75896450Y-89019800D01*
X75847931Y-89019800D01*
X75726178Y-89044018D01*
X75611488Y-89091524D01*
X75508271Y-89160492D01*
X75420492Y-89248271D01*
X75351524Y-89351488D01*
X75304018Y-89466178D01*
X75279800Y-89587931D01*
X75279800Y-89712069D01*
X75304018Y-89833822D01*
X75351524Y-89948512D01*
X75420492Y-90051729D01*
X75508271Y-90139508D01*
X75611488Y-90208476D01*
X75726178Y-90255982D01*
X75847931Y-90280200D01*
X75972069Y-90280200D01*
X76093822Y-90255982D01*
X76208512Y-90208476D01*
X76311729Y-90139508D01*
X76399508Y-90051729D01*
X76468476Y-89948512D01*
X76515982Y-89833822D01*
X76540200Y-89712069D01*
X76540200Y-89663550D01*
X76627837Y-89575913D01*
X76883125Y-89575913D01*
X76868800Y-89647931D01*
X76868800Y-89772069D01*
X76893018Y-89893822D01*
X76940524Y-90008512D01*
X77009492Y-90111729D01*
X77097271Y-90199508D01*
X77200488Y-90268476D01*
X77315178Y-90315982D01*
X77436931Y-90340200D01*
X77561069Y-90340200D01*
X77682822Y-90315982D01*
X77797512Y-90268476D01*
X77900729Y-90199508D01*
X77935037Y-90165200D01*
X78719276Y-90165200D01*
X78694018Y-90226178D01*
X78669800Y-90347931D01*
X78669800Y-90472069D01*
X78681761Y-90532201D01*
X78584947Y-90532201D01*
X78562598Y-90530000D01*
X78540249Y-90532201D01*
X78540242Y-90532201D01*
X78473364Y-90538788D01*
X78387559Y-90564817D01*
X78308480Y-90607085D01*
X78239167Y-90663969D01*
X78224915Y-90681335D01*
X77858849Y-91047402D01*
X77841478Y-91061658D01*
X77784594Y-91130972D01*
X77742326Y-91210051D01*
X77716297Y-91295856D01*
X77709710Y-91362734D01*
X77709710Y-91362741D01*
X77707509Y-91385090D01*
X77709710Y-91407439D01*
X77709710Y-95387761D01*
X77649579Y-95375800D01*
X77525441Y-95375800D01*
X77403688Y-95400018D01*
X77288998Y-95447524D01*
X77185781Y-95516492D01*
X77098002Y-95604271D01*
X77029034Y-95707488D01*
X76981528Y-95822178D01*
X76957310Y-95943931D01*
X76957310Y-96068069D01*
X76981528Y-96189822D01*
X77007310Y-96252065D01*
X77007310Y-96545999D01*
X77004504Y-96574490D01*
X77007310Y-96602981D01*
X77007310Y-96602991D01*
X77007311Y-96603001D01*
X77007311Y-96620318D01*
X77005678Y-96617874D01*
X76917899Y-96530095D01*
X76814682Y-96461127D01*
X76699992Y-96413621D01*
X76578239Y-96389403D01*
X76454101Y-96389403D01*
X76332348Y-96413621D01*
X76217658Y-96461127D01*
X76114441Y-96530095D01*
X76026662Y-96617874D01*
X76000237Y-96657421D01*
X75986222Y-96651616D01*
X75864469Y-96627398D01*
X75740331Y-96627398D01*
X75618578Y-96651616D01*
X75503888Y-96699122D01*
X75400671Y-96768090D01*
X75312892Y-96855869D01*
X75243924Y-96959086D01*
X75196418Y-97073776D01*
X75172200Y-97195529D01*
X75172200Y-97244049D01*
X75118449Y-97297800D01*
X73383635Y-97297800D01*
X73349327Y-97263492D01*
X73246110Y-97194524D01*
X73131420Y-97147018D01*
X73009667Y-97122800D01*
X72885529Y-97122800D01*
X72810200Y-97137784D01*
X72810200Y-96950729D01*
X72856973Y-96936540D01*
X72914337Y-96905879D01*
X72964616Y-96864616D01*
X73005879Y-96814337D01*
X73036540Y-96756973D01*
X73055422Y-96694730D01*
X73061797Y-96630000D01*
X73061797Y-95867978D01*
X73071029Y-95850706D01*
X73078117Y-95827340D01*
X73098203Y-95761128D01*
X73098203Y-96630000D01*
X73104578Y-96694730D01*
X73123460Y-96756973D01*
X73154121Y-96814337D01*
X73195384Y-96864616D01*
X73245663Y-96905879D01*
X73303027Y-96936540D01*
X73365270Y-96955422D01*
X73430000Y-96961797D01*
X74430000Y-96961797D01*
X74494730Y-96955422D01*
X74556973Y-96936540D01*
X74614337Y-96905879D01*
X74664616Y-96864616D01*
X74705879Y-96814337D01*
X74736540Y-96756973D01*
X74755422Y-96694730D01*
X74761797Y-96630000D01*
X74761797Y-95230000D01*
X74755422Y-95165270D01*
X74736540Y-95103027D01*
X74705879Y-95045663D01*
X74664616Y-94995384D01*
X74614337Y-94954121D01*
X74556973Y-94923460D01*
X74494730Y-94904578D01*
X74430000Y-94898203D01*
X74107799Y-94898203D01*
X74107799Y-93828324D01*
X74117009Y-93832139D01*
X74258082Y-93860200D01*
X74401918Y-93860200D01*
X74542991Y-93832139D01*
X74675879Y-93777095D01*
X74795475Y-93697183D01*
X74897183Y-93595475D01*
X74977095Y-93475879D01*
X75032139Y-93342991D01*
X75060200Y-93201918D01*
X75060200Y-93058082D01*
X75032139Y-92917009D01*
X74977095Y-92784121D01*
X74897183Y-92664525D01*
X74795475Y-92562817D01*
X74675879Y-92482905D01*
X74542991Y-92427861D01*
X74401918Y-92399800D01*
X74258082Y-92399800D01*
X74117009Y-92427861D01*
X74107799Y-92431676D01*
X74107799Y-91361797D01*
X74430000Y-91361797D01*
X74494730Y-91355422D01*
X74556973Y-91336540D01*
X74614337Y-91305879D01*
X74664616Y-91264616D01*
X74705879Y-91214337D01*
X74736540Y-91156973D01*
X74755422Y-91094730D01*
X74761797Y-91030000D01*
X74761797Y-89630000D01*
X74755422Y-89565270D01*
X74736540Y-89503027D01*
X74705879Y-89445663D01*
X74664616Y-89395384D01*
X74614337Y-89354121D01*
X74556973Y-89323460D01*
X74494730Y-89304578D01*
X74430000Y-89298203D01*
X73430000Y-89298203D01*
X73365270Y-89304578D01*
X73303027Y-89323460D01*
X73245663Y-89354121D01*
X73195384Y-89395384D01*
X73154121Y-89445663D01*
X73123460Y-89503027D01*
X73104578Y-89565270D01*
X73098203Y-89630000D01*
X73098203Y-90498873D01*
X73085531Y-90457098D01*
X73071029Y-90409294D01*
X73061797Y-90392022D01*
X73061797Y-89630000D01*
X73055422Y-89565270D01*
X73036540Y-89503027D01*
X73005879Y-89445663D01*
X72964616Y-89395384D01*
X72914337Y-89354121D01*
X72856973Y-89323460D01*
X72810200Y-89309271D01*
X72810200Y-87915201D01*
X73881378Y-87915201D01*
X73909869Y-87918007D01*
X73938360Y-87915201D01*
X73938370Y-87915201D01*
X74023608Y-87906806D01*
X74132976Y-87873629D01*
X74233770Y-87819754D01*
X74322117Y-87747249D01*
X74329872Y-87737799D01*
X75321761Y-87737799D01*
X75309800Y-87797931D01*
X75309800Y-87922069D01*
X75334018Y-88043822D01*
X75381524Y-88158512D01*
X75450492Y-88261729D01*
X75538271Y-88349508D01*
X75641488Y-88418476D01*
X75756178Y-88465982D01*
X75877931Y-88490200D01*
X76002069Y-88490200D01*
X76026154Y-88485409D01*
X76028174Y-88486022D01*
X76095052Y-88492609D01*
X76095059Y-88492609D01*
X76117408Y-88494810D01*
X76139757Y-88492609D01*
X79796112Y-88492609D01*
X79818461Y-88494810D01*
X79840810Y-88492609D01*
X79840818Y-88492609D01*
X79907696Y-88486022D01*
X79993501Y-88459993D01*
X80072580Y-88417725D01*
X80141893Y-88360841D01*
X80156149Y-88343470D01*
X80257018Y-88242601D01*
X80300250Y-88242601D01*
X80322599Y-88244802D01*
X80344948Y-88242601D01*
X80344956Y-88242601D01*
X80411834Y-88236014D01*
X80497639Y-88209985D01*
X80576718Y-88167717D01*
X80646031Y-88110833D01*
X80660287Y-88093462D01*
X81813550Y-86940200D01*
X81862069Y-86940200D01*
X81983822Y-86915982D01*
X82098512Y-86868476D01*
X82201729Y-86799508D01*
X82289508Y-86711729D01*
X82358476Y-86608512D01*
X82405982Y-86493822D01*
X82430200Y-86372069D01*
X82430200Y-86247931D01*
X82405982Y-86126178D01*
X82358476Y-86011488D01*
X82289508Y-85908271D01*
X82230948Y-85849711D01*
X82258476Y-85808512D01*
X82305982Y-85693822D01*
X82330200Y-85572069D01*
X82330200Y-85447931D01*
X82305982Y-85326178D01*
X82258476Y-85211488D01*
X82190663Y-85110000D01*
X82258476Y-85008512D01*
X82305982Y-84893822D01*
X82330200Y-84772069D01*
X82330200Y-84647931D01*
X82313744Y-84565200D01*
X83089397Y-84565200D01*
X83927663Y-85403467D01*
G04 #@! TA.AperFunction,Conductor*
D21*
G36*
X83927663Y-85403467D02*
G01*
X83941915Y-85420833D01*
X83959280Y-85435084D01*
X84011228Y-85477717D01*
X84090307Y-85519985D01*
X84176112Y-85546014D01*
X84265347Y-85554803D01*
X84287704Y-85552601D01*
X89203761Y-85552601D01*
X89226110Y-85554802D01*
X89248459Y-85552601D01*
X89248467Y-85552601D01*
X89315345Y-85546014D01*
X89319800Y-85544663D01*
X89319801Y-89263932D01*
X89294018Y-89326178D01*
X89269800Y-89447931D01*
X89269800Y-89572069D01*
X89294018Y-89693822D01*
X89341524Y-89808512D01*
X89410492Y-89911729D01*
X89498271Y-89999508D01*
X89601488Y-90068476D01*
X89716178Y-90115982D01*
X89837931Y-90140200D01*
X89962069Y-90140200D01*
X90083822Y-90115982D01*
X90198512Y-90068476D01*
X90301729Y-89999508D01*
X90389508Y-89911729D01*
X90458476Y-89808512D01*
X90505982Y-89693822D01*
X90530200Y-89572069D01*
X90530200Y-89447931D01*
X90505982Y-89326178D01*
X90480200Y-89263935D01*
X90480200Y-88788503D01*
X90790246Y-89098550D01*
X90790247Y-89888231D01*
X89380538Y-91297941D01*
X89363167Y-91312197D01*
X89306283Y-91381511D01*
X89264015Y-91460590D01*
X89237986Y-91546395D01*
X89231399Y-91613273D01*
X89231399Y-91613280D01*
X89229198Y-91635629D01*
X89231399Y-91657978D01*
X89231399Y-91743096D01*
X89146424Y-91658121D01*
X89132168Y-91640750D01*
X89062855Y-91583866D01*
X88983776Y-91541598D01*
X88897971Y-91515569D01*
X88831093Y-91508982D01*
X88831085Y-91508982D01*
X88808736Y-91506781D01*
X88786387Y-91508982D01*
X87322858Y-91508982D01*
X87330200Y-91472069D01*
X87330200Y-91347931D01*
X87305982Y-91226178D01*
X87258476Y-91111488D01*
X87189508Y-91008271D01*
X87101729Y-90920492D01*
X86998512Y-90851524D01*
X86883822Y-90804018D01*
X86830200Y-90793352D01*
X86830200Y-90747931D01*
X86805982Y-90626178D01*
X86758476Y-90511488D01*
X86689508Y-90408271D01*
X86601729Y-90320492D01*
X86498512Y-90251524D01*
X86383822Y-90204018D01*
X86262069Y-90179800D01*
X86137931Y-90179800D01*
X86016178Y-90204018D01*
X85901488Y-90251524D01*
X85798271Y-90320492D01*
X85763963Y-90354800D01*
X84836037Y-90354800D01*
X84801729Y-90320492D01*
X84698512Y-90251524D01*
X84583822Y-90204018D01*
X84462069Y-90179800D01*
X84337931Y-90179800D01*
X84216178Y-90204018D01*
X84101488Y-90251524D01*
X83998271Y-90320492D01*
X83910492Y-90408271D01*
X83841524Y-90511488D01*
X83794018Y-90626178D01*
X83769800Y-90747931D01*
X83769800Y-90872069D01*
X83794018Y-90993822D01*
X83819276Y-91054800D01*
X83736037Y-91054800D01*
X83701729Y-91020492D01*
X83598512Y-90951524D01*
X83483822Y-90904018D01*
X83362069Y-90879800D01*
X83237931Y-90879800D01*
X83116178Y-90904018D01*
X83001488Y-90951524D01*
X82898271Y-91020492D01*
X82810492Y-91108271D01*
X82741524Y-91211488D01*
X82694018Y-91326178D01*
X82669800Y-91447931D01*
X82669800Y-91572069D01*
X82694018Y-91693822D01*
X82741524Y-91808512D01*
X82810492Y-91911729D01*
X82898271Y-91999508D01*
X83001488Y-92068476D01*
X83116178Y-92115982D01*
X83237931Y-92140200D01*
X83362069Y-92140200D01*
X83483822Y-92115982D01*
X83598512Y-92068476D01*
X83701729Y-91999508D01*
X83736037Y-91965200D01*
X85286256Y-91965200D01*
X85269800Y-92047931D01*
X85269800Y-92172069D01*
X85294018Y-92293822D01*
X85294906Y-92295967D01*
X84580973Y-92295967D01*
X84580508Y-92295271D01*
X84492729Y-92207492D01*
X84389512Y-92138524D01*
X84274822Y-92091018D01*
X84153069Y-92066800D01*
X84028931Y-92066800D01*
X83907178Y-92091018D01*
X83792488Y-92138524D01*
X83689271Y-92207492D01*
X83601492Y-92295271D01*
X83532524Y-92398488D01*
X83485018Y-92513178D01*
X83460800Y-92634931D01*
X83460800Y-92759069D01*
X83485018Y-92880822D01*
X83485671Y-92882398D01*
X83239039Y-92882398D01*
X83189508Y-92808271D01*
X83101729Y-92720492D01*
X82998512Y-92651524D01*
X82883822Y-92604018D01*
X82762069Y-92579800D01*
X82637931Y-92579800D01*
X82516178Y-92604018D01*
X82401488Y-92651524D01*
X82298271Y-92720492D01*
X82210492Y-92808271D01*
X82141524Y-92911488D01*
X82094018Y-93026178D01*
X82069800Y-93147931D01*
X82069800Y-93272069D01*
X82094018Y-93393822D01*
X82141524Y-93508512D01*
X82210492Y-93611729D01*
X82298271Y-93699508D01*
X82401488Y-93768476D01*
X82516178Y-93815982D01*
X82637931Y-93840200D01*
X82762069Y-93840200D01*
X82883822Y-93815982D01*
X82939793Y-93792798D01*
X87963963Y-93792798D01*
X87998271Y-93827106D01*
X88101488Y-93896074D01*
X88216178Y-93943580D01*
X88337931Y-93967798D01*
X88462069Y-93967798D01*
X88583822Y-93943580D01*
X88653784Y-93914601D01*
X88653785Y-95148148D01*
X88625912Y-95129524D01*
X88511222Y-95082018D01*
X88389469Y-95057800D01*
X88310550Y-95057800D01*
X88084797Y-94832048D01*
X88084797Y-94467000D01*
X88078422Y-94402270D01*
X88059540Y-94340027D01*
X88028879Y-94282663D01*
X87987616Y-94232384D01*
X87937337Y-94191121D01*
X87879973Y-94160460D01*
X87817730Y-94141578D01*
X87753000Y-94135203D01*
X86253000Y-94135203D01*
X86188270Y-94141578D01*
X86126027Y-94160460D01*
X86068663Y-94191121D01*
X86018384Y-94232384D01*
X85977121Y-94282663D01*
X85946460Y-94340027D01*
X85927578Y-94402270D01*
X85921203Y-94467000D01*
X85921203Y-95467000D01*
X85927578Y-95531730D01*
X85946460Y-95593973D01*
X85958768Y-95617000D01*
X85946460Y-95640027D01*
X85927578Y-95702270D01*
X85921203Y-95767000D01*
X85921203Y-96767000D01*
X85927578Y-96831730D01*
X85946460Y-96893973D01*
X85958768Y-96917000D01*
X85946460Y-96940027D01*
X85927578Y-97002270D01*
X85921203Y-97067000D01*
X85921203Y-98005047D01*
X82944050Y-100982201D01*
X82038939Y-100982201D01*
X82022638Y-100942847D01*
X81953670Y-100839630D01*
X81865891Y-100751851D01*
X81762674Y-100682883D01*
X81647984Y-100635377D01*
X81526231Y-100611159D01*
X81402093Y-100611159D01*
X81280340Y-100635377D01*
X81165650Y-100682883D01*
X81062433Y-100751851D01*
X80974654Y-100839630D01*
X80905686Y-100942847D01*
X80858180Y-101057537D01*
X80833962Y-101179290D01*
X80833962Y-101303428D01*
X80858095Y-101424756D01*
X80857650Y-101424800D01*
X80857643Y-101424800D01*
X80790765Y-101431387D01*
X80704960Y-101457416D01*
X80625881Y-101499684D01*
X80556568Y-101556568D01*
X80542316Y-101573934D01*
X80036451Y-102079800D01*
X79987931Y-102079800D01*
X79866178Y-102104018D01*
X79751488Y-102151524D01*
X79648271Y-102220492D01*
X79560492Y-102308271D01*
X79491524Y-102411488D01*
X79444018Y-102526178D01*
X79419800Y-102647931D01*
X79419800Y-102772069D01*
X79444018Y-102893822D01*
X79491524Y-103008512D01*
X79560492Y-103111729D01*
X79648271Y-103199508D01*
X79751488Y-103268476D01*
X79866178Y-103315982D01*
X79987931Y-103340200D01*
X80112069Y-103340200D01*
X80233822Y-103315982D01*
X80348512Y-103268476D01*
X80451729Y-103199508D01*
X80539508Y-103111729D01*
X80608476Y-103008512D01*
X80655982Y-102893822D01*
X80680200Y-102772069D01*
X80680200Y-102723549D01*
X81068550Y-102335200D01*
X86872089Y-102335200D01*
X86860128Y-102395331D01*
X86860128Y-102519469D01*
X86884346Y-102641222D01*
X86931852Y-102755912D01*
X87000820Y-102859129D01*
X87088599Y-102946908D01*
X87191816Y-103015876D01*
X87306506Y-103063382D01*
X87428259Y-103087600D01*
X87476779Y-103087600D01*
X88460045Y-104070867D01*
X88474297Y-104088233D01*
X88543610Y-104145117D01*
X88622689Y-104187385D01*
X88708494Y-104213414D01*
X88775372Y-104220001D01*
X88775379Y-104220001D01*
X88797728Y-104222202D01*
X88820077Y-104220001D01*
X89770806Y-104220001D01*
X96747378Y-111196574D01*
X82539579Y-111214826D01*
X82480055Y-111220766D01*
X82403704Y-111244034D01*
X82333360Y-111281750D01*
X82271725Y-111332465D01*
X82221169Y-111394230D01*
X82183634Y-111464671D01*
X82160562Y-111541081D01*
X82156743Y-111580379D01*
X82156734Y-111580461D01*
X82151089Y-111638037D01*
X82145851Y-111655385D01*
X82137345Y-111671383D01*
X82125888Y-111685431D01*
X82111924Y-111696983D01*
X82095983Y-111705602D01*
X82078669Y-111710961D01*
X82042381Y-111714775D01*
X80756978Y-111712928D01*
X80781412Y-111696602D01*
X80886602Y-111591412D01*
X80969249Y-111467721D01*
X81026178Y-111330284D01*
X81055200Y-111184381D01*
X81055200Y-111035619D01*
X81026178Y-110889716D01*
X80969249Y-110752279D01*
X80886602Y-110628588D01*
X80781412Y-110523398D01*
X80657721Y-110440751D01*
X80520284Y-110383822D01*
X80374381Y-110354800D01*
X80225619Y-110354800D01*
X80079716Y-110383822D01*
X79942279Y-110440751D01*
X79818588Y-110523398D01*
X79800000Y-110541986D01*
X79781412Y-110523398D01*
X79657721Y-110440751D01*
X79520284Y-110383822D01*
X79374381Y-110354800D01*
X79225619Y-110354800D01*
X79079716Y-110383822D01*
X78942279Y-110440751D01*
X78818588Y-110523398D01*
X78800000Y-110541986D01*
X78781412Y-110523398D01*
X78657721Y-110440751D01*
X78520284Y-110383822D01*
X78374381Y-110354800D01*
X78268523Y-110354800D01*
X78255537Y-110330506D01*
X78176185Y-110233815D01*
X78079494Y-110154463D01*
X77969180Y-110095498D01*
X77849482Y-110059188D01*
X77725000Y-110046928D01*
X77585750Y-110050000D01*
X77427000Y-110208750D01*
X77427000Y-110983000D01*
X77447000Y-110983000D01*
X77447000Y-111237000D01*
X77427000Y-111237000D01*
X77427000Y-111257000D01*
X77173000Y-111257000D01*
X77173000Y-111237000D01*
X76398750Y-111237000D01*
X76240000Y-111395750D01*
X76236928Y-111535000D01*
X76249188Y-111659482D01*
X76263442Y-111706472D01*
X75080682Y-111704772D01*
X75062519Y-111706535D01*
X75056293Y-111706491D01*
X75050663Y-111707044D01*
X74856566Y-111727445D01*
X74820599Y-111734828D01*
X74784517Y-111741711D01*
X74779101Y-111743346D01*
X74592663Y-111801058D01*
X74558794Y-111815295D01*
X74524756Y-111829047D01*
X74519766Y-111831701D01*
X74519761Y-111831703D01*
X74519757Y-111831706D01*
X74348085Y-111924528D01*
X74317637Y-111945066D01*
X74286906Y-111965175D01*
X74282522Y-111968751D01*
X74205026Y-112032861D01*
X71608528Y-112037429D01*
X71605224Y-112005994D01*
X71605200Y-111999169D01*
X71605200Y-110137199D01*
X71665270Y-110155422D01*
X71730000Y-110161797D01*
X72216949Y-110161797D01*
X72677666Y-110622515D01*
X72695831Y-110644649D01*
X72717965Y-110662814D01*
X72717968Y-110662817D01*
X72766969Y-110703031D01*
X72784178Y-110717154D01*
X72884972Y-110771029D01*
X72994340Y-110804206D01*
X73079578Y-110812601D01*
X73079587Y-110812601D01*
X73108078Y-110815407D01*
X73136569Y-110812601D01*
X75789108Y-110812601D01*
X75817599Y-110815407D01*
X75846090Y-110812601D01*
X75846100Y-110812601D01*
X75931338Y-110804206D01*
X76040706Y-110771029D01*
X76141500Y-110717154D01*
X76229847Y-110644649D01*
X76242410Y-110629341D01*
X76236928Y-110685000D01*
X76240000Y-110824250D01*
X76398750Y-110983000D01*
X77173000Y-110983000D01*
X77173000Y-110208750D01*
X77014250Y-110050000D01*
X76875000Y-110046928D01*
X76817982Y-110052544D01*
X81070000Y-105800526D01*
X82194800Y-106925327D01*
X82194800Y-107163935D01*
X82169018Y-107226178D01*
X82144800Y-107347931D01*
X82144800Y-107472069D01*
X82169018Y-107593822D01*
X82216524Y-107708512D01*
X82285492Y-107811729D01*
X82373271Y-107899508D01*
X82476488Y-107968476D01*
X82538732Y-107994258D01*
X82920587Y-108376113D01*
X82938752Y-108398248D01*
X82960886Y-108416413D01*
X82960889Y-108416416D01*
X82977461Y-108430016D01*
X83027099Y-108470753D01*
X83127893Y-108524628D01*
X83237261Y-108557805D01*
X83322499Y-108566200D01*
X83322508Y-108566200D01*
X83350999Y-108569006D01*
X83379490Y-108566200D01*
X87353935Y-108566200D01*
X87416178Y-108591982D01*
X87537931Y-108616200D01*
X87662069Y-108616200D01*
X87783822Y-108591982D01*
X87898512Y-108544476D01*
X88001729Y-108475508D01*
X88089508Y-108387729D01*
X88158476Y-108284512D01*
X88205982Y-108169822D01*
X88230200Y-108048069D01*
X88230200Y-107923931D01*
X88205982Y-107802178D01*
X88158476Y-107687488D01*
X88089508Y-107584271D01*
X88001729Y-107496492D01*
X87898512Y-107427524D01*
X87783822Y-107380018D01*
X87662069Y-107355800D01*
X87537931Y-107355800D01*
X87416178Y-107380018D01*
X87353935Y-107405800D01*
X83591327Y-107405800D01*
X83359258Y-107173732D01*
X83355200Y-107163935D01*
X83355200Y-106713490D01*
X83358006Y-106684999D01*
X83355200Y-106656508D01*
X83355200Y-106656499D01*
X83346805Y-106571261D01*
X83313628Y-106461893D01*
X83259753Y-106361099D01*
X83245630Y-106343890D01*
X83205416Y-106294889D01*
X83205413Y-106294886D01*
X83187248Y-106272752D01*
X83165114Y-106254587D01*
X81654258Y-104743732D01*
X81628476Y-104681488D01*
X81559508Y-104578271D01*
X81471729Y-104490492D01*
X81368512Y-104421524D01*
X81253822Y-104374018D01*
X81132069Y-104349800D01*
X81007931Y-104349800D01*
X80886178Y-104374018D01*
X80771488Y-104421524D01*
X80668271Y-104490492D01*
X80580492Y-104578271D01*
X80511524Y-104681488D01*
X80485742Y-104743732D01*
X75577273Y-109652201D01*
X74761797Y-109652201D01*
X74761797Y-108430000D01*
X74755422Y-108365270D01*
X74736540Y-108303027D01*
X74705879Y-108245663D01*
X74664616Y-108195384D01*
X74614337Y-108154121D01*
X74556973Y-108123460D01*
X74494730Y-108104578D01*
X74430000Y-108098203D01*
X74107799Y-108098203D01*
X74107799Y-107028324D01*
X74117009Y-107032139D01*
X74258082Y-107060200D01*
X74401918Y-107060200D01*
X74542991Y-107032139D01*
X74675879Y-106977095D01*
X74795475Y-106897183D01*
X74897183Y-106795475D01*
X74977095Y-106675879D01*
X75032139Y-106542991D01*
X75060200Y-106401918D01*
X75060200Y-106258082D01*
X75032139Y-106117009D01*
X74977095Y-105984121D01*
X74897183Y-105864525D01*
X74795475Y-105762817D01*
X74675879Y-105682905D01*
X74542991Y-105627861D01*
X74401918Y-105599800D01*
X74258082Y-105599800D01*
X74117009Y-105627861D01*
X74107799Y-105631676D01*
X74107799Y-104561797D01*
X74430000Y-104561797D01*
X74494730Y-104555422D01*
X74556973Y-104536540D01*
X74614337Y-104505879D01*
X74664616Y-104464616D01*
X74705879Y-104414337D01*
X74736540Y-104356973D01*
X74755422Y-104294730D01*
X74761797Y-104230000D01*
X74761797Y-103985200D01*
X75124744Y-103985200D01*
X75147093Y-103987401D01*
X75169442Y-103985200D01*
X75169450Y-103985200D01*
X75236328Y-103978613D01*
X75322133Y-103952584D01*
X75401212Y-103910316D01*
X75470525Y-103853432D01*
X75484781Y-103836061D01*
X78470976Y-100849867D01*
X78488342Y-100835615D01*
X78545226Y-100766302D01*
X78587494Y-100687223D01*
X78613523Y-100601418D01*
X78620110Y-100534540D01*
X78622312Y-100512183D01*
X78620110Y-100489826D01*
X78620110Y-95016764D01*
X78737931Y-95040200D01*
X78862069Y-95040200D01*
X78983822Y-95015982D01*
X79098512Y-94968476D01*
X79201729Y-94899508D01*
X79236037Y-94865200D01*
X84288325Y-94865200D01*
X84294018Y-94893822D01*
X84341524Y-95008512D01*
X84410492Y-95111729D01*
X84498271Y-95199508D01*
X84601488Y-95268476D01*
X84716178Y-95315982D01*
X84837931Y-95340200D01*
X84962069Y-95340200D01*
X85083822Y-95315982D01*
X85198512Y-95268476D01*
X85301729Y-95199508D01*
X85389508Y-95111729D01*
X85458476Y-95008512D01*
X85505982Y-94893822D01*
X85530200Y-94772069D01*
X85530200Y-94647931D01*
X85505982Y-94526178D01*
X85458476Y-94411488D01*
X85389508Y-94308271D01*
X85301729Y-94220492D01*
X85198512Y-94151524D01*
X85083822Y-94104018D01*
X84962069Y-94079800D01*
X84915185Y-94079800D01*
X84854119Y-94029684D01*
X84775040Y-93987416D01*
X84689235Y-93961387D01*
X84622357Y-93954800D01*
X84622349Y-93954800D01*
X84600000Y-93952599D01*
X84577651Y-93954800D01*
X79236037Y-93954800D01*
X79201729Y-93920492D01*
X79098512Y-93851524D01*
X78983822Y-93804018D01*
X78862069Y-93779800D01*
X78737931Y-93779800D01*
X78620110Y-93803236D01*
X78620110Y-91573639D01*
X78751149Y-91442601D01*
X81707651Y-91442601D01*
X81730000Y-91444802D01*
X81752349Y-91442601D01*
X81752357Y-91442601D01*
X81819235Y-91436014D01*
X81905040Y-91409985D01*
X81984119Y-91367717D01*
X82053432Y-91310833D01*
X82067688Y-91293462D01*
X82990951Y-90370200D01*
X83039470Y-90370200D01*
X83161223Y-90345982D01*
X83275913Y-90298476D01*
X83379130Y-90229508D01*
X83466909Y-90141729D01*
X83535877Y-90038512D01*
X83583383Y-89923822D01*
X83607601Y-89802069D01*
X83607601Y-89677931D01*
X83583383Y-89556178D01*
X83535877Y-89441488D01*
X83466909Y-89338271D01*
X83379130Y-89250492D01*
X83275913Y-89181524D01*
X83161223Y-89134018D01*
X83039470Y-89109800D01*
X82915332Y-89109800D01*
X82793579Y-89134018D01*
X82678889Y-89181524D01*
X82575672Y-89250492D01*
X82487893Y-89338271D01*
X82418925Y-89441488D01*
X82371419Y-89556178D01*
X82347201Y-89677931D01*
X82347201Y-89726450D01*
X81541451Y-90532201D01*
X79918239Y-90532201D01*
X79930200Y-90472069D01*
X79930200Y-90347931D01*
X79905982Y-90226178D01*
X79880724Y-90165200D01*
X81213903Y-90165200D01*
X81236252Y-90167401D01*
X81258601Y-90165200D01*
X81258609Y-90165200D01*
X81325487Y-90158613D01*
X81411292Y-90132584D01*
X81490371Y-90090316D01*
X81559684Y-90033432D01*
X81573940Y-90016061D01*
X81836150Y-89753851D01*
X81884670Y-89753851D01*
X82006423Y-89729633D01*
X82121113Y-89682127D01*
X82224330Y-89613159D01*
X82312109Y-89525380D01*
X82381077Y-89422163D01*
X82428583Y-89307473D01*
X82452801Y-89185720D01*
X82452801Y-89061582D01*
X82428583Y-88939829D01*
X82381077Y-88825139D01*
X82312109Y-88721922D01*
X82224330Y-88634143D01*
X82121113Y-88565175D01*
X82006423Y-88517669D01*
X81884670Y-88493451D01*
X81760532Y-88493451D01*
X81638779Y-88517669D01*
X81524089Y-88565175D01*
X81420872Y-88634143D01*
X81362793Y-88692223D01*
X81301774Y-88631204D01*
X81198557Y-88562236D01*
X81083867Y-88514730D01*
X80962114Y-88490512D01*
X80837976Y-88490512D01*
X80716223Y-88514730D01*
X80601533Y-88562236D01*
X80498316Y-88631204D01*
X80464008Y-88665512D01*
X80249244Y-88665512D01*
X80226897Y-88663311D01*
X80204550Y-88665512D01*
X80204541Y-88665512D01*
X80137663Y-88672099D01*
X80051858Y-88698128D01*
X79979114Y-88737010D01*
X77958495Y-88737010D01*
X77885753Y-88698129D01*
X77799948Y-88672100D01*
X77733070Y-88665513D01*
X77733062Y-88665513D01*
X77710713Y-88663312D01*
X77688364Y-88665513D01*
X76461644Y-88665513D01*
X76439287Y-88663311D01*
X76416930Y-88665513D01*
X76350052Y-88672100D01*
X76264247Y-88698129D01*
X76185168Y-88740397D01*
X76115855Y-88797281D01*
X76101603Y-88814647D01*
X75896450Y-89019800D01*
X75847931Y-89019800D01*
X75726178Y-89044018D01*
X75611488Y-89091524D01*
X75508271Y-89160492D01*
X75420492Y-89248271D01*
X75351524Y-89351488D01*
X75304018Y-89466178D01*
X75279800Y-89587931D01*
X75279800Y-89712069D01*
X75304018Y-89833822D01*
X75351524Y-89948512D01*
X75420492Y-90051729D01*
X75508271Y-90139508D01*
X75611488Y-90208476D01*
X75726178Y-90255982D01*
X75847931Y-90280200D01*
X75972069Y-90280200D01*
X76093822Y-90255982D01*
X76208512Y-90208476D01*
X76311729Y-90139508D01*
X76399508Y-90051729D01*
X76468476Y-89948512D01*
X76515982Y-89833822D01*
X76540200Y-89712069D01*
X76540200Y-89663550D01*
X76627837Y-89575913D01*
X76883125Y-89575913D01*
X76868800Y-89647931D01*
X76868800Y-89772069D01*
X76893018Y-89893822D01*
X76940524Y-90008512D01*
X77009492Y-90111729D01*
X77097271Y-90199508D01*
X77200488Y-90268476D01*
X77315178Y-90315982D01*
X77436931Y-90340200D01*
X77561069Y-90340200D01*
X77682822Y-90315982D01*
X77797512Y-90268476D01*
X77900729Y-90199508D01*
X77935037Y-90165200D01*
X78719276Y-90165200D01*
X78694018Y-90226178D01*
X78669800Y-90347931D01*
X78669800Y-90472069D01*
X78681761Y-90532201D01*
X78584947Y-90532201D01*
X78562598Y-90530000D01*
X78540249Y-90532201D01*
X78540242Y-90532201D01*
X78473364Y-90538788D01*
X78387559Y-90564817D01*
X78308480Y-90607085D01*
X78239167Y-90663969D01*
X78224915Y-90681335D01*
X77858849Y-91047402D01*
X77841478Y-91061658D01*
X77784594Y-91130972D01*
X77742326Y-91210051D01*
X77716297Y-91295856D01*
X77709710Y-91362734D01*
X77709710Y-91362741D01*
X77707509Y-91385090D01*
X77709710Y-91407439D01*
X77709710Y-95387761D01*
X77649579Y-95375800D01*
X77525441Y-95375800D01*
X77403688Y-95400018D01*
X77288998Y-95447524D01*
X77185781Y-95516492D01*
X77098002Y-95604271D01*
X77029034Y-95707488D01*
X76981528Y-95822178D01*
X76957310Y-95943931D01*
X76957310Y-96068069D01*
X76981528Y-96189822D01*
X77007310Y-96252065D01*
X77007310Y-96545999D01*
X77004504Y-96574490D01*
X77007310Y-96602981D01*
X77007310Y-96602991D01*
X77007311Y-96603001D01*
X77007311Y-96620318D01*
X77005678Y-96617874D01*
X76917899Y-96530095D01*
X76814682Y-96461127D01*
X76699992Y-96413621D01*
X76578239Y-96389403D01*
X76454101Y-96389403D01*
X76332348Y-96413621D01*
X76217658Y-96461127D01*
X76114441Y-96530095D01*
X76026662Y-96617874D01*
X76000237Y-96657421D01*
X75986222Y-96651616D01*
X75864469Y-96627398D01*
X75740331Y-96627398D01*
X75618578Y-96651616D01*
X75503888Y-96699122D01*
X75400671Y-96768090D01*
X75312892Y-96855869D01*
X75243924Y-96959086D01*
X75196418Y-97073776D01*
X75172200Y-97195529D01*
X75172200Y-97244049D01*
X75118449Y-97297800D01*
X73383635Y-97297800D01*
X73349327Y-97263492D01*
X73246110Y-97194524D01*
X73131420Y-97147018D01*
X73009667Y-97122800D01*
X72885529Y-97122800D01*
X72810200Y-97137784D01*
X72810200Y-96950729D01*
X72856973Y-96936540D01*
X72914337Y-96905879D01*
X72964616Y-96864616D01*
X73005879Y-96814337D01*
X73036540Y-96756973D01*
X73055422Y-96694730D01*
X73061797Y-96630000D01*
X73061797Y-95867978D01*
X73071029Y-95850706D01*
X73078117Y-95827340D01*
X73098203Y-95761128D01*
X73098203Y-96630000D01*
X73104578Y-96694730D01*
X73123460Y-96756973D01*
X73154121Y-96814337D01*
X73195384Y-96864616D01*
X73245663Y-96905879D01*
X73303027Y-96936540D01*
X73365270Y-96955422D01*
X73430000Y-96961797D01*
X74430000Y-96961797D01*
X74494730Y-96955422D01*
X74556973Y-96936540D01*
X74614337Y-96905879D01*
X74664616Y-96864616D01*
X74705879Y-96814337D01*
X74736540Y-96756973D01*
X74755422Y-96694730D01*
X74761797Y-96630000D01*
X74761797Y-95230000D01*
X74755422Y-95165270D01*
X74736540Y-95103027D01*
X74705879Y-95045663D01*
X74664616Y-94995384D01*
X74614337Y-94954121D01*
X74556973Y-94923460D01*
X74494730Y-94904578D01*
X74430000Y-94898203D01*
X74107799Y-94898203D01*
X74107799Y-93828324D01*
X74117009Y-93832139D01*
X74258082Y-93860200D01*
X74401918Y-93860200D01*
X74542991Y-93832139D01*
X74675879Y-93777095D01*
X74795475Y-93697183D01*
X74897183Y-93595475D01*
X74977095Y-93475879D01*
X75032139Y-93342991D01*
X75060200Y-93201918D01*
X75060200Y-93058082D01*
X75032139Y-92917009D01*
X74977095Y-92784121D01*
X74897183Y-92664525D01*
X74795475Y-92562817D01*
X74675879Y-92482905D01*
X74542991Y-92427861D01*
X74401918Y-92399800D01*
X74258082Y-92399800D01*
X74117009Y-92427861D01*
X74107799Y-92431676D01*
X74107799Y-91361797D01*
X74430000Y-91361797D01*
X74494730Y-91355422D01*
X74556973Y-91336540D01*
X74614337Y-91305879D01*
X74664616Y-91264616D01*
X74705879Y-91214337D01*
X74736540Y-91156973D01*
X74755422Y-91094730D01*
X74761797Y-91030000D01*
X74761797Y-89630000D01*
X74755422Y-89565270D01*
X74736540Y-89503027D01*
X74705879Y-89445663D01*
X74664616Y-89395384D01*
X74614337Y-89354121D01*
X74556973Y-89323460D01*
X74494730Y-89304578D01*
X74430000Y-89298203D01*
X73430000Y-89298203D01*
X73365270Y-89304578D01*
X73303027Y-89323460D01*
X73245663Y-89354121D01*
X73195384Y-89395384D01*
X73154121Y-89445663D01*
X73123460Y-89503027D01*
X73104578Y-89565270D01*
X73098203Y-89630000D01*
X73098203Y-90498873D01*
X73085531Y-90457098D01*
X73071029Y-90409294D01*
X73061797Y-90392022D01*
X73061797Y-89630000D01*
X73055422Y-89565270D01*
X73036540Y-89503027D01*
X73005879Y-89445663D01*
X72964616Y-89395384D01*
X72914337Y-89354121D01*
X72856973Y-89323460D01*
X72810200Y-89309271D01*
X72810200Y-87915201D01*
X73881378Y-87915201D01*
X73909869Y-87918007D01*
X73938360Y-87915201D01*
X73938370Y-87915201D01*
X74023608Y-87906806D01*
X74132976Y-87873629D01*
X74233770Y-87819754D01*
X74322117Y-87747249D01*
X74329872Y-87737799D01*
X75321761Y-87737799D01*
X75309800Y-87797931D01*
X75309800Y-87922069D01*
X75334018Y-88043822D01*
X75381524Y-88158512D01*
X75450492Y-88261729D01*
X75538271Y-88349508D01*
X75641488Y-88418476D01*
X75756178Y-88465982D01*
X75877931Y-88490200D01*
X76002069Y-88490200D01*
X76026154Y-88485409D01*
X76028174Y-88486022D01*
X76095052Y-88492609D01*
X76095059Y-88492609D01*
X76117408Y-88494810D01*
X76139757Y-88492609D01*
X79796112Y-88492609D01*
X79818461Y-88494810D01*
X79840810Y-88492609D01*
X79840818Y-88492609D01*
X79907696Y-88486022D01*
X79993501Y-88459993D01*
X80072580Y-88417725D01*
X80141893Y-88360841D01*
X80156149Y-88343470D01*
X80257018Y-88242601D01*
X80300250Y-88242601D01*
X80322599Y-88244802D01*
X80344948Y-88242601D01*
X80344956Y-88242601D01*
X80411834Y-88236014D01*
X80497639Y-88209985D01*
X80576718Y-88167717D01*
X80646031Y-88110833D01*
X80660287Y-88093462D01*
X81813550Y-86940200D01*
X81862069Y-86940200D01*
X81983822Y-86915982D01*
X82098512Y-86868476D01*
X82201729Y-86799508D01*
X82289508Y-86711729D01*
X82358476Y-86608512D01*
X82405982Y-86493822D01*
X82430200Y-86372069D01*
X82430200Y-86247931D01*
X82405982Y-86126178D01*
X82358476Y-86011488D01*
X82289508Y-85908271D01*
X82230948Y-85849711D01*
X82258476Y-85808512D01*
X82305982Y-85693822D01*
X82330200Y-85572069D01*
X82330200Y-85447931D01*
X82305982Y-85326178D01*
X82258476Y-85211488D01*
X82190663Y-85110000D01*
X82258476Y-85008512D01*
X82305982Y-84893822D01*
X82330200Y-84772069D01*
X82330200Y-84647931D01*
X82313744Y-84565200D01*
X83089397Y-84565200D01*
X83927663Y-85403467D01*
G37*
G04 #@! TD.AperFunction*
D20*
X91794224Y-79152892D02*
X91844334Y-79181290D01*
X91963098Y-79220546D01*
X92071250Y-79233000D01*
X92151221Y-79153029D01*
X92354858Y-79153108D01*
X92434750Y-79233000D01*
X92542902Y-79220546D01*
X92661666Y-79181290D01*
X92711155Y-79153244D01*
X99592202Y-79155884D01*
X99592202Y-79231676D01*
X99582991Y-79227861D01*
X99441918Y-79199800D01*
X99298082Y-79199800D01*
X99157009Y-79227861D01*
X99024121Y-79282905D01*
X98904525Y-79362817D01*
X98802817Y-79464525D01*
X98722905Y-79584121D01*
X98667861Y-79717009D01*
X98639800Y-79858082D01*
X98639800Y-80001918D01*
X98667861Y-80142991D01*
X98722905Y-80275879D01*
X98802817Y-80395475D01*
X98904525Y-80497183D01*
X99024121Y-80577095D01*
X99157009Y-80632139D01*
X99298082Y-80660200D01*
X99441918Y-80660200D01*
X99582991Y-80632139D01*
X99592201Y-80628324D01*
X99592201Y-81698203D01*
X99270000Y-81698203D01*
X99205270Y-81704578D01*
X99143027Y-81723460D01*
X99085663Y-81754121D01*
X99035384Y-81795384D01*
X98994121Y-81845663D01*
X98963460Y-81903027D01*
X98944578Y-81965270D01*
X98938203Y-82030000D01*
X98938203Y-83430000D01*
X98944578Y-83494730D01*
X98963460Y-83556973D01*
X98994121Y-83614337D01*
X99035384Y-83664616D01*
X99085663Y-83705879D01*
X99143027Y-83736540D01*
X99205270Y-83755422D01*
X99270000Y-83761797D01*
X99908537Y-83761797D01*
X99904390Y-83803900D01*
X99904390Y-83803910D01*
X99901584Y-83832401D01*
X99904390Y-83860892D01*
X99904390Y-84157076D01*
X99902271Y-84158492D01*
X99814492Y-84246271D01*
X99745524Y-84349488D01*
X99698018Y-84464178D01*
X99673800Y-84585931D01*
X99673800Y-84710069D01*
X99698018Y-84831822D01*
X99745524Y-84946512D01*
X99814492Y-85049729D01*
X99902271Y-85137508D01*
X100005488Y-85206476D01*
X100120178Y-85253982D01*
X100241931Y-85278200D01*
X100366069Y-85278200D01*
X100487822Y-85253982D01*
X100602512Y-85206476D01*
X100705729Y-85137508D01*
X100793508Y-85049729D01*
X100862476Y-84946512D01*
X100875437Y-84915221D01*
X100896838Y-84897658D01*
X100969343Y-84809311D01*
X101023218Y-84708517D01*
X101056395Y-84599149D01*
X101064790Y-84513911D01*
X101064790Y-84513901D01*
X101067596Y-84485410D01*
X101064790Y-84456919D01*
X101064790Y-84072727D01*
X101375720Y-83761797D01*
X101970000Y-83761797D01*
X102034730Y-83755422D01*
X102094801Y-83737199D01*
X102094801Y-84259135D01*
X102038512Y-84221524D01*
X101923822Y-84174018D01*
X101802069Y-84149800D01*
X101677931Y-84149800D01*
X101556178Y-84174018D01*
X101441488Y-84221524D01*
X101338271Y-84290492D01*
X101250492Y-84378271D01*
X101181524Y-84481488D01*
X101134018Y-84596178D01*
X101109800Y-84717931D01*
X101109800Y-84842069D01*
X101134018Y-84963822D01*
X101181524Y-85078512D01*
X101250492Y-85181729D01*
X101338271Y-85269508D01*
X101441488Y-85338476D01*
X101556178Y-85385982D01*
X101677931Y-85410200D01*
X101691155Y-85410200D01*
X101645840Y-93620410D01*
X101086451Y-94179800D01*
X101037931Y-94179800D01*
X100916178Y-94204018D01*
X100801488Y-94251524D01*
X100698271Y-94320492D01*
X100610492Y-94408271D01*
X100541524Y-94511488D01*
X100494018Y-94626178D01*
X100469800Y-94747931D01*
X100469800Y-94872069D01*
X100494018Y-94993822D01*
X100541524Y-95108512D01*
X100610492Y-95211729D01*
X100698271Y-95299508D01*
X100801488Y-95368476D01*
X100916178Y-95415982D01*
X101037931Y-95440200D01*
X101162069Y-95440200D01*
X101283822Y-95415982D01*
X101398512Y-95368476D01*
X101501729Y-95299508D01*
X101589508Y-95211729D01*
X101658476Y-95108512D01*
X101705982Y-94993822D01*
X101730200Y-94872069D01*
X101730200Y-94823549D01*
X102094800Y-94458949D01*
X102094800Y-110934068D01*
X102053508Y-110872271D01*
X101965729Y-110784492D01*
X101862512Y-110715524D01*
X101747822Y-110668018D01*
X101626069Y-110643800D01*
X101501931Y-110643800D01*
X101380178Y-110668018D01*
X101265488Y-110715524D01*
X101162271Y-110784492D01*
X101074492Y-110872271D01*
X101005524Y-110975488D01*
X100958018Y-111090178D01*
X100953956Y-111110601D01*
X99566351Y-111110601D01*
X99194489Y-110738740D01*
X99180233Y-110721369D01*
X99110920Y-110664485D01*
X99031841Y-110622217D01*
X98946036Y-110596188D01*
X98879158Y-110589601D01*
X98879150Y-110589601D01*
X98856801Y-110587400D01*
X98834452Y-110589601D01*
X98515455Y-110589601D01*
X98527416Y-110529469D01*
X98527416Y-110405331D01*
X98503198Y-110283578D01*
X98491851Y-110256184D01*
X98498200Y-110191721D01*
X98498200Y-110191714D01*
X98500401Y-110169365D01*
X98498200Y-110147016D01*
X98498200Y-105593037D01*
X98532508Y-105558729D01*
X98601476Y-105455512D01*
X98648982Y-105340822D01*
X98673200Y-105219069D01*
X98673200Y-105094931D01*
X98648982Y-104973178D01*
X98601476Y-104858488D01*
X98532508Y-104755271D01*
X98498200Y-104720963D01*
X98498200Y-102795357D01*
X98500402Y-102773000D01*
X98491613Y-102683765D01*
X98465584Y-102597960D01*
X98423316Y-102518881D01*
X98380683Y-102466933D01*
X98366432Y-102449568D01*
X98349066Y-102435316D01*
X97831871Y-101918121D01*
X99863968Y-101918121D01*
X99863968Y-102042259D01*
X99888186Y-102164012D01*
X99935692Y-102278702D01*
X100004660Y-102381919D01*
X100092439Y-102469698D01*
X100195656Y-102538666D01*
X100310346Y-102586172D01*
X100432099Y-102610390D01*
X100480618Y-102610390D01*
X100644801Y-102774572D01*
X100644801Y-102873962D01*
X100610492Y-102908271D01*
X100541524Y-103011488D01*
X100494018Y-103126178D01*
X100469800Y-103247931D01*
X100469800Y-103372069D01*
X100494018Y-103493822D01*
X100541524Y-103608512D01*
X100610492Y-103711729D01*
X100698271Y-103799508D01*
X100801488Y-103868476D01*
X100916178Y-103915982D01*
X101037931Y-103940200D01*
X101162069Y-103940200D01*
X101283822Y-103915982D01*
X101398512Y-103868476D01*
X101501729Y-103799508D01*
X101589508Y-103711729D01*
X101658476Y-103608512D01*
X101705982Y-103493822D01*
X101730200Y-103372069D01*
X101730200Y-103247931D01*
X101705982Y-103126178D01*
X101658476Y-103011488D01*
X101589508Y-102908271D01*
X101555200Y-102873963D01*
X101555200Y-102608379D01*
X101557402Y-102586022D01*
X101548613Y-102496787D01*
X101522584Y-102410982D01*
X101480316Y-102331903D01*
X101437683Y-102279955D01*
X101423432Y-102262590D01*
X101406066Y-102248338D01*
X101124368Y-101966640D01*
X101124368Y-101918121D01*
X101100150Y-101796368D01*
X101052644Y-101681678D01*
X100983676Y-101578461D01*
X100895897Y-101490682D01*
X100792680Y-101421714D01*
X100677990Y-101374208D01*
X100556237Y-101349990D01*
X100432099Y-101349990D01*
X100310346Y-101374208D01*
X100195656Y-101421714D01*
X100092439Y-101490682D01*
X100004660Y-101578461D01*
X99935692Y-101681678D01*
X99888186Y-101796368D01*
X99863968Y-101918121D01*
X97831871Y-101918121D01*
X97780200Y-101866451D01*
X97780200Y-101817931D01*
X97755982Y-101696178D01*
X97708476Y-101581488D01*
X97639508Y-101478271D01*
X97551729Y-101390492D01*
X97448512Y-101321524D01*
X97333822Y-101274018D01*
X97212069Y-101249800D01*
X97087931Y-101249800D01*
X96966178Y-101274018D01*
X96851488Y-101321524D01*
X96748271Y-101390492D01*
X96713963Y-101424800D01*
X88120820Y-101424800D01*
X88178476Y-101338512D01*
X88225982Y-101223822D01*
X88250200Y-101102069D01*
X88250200Y-100977931D01*
X88225982Y-100856178D01*
X88178476Y-100741488D01*
X88109508Y-100638271D01*
X88075200Y-100603963D01*
X88075200Y-99598549D01*
X88828665Y-98845085D01*
X88846031Y-98830833D01*
X88869585Y-98802132D01*
X89231400Y-98440318D01*
X89231400Y-99051810D01*
X89191524Y-99111488D01*
X89144018Y-99226178D01*
X89119800Y-99347931D01*
X89119800Y-99472069D01*
X89144018Y-99593822D01*
X89191524Y-99708512D01*
X89260492Y-99811729D01*
X89348271Y-99899508D01*
X89451488Y-99968476D01*
X89566178Y-100015982D01*
X89687931Y-100040200D01*
X89812069Y-100040200D01*
X89933822Y-100015982D01*
X90048512Y-99968476D01*
X90151729Y-99899508D01*
X90239508Y-99811729D01*
X90308476Y-99708512D01*
X90355982Y-99593822D01*
X90380200Y-99472069D01*
X90380200Y-99347931D01*
X90355982Y-99226178D01*
X90308476Y-99111488D01*
X90239508Y-99008271D01*
X90151729Y-98920492D01*
X90141799Y-98913857D01*
X90141799Y-92108924D01*
X90210492Y-92211729D01*
X90298271Y-92299508D01*
X90401488Y-92368476D01*
X90516178Y-92415982D01*
X90637931Y-92440200D01*
X90762069Y-92440200D01*
X90883822Y-92415982D01*
X90962246Y-92383498D01*
X90980476Y-92385356D01*
X91004271Y-92383095D01*
X94618049Y-92372629D01*
X95646007Y-93354800D01*
X93936037Y-93354800D01*
X93901729Y-93320492D01*
X93798512Y-93251524D01*
X93683822Y-93204018D01*
X93562069Y-93179800D01*
X93437931Y-93179800D01*
X93316178Y-93204018D01*
X93201488Y-93251524D01*
X93098271Y-93320492D01*
X93010492Y-93408271D01*
X92941524Y-93511488D01*
X92894018Y-93626178D01*
X92869800Y-93747931D01*
X92869800Y-93872069D01*
X92894018Y-93993822D01*
X92941524Y-94108512D01*
X93010492Y-94211729D01*
X93098271Y-94299508D01*
X93201488Y-94368476D01*
X93316178Y-94415982D01*
X93437931Y-94440200D01*
X93562069Y-94440200D01*
X93683822Y-94415982D01*
X93798512Y-94368476D01*
X93901729Y-94299508D01*
X93936037Y-94265200D01*
X95711451Y-94265200D01*
X95769800Y-94323549D01*
X95769800Y-94372069D01*
X95794018Y-94493822D01*
X95841524Y-94608512D01*
X95910492Y-94711729D01*
X95998271Y-94799508D01*
X96101488Y-94868476D01*
X96216178Y-94915982D01*
X96337931Y-94940200D01*
X96462069Y-94940200D01*
X96583822Y-94915982D01*
X96698512Y-94868476D01*
X96801729Y-94799508D01*
X96818519Y-94782718D01*
X96901488Y-94838156D01*
X97016178Y-94885662D01*
X97062969Y-94894969D01*
X96923493Y-95032201D01*
X92577460Y-95032201D01*
X92230302Y-94685044D01*
X92230302Y-94636524D01*
X92206084Y-94514771D01*
X92158578Y-94400081D01*
X92089610Y-94296864D01*
X92001831Y-94209085D01*
X91898614Y-94140117D01*
X91783924Y-94092611D01*
X91662171Y-94068393D01*
X91538033Y-94068393D01*
X91416280Y-94092611D01*
X91301590Y-94140117D01*
X91198373Y-94209085D01*
X91110594Y-94296864D01*
X91041626Y-94400081D01*
X90994120Y-94514771D01*
X90969902Y-94636524D01*
X90969902Y-94760662D01*
X90994120Y-94882415D01*
X91041626Y-94997105D01*
X91110594Y-95100322D01*
X91130817Y-95120545D01*
X91124262Y-95127099D01*
X91055294Y-95230316D01*
X91007788Y-95345006D01*
X90983570Y-95466759D01*
X90983570Y-95590897D01*
X91007788Y-95712650D01*
X91055294Y-95827340D01*
X91124262Y-95930557D01*
X91130033Y-95936328D01*
X91110491Y-95955869D01*
X91041523Y-96059086D01*
X90994017Y-96173776D01*
X90969799Y-96295529D01*
X90969799Y-96419667D01*
X90994017Y-96541420D01*
X91041523Y-96656110D01*
X91110491Y-96759327D01*
X91198270Y-96847106D01*
X91301487Y-96916074D01*
X91416177Y-96963580D01*
X91537930Y-96987798D01*
X91586450Y-96987798D01*
X91847094Y-97248442D01*
X91849826Y-97257450D01*
X91892094Y-97336529D01*
X91948978Y-97405842D01*
X92018291Y-97462726D01*
X92097370Y-97504994D01*
X92183175Y-97531023D01*
X92250053Y-97537610D01*
X92302462Y-97537610D01*
X92324811Y-97539811D01*
X92347160Y-97537610D01*
X98639309Y-97537610D01*
X98661658Y-97539811D01*
X98684007Y-97537610D01*
X98684015Y-97537610D01*
X98750893Y-97531023D01*
X98836698Y-97504994D01*
X98915777Y-97462726D01*
X98985090Y-97405842D01*
X98999346Y-97388471D01*
X100068467Y-96319351D01*
X100085833Y-96305099D01*
X100113438Y-96271463D01*
X100142717Y-96235786D01*
X100184985Y-96156707D01*
X100211014Y-96070902D01*
X100219803Y-95981667D01*
X100217601Y-95959310D01*
X100217601Y-86775195D01*
X100219802Y-86752846D01*
X100217601Y-86730497D01*
X100217601Y-86730490D01*
X100211014Y-86663612D01*
X100184985Y-86577807D01*
X100142717Y-86498728D01*
X100085833Y-86429415D01*
X100068468Y-86415164D01*
X99557610Y-85904307D01*
X99557610Y-84489312D01*
X99559811Y-84466963D01*
X99557610Y-84444614D01*
X99557610Y-84444607D01*
X99551023Y-84377729D01*
X99524994Y-84291924D01*
X99482726Y-84212845D01*
X99425842Y-84143532D01*
X99408477Y-84129281D01*
X98332601Y-83053406D01*
X98332601Y-80800403D01*
X98334803Y-80778046D01*
X98326014Y-80688811D01*
X98299985Y-80603006D01*
X98257717Y-80523927D01*
X98256911Y-80522945D01*
X98200833Y-80454614D01*
X98183463Y-80440359D01*
X97914841Y-80171737D01*
X97900585Y-80154366D01*
X97831272Y-80097482D01*
X97752193Y-80055214D01*
X97666388Y-80029185D01*
X97599510Y-80022598D01*
X97599502Y-80022598D01*
X97577153Y-80020397D01*
X97554804Y-80022598D01*
X96980642Y-80022598D01*
X96958293Y-80020397D01*
X96935944Y-80022598D01*
X96935937Y-80022598D01*
X96869059Y-80029185D01*
X96783254Y-80055214D01*
X96704175Y-80097482D01*
X96634862Y-80154366D01*
X96620610Y-80171732D01*
X96342361Y-80449982D01*
X91812239Y-80449982D01*
X91824200Y-80389851D01*
X91824200Y-80265713D01*
X91799982Y-80143960D01*
X91752476Y-80029270D01*
X91683508Y-79926053D01*
X91595729Y-79838274D01*
X91492512Y-79769306D01*
X91377822Y-79721800D01*
X91256069Y-79697582D01*
X91131931Y-79697582D01*
X91010178Y-79721800D01*
X90895488Y-79769306D01*
X90792271Y-79838274D01*
X90704492Y-79926053D01*
X90635524Y-80029270D01*
X90627943Y-80047572D01*
X90125217Y-80047572D01*
X90148357Y-79931237D01*
X90148357Y-79807099D01*
X90124139Y-79685346D01*
X90076633Y-79570656D01*
X90007665Y-79467439D01*
X89919886Y-79379660D01*
X89889134Y-79359112D01*
X90507705Y-79359112D01*
X90527658Y-79361077D01*
X90547611Y-79359112D01*
X90547618Y-79359112D01*
X90607326Y-79353231D01*
X90683933Y-79329993D01*
X90754534Y-79292256D01*
X90816416Y-79241470D01*
X90829140Y-79225966D01*
X90902556Y-79152550D01*
X91794224Y-79152892D01*
G04 #@! TA.AperFunction,Conductor*
D21*
G36*
X91794224Y-79152892D02*
G01*
X91844334Y-79181290D01*
X91963098Y-79220546D01*
X92071250Y-79233000D01*
X92151221Y-79153029D01*
X92354858Y-79153108D01*
X92434750Y-79233000D01*
X92542902Y-79220546D01*
X92661666Y-79181290D01*
X92711155Y-79153244D01*
X99592202Y-79155884D01*
X99592202Y-79231676D01*
X99582991Y-79227861D01*
X99441918Y-79199800D01*
X99298082Y-79199800D01*
X99157009Y-79227861D01*
X99024121Y-79282905D01*
X98904525Y-79362817D01*
X98802817Y-79464525D01*
X98722905Y-79584121D01*
X98667861Y-79717009D01*
X98639800Y-79858082D01*
X98639800Y-80001918D01*
X98667861Y-80142991D01*
X98722905Y-80275879D01*
X98802817Y-80395475D01*
X98904525Y-80497183D01*
X99024121Y-80577095D01*
X99157009Y-80632139D01*
X99298082Y-80660200D01*
X99441918Y-80660200D01*
X99582991Y-80632139D01*
X99592201Y-80628324D01*
X99592201Y-81698203D01*
X99270000Y-81698203D01*
X99205270Y-81704578D01*
X99143027Y-81723460D01*
X99085663Y-81754121D01*
X99035384Y-81795384D01*
X98994121Y-81845663D01*
X98963460Y-81903027D01*
X98944578Y-81965270D01*
X98938203Y-82030000D01*
X98938203Y-83430000D01*
X98944578Y-83494730D01*
X98963460Y-83556973D01*
X98994121Y-83614337D01*
X99035384Y-83664616D01*
X99085663Y-83705879D01*
X99143027Y-83736540D01*
X99205270Y-83755422D01*
X99270000Y-83761797D01*
X99908537Y-83761797D01*
X99904390Y-83803900D01*
X99904390Y-83803910D01*
X99901584Y-83832401D01*
X99904390Y-83860892D01*
X99904390Y-84157076D01*
X99902271Y-84158492D01*
X99814492Y-84246271D01*
X99745524Y-84349488D01*
X99698018Y-84464178D01*
X99673800Y-84585931D01*
X99673800Y-84710069D01*
X99698018Y-84831822D01*
X99745524Y-84946512D01*
X99814492Y-85049729D01*
X99902271Y-85137508D01*
X100005488Y-85206476D01*
X100120178Y-85253982D01*
X100241931Y-85278200D01*
X100366069Y-85278200D01*
X100487822Y-85253982D01*
X100602512Y-85206476D01*
X100705729Y-85137508D01*
X100793508Y-85049729D01*
X100862476Y-84946512D01*
X100875437Y-84915221D01*
X100896838Y-84897658D01*
X100969343Y-84809311D01*
X101023218Y-84708517D01*
X101056395Y-84599149D01*
X101064790Y-84513911D01*
X101064790Y-84513901D01*
X101067596Y-84485410D01*
X101064790Y-84456919D01*
X101064790Y-84072727D01*
X101375720Y-83761797D01*
X101970000Y-83761797D01*
X102034730Y-83755422D01*
X102094801Y-83737199D01*
X102094801Y-84259135D01*
X102038512Y-84221524D01*
X101923822Y-84174018D01*
X101802069Y-84149800D01*
X101677931Y-84149800D01*
X101556178Y-84174018D01*
X101441488Y-84221524D01*
X101338271Y-84290492D01*
X101250492Y-84378271D01*
X101181524Y-84481488D01*
X101134018Y-84596178D01*
X101109800Y-84717931D01*
X101109800Y-84842069D01*
X101134018Y-84963822D01*
X101181524Y-85078512D01*
X101250492Y-85181729D01*
X101338271Y-85269508D01*
X101441488Y-85338476D01*
X101556178Y-85385982D01*
X101677931Y-85410200D01*
X101691155Y-85410200D01*
X101645840Y-93620410D01*
X101086451Y-94179800D01*
X101037931Y-94179800D01*
X100916178Y-94204018D01*
X100801488Y-94251524D01*
X100698271Y-94320492D01*
X100610492Y-94408271D01*
X100541524Y-94511488D01*
X100494018Y-94626178D01*
X100469800Y-94747931D01*
X100469800Y-94872069D01*
X100494018Y-94993822D01*
X100541524Y-95108512D01*
X100610492Y-95211729D01*
X100698271Y-95299508D01*
X100801488Y-95368476D01*
X100916178Y-95415982D01*
X101037931Y-95440200D01*
X101162069Y-95440200D01*
X101283822Y-95415982D01*
X101398512Y-95368476D01*
X101501729Y-95299508D01*
X101589508Y-95211729D01*
X101658476Y-95108512D01*
X101705982Y-94993822D01*
X101730200Y-94872069D01*
X101730200Y-94823549D01*
X102094800Y-94458949D01*
X102094800Y-110934068D01*
X102053508Y-110872271D01*
X101965729Y-110784492D01*
X101862512Y-110715524D01*
X101747822Y-110668018D01*
X101626069Y-110643800D01*
X101501931Y-110643800D01*
X101380178Y-110668018D01*
X101265488Y-110715524D01*
X101162271Y-110784492D01*
X101074492Y-110872271D01*
X101005524Y-110975488D01*
X100958018Y-111090178D01*
X100953956Y-111110601D01*
X99566351Y-111110601D01*
X99194489Y-110738740D01*
X99180233Y-110721369D01*
X99110920Y-110664485D01*
X99031841Y-110622217D01*
X98946036Y-110596188D01*
X98879158Y-110589601D01*
X98879150Y-110589601D01*
X98856801Y-110587400D01*
X98834452Y-110589601D01*
X98515455Y-110589601D01*
X98527416Y-110529469D01*
X98527416Y-110405331D01*
X98503198Y-110283578D01*
X98491851Y-110256184D01*
X98498200Y-110191721D01*
X98498200Y-110191714D01*
X98500401Y-110169365D01*
X98498200Y-110147016D01*
X98498200Y-105593037D01*
X98532508Y-105558729D01*
X98601476Y-105455512D01*
X98648982Y-105340822D01*
X98673200Y-105219069D01*
X98673200Y-105094931D01*
X98648982Y-104973178D01*
X98601476Y-104858488D01*
X98532508Y-104755271D01*
X98498200Y-104720963D01*
X98498200Y-102795357D01*
X98500402Y-102773000D01*
X98491613Y-102683765D01*
X98465584Y-102597960D01*
X98423316Y-102518881D01*
X98380683Y-102466933D01*
X98366432Y-102449568D01*
X98349066Y-102435316D01*
X97831871Y-101918121D01*
X99863968Y-101918121D01*
X99863968Y-102042259D01*
X99888186Y-102164012D01*
X99935692Y-102278702D01*
X100004660Y-102381919D01*
X100092439Y-102469698D01*
X100195656Y-102538666D01*
X100310346Y-102586172D01*
X100432099Y-102610390D01*
X100480618Y-102610390D01*
X100644801Y-102774572D01*
X100644801Y-102873962D01*
X100610492Y-102908271D01*
X100541524Y-103011488D01*
X100494018Y-103126178D01*
X100469800Y-103247931D01*
X100469800Y-103372069D01*
X100494018Y-103493822D01*
X100541524Y-103608512D01*
X100610492Y-103711729D01*
X100698271Y-103799508D01*
X100801488Y-103868476D01*
X100916178Y-103915982D01*
X101037931Y-103940200D01*
X101162069Y-103940200D01*
X101283822Y-103915982D01*
X101398512Y-103868476D01*
X101501729Y-103799508D01*
X101589508Y-103711729D01*
X101658476Y-103608512D01*
X101705982Y-103493822D01*
X101730200Y-103372069D01*
X101730200Y-103247931D01*
X101705982Y-103126178D01*
X101658476Y-103011488D01*
X101589508Y-102908271D01*
X101555200Y-102873963D01*
X101555200Y-102608379D01*
X101557402Y-102586022D01*
X101548613Y-102496787D01*
X101522584Y-102410982D01*
X101480316Y-102331903D01*
X101437683Y-102279955D01*
X101423432Y-102262590D01*
X101406066Y-102248338D01*
X101124368Y-101966640D01*
X101124368Y-101918121D01*
X101100150Y-101796368D01*
X101052644Y-101681678D01*
X100983676Y-101578461D01*
X100895897Y-101490682D01*
X100792680Y-101421714D01*
X100677990Y-101374208D01*
X100556237Y-101349990D01*
X100432099Y-101349990D01*
X100310346Y-101374208D01*
X100195656Y-101421714D01*
X100092439Y-101490682D01*
X100004660Y-101578461D01*
X99935692Y-101681678D01*
X99888186Y-101796368D01*
X99863968Y-101918121D01*
X97831871Y-101918121D01*
X97780200Y-101866451D01*
X97780200Y-101817931D01*
X97755982Y-101696178D01*
X97708476Y-101581488D01*
X97639508Y-101478271D01*
X97551729Y-101390492D01*
X97448512Y-101321524D01*
X97333822Y-101274018D01*
X97212069Y-101249800D01*
X97087931Y-101249800D01*
X96966178Y-101274018D01*
X96851488Y-101321524D01*
X96748271Y-101390492D01*
X96713963Y-101424800D01*
X88120820Y-101424800D01*
X88178476Y-101338512D01*
X88225982Y-101223822D01*
X88250200Y-101102069D01*
X88250200Y-100977931D01*
X88225982Y-100856178D01*
X88178476Y-100741488D01*
X88109508Y-100638271D01*
X88075200Y-100603963D01*
X88075200Y-99598549D01*
X88828665Y-98845085D01*
X88846031Y-98830833D01*
X88869585Y-98802132D01*
X89231400Y-98440318D01*
X89231400Y-99051810D01*
X89191524Y-99111488D01*
X89144018Y-99226178D01*
X89119800Y-99347931D01*
X89119800Y-99472069D01*
X89144018Y-99593822D01*
X89191524Y-99708512D01*
X89260492Y-99811729D01*
X89348271Y-99899508D01*
X89451488Y-99968476D01*
X89566178Y-100015982D01*
X89687931Y-100040200D01*
X89812069Y-100040200D01*
X89933822Y-100015982D01*
X90048512Y-99968476D01*
X90151729Y-99899508D01*
X90239508Y-99811729D01*
X90308476Y-99708512D01*
X90355982Y-99593822D01*
X90380200Y-99472069D01*
X90380200Y-99347931D01*
X90355982Y-99226178D01*
X90308476Y-99111488D01*
X90239508Y-99008271D01*
X90151729Y-98920492D01*
X90141799Y-98913857D01*
X90141799Y-92108924D01*
X90210492Y-92211729D01*
X90298271Y-92299508D01*
X90401488Y-92368476D01*
X90516178Y-92415982D01*
X90637931Y-92440200D01*
X90762069Y-92440200D01*
X90883822Y-92415982D01*
X90962246Y-92383498D01*
X90980476Y-92385356D01*
X91004271Y-92383095D01*
X94618049Y-92372629D01*
X95646007Y-93354800D01*
X93936037Y-93354800D01*
X93901729Y-93320492D01*
X93798512Y-93251524D01*
X93683822Y-93204018D01*
X93562069Y-93179800D01*
X93437931Y-93179800D01*
X93316178Y-93204018D01*
X93201488Y-93251524D01*
X93098271Y-93320492D01*
X93010492Y-93408271D01*
X92941524Y-93511488D01*
X92894018Y-93626178D01*
X92869800Y-93747931D01*
X92869800Y-93872069D01*
X92894018Y-93993822D01*
X92941524Y-94108512D01*
X93010492Y-94211729D01*
X93098271Y-94299508D01*
X93201488Y-94368476D01*
X93316178Y-94415982D01*
X93437931Y-94440200D01*
X93562069Y-94440200D01*
X93683822Y-94415982D01*
X93798512Y-94368476D01*
X93901729Y-94299508D01*
X93936037Y-94265200D01*
X95711451Y-94265200D01*
X95769800Y-94323549D01*
X95769800Y-94372069D01*
X95794018Y-94493822D01*
X95841524Y-94608512D01*
X95910492Y-94711729D01*
X95998271Y-94799508D01*
X96101488Y-94868476D01*
X96216178Y-94915982D01*
X96337931Y-94940200D01*
X96462069Y-94940200D01*
X96583822Y-94915982D01*
X96698512Y-94868476D01*
X96801729Y-94799508D01*
X96818519Y-94782718D01*
X96901488Y-94838156D01*
X97016178Y-94885662D01*
X97062969Y-94894969D01*
X96923493Y-95032201D01*
X92577460Y-95032201D01*
X92230302Y-94685044D01*
X92230302Y-94636524D01*
X92206084Y-94514771D01*
X92158578Y-94400081D01*
X92089610Y-94296864D01*
X92001831Y-94209085D01*
X91898614Y-94140117D01*
X91783924Y-94092611D01*
X91662171Y-94068393D01*
X91538033Y-94068393D01*
X91416280Y-94092611D01*
X91301590Y-94140117D01*
X91198373Y-94209085D01*
X91110594Y-94296864D01*
X91041626Y-94400081D01*
X90994120Y-94514771D01*
X90969902Y-94636524D01*
X90969902Y-94760662D01*
X90994120Y-94882415D01*
X91041626Y-94997105D01*
X91110594Y-95100322D01*
X91130817Y-95120545D01*
X91124262Y-95127099D01*
X91055294Y-95230316D01*
X91007788Y-95345006D01*
X90983570Y-95466759D01*
X90983570Y-95590897D01*
X91007788Y-95712650D01*
X91055294Y-95827340D01*
X91124262Y-95930557D01*
X91130033Y-95936328D01*
X91110491Y-95955869D01*
X91041523Y-96059086D01*
X90994017Y-96173776D01*
X90969799Y-96295529D01*
X90969799Y-96419667D01*
X90994017Y-96541420D01*
X91041523Y-96656110D01*
X91110491Y-96759327D01*
X91198270Y-96847106D01*
X91301487Y-96916074D01*
X91416177Y-96963580D01*
X91537930Y-96987798D01*
X91586450Y-96987798D01*
X91847094Y-97248442D01*
X91849826Y-97257450D01*
X91892094Y-97336529D01*
X91948978Y-97405842D01*
X92018291Y-97462726D01*
X92097370Y-97504994D01*
X92183175Y-97531023D01*
X92250053Y-97537610D01*
X92302462Y-97537610D01*
X92324811Y-97539811D01*
X92347160Y-97537610D01*
X98639309Y-97537610D01*
X98661658Y-97539811D01*
X98684007Y-97537610D01*
X98684015Y-97537610D01*
X98750893Y-97531023D01*
X98836698Y-97504994D01*
X98915777Y-97462726D01*
X98985090Y-97405842D01*
X98999346Y-97388471D01*
X100068467Y-96319351D01*
X100085833Y-96305099D01*
X100113438Y-96271463D01*
X100142717Y-96235786D01*
X100184985Y-96156707D01*
X100211014Y-96070902D01*
X100219803Y-95981667D01*
X100217601Y-95959310D01*
X100217601Y-86775195D01*
X100219802Y-86752846D01*
X100217601Y-86730497D01*
X100217601Y-86730490D01*
X100211014Y-86663612D01*
X100184985Y-86577807D01*
X100142717Y-86498728D01*
X100085833Y-86429415D01*
X100068468Y-86415164D01*
X99557610Y-85904307D01*
X99557610Y-84489312D01*
X99559811Y-84466963D01*
X99557610Y-84444614D01*
X99557610Y-84444607D01*
X99551023Y-84377729D01*
X99524994Y-84291924D01*
X99482726Y-84212845D01*
X99425842Y-84143532D01*
X99408477Y-84129281D01*
X98332601Y-83053406D01*
X98332601Y-80800403D01*
X98334803Y-80778046D01*
X98326014Y-80688811D01*
X98299985Y-80603006D01*
X98257717Y-80523927D01*
X98256911Y-80522945D01*
X98200833Y-80454614D01*
X98183463Y-80440359D01*
X97914841Y-80171737D01*
X97900585Y-80154366D01*
X97831272Y-80097482D01*
X97752193Y-80055214D01*
X97666388Y-80029185D01*
X97599510Y-80022598D01*
X97599502Y-80022598D01*
X97577153Y-80020397D01*
X97554804Y-80022598D01*
X96980642Y-80022598D01*
X96958293Y-80020397D01*
X96935944Y-80022598D01*
X96935937Y-80022598D01*
X96869059Y-80029185D01*
X96783254Y-80055214D01*
X96704175Y-80097482D01*
X96634862Y-80154366D01*
X96620610Y-80171732D01*
X96342361Y-80449982D01*
X91812239Y-80449982D01*
X91824200Y-80389851D01*
X91824200Y-80265713D01*
X91799982Y-80143960D01*
X91752476Y-80029270D01*
X91683508Y-79926053D01*
X91595729Y-79838274D01*
X91492512Y-79769306D01*
X91377822Y-79721800D01*
X91256069Y-79697582D01*
X91131931Y-79697582D01*
X91010178Y-79721800D01*
X90895488Y-79769306D01*
X90792271Y-79838274D01*
X90704492Y-79926053D01*
X90635524Y-80029270D01*
X90627943Y-80047572D01*
X90125217Y-80047572D01*
X90148357Y-79931237D01*
X90148357Y-79807099D01*
X90124139Y-79685346D01*
X90076633Y-79570656D01*
X90007665Y-79467439D01*
X89919886Y-79379660D01*
X89889134Y-79359112D01*
X90507705Y-79359112D01*
X90527658Y-79361077D01*
X90547611Y-79359112D01*
X90547618Y-79359112D01*
X90607326Y-79353231D01*
X90683933Y-79329993D01*
X90754534Y-79292256D01*
X90816416Y-79241470D01*
X90829140Y-79225966D01*
X90902556Y-79152550D01*
X91794224Y-79152892D01*
G37*
G04 #@! TD.AperFunction*
D20*
X96748271Y-102369508D02*
X96851488Y-102438476D01*
X96966178Y-102485982D01*
X97087931Y-102510200D01*
X97136451Y-102510200D01*
X97587801Y-102961551D01*
X97587800Y-104720963D01*
X97553492Y-104755271D01*
X97484524Y-104858488D01*
X97437018Y-104973178D01*
X97412800Y-105094931D01*
X97412800Y-105219069D01*
X97437018Y-105340822D01*
X97484524Y-105455512D01*
X97553492Y-105558729D01*
X97587801Y-105593038D01*
X97587800Y-109916210D01*
X97495487Y-109977892D01*
X97407708Y-110065671D01*
X97338740Y-110168888D01*
X97291234Y-110283578D01*
X97267016Y-110405331D01*
X97267016Y-110428712D01*
X90297043Y-103458740D01*
X90282787Y-103441369D01*
X90213474Y-103384485D01*
X90134395Y-103342217D01*
X90048590Y-103316188D01*
X89981712Y-103309601D01*
X89981704Y-103309601D01*
X89959355Y-103307400D01*
X89937006Y-103309601D01*
X88986279Y-103309601D01*
X88120528Y-102443851D01*
X88120528Y-102395331D01*
X88108567Y-102335200D01*
X96713963Y-102335200D01*
X96748271Y-102369508D01*
G04 #@! TA.AperFunction,Conductor*
D21*
G36*
X96748271Y-102369508D02*
G01*
X96851488Y-102438476D01*
X96966178Y-102485982D01*
X97087931Y-102510200D01*
X97136451Y-102510200D01*
X97587801Y-102961551D01*
X97587800Y-104720963D01*
X97553492Y-104755271D01*
X97484524Y-104858488D01*
X97437018Y-104973178D01*
X97412800Y-105094931D01*
X97412800Y-105219069D01*
X97437018Y-105340822D01*
X97484524Y-105455512D01*
X97553492Y-105558729D01*
X97587801Y-105593038D01*
X97587800Y-109916210D01*
X97495487Y-109977892D01*
X97407708Y-110065671D01*
X97338740Y-110168888D01*
X97291234Y-110283578D01*
X97267016Y-110405331D01*
X97267016Y-110428712D01*
X90297043Y-103458740D01*
X90282787Y-103441369D01*
X90213474Y-103384485D01*
X90134395Y-103342217D01*
X90048590Y-103316188D01*
X89981712Y-103309601D01*
X89981704Y-103309601D01*
X89959355Y-103307400D01*
X89937006Y-103309601D01*
X88986279Y-103309601D01*
X88120528Y-102443851D01*
X88120528Y-102395331D01*
X88108567Y-102335200D01*
X96713963Y-102335200D01*
X96748271Y-102369508D01*
G37*
G04 #@! TD.AperFunction*
D20*
X71952201Y-108098203D02*
X71730000Y-108098203D01*
X71665270Y-108104578D01*
X71605200Y-108122801D01*
X71605200Y-107049681D01*
X71658082Y-107060200D01*
X71801918Y-107060200D01*
X71942991Y-107032139D01*
X71952201Y-107028324D01*
X71952201Y-108098203D01*
G04 #@! TA.AperFunction,Conductor*
D21*
G36*
X71952201Y-108098203D02*
G01*
X71730000Y-108098203D01*
X71665270Y-108104578D01*
X71605200Y-108122801D01*
X71605200Y-107049681D01*
X71658082Y-107060200D01*
X71801918Y-107060200D01*
X71942991Y-107032139D01*
X71952201Y-107028324D01*
X71952201Y-108098203D01*
G37*
G04 #@! TD.AperFunction*
D20*
X71665270Y-104555422D02*
X71730000Y-104561797D01*
X71952202Y-104561797D01*
X71952202Y-105631676D01*
X71942991Y-105627861D01*
X71801918Y-105599800D01*
X71658082Y-105599800D01*
X71605200Y-105610319D01*
X71605200Y-104537199D01*
X71665270Y-104555422D01*
G04 #@! TA.AperFunction,Conductor*
D21*
G36*
X71665270Y-104555422D02*
G01*
X71730000Y-104561797D01*
X71952202Y-104561797D01*
X71952202Y-105631676D01*
X71942991Y-105627861D01*
X71801918Y-105599800D01*
X71658082Y-105599800D01*
X71605200Y-105610319D01*
X71605200Y-104537199D01*
X71665270Y-104555422D01*
G37*
G04 #@! TD.AperFunction*
D20*
X77709711Y-100323632D02*
X74958544Y-103074800D01*
X74761797Y-103074800D01*
X74761797Y-102830000D01*
X74755422Y-102765270D01*
X74736540Y-102703027D01*
X74705879Y-102645663D01*
X74664616Y-102595384D01*
X74614337Y-102554121D01*
X74556973Y-102523460D01*
X74494730Y-102504578D01*
X74430000Y-102498203D01*
X73430000Y-102498203D01*
X73365270Y-102504578D01*
X73303027Y-102523460D01*
X73245663Y-102554121D01*
X73195384Y-102595384D01*
X73154121Y-102645663D01*
X73123460Y-102703027D01*
X73104578Y-102765270D01*
X73098203Y-102830000D01*
X73098203Y-103698873D01*
X73071029Y-103609294D01*
X73061797Y-103592022D01*
X73061797Y-102830000D01*
X73055422Y-102765270D01*
X73036540Y-102703027D01*
X73005879Y-102645663D01*
X72964616Y-102595384D01*
X72914337Y-102554121D01*
X72856973Y-102523460D01*
X72810200Y-102509271D01*
X72810200Y-101175200D01*
X75226063Y-101175200D01*
X75254554Y-101178006D01*
X75283045Y-101175200D01*
X75283055Y-101175200D01*
X75368293Y-101166805D01*
X75477661Y-101133628D01*
X75578455Y-101079753D01*
X75666802Y-101007248D01*
X75684972Y-100985108D01*
X77709711Y-98960370D01*
X77709711Y-100323632D01*
G04 #@! TA.AperFunction,Conductor*
D21*
G36*
X77709711Y-100323632D02*
G01*
X74958544Y-103074800D01*
X74761797Y-103074800D01*
X74761797Y-102830000D01*
X74755422Y-102765270D01*
X74736540Y-102703027D01*
X74705879Y-102645663D01*
X74664616Y-102595384D01*
X74614337Y-102554121D01*
X74556973Y-102523460D01*
X74494730Y-102504578D01*
X74430000Y-102498203D01*
X73430000Y-102498203D01*
X73365270Y-102504578D01*
X73303027Y-102523460D01*
X73245663Y-102554121D01*
X73195384Y-102595384D01*
X73154121Y-102645663D01*
X73123460Y-102703027D01*
X73104578Y-102765270D01*
X73098203Y-102830000D01*
X73098203Y-103698873D01*
X73071029Y-103609294D01*
X73061797Y-103592022D01*
X73061797Y-102830000D01*
X73055422Y-102765270D01*
X73036540Y-102703027D01*
X73005879Y-102645663D01*
X72964616Y-102595384D01*
X72914337Y-102554121D01*
X72856973Y-102523460D01*
X72810200Y-102509271D01*
X72810200Y-101175200D01*
X75226063Y-101175200D01*
X75254554Y-101178006D01*
X75283045Y-101175200D01*
X75283055Y-101175200D01*
X75368293Y-101166805D01*
X75477661Y-101133628D01*
X75578455Y-101079753D01*
X75666802Y-101007248D01*
X75684972Y-100985108D01*
X77709711Y-98960370D01*
X77709711Y-100323632D01*
G37*
G04 #@! TD.AperFunction*
D20*
X88653785Y-97730433D02*
X88216538Y-98167681D01*
X88199167Y-98181937D01*
X88175617Y-98210633D01*
X87313939Y-99072312D01*
X87296568Y-99086568D01*
X87239684Y-99155882D01*
X87197416Y-99234961D01*
X87171387Y-99320766D01*
X87164800Y-99387644D01*
X87164800Y-99387651D01*
X87162599Y-99410000D01*
X87164800Y-99432349D01*
X87164801Y-100603962D01*
X87130492Y-100638271D01*
X87061524Y-100741488D01*
X87014018Y-100856178D01*
X86989800Y-100977931D01*
X86989800Y-101102069D01*
X87014018Y-101223822D01*
X87061524Y-101338512D01*
X87119180Y-101424800D01*
X83788949Y-101424800D01*
X86814953Y-98398797D01*
X87753000Y-98398797D01*
X87817730Y-98392422D01*
X87879973Y-98373540D01*
X87937337Y-98342879D01*
X87987616Y-98301616D01*
X88028879Y-98251337D01*
X88059540Y-98193973D01*
X88078422Y-98131730D01*
X88084797Y-98067000D01*
X88084797Y-97067000D01*
X88078422Y-97002270D01*
X88059540Y-96940027D01*
X88047232Y-96917000D01*
X88059540Y-96893973D01*
X88078422Y-96831730D01*
X88084797Y-96767000D01*
X88084797Y-96629440D01*
X88148508Y-96565729D01*
X88217476Y-96462512D01*
X88264982Y-96347822D01*
X88270874Y-96318200D01*
X88389469Y-96318200D01*
X88511222Y-96293982D01*
X88625912Y-96246476D01*
X88653785Y-96227852D01*
X88653785Y-97730433D01*
G04 #@! TA.AperFunction,Conductor*
D21*
G36*
X88653785Y-97730433D02*
G01*
X88216538Y-98167681D01*
X88199167Y-98181937D01*
X88175617Y-98210633D01*
X87313939Y-99072312D01*
X87296568Y-99086568D01*
X87239684Y-99155882D01*
X87197416Y-99234961D01*
X87171387Y-99320766D01*
X87164800Y-99387644D01*
X87164800Y-99387651D01*
X87162599Y-99410000D01*
X87164800Y-99432349D01*
X87164801Y-100603962D01*
X87130492Y-100638271D01*
X87061524Y-100741488D01*
X87014018Y-100856178D01*
X86989800Y-100977931D01*
X86989800Y-101102069D01*
X87014018Y-101223822D01*
X87061524Y-101338512D01*
X87119180Y-101424800D01*
X83788949Y-101424800D01*
X86814953Y-98398797D01*
X87753000Y-98398797D01*
X87817730Y-98392422D01*
X87879973Y-98373540D01*
X87937337Y-98342879D01*
X87987616Y-98301616D01*
X88028879Y-98251337D01*
X88059540Y-98193973D01*
X88078422Y-98131730D01*
X88084797Y-98067000D01*
X88084797Y-97067000D01*
X88078422Y-97002270D01*
X88059540Y-96940027D01*
X88047232Y-96917000D01*
X88059540Y-96893973D01*
X88078422Y-96831730D01*
X88084797Y-96767000D01*
X88084797Y-96629440D01*
X88148508Y-96565729D01*
X88217476Y-96462512D01*
X88264982Y-96347822D01*
X88270874Y-96318200D01*
X88389469Y-96318200D01*
X88511222Y-96293982D01*
X88625912Y-96246476D01*
X88653785Y-96227852D01*
X88653785Y-97730433D01*
G37*
G04 #@! TD.AperFunction*
D20*
X77007310Y-98021717D02*
X75139228Y-99889800D01*
X72873537Y-99889800D01*
X72839229Y-99855492D01*
X72810200Y-99836095D01*
X72810200Y-99679216D01*
X72885529Y-99694200D01*
X73009667Y-99694200D01*
X73131420Y-99669982D01*
X73246110Y-99622476D01*
X73349327Y-99553508D01*
X73383635Y-99519200D01*
X74619097Y-99519200D01*
X74641446Y-99521401D01*
X74663795Y-99519200D01*
X74663803Y-99519200D01*
X74730681Y-99512613D01*
X74816486Y-99486584D01*
X74895565Y-99444316D01*
X74964878Y-99387432D01*
X74979134Y-99370061D01*
X75611397Y-98737799D01*
X75817052Y-98737799D01*
X75839401Y-98740000D01*
X75861750Y-98737799D01*
X75861758Y-98737799D01*
X75928636Y-98731212D01*
X76014441Y-98705183D01*
X76093520Y-98662915D01*
X76162833Y-98606031D01*
X76177089Y-98588660D01*
X76822237Y-97943513D01*
X76839602Y-97929262D01*
X76896486Y-97859949D01*
X76938754Y-97780870D01*
X76964783Y-97695065D01*
X76971370Y-97628187D01*
X76971370Y-97628179D01*
X76973571Y-97605830D01*
X76971370Y-97583481D01*
X76971370Y-97455640D01*
X77005678Y-97421332D01*
X77007310Y-97418889D01*
X77007310Y-98021717D01*
G04 #@! TA.AperFunction,Conductor*
D21*
G36*
X77007310Y-98021717D02*
G01*
X75139228Y-99889800D01*
X72873537Y-99889800D01*
X72839229Y-99855492D01*
X72810200Y-99836095D01*
X72810200Y-99679216D01*
X72885529Y-99694200D01*
X73009667Y-99694200D01*
X73131420Y-99669982D01*
X73246110Y-99622476D01*
X73349327Y-99553508D01*
X73383635Y-99519200D01*
X74619097Y-99519200D01*
X74641446Y-99521401D01*
X74663795Y-99519200D01*
X74663803Y-99519200D01*
X74730681Y-99512613D01*
X74816486Y-99486584D01*
X74895565Y-99444316D01*
X74964878Y-99387432D01*
X74979134Y-99370061D01*
X75611397Y-98737799D01*
X75817052Y-98737799D01*
X75839401Y-98740000D01*
X75861750Y-98737799D01*
X75861758Y-98737799D01*
X75928636Y-98731212D01*
X76014441Y-98705183D01*
X76093520Y-98662915D01*
X76162833Y-98606031D01*
X76177089Y-98588660D01*
X76822237Y-97943513D01*
X76839602Y-97929262D01*
X76896486Y-97859949D01*
X76938754Y-97780870D01*
X76964783Y-97695065D01*
X76971370Y-97628187D01*
X76971370Y-97628179D01*
X76973571Y-97605830D01*
X76971370Y-97583481D01*
X76971370Y-97455640D01*
X77005678Y-97421332D01*
X77007310Y-97418889D01*
X77007310Y-98021717D01*
G37*
G04 #@! TD.AperFunction*
D20*
X74452897Y-98608800D02*
X73383635Y-98608800D01*
X73349327Y-98574492D01*
X73246110Y-98505524D01*
X73131420Y-98458018D01*
X73009667Y-98433800D01*
X72885529Y-98433800D01*
X72810200Y-98448784D01*
X72810200Y-98368216D01*
X72885529Y-98383200D01*
X73009667Y-98383200D01*
X73131420Y-98358982D01*
X73246110Y-98311476D01*
X73349327Y-98242508D01*
X73383635Y-98208200D01*
X74853496Y-98208200D01*
X74452897Y-98608800D01*
G04 #@! TA.AperFunction,Conductor*
D21*
G36*
X74452897Y-98608800D02*
G01*
X73383635Y-98608800D01*
X73349327Y-98574492D01*
X73246110Y-98505524D01*
X73131420Y-98458018D01*
X73009667Y-98433800D01*
X72885529Y-98433800D01*
X72810200Y-98448784D01*
X72810200Y-98368216D01*
X72885529Y-98383200D01*
X73009667Y-98383200D01*
X73131420Y-98358982D01*
X73246110Y-98311476D01*
X73349327Y-98242508D01*
X73383635Y-98208200D01*
X74853496Y-98208200D01*
X74452897Y-98608800D01*
G37*
G04 #@! TD.AperFunction*
D20*
X96444801Y-83243997D02*
X96444801Y-84316023D01*
X96389508Y-84233271D01*
X96301729Y-84145492D01*
X96198512Y-84076524D01*
X96083822Y-84029018D01*
X95962069Y-84004800D01*
X95837931Y-84004800D01*
X95716178Y-84029018D01*
X95601488Y-84076524D01*
X95498271Y-84145492D01*
X95410492Y-84233271D01*
X95341524Y-84336488D01*
X95294018Y-84451178D01*
X95269800Y-84572931D01*
X95269800Y-84697069D01*
X95294018Y-84818822D01*
X95319800Y-84881066D01*
X95319801Y-85621054D01*
X95316994Y-85649554D01*
X95319801Y-85678055D01*
X95324143Y-85722140D01*
X95328196Y-85763293D01*
X95361373Y-85872661D01*
X95415248Y-85973455D01*
X95469584Y-86039664D01*
X95469588Y-86039668D01*
X95487753Y-86061802D01*
X95509887Y-86079967D01*
X96432434Y-87002515D01*
X96450599Y-87024649D01*
X96472733Y-87042814D01*
X96472736Y-87042817D01*
X96508799Y-87072413D01*
X96538946Y-87097154D01*
X96639740Y-87151029D01*
X96749108Y-87184206D01*
X96834346Y-87192601D01*
X96834355Y-87192601D01*
X96862846Y-87195407D01*
X96891337Y-87192601D01*
X97508662Y-87192601D01*
X97537153Y-87195407D01*
X97565644Y-87192601D01*
X97565654Y-87192601D01*
X97650892Y-87184206D01*
X97760260Y-87151029D01*
X97861054Y-87097154D01*
X97949401Y-87024649D01*
X97967571Y-87002509D01*
X98687614Y-86282466D01*
X98722095Y-86346975D01*
X98778979Y-86416288D01*
X98796345Y-86430540D01*
X99307201Y-86941397D01*
X99307202Y-95793116D01*
X98473109Y-96627210D01*
X92513361Y-96627210D01*
X92232498Y-96346348D01*
X97267489Y-96346348D01*
X97289838Y-96348549D01*
X97312187Y-96346348D01*
X97312195Y-96346348D01*
X97379073Y-96339761D01*
X97464878Y-96313732D01*
X97543957Y-96271464D01*
X97613270Y-96214580D01*
X97627526Y-96197209D01*
X98706067Y-95118669D01*
X98723432Y-95104418D01*
X98780316Y-95035105D01*
X98822584Y-94956026D01*
X98848613Y-94870221D01*
X98855200Y-94803343D01*
X98855200Y-94803336D01*
X98857401Y-94780987D01*
X98855200Y-94758638D01*
X98855200Y-92466416D01*
X98857401Y-92444067D01*
X98855200Y-92421718D01*
X98855200Y-92421711D01*
X98848613Y-92354833D01*
X98822584Y-92269028D01*
X98780316Y-92189949D01*
X98723432Y-92120636D01*
X98706066Y-92106384D01*
X96442461Y-89842780D01*
X96442602Y-89842069D01*
X96442602Y-89717931D01*
X96418384Y-89596178D01*
X96370878Y-89481488D01*
X96301910Y-89378271D01*
X96214131Y-89290492D01*
X96110914Y-89221524D01*
X95996224Y-89174018D01*
X95874471Y-89149800D01*
X95750333Y-89149800D01*
X95628580Y-89174018D01*
X95513890Y-89221524D01*
X95410673Y-89290492D01*
X95322894Y-89378271D01*
X95253926Y-89481488D01*
X95206420Y-89596178D01*
X95182202Y-89717931D01*
X95182202Y-89811817D01*
X94330200Y-88986656D01*
X94330200Y-88947931D01*
X94305982Y-88826178D01*
X94258476Y-88711488D01*
X94189508Y-88608271D01*
X94101729Y-88520492D01*
X93998512Y-88451524D01*
X93883822Y-88404018D01*
X93762069Y-88379800D01*
X93637931Y-88379800D01*
X93516178Y-88404018D01*
X93401488Y-88451524D01*
X93298271Y-88520492D01*
X93210492Y-88608271D01*
X93141524Y-88711488D01*
X93094018Y-88826178D01*
X93069800Y-88947931D01*
X93069800Y-89072069D01*
X93094018Y-89193822D01*
X93141524Y-89308512D01*
X93210492Y-89411729D01*
X93298271Y-89499508D01*
X93401488Y-89568476D01*
X93516178Y-89615982D01*
X93637931Y-89640200D01*
X93696396Y-89640200D01*
X94918245Y-90823559D01*
X94920234Y-90825842D01*
X94926977Y-90832200D01*
X91832155Y-90832200D01*
X91797847Y-90797892D01*
X91694630Y-90728924D01*
X91579940Y-90681418D01*
X91458187Y-90657200D01*
X91334049Y-90657200D01*
X91302503Y-90663475D01*
X91551512Y-90414466D01*
X91568878Y-90400214D01*
X91606149Y-90354800D01*
X91625762Y-90330901D01*
X91668030Y-90251822D01*
X91694059Y-90166017D01*
X91702848Y-90076782D01*
X91700646Y-90054425D01*
X91700646Y-88932346D01*
X91702847Y-88909999D01*
X91700646Y-88887652D01*
X91700646Y-88887643D01*
X91694059Y-88820765D01*
X91680465Y-88775951D01*
X91698512Y-88768476D01*
X91801729Y-88699508D01*
X91889508Y-88611729D01*
X91958476Y-88508512D01*
X92005982Y-88393822D01*
X92030200Y-88272069D01*
X92030200Y-88225185D01*
X92080315Y-88164120D01*
X92122583Y-88085041D01*
X92148612Y-87999236D01*
X92155199Y-87932358D01*
X92155199Y-87932357D01*
X92157401Y-87910001D01*
X92155199Y-87887644D01*
X92155199Y-85053104D01*
X92706066Y-84502238D01*
X92723432Y-84487986D01*
X92780316Y-84418673D01*
X92808630Y-84365700D01*
X92836569Y-84365700D01*
X92958322Y-84341482D01*
X93073012Y-84293976D01*
X93176229Y-84225008D01*
X93264008Y-84137229D01*
X93332976Y-84034012D01*
X93380482Y-83919322D01*
X93404700Y-83797569D01*
X93404700Y-83673431D01*
X93380482Y-83551678D01*
X93345660Y-83467610D01*
X94789597Y-83467610D01*
X94838048Y-83516061D01*
X94852304Y-83533432D01*
X94921617Y-83590316D01*
X95000696Y-83632584D01*
X95086501Y-83658613D01*
X95153379Y-83665200D01*
X95153388Y-83665200D01*
X95165118Y-83666355D01*
X95198271Y-83699508D01*
X95301488Y-83768476D01*
X95416178Y-83815982D01*
X95537931Y-83840200D01*
X95662069Y-83840200D01*
X95783822Y-83815982D01*
X95898512Y-83768476D01*
X96001729Y-83699508D01*
X96089508Y-83611729D01*
X96158476Y-83508512D01*
X96205982Y-83393822D01*
X96230200Y-83272069D01*
X96230200Y-83147931D01*
X96205982Y-83026178D01*
X96191133Y-82990328D01*
X96444801Y-83243997D01*
G04 #@! TA.AperFunction,Conductor*
D21*
G36*
X96444801Y-83243997D02*
G01*
X96444801Y-84316023D01*
X96389508Y-84233271D01*
X96301729Y-84145492D01*
X96198512Y-84076524D01*
X96083822Y-84029018D01*
X95962069Y-84004800D01*
X95837931Y-84004800D01*
X95716178Y-84029018D01*
X95601488Y-84076524D01*
X95498271Y-84145492D01*
X95410492Y-84233271D01*
X95341524Y-84336488D01*
X95294018Y-84451178D01*
X95269800Y-84572931D01*
X95269800Y-84697069D01*
X95294018Y-84818822D01*
X95319800Y-84881066D01*
X95319801Y-85621054D01*
X95316994Y-85649554D01*
X95319801Y-85678055D01*
X95324143Y-85722140D01*
X95328196Y-85763293D01*
X95361373Y-85872661D01*
X95415248Y-85973455D01*
X95469584Y-86039664D01*
X95469588Y-86039668D01*
X95487753Y-86061802D01*
X95509887Y-86079967D01*
X96432434Y-87002515D01*
X96450599Y-87024649D01*
X96472733Y-87042814D01*
X96472736Y-87042817D01*
X96508799Y-87072413D01*
X96538946Y-87097154D01*
X96639740Y-87151029D01*
X96749108Y-87184206D01*
X96834346Y-87192601D01*
X96834355Y-87192601D01*
X96862846Y-87195407D01*
X96891337Y-87192601D01*
X97508662Y-87192601D01*
X97537153Y-87195407D01*
X97565644Y-87192601D01*
X97565654Y-87192601D01*
X97650892Y-87184206D01*
X97760260Y-87151029D01*
X97861054Y-87097154D01*
X97949401Y-87024649D01*
X97967571Y-87002509D01*
X98687614Y-86282466D01*
X98722095Y-86346975D01*
X98778979Y-86416288D01*
X98796345Y-86430540D01*
X99307201Y-86941397D01*
X99307202Y-95793116D01*
X98473109Y-96627210D01*
X92513361Y-96627210D01*
X92232498Y-96346348D01*
X97267489Y-96346348D01*
X97289838Y-96348549D01*
X97312187Y-96346348D01*
X97312195Y-96346348D01*
X97379073Y-96339761D01*
X97464878Y-96313732D01*
X97543957Y-96271464D01*
X97613270Y-96214580D01*
X97627526Y-96197209D01*
X98706067Y-95118669D01*
X98723432Y-95104418D01*
X98780316Y-95035105D01*
X98822584Y-94956026D01*
X98848613Y-94870221D01*
X98855200Y-94803343D01*
X98855200Y-94803336D01*
X98857401Y-94780987D01*
X98855200Y-94758638D01*
X98855200Y-92466416D01*
X98857401Y-92444067D01*
X98855200Y-92421718D01*
X98855200Y-92421711D01*
X98848613Y-92354833D01*
X98822584Y-92269028D01*
X98780316Y-92189949D01*
X98723432Y-92120636D01*
X98706066Y-92106384D01*
X96442461Y-89842780D01*
X96442602Y-89842069D01*
X96442602Y-89717931D01*
X96418384Y-89596178D01*
X96370878Y-89481488D01*
X96301910Y-89378271D01*
X96214131Y-89290492D01*
X96110914Y-89221524D01*
X95996224Y-89174018D01*
X95874471Y-89149800D01*
X95750333Y-89149800D01*
X95628580Y-89174018D01*
X95513890Y-89221524D01*
X95410673Y-89290492D01*
X95322894Y-89378271D01*
X95253926Y-89481488D01*
X95206420Y-89596178D01*
X95182202Y-89717931D01*
X95182202Y-89811817D01*
X94330200Y-88986656D01*
X94330200Y-88947931D01*
X94305982Y-88826178D01*
X94258476Y-88711488D01*
X94189508Y-88608271D01*
X94101729Y-88520492D01*
X93998512Y-88451524D01*
X93883822Y-88404018D01*
X93762069Y-88379800D01*
X93637931Y-88379800D01*
X93516178Y-88404018D01*
X93401488Y-88451524D01*
X93298271Y-88520492D01*
X93210492Y-88608271D01*
X93141524Y-88711488D01*
X93094018Y-88826178D01*
X93069800Y-88947931D01*
X93069800Y-89072069D01*
X93094018Y-89193822D01*
X93141524Y-89308512D01*
X93210492Y-89411729D01*
X93298271Y-89499508D01*
X93401488Y-89568476D01*
X93516178Y-89615982D01*
X93637931Y-89640200D01*
X93696396Y-89640200D01*
X94918245Y-90823559D01*
X94920234Y-90825842D01*
X94926977Y-90832200D01*
X91832155Y-90832200D01*
X91797847Y-90797892D01*
X91694630Y-90728924D01*
X91579940Y-90681418D01*
X91458187Y-90657200D01*
X91334049Y-90657200D01*
X91302503Y-90663475D01*
X91551512Y-90414466D01*
X91568878Y-90400214D01*
X91606149Y-90354800D01*
X91625762Y-90330901D01*
X91668030Y-90251822D01*
X91694059Y-90166017D01*
X91702848Y-90076782D01*
X91700646Y-90054425D01*
X91700646Y-88932346D01*
X91702847Y-88909999D01*
X91700646Y-88887652D01*
X91700646Y-88887643D01*
X91694059Y-88820765D01*
X91680465Y-88775951D01*
X91698512Y-88768476D01*
X91801729Y-88699508D01*
X91889508Y-88611729D01*
X91958476Y-88508512D01*
X92005982Y-88393822D01*
X92030200Y-88272069D01*
X92030200Y-88225185D01*
X92080315Y-88164120D01*
X92122583Y-88085041D01*
X92148612Y-87999236D01*
X92155199Y-87932358D01*
X92155199Y-87932357D01*
X92157401Y-87910001D01*
X92155199Y-87887644D01*
X92155199Y-85053104D01*
X92706066Y-84502238D01*
X92723432Y-84487986D01*
X92780316Y-84418673D01*
X92808630Y-84365700D01*
X92836569Y-84365700D01*
X92958322Y-84341482D01*
X93073012Y-84293976D01*
X93176229Y-84225008D01*
X93264008Y-84137229D01*
X93332976Y-84034012D01*
X93380482Y-83919322D01*
X93404700Y-83797569D01*
X93404700Y-83673431D01*
X93380482Y-83551678D01*
X93345660Y-83467610D01*
X94789597Y-83467610D01*
X94838048Y-83516061D01*
X94852304Y-83533432D01*
X94921617Y-83590316D01*
X95000696Y-83632584D01*
X95086501Y-83658613D01*
X95153379Y-83665200D01*
X95153388Y-83665200D01*
X95165118Y-83666355D01*
X95198271Y-83699508D01*
X95301488Y-83768476D01*
X95416178Y-83815982D01*
X95537931Y-83840200D01*
X95662069Y-83840200D01*
X95783822Y-83815982D01*
X95898512Y-83768476D01*
X96001729Y-83699508D01*
X96089508Y-83611729D01*
X96158476Y-83508512D01*
X96205982Y-83393822D01*
X96230200Y-83272069D01*
X96230200Y-83147931D01*
X96205982Y-83026178D01*
X96191133Y-82990328D01*
X96444801Y-83243997D01*
G37*
G04 #@! TD.AperFunction*
D20*
X78283553Y-83413656D02*
X78297805Y-83431022D01*
X78315170Y-83445273D01*
X78315171Y-83445274D01*
X78367118Y-83487906D01*
X78446197Y-83530174D01*
X78532002Y-83556203D01*
X78621237Y-83564992D01*
X78643594Y-83562790D01*
X78805142Y-83562790D01*
X78786440Y-83566510D01*
X78671750Y-83614016D01*
X78568533Y-83682984D01*
X78480754Y-83770763D01*
X78411786Y-83873980D01*
X78364280Y-83988670D01*
X78340062Y-84110423D01*
X78340062Y-84234561D01*
X78364280Y-84356314D01*
X78411786Y-84471004D01*
X78480754Y-84574221D01*
X78568533Y-84662000D01*
X78671750Y-84730968D01*
X78786440Y-84778474D01*
X78908193Y-84802692D01*
X79032331Y-84802692D01*
X79154084Y-84778474D01*
X79268774Y-84730968D01*
X79371991Y-84662000D01*
X79459770Y-84574221D01*
X79528738Y-84471004D01*
X79576244Y-84356314D01*
X79600462Y-84234561D01*
X79600462Y-84186041D01*
X79821304Y-83965200D01*
X80801050Y-83965200D01*
X80386451Y-84379800D01*
X80337931Y-84379800D01*
X80216178Y-84404018D01*
X80101488Y-84451524D01*
X79998271Y-84520492D01*
X79910492Y-84608271D01*
X79841524Y-84711488D01*
X79794018Y-84826178D01*
X79769800Y-84947931D01*
X79769800Y-85072069D01*
X79794018Y-85193822D01*
X79841524Y-85308512D01*
X79910492Y-85411729D01*
X79998271Y-85499508D01*
X80072019Y-85548785D01*
X79965650Y-85655155D01*
X78786958Y-85655155D01*
X78731321Y-85609495D01*
X78652242Y-85567227D01*
X78566437Y-85541198D01*
X78499559Y-85534611D01*
X78499551Y-85534611D01*
X78477202Y-85532410D01*
X78454853Y-85534611D01*
X78233693Y-85534611D01*
X78247467Y-85520837D01*
X78264833Y-85506585D01*
X78321717Y-85437272D01*
X78363985Y-85358193D01*
X78390014Y-85272388D01*
X78396601Y-85205510D01*
X78396601Y-85205503D01*
X78398802Y-85183154D01*
X78396601Y-85160805D01*
X78396601Y-84651196D01*
X78398802Y-84628847D01*
X78396601Y-84606498D01*
X78396601Y-84606490D01*
X78390014Y-84539612D01*
X78363985Y-84453807D01*
X78321717Y-84374728D01*
X78264833Y-84305415D01*
X78247468Y-84291164D01*
X78171866Y-84215563D01*
X78180200Y-84130947D01*
X78180200Y-83756065D01*
X78205982Y-83693822D01*
X78230200Y-83572069D01*
X78230200Y-83447931D01*
X78208442Y-83338545D01*
X78283553Y-83413656D01*
G04 #@! TA.AperFunction,Conductor*
D21*
G36*
X78283553Y-83413656D02*
G01*
X78297805Y-83431022D01*
X78315170Y-83445273D01*
X78315171Y-83445274D01*
X78367118Y-83487906D01*
X78446197Y-83530174D01*
X78532002Y-83556203D01*
X78621237Y-83564992D01*
X78643594Y-83562790D01*
X78805142Y-83562790D01*
X78786440Y-83566510D01*
X78671750Y-83614016D01*
X78568533Y-83682984D01*
X78480754Y-83770763D01*
X78411786Y-83873980D01*
X78364280Y-83988670D01*
X78340062Y-84110423D01*
X78340062Y-84234561D01*
X78364280Y-84356314D01*
X78411786Y-84471004D01*
X78480754Y-84574221D01*
X78568533Y-84662000D01*
X78671750Y-84730968D01*
X78786440Y-84778474D01*
X78908193Y-84802692D01*
X79032331Y-84802692D01*
X79154084Y-84778474D01*
X79268774Y-84730968D01*
X79371991Y-84662000D01*
X79459770Y-84574221D01*
X79528738Y-84471004D01*
X79576244Y-84356314D01*
X79600462Y-84234561D01*
X79600462Y-84186041D01*
X79821304Y-83965200D01*
X80801050Y-83965200D01*
X80386451Y-84379800D01*
X80337931Y-84379800D01*
X80216178Y-84404018D01*
X80101488Y-84451524D01*
X79998271Y-84520492D01*
X79910492Y-84608271D01*
X79841524Y-84711488D01*
X79794018Y-84826178D01*
X79769800Y-84947931D01*
X79769800Y-85072069D01*
X79794018Y-85193822D01*
X79841524Y-85308512D01*
X79910492Y-85411729D01*
X79998271Y-85499508D01*
X80072019Y-85548785D01*
X79965650Y-85655155D01*
X78786958Y-85655155D01*
X78731321Y-85609495D01*
X78652242Y-85567227D01*
X78566437Y-85541198D01*
X78499559Y-85534611D01*
X78499551Y-85534611D01*
X78477202Y-85532410D01*
X78454853Y-85534611D01*
X78233693Y-85534611D01*
X78247467Y-85520837D01*
X78264833Y-85506585D01*
X78321717Y-85437272D01*
X78363985Y-85358193D01*
X78390014Y-85272388D01*
X78396601Y-85205510D01*
X78396601Y-85205503D01*
X78398802Y-85183154D01*
X78396601Y-85160805D01*
X78396601Y-84651196D01*
X78398802Y-84628847D01*
X78396601Y-84606498D01*
X78396601Y-84606490D01*
X78390014Y-84539612D01*
X78363985Y-84453807D01*
X78321717Y-84374728D01*
X78264833Y-84305415D01*
X78247468Y-84291164D01*
X78171866Y-84215563D01*
X78180200Y-84130947D01*
X78180200Y-83756065D01*
X78205982Y-83693822D01*
X78230200Y-83572069D01*
X78230200Y-83447931D01*
X78208442Y-83338545D01*
X78283553Y-83413656D01*
G37*
G04 #@! TD.AperFunction*
D20*
X97116178Y-81661181D02*
X97237931Y-81685399D01*
X97362069Y-81685399D01*
X97422201Y-81673438D01*
X97422202Y-83219596D01*
X97420000Y-83241955D01*
X97428788Y-83331189D01*
X97449000Y-83397817D01*
X97454818Y-83416995D01*
X97497086Y-83496074D01*
X97553970Y-83565387D01*
X97571336Y-83579639D01*
X98131707Y-84140011D01*
X98080730Y-84174073D01*
X97992951Y-84261852D01*
X97923983Y-84365069D01*
X97876477Y-84479759D01*
X97852259Y-84601512D01*
X97852259Y-84725650D01*
X97876477Y-84847403D01*
X97902260Y-84909648D01*
X97902259Y-85426769D01*
X97742079Y-85586949D01*
X97689508Y-85508271D01*
X97601729Y-85420492D01*
X97498512Y-85351524D01*
X97383822Y-85304018D01*
X97355201Y-85298325D01*
X97355201Y-83077795D01*
X97357402Y-83055446D01*
X97355201Y-83033097D01*
X97355201Y-83033090D01*
X97348621Y-82966279D01*
X97348614Y-82966211D01*
X97336717Y-82926993D01*
X97322585Y-82880407D01*
X97280317Y-82801328D01*
X97223433Y-82732015D01*
X97206068Y-82717764D01*
X96251095Y-81762792D01*
X96675243Y-81762792D01*
X96697592Y-81764993D01*
X96719941Y-81762792D01*
X96719949Y-81762792D01*
X96786827Y-81756205D01*
X96872632Y-81730176D01*
X96951711Y-81687908D01*
X97021024Y-81631024D01*
X97026694Y-81624116D01*
X97116178Y-81661181D01*
G04 #@! TA.AperFunction,Conductor*
D21*
G36*
X97116178Y-81661181D02*
G01*
X97237931Y-81685399D01*
X97362069Y-81685399D01*
X97422201Y-81673438D01*
X97422202Y-83219596D01*
X97420000Y-83241955D01*
X97428788Y-83331189D01*
X97449000Y-83397817D01*
X97454818Y-83416995D01*
X97497086Y-83496074D01*
X97553970Y-83565387D01*
X97571336Y-83579639D01*
X98131707Y-84140011D01*
X98080730Y-84174073D01*
X97992951Y-84261852D01*
X97923983Y-84365069D01*
X97876477Y-84479759D01*
X97852259Y-84601512D01*
X97852259Y-84725650D01*
X97876477Y-84847403D01*
X97902260Y-84909648D01*
X97902259Y-85426769D01*
X97742079Y-85586949D01*
X97689508Y-85508271D01*
X97601729Y-85420492D01*
X97498512Y-85351524D01*
X97383822Y-85304018D01*
X97355201Y-85298325D01*
X97355201Y-83077795D01*
X97357402Y-83055446D01*
X97355201Y-83033097D01*
X97355201Y-83033090D01*
X97348621Y-82966279D01*
X97348614Y-82966211D01*
X97336717Y-82926993D01*
X97322585Y-82880407D01*
X97280317Y-82801328D01*
X97223433Y-82732015D01*
X97206068Y-82717764D01*
X96251095Y-81762792D01*
X96675243Y-81762792D01*
X96697592Y-81764993D01*
X96719941Y-81762792D01*
X96719949Y-81762792D01*
X96786827Y-81756205D01*
X96872632Y-81730176D01*
X96951711Y-81687908D01*
X97021024Y-81631024D01*
X97026694Y-81624116D01*
X97116178Y-81661181D01*
G37*
G04 #@! TD.AperFunction*
D20*
X82762271Y-81995508D02*
X82865488Y-82064476D01*
X82980178Y-82111982D01*
X83101931Y-82136200D01*
X83172133Y-82136200D01*
X83169800Y-82147931D01*
X83169800Y-82272069D01*
X83194018Y-82393822D01*
X83241524Y-82508512D01*
X83310492Y-82611729D01*
X83398271Y-82699508D01*
X83501488Y-82768476D01*
X83616178Y-82815982D01*
X83676820Y-82828044D01*
X84031513Y-83182738D01*
X84045765Y-83200104D01*
X84063130Y-83214355D01*
X84063131Y-83214356D01*
X84069409Y-83219508D01*
X84115078Y-83256988D01*
X84194157Y-83299256D01*
X84279962Y-83325285D01*
X84339906Y-83331189D01*
X84369197Y-83334074D01*
X84391554Y-83331872D01*
X84901154Y-83331872D01*
X84923503Y-83334073D01*
X84945852Y-83331872D01*
X84945860Y-83331872D01*
X85012738Y-83325285D01*
X85098543Y-83299256D01*
X85177622Y-83256988D01*
X85246935Y-83200104D01*
X85261191Y-83182733D01*
X86278725Y-82165200D01*
X89054444Y-82165200D01*
X89035800Y-82258931D01*
X89035800Y-82383069D01*
X89045095Y-82429800D01*
X88246065Y-82429800D01*
X88183822Y-82404018D01*
X88062069Y-82379800D01*
X87937931Y-82379800D01*
X87816178Y-82404018D01*
X87701488Y-82451524D01*
X87598271Y-82520492D01*
X87510492Y-82608271D01*
X87441524Y-82711488D01*
X87394018Y-82826178D01*
X87369800Y-82947931D01*
X87369800Y-83072069D01*
X87394018Y-83193822D01*
X87441524Y-83308512D01*
X87510492Y-83411729D01*
X87598271Y-83499508D01*
X87701488Y-83568476D01*
X87816178Y-83615982D01*
X87937931Y-83640200D01*
X88062069Y-83640200D01*
X88183822Y-83615982D01*
X88246065Y-83590200D01*
X88998416Y-83590200D01*
X89027638Y-83609726D01*
X89142328Y-83657232D01*
X89264081Y-83681450D01*
X89388219Y-83681450D01*
X89509972Y-83657232D01*
X89624662Y-83609726D01*
X89727879Y-83540758D01*
X89815658Y-83452979D01*
X89884626Y-83349762D01*
X89932132Y-83235072D01*
X89956350Y-83113319D01*
X89956350Y-82989181D01*
X89936811Y-82890950D01*
X89964512Y-82879476D01*
X90067729Y-82810508D01*
X90102037Y-82776200D01*
X90590513Y-82776200D01*
X90594018Y-82793822D01*
X90641524Y-82908512D01*
X90710492Y-83011729D01*
X90798271Y-83099508D01*
X90838701Y-83126523D01*
X90296575Y-83668649D01*
X90222008Y-83668649D01*
X90199661Y-83666448D01*
X90177314Y-83668649D01*
X90177305Y-83668649D01*
X90110427Y-83675236D01*
X90024622Y-83701265D01*
X89945543Y-83743533D01*
X89876230Y-83800417D01*
X89861978Y-83817783D01*
X89037561Y-84642201D01*
X84453897Y-84642201D01*
X83615634Y-83803939D01*
X83601378Y-83786568D01*
X83532065Y-83729684D01*
X83452986Y-83687416D01*
X83367181Y-83661387D01*
X83300303Y-83654800D01*
X83300295Y-83654800D01*
X83277946Y-83652599D01*
X83255597Y-83654800D01*
X82313744Y-83654800D01*
X82330200Y-83572069D01*
X82330200Y-83447931D01*
X82305982Y-83326178D01*
X82258476Y-83211488D01*
X82189508Y-83108271D01*
X82101729Y-83020492D01*
X81998512Y-82951524D01*
X81883822Y-82904018D01*
X81762069Y-82879800D01*
X81637931Y-82879800D01*
X81634269Y-82880528D01*
X82553598Y-81961200D01*
X82727963Y-81961200D01*
X82762271Y-81995508D01*
G04 #@! TA.AperFunction,Conductor*
D21*
G36*
X82762271Y-81995508D02*
G01*
X82865488Y-82064476D01*
X82980178Y-82111982D01*
X83101931Y-82136200D01*
X83172133Y-82136200D01*
X83169800Y-82147931D01*
X83169800Y-82272069D01*
X83194018Y-82393822D01*
X83241524Y-82508512D01*
X83310492Y-82611729D01*
X83398271Y-82699508D01*
X83501488Y-82768476D01*
X83616178Y-82815982D01*
X83676820Y-82828044D01*
X84031513Y-83182738D01*
X84045765Y-83200104D01*
X84063130Y-83214355D01*
X84063131Y-83214356D01*
X84069409Y-83219508D01*
X84115078Y-83256988D01*
X84194157Y-83299256D01*
X84279962Y-83325285D01*
X84339906Y-83331189D01*
X84369197Y-83334074D01*
X84391554Y-83331872D01*
X84901154Y-83331872D01*
X84923503Y-83334073D01*
X84945852Y-83331872D01*
X84945860Y-83331872D01*
X85012738Y-83325285D01*
X85098543Y-83299256D01*
X85177622Y-83256988D01*
X85246935Y-83200104D01*
X85261191Y-83182733D01*
X86278725Y-82165200D01*
X89054444Y-82165200D01*
X89035800Y-82258931D01*
X89035800Y-82383069D01*
X89045095Y-82429800D01*
X88246065Y-82429800D01*
X88183822Y-82404018D01*
X88062069Y-82379800D01*
X87937931Y-82379800D01*
X87816178Y-82404018D01*
X87701488Y-82451524D01*
X87598271Y-82520492D01*
X87510492Y-82608271D01*
X87441524Y-82711488D01*
X87394018Y-82826178D01*
X87369800Y-82947931D01*
X87369800Y-83072069D01*
X87394018Y-83193822D01*
X87441524Y-83308512D01*
X87510492Y-83411729D01*
X87598271Y-83499508D01*
X87701488Y-83568476D01*
X87816178Y-83615982D01*
X87937931Y-83640200D01*
X88062069Y-83640200D01*
X88183822Y-83615982D01*
X88246065Y-83590200D01*
X88998416Y-83590200D01*
X89027638Y-83609726D01*
X89142328Y-83657232D01*
X89264081Y-83681450D01*
X89388219Y-83681450D01*
X89509972Y-83657232D01*
X89624662Y-83609726D01*
X89727879Y-83540758D01*
X89815658Y-83452979D01*
X89884626Y-83349762D01*
X89932132Y-83235072D01*
X89956350Y-83113319D01*
X89956350Y-82989181D01*
X89936811Y-82890950D01*
X89964512Y-82879476D01*
X90067729Y-82810508D01*
X90102037Y-82776200D01*
X90590513Y-82776200D01*
X90594018Y-82793822D01*
X90641524Y-82908512D01*
X90710492Y-83011729D01*
X90798271Y-83099508D01*
X90838701Y-83126523D01*
X90296575Y-83668649D01*
X90222008Y-83668649D01*
X90199661Y-83666448D01*
X90177314Y-83668649D01*
X90177305Y-83668649D01*
X90110427Y-83675236D01*
X90024622Y-83701265D01*
X89945543Y-83743533D01*
X89876230Y-83800417D01*
X89861978Y-83817783D01*
X89037561Y-84642201D01*
X84453897Y-84642201D01*
X83615634Y-83803939D01*
X83601378Y-83786568D01*
X83532065Y-83729684D01*
X83452986Y-83687416D01*
X83367181Y-83661387D01*
X83300303Y-83654800D01*
X83300295Y-83654800D01*
X83277946Y-83652599D01*
X83255597Y-83654800D01*
X82313744Y-83654800D01*
X82330200Y-83572069D01*
X82330200Y-83447931D01*
X82305982Y-83326178D01*
X82258476Y-83211488D01*
X82189508Y-83108271D01*
X82101729Y-83020492D01*
X81998512Y-82951524D01*
X81883822Y-82904018D01*
X81762069Y-82879800D01*
X81637931Y-82879800D01*
X81634269Y-82880528D01*
X82553598Y-81961200D01*
X82727963Y-81961200D01*
X82762271Y-81995508D01*
G37*
G04 #@! TD.AperFunction*
D20*
X77771456Y-82901558D02*
X77662069Y-82879800D01*
X77537931Y-82879800D01*
X77416178Y-82904018D01*
X77301488Y-82951524D01*
X77198271Y-83020492D01*
X77110492Y-83108271D01*
X77041524Y-83211488D01*
X76994018Y-83326178D01*
X76976956Y-83411957D01*
X76922678Y-83375690D01*
X76807988Y-83328184D01*
X76686235Y-83303966D01*
X76562097Y-83303966D01*
X76440344Y-83328184D01*
X76325654Y-83375690D01*
X76222437Y-83444658D01*
X76134658Y-83532437D01*
X76065690Y-83635654D01*
X76022108Y-83740871D01*
X75967611Y-83686374D01*
X75864394Y-83617406D01*
X75749704Y-83569900D01*
X75627951Y-83545682D01*
X75579432Y-83545682D01*
X75267799Y-83234050D01*
X75267799Y-82831396D01*
X75301396Y-82797799D01*
X77667697Y-82797799D01*
X77771456Y-82901558D01*
G04 #@! TA.AperFunction,Conductor*
D21*
G36*
X77771456Y-82901558D02*
G01*
X77662069Y-82879800D01*
X77537931Y-82879800D01*
X77416178Y-82904018D01*
X77301488Y-82951524D01*
X77198271Y-83020492D01*
X77110492Y-83108271D01*
X77041524Y-83211488D01*
X76994018Y-83326178D01*
X76976956Y-83411957D01*
X76922678Y-83375690D01*
X76807988Y-83328184D01*
X76686235Y-83303966D01*
X76562097Y-83303966D01*
X76440344Y-83328184D01*
X76325654Y-83375690D01*
X76222437Y-83444658D01*
X76134658Y-83532437D01*
X76065690Y-83635654D01*
X76022108Y-83740871D01*
X75967611Y-83686374D01*
X75864394Y-83617406D01*
X75749704Y-83569900D01*
X75627951Y-83545682D01*
X75579432Y-83545682D01*
X75267799Y-83234050D01*
X75267799Y-82831396D01*
X75301396Y-82797799D01*
X77667697Y-82797799D01*
X77771456Y-82901558D01*
G37*
G04 #@! TD.AperFunction*
D20*
X78398776Y-80948580D02*
X78520529Y-80972798D01*
X78620721Y-80972798D01*
X79025313Y-81377391D01*
X79051095Y-81439634D01*
X79120063Y-81542851D01*
X79207842Y-81630630D01*
X79311059Y-81699598D01*
X79425749Y-81747104D01*
X79547502Y-81771322D01*
X79671640Y-81771322D01*
X79793393Y-81747104D01*
X79908083Y-81699598D01*
X80011300Y-81630630D01*
X80099079Y-81542851D01*
X80100154Y-81541241D01*
X80121926Y-81650695D01*
X80169432Y-81765385D01*
X80238400Y-81868602D01*
X80326179Y-81956381D01*
X80429396Y-82025349D01*
X80544086Y-82072855D01*
X80578505Y-82079701D01*
X80426006Y-82232201D01*
X80265222Y-82232201D01*
X80252623Y-82201784D01*
X80183655Y-82098567D01*
X80095876Y-82010788D01*
X79992659Y-81941820D01*
X79877969Y-81894314D01*
X79756216Y-81870096D01*
X79632078Y-81870096D01*
X79510325Y-81894314D01*
X79395635Y-81941820D01*
X79292418Y-82010788D01*
X79204639Y-82098567D01*
X79135671Y-82201784D01*
X79088165Y-82316474D01*
X79063947Y-82438227D01*
X79063947Y-82562365D01*
X79081854Y-82652390D01*
X78809787Y-82652390D01*
X78193934Y-82036538D01*
X78179678Y-82019167D01*
X78110365Y-81962283D01*
X78031286Y-81920015D01*
X77945481Y-81893986D01*
X77878603Y-81887399D01*
X77878595Y-81887399D01*
X77856246Y-81885198D01*
X77833897Y-81887399D01*
X75135204Y-81887399D01*
X75112847Y-81885197D01*
X75090490Y-81887399D01*
X74728187Y-81887399D01*
X74705879Y-81845663D01*
X74664616Y-81795384D01*
X74614337Y-81754121D01*
X74556973Y-81723460D01*
X74515912Y-81711004D01*
X74606512Y-81673476D01*
X74709729Y-81604508D01*
X74797508Y-81516729D01*
X74866476Y-81413512D01*
X74892258Y-81351268D01*
X75320729Y-80922798D01*
X78336533Y-80922798D01*
X78398776Y-80948580D01*
G04 #@! TA.AperFunction,Conductor*
D21*
G36*
X78398776Y-80948580D02*
G01*
X78520529Y-80972798D01*
X78620721Y-80972798D01*
X79025313Y-81377391D01*
X79051095Y-81439634D01*
X79120063Y-81542851D01*
X79207842Y-81630630D01*
X79311059Y-81699598D01*
X79425749Y-81747104D01*
X79547502Y-81771322D01*
X79671640Y-81771322D01*
X79793393Y-81747104D01*
X79908083Y-81699598D01*
X80011300Y-81630630D01*
X80099079Y-81542851D01*
X80100154Y-81541241D01*
X80121926Y-81650695D01*
X80169432Y-81765385D01*
X80238400Y-81868602D01*
X80326179Y-81956381D01*
X80429396Y-82025349D01*
X80544086Y-82072855D01*
X80578505Y-82079701D01*
X80426006Y-82232201D01*
X80265222Y-82232201D01*
X80252623Y-82201784D01*
X80183655Y-82098567D01*
X80095876Y-82010788D01*
X79992659Y-81941820D01*
X79877969Y-81894314D01*
X79756216Y-81870096D01*
X79632078Y-81870096D01*
X79510325Y-81894314D01*
X79395635Y-81941820D01*
X79292418Y-82010788D01*
X79204639Y-82098567D01*
X79135671Y-82201784D01*
X79088165Y-82316474D01*
X79063947Y-82438227D01*
X79063947Y-82562365D01*
X79081854Y-82652390D01*
X78809787Y-82652390D01*
X78193934Y-82036538D01*
X78179678Y-82019167D01*
X78110365Y-81962283D01*
X78031286Y-81920015D01*
X77945481Y-81893986D01*
X77878603Y-81887399D01*
X77878595Y-81887399D01*
X77856246Y-81885198D01*
X77833897Y-81887399D01*
X75135204Y-81887399D01*
X75112847Y-81885197D01*
X75090490Y-81887399D01*
X74728187Y-81887399D01*
X74705879Y-81845663D01*
X74664616Y-81795384D01*
X74614337Y-81754121D01*
X74556973Y-81723460D01*
X74515912Y-81711004D01*
X74606512Y-81673476D01*
X74709729Y-81604508D01*
X74797508Y-81516729D01*
X74866476Y-81413512D01*
X74892258Y-81351268D01*
X75320729Y-80922798D01*
X78336533Y-80922798D01*
X78398776Y-80948580D01*
G37*
G04 #@! TD.AperFunction*
D20*
X101322905Y-80275879D02*
X101402817Y-80395475D01*
X101504525Y-80497183D01*
X101624121Y-80577095D01*
X101757009Y-80632139D01*
X101898082Y-80660200D01*
X102041918Y-80660200D01*
X102094801Y-80649681D01*
X102094801Y-81722801D01*
X102034730Y-81704578D01*
X101970000Y-81698203D01*
X101310799Y-81698203D01*
X101310799Y-80246653D01*
X101322905Y-80275879D01*
G04 #@! TA.AperFunction,Conductor*
D21*
G36*
X101322905Y-80275879D02*
G01*
X101402817Y-80395475D01*
X101504525Y-80497183D01*
X101624121Y-80577095D01*
X101757009Y-80632139D01*
X101898082Y-80660200D01*
X102041918Y-80660200D01*
X102094801Y-80649681D01*
X102094801Y-81722801D01*
X102034730Y-81704578D01*
X101970000Y-81698203D01*
X101310799Y-81698203D01*
X101310799Y-80246653D01*
X101322905Y-80275879D01*
G37*
G04 #@! TD.AperFunction*
D20*
X78956702Y-79147967D02*
X78346330Y-79758340D01*
X78336533Y-79762398D01*
X75108892Y-79762398D01*
X75080401Y-79759592D01*
X75051910Y-79762398D01*
X75051901Y-79762398D01*
X75041374Y-79763435D01*
X75032139Y-79717009D01*
X74977095Y-79584121D01*
X74897183Y-79464525D01*
X74795475Y-79362817D01*
X74675879Y-79282905D01*
X74542991Y-79227861D01*
X74401918Y-79199800D01*
X74258082Y-79199800D01*
X74117009Y-79227861D01*
X74107799Y-79231676D01*
X74107799Y-79146106D01*
X78956702Y-79147967D01*
G04 #@! TA.AperFunction,Conductor*
D21*
G36*
X78956702Y-79147967D02*
G01*
X78346330Y-79758340D01*
X78336533Y-79762398D01*
X75108892Y-79762398D01*
X75080401Y-79759592D01*
X75051910Y-79762398D01*
X75051901Y-79762398D01*
X75041374Y-79763435D01*
X75032139Y-79717009D01*
X74977095Y-79584121D01*
X74897183Y-79464525D01*
X74795475Y-79362817D01*
X74675879Y-79282905D01*
X74542991Y-79227861D01*
X74401918Y-79199800D01*
X74258082Y-79199800D01*
X74117009Y-79227861D01*
X74107799Y-79231676D01*
X74107799Y-79146106D01*
X78956702Y-79147967D01*
G37*
G04 #@! TD.AperFunction*
D20*
X102094801Y-79156845D02*
X102094801Y-79210319D01*
X102041918Y-79199800D01*
X101898082Y-79199800D01*
X101757009Y-79227861D01*
X101624121Y-79282905D01*
X101504525Y-79362817D01*
X101402817Y-79464525D01*
X101322905Y-79584121D01*
X101310799Y-79613347D01*
X101310799Y-79156544D01*
X102094801Y-79156845D01*
G04 #@! TA.AperFunction,Conductor*
D21*
G36*
X102094801Y-79156845D02*
G01*
X102094801Y-79210319D01*
X102041918Y-79199800D01*
X101898082Y-79199800D01*
X101757009Y-79227861D01*
X101624121Y-79282905D01*
X101504525Y-79362817D01*
X101402817Y-79464525D01*
X101322905Y-79584121D01*
X101310799Y-79613347D01*
X101310799Y-79156544D01*
X102094801Y-79156845D01*
G37*
G04 #@! TD.AperFunction*
M02*
