G04 #@! TF.GenerationSoftware,KiCad,Pcbnew,(5.1.9)-1*
G04 #@! TF.CreationDate,2021-05-12T11:04:24-07:00*
G04 #@! TF.ProjectId,Watchy,57617463-6879-42e6-9b69-6361645f7063,rev?*
G04 #@! TF.SameCoordinates,Original*
G04 #@! TF.FileFunction,Paste,Top*
G04 #@! TF.FilePolarity,Positive*
%FSLAX46Y46*%
G04 Gerber Fmt 4.6, Leading zero omitted, Abs format (unit mm)*
G04 Created by KiCad (PCBNEW (5.1.9)-1) date 2021-05-12 11:04:24*
%MOMM*%
%LPD*%
G01*
G04 APERTURE LIST*
%ADD10R,1.100000X1.050000*%
%ADD11R,2.250000X1.100000*%
%ADD12R,1.800000X0.800000*%
%ADD13O,0.950000X1.250000*%
%ADD14O,1.550000X1.000000*%
%ADD15R,1.350000X0.400000*%
%ADD16R,0.889000X1.600200*%
%ADD17R,0.762000X0.254000*%
%ADD18R,0.300000X0.650000*%
%ADD19R,0.550000X0.800000*%
%ADD20R,0.300000X1.000000*%
%ADD21R,0.300000X0.700000*%
%ADD22R,0.800000X0.500000*%
%ADD23R,0.350000X0.500000*%
%ADD24R,0.304800X0.279400*%
%ADD25R,0.279400X0.304800*%
%ADD26R,0.350000X0.375000*%
%ADD27R,0.375000X0.350000*%
%ADD28R,0.500000X1.600000*%
%ADD29R,2.100000X2.900000*%
%ADD30R,0.780000X0.780000*%
%ADD31R,0.300000X0.850000*%
%ADD32R,0.850000X0.300000*%
%ADD33R,1.000000X1.250000*%
%ADD34R,1.200000X0.900000*%
%ADD35R,0.800000X0.800000*%
%ADD36R,1.100000X1.100000*%
%ADD37R,0.800000X0.900000*%
%ADD38R,0.900000X0.800000*%
%ADD39R,0.772500X0.772500*%
%ADD40R,0.700000X0.250000*%
%ADD41R,0.250000X0.700000*%
%ADD42R,0.650000X1.060000*%
%ADD43R,0.650000X0.400000*%
%ADD44O,1.350000X1.500000*%
%ADD45R,1.350000X1.500000*%
%ADD46R,0.500000X0.500000*%
%ADD47R,0.900000X0.500000*%
G04 APERTURE END LIST*
G36*
G01*
X78068000Y-95244000D02*
X77568000Y-95244000D01*
G75*
G02*
X77343000Y-95019000I0J225000D01*
G01*
X77343000Y-94569000D01*
G75*
G02*
X77568000Y-94344000I225000J0D01*
G01*
X78068000Y-94344000D01*
G75*
G02*
X78293000Y-94569000I0J-225000D01*
G01*
X78293000Y-95019000D01*
G75*
G02*
X78068000Y-95244000I-225000J0D01*
G01*
G37*
G36*
G01*
X78068000Y-96794000D02*
X77568000Y-96794000D01*
G75*
G02*
X77343000Y-96569000I0J225000D01*
G01*
X77343000Y-96119000D01*
G75*
G02*
X77568000Y-95894000I225000J0D01*
G01*
X78068000Y-95894000D01*
G75*
G02*
X78293000Y-96119000I0J-225000D01*
G01*
X78293000Y-96569000D01*
G75*
G02*
X78068000Y-96794000I-225000J0D01*
G01*
G37*
G36*
G01*
X82260000Y-79631000D02*
X82260000Y-79131000D01*
G75*
G02*
X82485000Y-78906000I225000J0D01*
G01*
X82935000Y-78906000D01*
G75*
G02*
X83160000Y-79131000I0J-225000D01*
G01*
X83160000Y-79631000D01*
G75*
G02*
X82935000Y-79856000I-225000J0D01*
G01*
X82485000Y-79856000D01*
G75*
G02*
X82260000Y-79631000I0J225000D01*
G01*
G37*
G36*
G01*
X80710000Y-79631000D02*
X80710000Y-79131000D01*
G75*
G02*
X80935000Y-78906000I225000J0D01*
G01*
X81385000Y-78906000D01*
G75*
G02*
X81610000Y-79131000I0J-225000D01*
G01*
X81610000Y-79631000D01*
G75*
G02*
X81385000Y-79856000I-225000J0D01*
G01*
X80935000Y-79856000D01*
G75*
G02*
X80710000Y-79631000I0J225000D01*
G01*
G37*
G36*
G01*
X92342000Y-100360000D02*
X91392000Y-100360000D01*
G75*
G02*
X91142000Y-100110000I0J250000D01*
G01*
X91142000Y-99610000D01*
G75*
G02*
X91392000Y-99360000I250000J0D01*
G01*
X92342000Y-99360000D01*
G75*
G02*
X92592000Y-99610000I0J-250000D01*
G01*
X92592000Y-100110000D01*
G75*
G02*
X92342000Y-100360000I-250000J0D01*
G01*
G37*
G36*
G01*
X92342000Y-102260000D02*
X91392000Y-102260000D01*
G75*
G02*
X91142000Y-102010000I0J250000D01*
G01*
X91142000Y-101510000D01*
G75*
G02*
X91392000Y-101260000I250000J0D01*
G01*
X92342000Y-101260000D01*
G75*
G02*
X92592000Y-101510000I0J-250000D01*
G01*
X92592000Y-102010000D01*
G75*
G02*
X92342000Y-102260000I-250000J0D01*
G01*
G37*
G36*
G01*
X93909000Y-100704000D02*
X93409000Y-100704000D01*
G75*
G02*
X93184000Y-100479000I0J225000D01*
G01*
X93184000Y-100029000D01*
G75*
G02*
X93409000Y-99804000I225000J0D01*
G01*
X93909000Y-99804000D01*
G75*
G02*
X94134000Y-100029000I0J-225000D01*
G01*
X94134000Y-100479000D01*
G75*
G02*
X93909000Y-100704000I-225000J0D01*
G01*
G37*
G36*
G01*
X93909000Y-102254000D02*
X93409000Y-102254000D01*
G75*
G02*
X93184000Y-102029000I0J225000D01*
G01*
X93184000Y-101579000D01*
G75*
G02*
X93409000Y-101354000I225000J0D01*
G01*
X93909000Y-101354000D01*
G75*
G02*
X94134000Y-101579000I0J-225000D01*
G01*
X94134000Y-102029000D01*
G75*
G02*
X93909000Y-102254000I-225000J0D01*
G01*
G37*
D10*
X90750000Y-104900000D03*
D11*
X92300000Y-106375000D03*
X92300000Y-103425000D03*
G36*
G01*
X72050000Y-97930000D02*
X72050000Y-97680000D01*
G75*
G02*
X72175000Y-97555000I125000J0D01*
G01*
X72700000Y-97555000D01*
G75*
G02*
X72825000Y-97680000I0J-125000D01*
G01*
X72825000Y-97930000D01*
G75*
G02*
X72700000Y-98055000I-125000J0D01*
G01*
X72175000Y-98055000D01*
G75*
G02*
X72050000Y-97930000I0J125000D01*
G01*
G37*
G36*
G01*
X72050000Y-99200000D02*
X72050000Y-98950000D01*
G75*
G02*
X72175000Y-98825000I125000J0D01*
G01*
X72700000Y-98825000D01*
G75*
G02*
X72825000Y-98950000I0J-125000D01*
G01*
X72825000Y-99200000D01*
G75*
G02*
X72700000Y-99325000I-125000J0D01*
G01*
X72175000Y-99325000D01*
G75*
G02*
X72050000Y-99200000I0J125000D01*
G01*
G37*
G36*
G01*
X72050000Y-100470000D02*
X72050000Y-100220000D01*
G75*
G02*
X72175000Y-100095000I125000J0D01*
G01*
X72700000Y-100095000D01*
G75*
G02*
X72825000Y-100220000I0J-125000D01*
G01*
X72825000Y-100470000D01*
G75*
G02*
X72700000Y-100595000I-125000J0D01*
G01*
X72175000Y-100595000D01*
G75*
G02*
X72050000Y-100470000I0J125000D01*
G01*
G37*
G36*
G01*
X72050000Y-101740000D02*
X72050000Y-101490000D01*
G75*
G02*
X72175000Y-101365000I125000J0D01*
G01*
X72700000Y-101365000D01*
G75*
G02*
X72825000Y-101490000I0J-125000D01*
G01*
X72825000Y-101740000D01*
G75*
G02*
X72700000Y-101865000I-125000J0D01*
G01*
X72175000Y-101865000D01*
G75*
G02*
X72050000Y-101740000I0J125000D01*
G01*
G37*
G36*
G01*
X77375000Y-101740000D02*
X77375000Y-101490000D01*
G75*
G02*
X77500000Y-101365000I125000J0D01*
G01*
X78025000Y-101365000D01*
G75*
G02*
X78150000Y-101490000I0J-125000D01*
G01*
X78150000Y-101740000D01*
G75*
G02*
X78025000Y-101865000I-125000J0D01*
G01*
X77500000Y-101865000D01*
G75*
G02*
X77375000Y-101740000I0J125000D01*
G01*
G37*
G36*
G01*
X77375000Y-100470000D02*
X77375000Y-100220000D01*
G75*
G02*
X77500000Y-100095000I125000J0D01*
G01*
X78025000Y-100095000D01*
G75*
G02*
X78150000Y-100220000I0J-125000D01*
G01*
X78150000Y-100470000D01*
G75*
G02*
X78025000Y-100595000I-125000J0D01*
G01*
X77500000Y-100595000D01*
G75*
G02*
X77375000Y-100470000I0J125000D01*
G01*
G37*
G36*
G01*
X77375000Y-99200000D02*
X77375000Y-98950000D01*
G75*
G02*
X77500000Y-98825000I125000J0D01*
G01*
X78025000Y-98825000D01*
G75*
G02*
X78150000Y-98950000I0J-125000D01*
G01*
X78150000Y-99200000D01*
G75*
G02*
X78025000Y-99325000I-125000J0D01*
G01*
X77500000Y-99325000D01*
G75*
G02*
X77375000Y-99200000I0J125000D01*
G01*
G37*
G36*
G01*
X77375000Y-97930000D02*
X77375000Y-97680000D01*
G75*
G02*
X77500000Y-97555000I125000J0D01*
G01*
X78025000Y-97555000D01*
G75*
G02*
X78150000Y-97680000I0J-125000D01*
G01*
X78150000Y-97930000D01*
G75*
G02*
X78025000Y-98055000I-125000J0D01*
G01*
X77500000Y-98055000D01*
G75*
G02*
X77375000Y-97930000I0J125000D01*
G01*
G37*
G36*
G01*
X73565000Y-99265005D02*
X73565000Y-98154995D01*
G75*
G02*
X73814995Y-97905000I249995J0D01*
G01*
X74685005Y-97905000D01*
G75*
G02*
X74935000Y-98154995I0J-249995D01*
G01*
X74935000Y-99265005D01*
G75*
G02*
X74685005Y-99515000I-249995J0D01*
G01*
X73814995Y-99515000D01*
G75*
G02*
X73565000Y-99265005I0J249995D01*
G01*
G37*
G36*
G01*
X73565000Y-101265005D02*
X73565000Y-100154995D01*
G75*
G02*
X73814995Y-99905000I249995J0D01*
G01*
X74685005Y-99905000D01*
G75*
G02*
X74935000Y-100154995I0J-249995D01*
G01*
X74935000Y-101265005D01*
G75*
G02*
X74685005Y-101515000I-249995J0D01*
G01*
X73814995Y-101515000D01*
G75*
G02*
X73565000Y-101265005I0J249995D01*
G01*
G37*
G36*
G01*
X75265000Y-99265005D02*
X75265000Y-98154995D01*
G75*
G02*
X75514995Y-97905000I249995J0D01*
G01*
X76385005Y-97905000D01*
G75*
G02*
X76635000Y-98154995I0J-249995D01*
G01*
X76635000Y-99265005D01*
G75*
G02*
X76385005Y-99515000I-249995J0D01*
G01*
X75514995Y-99515000D01*
G75*
G02*
X75265000Y-99265005I0J249995D01*
G01*
G37*
G36*
G01*
X75265000Y-101265005D02*
X75265000Y-100154995D01*
G75*
G02*
X75514995Y-99905000I249995J0D01*
G01*
X76385005Y-99905000D01*
G75*
G02*
X76635000Y-100154995I0J-249995D01*
G01*
X76635000Y-101265005D01*
G75*
G02*
X76385005Y-101515000I-249995J0D01*
G01*
X75514995Y-101515000D01*
G75*
G02*
X75265000Y-101265005I0J249995D01*
G01*
G37*
D12*
X80050000Y-97210000D03*
X80050000Y-98310000D03*
X80050000Y-99410000D03*
X80050000Y-100510000D03*
X80050000Y-101610000D03*
X80050000Y-102710000D03*
X80050000Y-103810000D03*
X80050000Y-104910000D03*
X80050000Y-106010000D03*
X89750000Y-106010000D03*
X89750000Y-104910000D03*
X89750000Y-103810000D03*
X89750000Y-102710000D03*
X89750000Y-101610000D03*
X89750000Y-100510000D03*
X89750000Y-99410000D03*
X89750000Y-98310000D03*
X89750000Y-97210000D03*
D13*
X98350000Y-91180000D03*
X98350000Y-96180000D03*
D14*
X101050000Y-90180000D03*
X101050000Y-97180000D03*
D15*
X98350000Y-94980000D03*
X98350000Y-94330000D03*
X98350000Y-93680000D03*
X98350000Y-93030000D03*
X98350000Y-92380000D03*
G36*
G01*
X76265000Y-83670000D02*
X76635000Y-83670000D01*
G75*
G02*
X76770000Y-83805000I0J-135000D01*
G01*
X76770000Y-84075000D01*
G75*
G02*
X76635000Y-84210000I-135000J0D01*
G01*
X76265000Y-84210000D01*
G75*
G02*
X76130000Y-84075000I0J135000D01*
G01*
X76130000Y-83805000D01*
G75*
G02*
X76265000Y-83670000I135000J0D01*
G01*
G37*
G36*
G01*
X76265000Y-82650000D02*
X76635000Y-82650000D01*
G75*
G02*
X76770000Y-82785000I0J-135000D01*
G01*
X76770000Y-83055000D01*
G75*
G02*
X76635000Y-83190000I-135000J0D01*
G01*
X76265000Y-83190000D01*
G75*
G02*
X76130000Y-83055000I0J135000D01*
G01*
X76130000Y-82785000D01*
G75*
G02*
X76265000Y-82650000I135000J0D01*
G01*
G37*
G36*
G01*
X101755000Y-88070000D02*
X102125000Y-88070000D01*
G75*
G02*
X102260000Y-88205000I0J-135000D01*
G01*
X102260000Y-88475000D01*
G75*
G02*
X102125000Y-88610000I-135000J0D01*
G01*
X101755000Y-88610000D01*
G75*
G02*
X101620000Y-88475000I0J135000D01*
G01*
X101620000Y-88205000D01*
G75*
G02*
X101755000Y-88070000I135000J0D01*
G01*
G37*
G36*
G01*
X101755000Y-87050000D02*
X102125000Y-87050000D01*
G75*
G02*
X102260000Y-87185000I0J-135000D01*
G01*
X102260000Y-87455000D01*
G75*
G02*
X102125000Y-87590000I-135000J0D01*
G01*
X101755000Y-87590000D01*
G75*
G02*
X101620000Y-87455000I0J135000D01*
G01*
X101620000Y-87185000D01*
G75*
G02*
X101755000Y-87050000I135000J0D01*
G01*
G37*
G36*
G01*
X97990000Y-103225000D02*
X97990000Y-102855000D01*
G75*
G02*
X98125000Y-102720000I135000J0D01*
G01*
X98395000Y-102720000D01*
G75*
G02*
X98530000Y-102855000I0J-135000D01*
G01*
X98530000Y-103225000D01*
G75*
G02*
X98395000Y-103360000I-135000J0D01*
G01*
X98125000Y-103360000D01*
G75*
G02*
X97990000Y-103225000I0J135000D01*
G01*
G37*
G36*
G01*
X96970000Y-103225000D02*
X96970000Y-102855000D01*
G75*
G02*
X97105000Y-102720000I135000J0D01*
G01*
X97375000Y-102720000D01*
G75*
G02*
X97510000Y-102855000I0J-135000D01*
G01*
X97510000Y-103225000D01*
G75*
G02*
X97375000Y-103360000I-135000J0D01*
G01*
X97105000Y-103360000D01*
G75*
G02*
X96970000Y-103225000I0J135000D01*
G01*
G37*
G36*
G01*
X97780000Y-98525000D02*
X97780000Y-98895000D01*
G75*
G02*
X97645000Y-99030000I-135000J0D01*
G01*
X97375000Y-99030000D01*
G75*
G02*
X97240000Y-98895000I0J135000D01*
G01*
X97240000Y-98525000D01*
G75*
G02*
X97375000Y-98390000I135000J0D01*
G01*
X97645000Y-98390000D01*
G75*
G02*
X97780000Y-98525000I0J-135000D01*
G01*
G37*
G36*
G01*
X98800000Y-98525000D02*
X98800000Y-98895000D01*
G75*
G02*
X98665000Y-99030000I-135000J0D01*
G01*
X98395000Y-99030000D01*
G75*
G02*
X98260000Y-98895000I0J135000D01*
G01*
X98260000Y-98525000D01*
G75*
G02*
X98395000Y-98390000I135000J0D01*
G01*
X98665000Y-98390000D01*
G75*
G02*
X98800000Y-98525000I0J-135000D01*
G01*
G37*
G36*
G01*
X99685000Y-87590000D02*
X99315000Y-87590000D01*
G75*
G02*
X99180000Y-87455000I0J135000D01*
G01*
X99180000Y-87185000D01*
G75*
G02*
X99315000Y-87050000I135000J0D01*
G01*
X99685000Y-87050000D01*
G75*
G02*
X99820000Y-87185000I0J-135000D01*
G01*
X99820000Y-87455000D01*
G75*
G02*
X99685000Y-87590000I-135000J0D01*
G01*
G37*
G36*
G01*
X99685000Y-88610000D02*
X99315000Y-88610000D01*
G75*
G02*
X99180000Y-88475000I0J135000D01*
G01*
X99180000Y-88205000D01*
G75*
G02*
X99315000Y-88070000I135000J0D01*
G01*
X99685000Y-88070000D01*
G75*
G02*
X99820000Y-88205000I0J-135000D01*
G01*
X99820000Y-88475000D01*
G75*
G02*
X99685000Y-88610000I-135000J0D01*
G01*
G37*
G36*
G01*
X100585000Y-87590000D02*
X100215000Y-87590000D01*
G75*
G02*
X100080000Y-87455000I0J135000D01*
G01*
X100080000Y-87185000D01*
G75*
G02*
X100215000Y-87050000I135000J0D01*
G01*
X100585000Y-87050000D01*
G75*
G02*
X100720000Y-87185000I0J-135000D01*
G01*
X100720000Y-87455000D01*
G75*
G02*
X100585000Y-87590000I-135000J0D01*
G01*
G37*
G36*
G01*
X100585000Y-88610000D02*
X100215000Y-88610000D01*
G75*
G02*
X100080000Y-88475000I0J135000D01*
G01*
X100080000Y-88205000D01*
G75*
G02*
X100215000Y-88070000I135000J0D01*
G01*
X100585000Y-88070000D01*
G75*
G02*
X100720000Y-88205000I0J-135000D01*
G01*
X100720000Y-88475000D01*
G75*
G02*
X100585000Y-88610000I-135000J0D01*
G01*
G37*
G36*
G01*
X72940000Y-109495000D02*
X72940000Y-109125000D01*
G75*
G02*
X73075000Y-108990000I135000J0D01*
G01*
X73345000Y-108990000D01*
G75*
G02*
X73480000Y-109125000I0J-135000D01*
G01*
X73480000Y-109495000D01*
G75*
G02*
X73345000Y-109630000I-135000J0D01*
G01*
X73075000Y-109630000D01*
G75*
G02*
X72940000Y-109495000I0J135000D01*
G01*
G37*
G36*
G01*
X71920000Y-109495000D02*
X71920000Y-109125000D01*
G75*
G02*
X72055000Y-108990000I135000J0D01*
G01*
X72325000Y-108990000D01*
G75*
G02*
X72460000Y-109125000I0J-135000D01*
G01*
X72460000Y-109495000D01*
G75*
G02*
X72325000Y-109630000I-135000J0D01*
G01*
X72055000Y-109630000D01*
G75*
G02*
X71920000Y-109495000I0J135000D01*
G01*
G37*
G36*
G01*
X93795000Y-109140000D02*
X93425000Y-109140000D01*
G75*
G02*
X93290000Y-109005000I0J135000D01*
G01*
X93290000Y-108735000D01*
G75*
G02*
X93425000Y-108600000I135000J0D01*
G01*
X93795000Y-108600000D01*
G75*
G02*
X93930000Y-108735000I0J-135000D01*
G01*
X93930000Y-109005000D01*
G75*
G02*
X93795000Y-109140000I-135000J0D01*
G01*
G37*
G36*
G01*
X93795000Y-110160000D02*
X93425000Y-110160000D01*
G75*
G02*
X93290000Y-110025000I0J135000D01*
G01*
X93290000Y-109755000D01*
G75*
G02*
X93425000Y-109620000I135000J0D01*
G01*
X93795000Y-109620000D01*
G75*
G02*
X93930000Y-109755000I0J-135000D01*
G01*
X93930000Y-110025000D01*
G75*
G02*
X93795000Y-110160000I-135000J0D01*
G01*
G37*
G36*
G01*
X76140000Y-85195000D02*
X76140000Y-84825000D01*
G75*
G02*
X76275000Y-84690000I135000J0D01*
G01*
X76545000Y-84690000D01*
G75*
G02*
X76680000Y-84825000I0J-135000D01*
G01*
X76680000Y-85195000D01*
G75*
G02*
X76545000Y-85330000I-135000J0D01*
G01*
X76275000Y-85330000D01*
G75*
G02*
X76140000Y-85195000I0J135000D01*
G01*
G37*
G36*
G01*
X75120000Y-85195000D02*
X75120000Y-84825000D01*
G75*
G02*
X75255000Y-84690000I135000J0D01*
G01*
X75525000Y-84690000D01*
G75*
G02*
X75660000Y-84825000I0J-135000D01*
G01*
X75660000Y-85195000D01*
G75*
G02*
X75525000Y-85330000I-135000J0D01*
G01*
X75255000Y-85330000D01*
G75*
G02*
X75120000Y-85195000I0J135000D01*
G01*
G37*
G36*
G01*
X75205000Y-83670000D02*
X75575000Y-83670000D01*
G75*
G02*
X75710000Y-83805000I0J-135000D01*
G01*
X75710000Y-84075000D01*
G75*
G02*
X75575000Y-84210000I-135000J0D01*
G01*
X75205000Y-84210000D01*
G75*
G02*
X75070000Y-84075000I0J135000D01*
G01*
X75070000Y-83805000D01*
G75*
G02*
X75205000Y-83670000I135000J0D01*
G01*
G37*
G36*
G01*
X75205000Y-82650000D02*
X75575000Y-82650000D01*
G75*
G02*
X75710000Y-82785000I0J-135000D01*
G01*
X75710000Y-83055000D01*
G75*
G02*
X75575000Y-83190000I-135000J0D01*
G01*
X75205000Y-83190000D01*
G75*
G02*
X75070000Y-83055000I0J135000D01*
G01*
X75070000Y-82785000D01*
G75*
G02*
X75205000Y-82650000I135000J0D01*
G01*
G37*
G36*
G01*
X72925000Y-96550000D02*
X72925000Y-96180000D01*
G75*
G02*
X73060000Y-96045000I135000J0D01*
G01*
X73330000Y-96045000D01*
G75*
G02*
X73465000Y-96180000I0J-135000D01*
G01*
X73465000Y-96550000D01*
G75*
G02*
X73330000Y-96685000I-135000J0D01*
G01*
X73060000Y-96685000D01*
G75*
G02*
X72925000Y-96550000I0J135000D01*
G01*
G37*
G36*
G01*
X71905000Y-96550000D02*
X71905000Y-96180000D01*
G75*
G02*
X72040000Y-96045000I135000J0D01*
G01*
X72310000Y-96045000D01*
G75*
G02*
X72445000Y-96180000I0J-135000D01*
G01*
X72445000Y-96550000D01*
G75*
G02*
X72310000Y-96685000I-135000J0D01*
G01*
X72040000Y-96685000D01*
G75*
G02*
X71905000Y-96550000I0J135000D01*
G01*
G37*
G36*
G01*
X100860000Y-82625000D02*
X100860000Y-82995000D01*
G75*
G02*
X100725000Y-83130000I-135000J0D01*
G01*
X100455000Y-83130000D01*
G75*
G02*
X100320000Y-82995000I0J135000D01*
G01*
X100320000Y-82625000D01*
G75*
G02*
X100455000Y-82490000I135000J0D01*
G01*
X100725000Y-82490000D01*
G75*
G02*
X100860000Y-82625000I0J-135000D01*
G01*
G37*
G36*
G01*
X101880000Y-82625000D02*
X101880000Y-82995000D01*
G75*
G02*
X101745000Y-83130000I-135000J0D01*
G01*
X101475000Y-83130000D01*
G75*
G02*
X101340000Y-82995000I0J135000D01*
G01*
X101340000Y-82625000D01*
G75*
G02*
X101475000Y-82490000I135000J0D01*
G01*
X101745000Y-82490000D01*
G75*
G02*
X101880000Y-82625000I0J-135000D01*
G01*
G37*
G36*
G01*
X89758000Y-81696000D02*
X89758000Y-82066000D01*
G75*
G02*
X89623000Y-82201000I-135000J0D01*
G01*
X89353000Y-82201000D01*
G75*
G02*
X89218000Y-82066000I0J135000D01*
G01*
X89218000Y-81696000D01*
G75*
G02*
X89353000Y-81561000I135000J0D01*
G01*
X89623000Y-81561000D01*
G75*
G02*
X89758000Y-81696000I0J-135000D01*
G01*
G37*
G36*
G01*
X90778000Y-81696000D02*
X90778000Y-82066000D01*
G75*
G02*
X90643000Y-82201000I-135000J0D01*
G01*
X90373000Y-82201000D01*
G75*
G02*
X90238000Y-82066000I0J135000D01*
G01*
X90238000Y-81696000D01*
G75*
G02*
X90373000Y-81561000I135000J0D01*
G01*
X90643000Y-81561000D01*
G75*
G02*
X90778000Y-81696000I0J-135000D01*
G01*
G37*
G36*
G01*
X90935000Y-80940000D02*
X90935000Y-80570000D01*
G75*
G02*
X91070000Y-80435000I135000J0D01*
G01*
X91340000Y-80435000D01*
G75*
G02*
X91475000Y-80570000I0J-135000D01*
G01*
X91475000Y-80940000D01*
G75*
G02*
X91340000Y-81075000I-135000J0D01*
G01*
X91070000Y-81075000D01*
G75*
G02*
X90935000Y-80940000I0J135000D01*
G01*
G37*
G36*
G01*
X89915000Y-80940000D02*
X89915000Y-80570000D01*
G75*
G02*
X90050000Y-80435000I135000J0D01*
G01*
X90320000Y-80435000D01*
G75*
G02*
X90455000Y-80570000I0J-135000D01*
G01*
X90455000Y-80940000D01*
G75*
G02*
X90320000Y-81075000I-135000J0D01*
G01*
X90050000Y-81075000D01*
G75*
G02*
X89915000Y-80940000I0J135000D01*
G01*
G37*
G36*
G01*
X85560000Y-81325000D02*
X85560000Y-81695000D01*
G75*
G02*
X85425000Y-81830000I-135000J0D01*
G01*
X85155000Y-81830000D01*
G75*
G02*
X85020000Y-81695000I0J135000D01*
G01*
X85020000Y-81325000D01*
G75*
G02*
X85155000Y-81190000I135000J0D01*
G01*
X85425000Y-81190000D01*
G75*
G02*
X85560000Y-81325000I0J-135000D01*
G01*
G37*
G36*
G01*
X86580000Y-81325000D02*
X86580000Y-81695000D01*
G75*
G02*
X86445000Y-81830000I-135000J0D01*
G01*
X86175000Y-81830000D01*
G75*
G02*
X86040000Y-81695000I0J135000D01*
G01*
X86040000Y-81325000D01*
G75*
G02*
X86175000Y-81190000I135000J0D01*
G01*
X86445000Y-81190000D01*
G75*
G02*
X86580000Y-81325000I0J-135000D01*
G01*
G37*
G36*
G01*
X95650000Y-85735000D02*
X96150000Y-85735000D01*
G75*
G02*
X96375000Y-85960000I0J-225000D01*
G01*
X96375000Y-86410000D01*
G75*
G02*
X96150000Y-86635000I-225000J0D01*
G01*
X95650000Y-86635000D01*
G75*
G02*
X95425000Y-86410000I0J225000D01*
G01*
X95425000Y-85960000D01*
G75*
G02*
X95650000Y-85735000I225000J0D01*
G01*
G37*
G36*
G01*
X95650000Y-84185000D02*
X96150000Y-84185000D01*
G75*
G02*
X96375000Y-84410000I0J-225000D01*
G01*
X96375000Y-84860000D01*
G75*
G02*
X96150000Y-85085000I-225000J0D01*
G01*
X95650000Y-85085000D01*
G75*
G02*
X95425000Y-84860000I0J225000D01*
G01*
X95425000Y-84410000D01*
G75*
G02*
X95650000Y-84185000I225000J0D01*
G01*
G37*
G36*
G01*
X94425000Y-87460000D02*
X94425000Y-86960000D01*
G75*
G02*
X94650000Y-86735000I225000J0D01*
G01*
X95100000Y-86735000D01*
G75*
G02*
X95325000Y-86960000I0J-225000D01*
G01*
X95325000Y-87460000D01*
G75*
G02*
X95100000Y-87685000I-225000J0D01*
G01*
X94650000Y-87685000D01*
G75*
G02*
X94425000Y-87460000I0J225000D01*
G01*
G37*
G36*
G01*
X92875000Y-87460000D02*
X92875000Y-86960000D01*
G75*
G02*
X93100000Y-86735000I225000J0D01*
G01*
X93550000Y-86735000D01*
G75*
G02*
X93775000Y-86960000I0J-225000D01*
G01*
X93775000Y-87460000D01*
G75*
G02*
X93550000Y-87685000I-225000J0D01*
G01*
X93100000Y-87685000D01*
G75*
G02*
X92875000Y-87460000I0J225000D01*
G01*
G37*
G36*
G01*
X100625000Y-103560000D02*
X100625000Y-103060000D01*
G75*
G02*
X100850000Y-102835000I225000J0D01*
G01*
X101300000Y-102835000D01*
G75*
G02*
X101525000Y-103060000I0J-225000D01*
G01*
X101525000Y-103560000D01*
G75*
G02*
X101300000Y-103785000I-225000J0D01*
G01*
X100850000Y-103785000D01*
G75*
G02*
X100625000Y-103560000I0J225000D01*
G01*
G37*
G36*
G01*
X99075000Y-103560000D02*
X99075000Y-103060000D01*
G75*
G02*
X99300000Y-102835000I225000J0D01*
G01*
X99750000Y-102835000D01*
G75*
G02*
X99975000Y-103060000I0J-225000D01*
G01*
X99975000Y-103560000D01*
G75*
G02*
X99750000Y-103785000I-225000J0D01*
G01*
X99300000Y-103785000D01*
G75*
G02*
X99075000Y-103560000I0J225000D01*
G01*
G37*
G36*
G01*
X80815000Y-107660000D02*
X80815000Y-107160000D01*
G75*
G02*
X81040000Y-106935000I225000J0D01*
G01*
X81490000Y-106935000D01*
G75*
G02*
X81715000Y-107160000I0J-225000D01*
G01*
X81715000Y-107660000D01*
G75*
G02*
X81490000Y-107885000I-225000J0D01*
G01*
X81040000Y-107885000D01*
G75*
G02*
X80815000Y-107660000I0J225000D01*
G01*
G37*
G36*
G01*
X79265000Y-107660000D02*
X79265000Y-107160000D01*
G75*
G02*
X79490000Y-106935000I225000J0D01*
G01*
X79940000Y-106935000D01*
G75*
G02*
X80165000Y-107160000I0J-225000D01*
G01*
X80165000Y-107660000D01*
G75*
G02*
X79940000Y-107885000I-225000J0D01*
G01*
X79490000Y-107885000D01*
G75*
G02*
X79265000Y-107660000I0J225000D01*
G01*
G37*
G36*
G01*
X80815000Y-109230000D02*
X80815000Y-108730000D01*
G75*
G02*
X81040000Y-108505000I225000J0D01*
G01*
X81490000Y-108505000D01*
G75*
G02*
X81715000Y-108730000I0J-225000D01*
G01*
X81715000Y-109230000D01*
G75*
G02*
X81490000Y-109455000I-225000J0D01*
G01*
X81040000Y-109455000D01*
G75*
G02*
X80815000Y-109230000I0J225000D01*
G01*
G37*
G36*
G01*
X79265000Y-109230000D02*
X79265000Y-108730000D01*
G75*
G02*
X79490000Y-108505000I225000J0D01*
G01*
X79940000Y-108505000D01*
G75*
G02*
X80165000Y-108730000I0J-225000D01*
G01*
X80165000Y-109230000D01*
G75*
G02*
X79940000Y-109455000I-225000J0D01*
G01*
X79490000Y-109455000D01*
G75*
G02*
X79265000Y-109230000I0J225000D01*
G01*
G37*
G36*
G01*
X92040000Y-109155000D02*
X92540000Y-109155000D01*
G75*
G02*
X92765000Y-109380000I0J-225000D01*
G01*
X92765000Y-109830000D01*
G75*
G02*
X92540000Y-110055000I-225000J0D01*
G01*
X92040000Y-110055000D01*
G75*
G02*
X91815000Y-109830000I0J225000D01*
G01*
X91815000Y-109380000D01*
G75*
G02*
X92040000Y-109155000I225000J0D01*
G01*
G37*
G36*
G01*
X92040000Y-107605000D02*
X92540000Y-107605000D01*
G75*
G02*
X92765000Y-107830000I0J-225000D01*
G01*
X92765000Y-108280000D01*
G75*
G02*
X92540000Y-108505000I-225000J0D01*
G01*
X92040000Y-108505000D01*
G75*
G02*
X91815000Y-108280000I0J225000D01*
G01*
X91815000Y-107830000D01*
G75*
G02*
X92040000Y-107605000I225000J0D01*
G01*
G37*
D16*
X100578000Y-110161000D03*
D17*
X99600100Y-110911001D03*
X99600100Y-110411000D03*
X99600100Y-109911000D03*
X99600100Y-109410999D03*
X101555900Y-109410999D03*
X101555900Y-109911000D03*
X101555900Y-110411000D03*
X101555900Y-110911001D03*
D18*
X84600000Y-107986000D03*
X85100000Y-107986000D03*
X85600000Y-107986000D03*
X86100000Y-107986000D03*
X86600000Y-107986000D03*
X87100000Y-107986000D03*
X87600000Y-107986000D03*
X88100000Y-107986000D03*
X88600000Y-107986000D03*
X89100000Y-107986000D03*
D19*
X83675000Y-110061000D03*
X90025000Y-110061000D03*
D20*
X97890000Y-107825000D03*
X94810000Y-107825000D03*
D21*
X97100000Y-105175000D03*
X96600000Y-105175000D03*
X96100000Y-105175000D03*
X95600000Y-105175000D03*
D22*
X80800000Y-83410000D03*
X80800000Y-84210000D03*
X80800000Y-85010000D03*
X80800000Y-85810000D03*
X80800000Y-86610000D03*
X78600000Y-86610000D03*
X78600000Y-85810000D03*
X78600000Y-85010000D03*
X78600000Y-84210000D03*
X78600000Y-83410000D03*
D23*
X100025000Y-76935000D03*
X100675000Y-76935000D03*
X101325000Y-76935000D03*
X101975000Y-76935000D03*
X101975000Y-74885000D03*
X101325000Y-74885000D03*
X100675000Y-74885000D03*
X100025000Y-74885000D03*
D24*
X92774500Y-84159999D03*
X92774500Y-84660000D03*
X92774500Y-85160000D03*
X92774500Y-85660001D03*
D25*
X93350000Y-85735500D03*
X93850000Y-85735500D03*
D24*
X94425500Y-85660001D03*
X94425500Y-85160000D03*
X94425500Y-84660000D03*
X94425500Y-84159999D03*
D25*
X93850000Y-84084500D03*
X93350000Y-84084500D03*
G36*
G01*
X74185000Y-78650000D02*
X74185000Y-78150000D01*
G75*
G02*
X74410000Y-77925000I225000J0D01*
G01*
X74860000Y-77925000D01*
G75*
G02*
X75085000Y-78150000I0J-225000D01*
G01*
X75085000Y-78650000D01*
G75*
G02*
X74860000Y-78875000I-225000J0D01*
G01*
X74410000Y-78875000D01*
G75*
G02*
X74185000Y-78650000I0J225000D01*
G01*
G37*
G36*
G01*
X72635000Y-78650000D02*
X72635000Y-78150000D01*
G75*
G02*
X72860000Y-77925000I225000J0D01*
G01*
X73310000Y-77925000D01*
G75*
G02*
X73535000Y-78150000I0J-225000D01*
G01*
X73535000Y-78650000D01*
G75*
G02*
X73310000Y-78875000I-225000J0D01*
G01*
X72860000Y-78875000D01*
G75*
G02*
X72635000Y-78650000I0J225000D01*
G01*
G37*
G36*
G01*
X90735000Y-92940000D02*
X90735000Y-92440000D01*
G75*
G02*
X90960000Y-92215000I225000J0D01*
G01*
X91410000Y-92215000D01*
G75*
G02*
X91635000Y-92440000I0J-225000D01*
G01*
X91635000Y-92940000D01*
G75*
G02*
X91410000Y-93165000I-225000J0D01*
G01*
X90960000Y-93165000D01*
G75*
G02*
X90735000Y-92940000I0J225000D01*
G01*
G37*
G36*
G01*
X89185000Y-92940000D02*
X89185000Y-92440000D01*
G75*
G02*
X89410000Y-92215000I225000J0D01*
G01*
X89860000Y-92215000D01*
G75*
G02*
X90085000Y-92440000I0J-225000D01*
G01*
X90085000Y-92940000D01*
G75*
G02*
X89860000Y-93165000I-225000J0D01*
G01*
X89410000Y-93165000D01*
G75*
G02*
X89185000Y-92940000I0J225000D01*
G01*
G37*
G36*
G01*
X84350000Y-80085000D02*
X83850000Y-80085000D01*
G75*
G02*
X83625000Y-79860000I0J225000D01*
G01*
X83625000Y-79410000D01*
G75*
G02*
X83850000Y-79185000I225000J0D01*
G01*
X84350000Y-79185000D01*
G75*
G02*
X84575000Y-79410000I0J-225000D01*
G01*
X84575000Y-79860000D01*
G75*
G02*
X84350000Y-80085000I-225000J0D01*
G01*
G37*
G36*
G01*
X84350000Y-81635000D02*
X83850000Y-81635000D01*
G75*
G02*
X83625000Y-81410000I0J225000D01*
G01*
X83625000Y-80960000D01*
G75*
G02*
X83850000Y-80735000I225000J0D01*
G01*
X84350000Y-80735000D01*
G75*
G02*
X84575000Y-80960000I0J-225000D01*
G01*
X84575000Y-81410000D01*
G75*
G02*
X84350000Y-81635000I-225000J0D01*
G01*
G37*
D26*
X79710000Y-81982500D03*
X79210000Y-81982500D03*
X79210000Y-80457500D03*
X79710000Y-80457500D03*
D27*
X78697500Y-81970000D03*
X80222500Y-81970000D03*
X78697500Y-80470000D03*
X80222500Y-80470000D03*
X78697500Y-80970000D03*
X78697500Y-81470000D03*
X80222500Y-80970000D03*
X80222500Y-81470000D03*
D28*
X96275000Y-82710000D03*
X97525000Y-82710000D03*
D29*
X100075000Y-79860000D03*
X93743000Y-79860000D03*
D30*
X93810000Y-91080000D03*
X93810000Y-92380000D03*
X95110000Y-91080000D03*
X95110000Y-92380000D03*
D31*
X93210000Y-89780000D03*
X93710000Y-89780000D03*
X94210000Y-89780000D03*
X94710000Y-89780000D03*
X95210000Y-89780000D03*
X95710000Y-89780000D03*
D32*
X96410000Y-90480000D03*
X96410000Y-90980000D03*
X96410000Y-91480000D03*
X96410000Y-91980000D03*
X96410000Y-92480000D03*
X96410000Y-92980000D03*
D31*
X95710000Y-93680000D03*
X95210000Y-93680000D03*
X94710000Y-93680000D03*
X94210000Y-93680000D03*
X93710000Y-93680000D03*
X93210000Y-93680000D03*
D32*
X92510000Y-92980000D03*
X92510000Y-92480000D03*
X92510000Y-91980000D03*
X92510000Y-91480000D03*
X92510000Y-90980000D03*
X92510000Y-90480000D03*
D33*
X85593000Y-80042000D03*
X87593000Y-80042000D03*
D34*
X95970000Y-95180000D03*
X95970000Y-98480000D03*
D35*
X101740000Y-84780000D03*
X101740000Y-86380000D03*
D36*
X73610000Y-82805000D03*
X73610000Y-80005000D03*
D37*
X98100000Y-99880000D03*
X96200000Y-99880000D03*
X97150000Y-101880000D03*
D38*
X77510000Y-81750000D03*
X77510000Y-79850000D03*
X75510000Y-80800000D03*
D39*
X88405000Y-84520000D03*
X87117500Y-84520000D03*
X85830000Y-84520000D03*
X84542500Y-84520000D03*
X88405000Y-85807500D03*
X87117500Y-85807500D03*
X85830000Y-85807500D03*
X84542500Y-85807500D03*
X88405000Y-87095000D03*
X87117500Y-87095000D03*
X85830000Y-87095000D03*
X84542500Y-87095000D03*
X88405000Y-88382500D03*
X87117500Y-88382500D03*
X85830000Y-88382500D03*
X84542500Y-88382500D03*
D40*
X89873750Y-83701250D03*
X89873750Y-84201250D03*
X89873750Y-84701250D03*
X89873750Y-85201250D03*
X89873750Y-85701250D03*
X89873750Y-86201250D03*
X89873750Y-86701250D03*
X89873750Y-87201250D03*
X89873750Y-87701250D03*
X89873750Y-88201250D03*
X89873750Y-88701250D03*
X89873750Y-89201250D03*
D41*
X89223750Y-89851250D03*
X88723750Y-89851250D03*
X88223750Y-89851250D03*
X87723750Y-89851250D03*
X87223750Y-89851250D03*
X86723750Y-89851250D03*
X86223750Y-89851250D03*
X85723750Y-89851250D03*
X85223750Y-89851250D03*
X84723750Y-89851250D03*
X84223750Y-89851250D03*
X83723750Y-89851250D03*
D40*
X83073750Y-89201250D03*
X83073750Y-88701250D03*
X83073750Y-88201250D03*
X83073750Y-87701250D03*
X83073750Y-87201250D03*
X83073750Y-86701250D03*
X83073750Y-86201250D03*
X83073750Y-85701250D03*
X83073750Y-85201250D03*
X83073750Y-84701250D03*
X83073750Y-84201250D03*
X83073750Y-83701250D03*
D41*
X83723750Y-83051250D03*
X84223750Y-83051250D03*
X84723750Y-83051250D03*
X85223750Y-83051250D03*
X85723750Y-83051250D03*
X86223750Y-83051250D03*
X86723750Y-83051250D03*
X87223750Y-83051250D03*
X87723750Y-83051250D03*
X88223750Y-83051250D03*
X88723750Y-83051250D03*
X89223750Y-83051250D03*
D42*
X94310000Y-95130000D03*
X93360000Y-95130000D03*
X92410000Y-95130000D03*
X92410000Y-97330000D03*
X94310000Y-97330000D03*
X101650000Y-101280000D03*
X99750000Y-101280000D03*
X99750000Y-99080000D03*
X100700000Y-99080000D03*
X101650000Y-99080000D03*
D43*
X89060000Y-95290000D03*
X89060000Y-93990000D03*
X90960000Y-94640000D03*
X89060000Y-94640000D03*
X90960000Y-93990000D03*
X90960000Y-95290000D03*
D44*
X74274000Y-85266000D03*
D45*
X72274000Y-85266000D03*
D46*
X88725000Y-79430000D03*
D47*
X90825000Y-79430000D03*
M02*
